<?xml version="1.0" encoding="UTF-8"?>
<svg id="_レイヤー_1" data-name="レイヤー 1" xmlns="http://www.w3.org/2000/svg" viewBox="0 0 50 50">
  <defs>
    <style>
      .cls-1 {
        fill: #010101;
      }

      .cls-2 {
        fill: #010000;
      }

      .cls-3 {
        fill: #040504;
      }

      .cls-4 {
        fill: #030102;
      }

      .cls-5 {
        fill: #020202;
      }

      .cls-6 {
        fill: #020100;
      }

      .cls-7 {
        fill: #010100;
      }
    </style>
  </defs>
  <g>
    <path d="M2.17,36.31h.95v2.8c1.63.6,2.97,1.21,4.04,1.84l-.46,1.05c-1.02-.62-2.22-1.21-3.58-1.77v4.96h-.95v-8.88Z"/>
    <path d="M9.05,39.13h6.8c-.12,1.42-.37,2.53-.74,3.33-.28.6-.64,1.08-1.06,1.44-.72.61-1.76,1.03-3.14,1.26l-.41-.99c1.21-.14,2.14-.47,2.78-1,.83-.67,1.31-1.69,1.43-3.04h-5.66v-1ZM9.64,36.74h5.39v1h-5.39v-1Z"/>
    <path d="M20.37,38.96c-.86-.46-1.75-.83-2.68-1.1l.29-1.05c1.08.29,1.98.66,2.71,1.09l-.31,1.06ZM17.79,43.82c1.35-.14,2.38-.42,3.1-.86.84-.52,1.49-1.32,1.94-2.4.29-.7.53-1.61.71-2.73l.79.69c-.22,1.2-.49,2.16-.8,2.87-.57,1.29-1.43,2.23-2.6,2.81-.74.36-1.72.62-2.95.78l-.19-1.15Z"/>
    <path d="M25.42,42.81c.98-1.52,1.81-3.25,2.48-5.18h1c1,2.04,2.33,4.06,4.01,6.06l-.58.96c-1.37-1.61-2.67-3.56-3.9-5.86h-.03c-.74,1.99-1.49,3.59-2.25,4.8l-.73-.78ZM31.63,36.79c.18,0,.36.06.52.18.16.11.29.27.38.48.08.18.12.37.12.57,0,.32-.1.6-.29.84-.2.26-.45.39-.75.39-.15,0-.29-.04-.42-.11-.17-.09-.31-.23-.41-.42-.12-.21-.19-.45-.19-.71,0-.2.04-.39.13-.58.08-.19.2-.33.34-.45.17-.13.36-.2.57-.2ZM31.63,37.39c-.1,0-.2.03-.29.1-.16.12-.24.3-.24.53,0,.17.05.31.14.43.1.13.23.2.38.2.09,0,.17-.02.24-.07.19-.12.29-.3.29-.56,0-.18-.05-.33-.16-.45-.1-.12-.22-.18-.37-.18Z"/>
    <path d="M35.33,41.65c-.2-1-.46-1.93-.8-2.78l.78-.45c.35.85.63,1.8.85,2.85l-.83.38ZM35.95,44.25c.91-.29,1.6-.68,2.08-1.17s.84-1.2,1.1-2.13c.2-.74.34-1.68.43-2.84l.87.31c-.16,1.53-.39,2.7-.68,3.51-.35,1-.88,1.76-1.59,2.3-.45.34-1.02.65-1.72.92l-.48-.9ZM37.22,41.21c-.15-.8-.4-1.72-.75-2.77l.8-.4c.31.82.58,1.76.78,2.8l-.84.37Z"/>
    <path d="M44.01,36.31h.95v2.8c1.63.6,2.97,1.21,4.04,1.84l-.46,1.05c-1.02-.62-2.22-1.21-3.58-1.77v4.96h-.95v-8.88Z"/>
  </g>
  <g>
    <path class="cls-5" d="M43.06,14.02c.44.39.38,1,.41,1.53.04,3.15.03,6.3-.03,9.45-.02.39,0,1.24-.63.84-.12-3.08.09-6.18,0-9.27.02-.85-.15-1.76.25-2.55h0Z"/>
    <path class="cls-3" d="M37.41,18.55c1.99-.56,3.86-1.65,5.04-3.38.1,3.2.06,6.41-.04,9.61-1.84-2.44-4.97-3.34-7.89-3.64-3.8-.57-7.65-.19-11.47-.43-3.76-.03-7.52-.1-11.27.02-1.09,0-2.22-.07-3.23.42.04-.63.08-1.25.12-1.87.56.23,1.16.39,1.77.37,4.97.03,9.93-.02,14.9-.01,4.03-.18,8.14.05,12.06-1.07h0Z"/>
    <path class="cls-1" d="M24.79,18.23c.11-.6.87-.4,1.28-.32-.16.47-.02,1.29-.7,1.31-.43-.07-.49-.64-.59-.99h0Z"/>
    <path class="cls-2" d="M31.93,21.15c.84-.01,1.78.28,2.15,1.11.93,1.54.06,3.93-1.81,4.18-2.02.18-4.07.04-6.1.07,0-.23,0-.7.01-.93,1.68-.26,3.48.28,5.09-.39-.36-.24-.8-.25-1.21-.22-1.28.08-2.57.03-3.85.12.01-.32-.27-.74.06-.96.88-.17,1.78-.04,2.67-.13-.16-.74-.11-1.51,0-2.25-.78-.04-1.55-.02-2.33-.06-.04-.08-.12-.24-.16-.31.03-.05.08-.16.11-.22,1.8-.07,3.59-.03,5.39,0M29.23,21.74c.04.71,0,1.42.08,2.12.73.26,1.64-.11,2.32.4.44.33.35.91.39,1.39.48-.28,1.06-.5,1.27-1.06.54-1-.02-2.41-1.13-2.69-.96-.24-1.95-.18-2.92-.15h0Z"/>
    <path class="cls-4" d="M22.92,18.11c.28-.43.83-.28,1.25-.22.06.5,0,1.22-.59,1.35-.51-.07-.78-.68-.65-1.13h0Z"/>
    <path class="cls-5" d="M20.92,17.95c.44-.14.9-.16,1.36-.1.02.53.07,1.44-.7,1.44-.62-.1-.51-.88-.66-1.33h0Z"/>
    <path class="cls-7" d="M21.28,20.97c1.53.09,3.06.03,4.58.21l.05.22c-.03,2.29,0,4.59,0,6.88-.36.04-.73.06-1.1.07-.06-1.01-.18-2.02-.11-3.03.04-.35-.09-.68-.21-.99.56-.69.35-1.64.33-2.46.11-.49-.65-.73-.71-.16-.23,1.49.19,2.97.1,4.46-.05.77-.12,1.55-.18,2.32-.34-.09-.79.05-1.04-.24-.06-.52.01-1.04.05-1.56-.45-.21-.44-.67-.42-1.11.13.06.38.18.5.24-.02-.35-.04-.7-.06-1.05-.27-.03-.53-.07-.8-.11.24-.17.49-.34.74-.5-.03-.9,0-1.8.02-2.69-.26.02-.53.04-.79.06.13,2.31-.07,4.62,0,6.93-.4,0-.8,0-1.2-.01.18-2.48-.09-5,.22-7.47h0Z"/>
    <path class="cls-1" d="M21.01,20.99c-.03.2-.02.55-.31.53-1.56,0-3.13,0-4.69-.03-.74,0-1.67.08-2.03.84-.56.83-.26,2.05.59,2.56.53.28,1.14.36,1.71.5.08.25.16.51.24.77-1.19.19-2.55-.09-3.32-1.08-.88-1.09-.68-2.81.31-3.76.47-.41,1.14-.34,1.72-.35,1.93.06,3.86-.05,5.79.02h0Z"/>
    <path class="cls-6" d="M7.43,18.02c.2.12.59.37.78.5.17.86.11,1.76.04,2.64,0,.49-.44.72-.79.95-.17-1.35-.08-2.73-.03-4.08h0Z"/>
    <path d="M17.21,24.15c1.22-.28,2.48-.09,3.71-.08,0,.31,0,.61,0,.92-.88.03-1.75,0-2.63,0-.34-.04-.63.11-.86.33,1,.38,2.06.08,3.1.19.56-.06.32.67.37,1-1.21.06-2.44.11-3.63-.05-1.14-.22-1.12-2.03-.04-2.31h0Z"/>
  </g>
</svg>