<?xml version="1.0" encoding="UTF-8"?>
<svg id="_レイヤー_1" data-name="レイヤー 1" xmlns="http://www.w3.org/2000/svg" viewBox="0 0 50 50">
  <path d="M23.63,15.07c1.8-1.83,4.52-2.6,7.02-2.17,1.98.31,3.82,1.37,5.12,2.89.73.85,1.26,1.86,1.63,2.91.57-.28,1.17-.52,1.74-.81.18-.11.48-.12.53-.37.12-.06.26-.1.34-.22.08-.15.27-.03.39-.12.48-.29,1-.54,1.44-.89.21-.15.19-.42.22-.65.53.15.72.73.9,1.19.07.25.21.6,0,.81-.17-.06-.3-.22-.5-.2-.56-.02-1.08.26-1.61.41-.22.04-.35.31-.59.25-.13,0-.24.1-.36.15-.17-.12-.34.02-.5.07-.63.27-1.27.5-1.88.82.48,1.57.49,3.29,0,4.86.28.31.56.62.73,1,.16.39.03.87-.3,1.14-.46.41-1.09.54-1.69.6-.09,0-.14.1-.19.16-.91,1.2-2.13,2.15-3.48,2.79-1.29.64-2.74.91-4.17.95-1.84,0-3.67-.49-5.3-1.35-1.66-.87-3.24-1.9-4.89-2.81-1.35-.74-2.7-1.48-4.13-2.07-1.19-.48-2.51-.76-3.8-.56-.66.11-1.29.37-1.83.76-.45.33-.83.72-1.23,1.1-.15-.03-.28-.15-.38-.26.34-.7.8-1.32,1.19-1.99,2.24-3.51,4.48-7.02,6.87-10.43.16.1.32.2.45.34-.64,1.04-.91,2.33-.6,3.53.29,1.19,1.06,2.19,1.83,3.12,1.33,1.54,2.79,2.95,4.33,4.28.32.31.69.55,1.03.83-.69-1.21-.93-2.63-.89-4.01.04-2.24.9-4.49,2.51-6.07M27.43,14.11c.54.32,1.03.82,1.09,1.47.07.88-.47,1.63-.78,2.42.11.05.23.09.35.14.11-.09.23-.2.38-.16.42.08.76.36,1.14.53.35-.62.72-1.22,1.07-1.83-.19-.31-.16-.77.14-1,.39-.29,1.02-.05,1.14.41.12.44-.3.92-.75.86-.4.61-.72,1.25-1.12,1.86.42.21.82.44,1.22.68.33-.64.7-1.25,1.06-1.87-.22-.35-.08-.89.32-1.05.37-.17.89.06.98.47.04.31-.09.67-.39.8-.12.06-.25.02-.37.07-.39.6-.74,1.23-1.06,1.86.41.24.81.62.85,1.13.47-.55.85-1.22,1.51-1.57.61-.31,1.32-.29,1.98-.31-.4-1.31-1.17-2.51-2.24-3.37-1.78-1.46-4.25-2.12-6.51-1.55M26.38,14.98c-.29.16-.49.43-.69.69-.28.39-.52.83-.52,1.32.07.55.62.8,1.03,1.06.12.05.26.19.39.14.28-.49.54-.98.79-1.49.17-.39.38-.82.24-1.25-.16-.49-.8-.7-1.25-.46M22.26,19.75c-.25,1.28-.25,2.63.17,3.87.03-.69.17-1.37.49-1.99.3-.58.83-1.06,1.47-1.21.64-.18,1.31-.03,1.93.19.18-.23-.08-.39-.17-.59-.17-.32-.12-.71.05-1.02-.34-.19-.68-.37-1.01-.56-.46-.26-.89-.68-.93-1.24-.09-.7.24-1.36.62-1.92-1.34,1.14-2.26,2.75-2.61,4.47M27.59,18.29c-.07.11-.13.22-.2.33.33.23.71.36,1.05.58.22.11.4.3.66.29-.16-.24-.46-.32-.66-.51-.08.02-.17.04-.25.04-.2-.19-.33-.44-.43-.7-.04,0-.12-.03-.16-.04M26.91,19.47c.14.27.43.4.67.57.86.5,1.71,1.01,2.56,1.51.01-.04.04-.12.06-.15-1.1-.64-2.18-1.31-3.29-1.93M34.41,19.84c-.61.37-1.03.97-1.44,1.54.59-.05,1.18.06,1.73.26.12-.26.22-.57.47-.73.21-.15.55-.04.61.22.07.35-.07.69-.18,1.01.29.17.6.34.85.58.09.02.03-.14.06-.19.12-1,.03-2.02-.21-3-.64.02-1.32,0-1.9.31M29.55,19.63s-.05.13-.07.17c.4.22.77.48,1.17.69.05,0,.14,0,.19,0-.1-.19-.31-.28-.48-.39-.27-.16-.53-.33-.81-.48M31.25,20.55c-.31.15-.02.64.26.43.33-.15.04-.68-.26-.43M26.77,20.85c.18.15.38.28.61.37-.12-.21-.36-.38-.61-.37M27.66,21.28c.03.17.21.22.33.31.54.32,1.06.69,1.63.95,0-.1-.04-.2-.15-.23-.62-.32-1.19-.72-1.82-1.02M23.68,22.18c-.32.72-.43,1.58-.12,2.32.24.58.74.99,1.26,1.32.46.29.94.54,1.45.7.35.1.79.11,1.07-.16.21-.21.36-.49.41-.78.06-.39-.36-.79-.75-.64-.42.18-.7.6-1.16.73-.44.12-.89-.06-1.26-.3-.5-.33-.91-.86-.95-1.47-.04-.53.1-1.07.36-1.53.25-.44.73-.75,1.25-.72.47-.01.87.26,1.27.46.89.49,1.72,1.07,2.62,1.54.01-.05.04-.14.06-.19-1-.55-1.97-1.15-2.96-1.72-.45-.25-.95-.51-1.49-.42-.48.05-.87.41-1.06.85M30.6,21.53c-.18.09-.2.38-.02.48.22.15.55-.13.43-.37-.07-.15-.27-.17-.41-.11M32.64,21.95c-.08.09-.15.19-.23.29.52.28,1.05.55,1.59.79.16-.32.34-.62.45-.95-.56-.28-1.22-.23-1.82-.13M29.88,22.74c.05.21.28.35.47.22.21-.1.16-.47-.07-.5-.2-.07-.33.12-.4.28M24.88,22.74c-.23.26-.32.61-.34.95-.02.43.29.81.67.97.18.08.41.14.58.01.32-.22.59-.56.99-.65.55-.11,1.08.16,1.49.51.4.36.45.97.3,1.46-.15.47-.44.92-.85,1.2-.5.33-1.15.31-1.7.16-.77-.21-1.47-.6-2.14-1.02.35.27.7.55,1.08.78,1.68.97,3.68,1.44,5.6,1.13-.2-.33-.38-.67-.45-1.05-.17-.73,0-1.48.17-2.19-.29.1-.6.06-.87-.07-.55-.26-1.04-.62-1.57-.92-.74-.46-1.5-.91-2.27-1.32-.22-.11-.53-.15-.7.06M31.84,23.21c.5.38,1.06.66,1.57,1.02.12-.24.24-.48.35-.72-.55-.26-1.07-.59-1.64-.81-.07.18-.17.35-.28.51M35.06,23.59c.26.09.5.26.77.31.09-.25.15-.53.1-.79-.08-.22-.29-.34-.48-.44-.12.31-.27.61-.39.93M29.36,23.75c.05.18.19.4.41.35.26-.03.25-.47,0-.51-.16-.05-.31.05-.41.16M31.26,24.2c.49.57,1.01,1.12,1.59,1.61.03-.39.23-.73.36-1.09-.53-.36-1.09-.69-1.62-1.05-.12.17-.23.35-.32.53M34.84,24.05c-.14.27-.29.53-.43.8.23.16.47.31.72.44.19-.28.36-.58.51-.88-.26-.13-.53-.26-.8-.36M30.95,24.6c-.21.72-.41,1.47-.36,2.24.03.47.26.91.55,1.27.89-.23,1.75-.6,2.5-1.15-1.03-.62-1.88-1.49-2.69-2.36M36.62,26.2c.33-.09.68-.18.96-.4.17-.12.27-.34.22-.55-.06-.24-.24-.43-.4-.61-.24.53-.49,1.05-.78,1.56M34.1,25.29c-.21.32-.36.75-.76.89.21.18.45.31.67.46.33-.25.61-.56.86-.9-.25-.16-.51-.31-.76-.45Z"/>
  <g>
    <path d="M10.52,43.81c.72-.94,1.2-2.17,1.45-3.69l1.07.29c-.3,1.76-.82,3.14-1.55,4.15l-.97-.75ZM14.41,36.3h1.1v1.8h3.68v.98h-3.68v6.13h-1.1v-6.13h-3.6v-.98h3.6v-1.8ZM18.49,44.43c-.73-1.1-1.34-2.47-1.82-4.11l1.05-.35c.4,1.36.98,2.63,1.76,3.81l-.99.65Z"/>
    <path d="M22.42,36.79h1.1v1.78c0,1.7-.13,2.95-.38,3.73-.33,1.04-1.04,1.9-2.11,2.6l-.75-.87c.74-.52,1.26-1.06,1.57-1.62.25-.47.42-1.11.5-1.9.05-.45.07-1.09.07-1.92v-1.8ZM24.92,36.51h1.1v6.94c.65-.33,1.22-.81,1.7-1.43.53-.68.93-1.48,1.2-2.41l.86.83c-.33.97-.77,1.79-1.34,2.48-.71.86-1.65,1.54-2.8,2.04l-.72-.62v-7.82Z"/>
    <path d="M34.47,38.96c-1.03-.46-2.1-.83-3.21-1.1l.34-1.05c1.29.29,2.37.66,3.24,1.09l-.37,1.06ZM31.38,43.82c1.61-.14,2.84-.42,3.7-.86,1.01-.52,1.78-1.32,2.32-2.4.35-.7.64-1.61.85-2.73l.94.69c-.26,1.2-.58,2.16-.96,2.87-.68,1.29-1.71,2.23-3.11,2.81-.88.36-2.05.62-3.53.78l-.23-1.15Z"/>
  </g>
</svg>