<?xml version="1.0" encoding="UTF-8"?>
<svg id="_レイヤー_1" data-name="レイヤー 1" xmlns="http://www.w3.org/2000/svg" viewBox="0 0 50 50">
  <g>
    <path d="M1.02,37.2h5.98v7.39H.88v-1.02h5.15v-5.35H1.02v-1.02Z"/>
    <path d="M12,39.01c-.86-.46-1.75-.83-2.68-1.1l.29-1.05c1.08.29,1.98.66,2.71,1.09l-.31,1.06ZM9.42,43.86c1.35-.14,2.38-.42,3.1-.86.84-.52,1.49-1.32,1.94-2.4.29-.7.53-1.61.71-2.73l.79.69c-.22,1.2-.49,2.16-.8,2.87-.57,1.29-1.43,2.23-2.6,2.81-.74.36-1.72.62-2.95.78l-.19-1.15Z"/>
    <path d="M18.91,36.35h.95v2.8c1.63.6,2.97,1.21,4.04,1.84l-.46,1.05c-1.02-.62-2.22-1.21-3.58-1.77v4.96h-.95v-8.88Z"/>
    <path d="M25.79,39.18h6.8c-.12,1.42-.37,2.53-.74,3.33-.28.6-.64,1.08-1.06,1.44-.72.61-1.76,1.03-3.14,1.26l-.41-.99c1.21-.14,2.14-.47,2.78-1,.83-.67,1.31-1.69,1.43-3.04h-5.66v-1ZM26.37,36.78h5.39v1h-5.39v-1Z"/>
    <path d="M33.75,44.08c.47-.83.88-1.85,1.22-3.06.37-1.32.61-2.66.7-4.03l.94.23c-.24,2-.57,3.68-.98,5.04-.29.99-.66,1.86-1.09,2.6l-.8-.78ZM40.35,44.91c-.99-1.96-1.75-4.52-2.28-7.7l.89-.33c.47,2.84,1.21,5.27,2.21,7.29l-.81.74ZM39.92,38.15c-.16-.52-.43-1.12-.83-1.8l.64-.28c.31.51.59,1.1.85,1.77l-.66.31ZM41.09,37.93c-.21-.65-.48-1.25-.82-1.82l.61-.24c.32.48.6,1.05.83,1.72l-.62.34Z"/>
    <path d="M42.97,37.08h4.93l.54.57c-.46,1.3-1.01,2.49-1.65,3.55.9.85,1.77,1.8,2.59,2.86l-.68.92c-.8-1.09-1.62-2.08-2.45-2.96-.89,1.26-2.02,2.26-3.39,2.99l-.49-1.01c1.02-.5,1.86-1.11,2.54-1.85.63-.69,1.21-1.54,1.74-2.55.28-.54.5-1.05.65-1.51h-4.33v-1Z"/>
  </g>
  <g>
    <path d="M20.47,35.79c-.06.02-.11.03-.15.05-.11-.05-.15-.21-.31-.16-.06.02-.07.09-.13.13-.12.04-.25.01-.37-.04-.22.06-.43.09-.63-.06-.25.11-.5.06-.75.05-.37-.02-.74-.04-1.11-.05-.26-.01-.53-.04-.79-.1.17-.02.35-.04.52-.06.79-.06,1.58-.1,2.37-.12,1.14-.03,2.27-.06,3.41-.07.1,0,.21.01.3-.03.11-.22.25-.7.25-.87-.02-.04-.07-.05-.11-.06-.25-.06-.51-.12-.76-.19-.32-.09-.63-.21-.93-.37-.09-.05-.19-.08-.29-.1-.77-.16-1.49-.45-2.1-.96-.78-.64-1.26-1.46-1.43-2.45-.17-.98-.1-1.95.2-2.9.11-.35.25-.7.37-1.05.07-.21.14-.41.17-.63.05-.28.02-.54-.16-.8.17,0,.32.01.47,0,.33-.04.59-.21.83-.43.3-.28.5-.62.67-.99.3-.66.5-1.34.54-2.07.02-.31,0-.62-.1-.92-.12-.33-.35-.55-.71-.6-.08-.01-.16-.03-.26-.05.05-.1.09-.2.12-.29.07-.19.11-.4.13-.6.03-.38.02-.75.07-1.13.08-.69.28-1.34.63-1.94.43-.75,1.02-1.36,1.64-1.95.27-.25.54-.49.81-.74.22-.21.44-.42.62-.67,0,.1-3,9.99-3.1,10.23.09.39.22.78-.12,1.14.07.18,0,.37-.02.55-.04.26-.09.53-.17.78-.04.13-.09.26-.18.38-.05.07-.11.12-.23.14.06-.12.08-.23.07-.33,0-.15-.07-.25-.19-.28-.11-.03-.23.02-.31.15-.12.19-.1.46.03.64.11.15.29.21.49.16.19-.05.33-.17.45-.32.26-.32.41-.7.52-1.12.05.26.1.49.15.73.11.6.19,1.21.32,1.81.02.08-.02.15,0,.21.02.19.04.39.11.56.06.04.11.04.17,0,.05-.14,0-.28-.03-.4-.22-.99-.33-1.99-.52-2.98-.06-.3-.09-.6-.12-.9-.02-.18,0-.36,0-.55.04-.04.09-.06.16-.06.27,1.38.44,2.78.69,4.17-.01.05-.1.05-.09.12.02.2.04.4.11.58.07.04.13.02.21-.03-.05-.54-.16-1.08-.23-1.62-.07-.55-.17-1.09-.25-1.64-.07-.55-.19-1.09-.25-1.64.13-.03.24-.04.36-.02.05.11.05.23.06.34.09.61.17,1.21.25,1.82.06.42.1.83.15,1.25.03.22.07.44.09.67,0,.06.02.14.14.11.01-.35-.08-.69-.11-1.04-.03-.36-.08-.71-.13-1.07-.04-.35-.09-.7-.14-1.05-.04-.35-.09-.7-.13-1.05.12-.04.24-.05.36-.06.06.14.05.29.07.43.08.7.16,1.4.25,2.1.05.38.08.76.12,1.14.02.16.04.33.06.49,0,.06.01.13.1.13.05-.05.04-.11.03-.17-.05-.53-.1-1.05-.16-1.58-.06-.59-.14-1.17-.2-1.76-.03-.23-.05-.46-.08-.69,0-.03-.01-.06.01-.1.18.02.36.07.53.15.09.04.14.12.16.21.02.08.07.12.14.15.37.13.75.23,1.14.32.02,0,.05,0,.08,0,.06-.16.06-.33.04-.5-.7-.29-1.4-.59-2.1-.88-.04-.09-.01-.16,0-.24.21-.85.42-1.7.63-2.55.45-1.79.91-3.57,1.36-5.36.25-.98.49-1.95.74-2.93.26-1.02.52-2.03.77-3.06.19-.79.39-1.57.59-2.35.05-.22.11-.44.15-.66.03-.16.11-.26.29-.27.04,0,.08-.01.11-.04.03-.03.04-.06.05-.1.19-.7.62-1.18,1.31-1.43.12-.04.24-.08.36-.13.04-.01.09-.01.11-.07-.24-.02-.46.05-.68.06-.05-.04.02-.1-.03-.15-.11-.03-.24-.05-.37-.09-.57-.16-.89-.67-.78-1.27.11.03.07.18.17.21.05-.03.03-.12.1-.15.06,0,.06.06.08.1.02.04.02.08.08.1.04-.19.08-.38.15-.57.07-.18.18-.34.28-.51-.24.02-.4.18-.57.31.08-.21.25-.34.44-.42.53-.23,1.05-.13,1.46.32.52.58.72,1.27.58,2.04-.06.33-.22.6-.47.83-.13.12-.27.23-.41.35.12.09.26.13.37.18.09-.01.15-.07.23-.08.11,0,.21,0,.27.1.06.09.04.19-.01.28-.05.08-.11.15-.19.19-.22.12-.41,0-.44-.24,0-.02,0-.05-.01-.07-.14-.06-.28-.12-.43-.19-.22.13-.38.34-.54.54q.1.12.36.22c.07,0,.13-.04.19-.05.13-.03.24,0,.32.11.08.11.06.22,0,.33-.07.13-.17.22-.32.25-.17.04-.3-.06-.32-.23,0-.07.01-.13-.02-.2-.05-.03-.1-.05-.16-.08-.05-.03-.1-.08-.19-.08-.23.43-.21.9-.22,1.37-.14.12-.31.17-.48.2-.1.02-.19-.03-.27-.09-.1-.07-.19-.15-.32-.16-.09.04-.09.13-.1.21-.31,1.33-.59,2.67-.88,4-.03.16-.02.29.11.41.09.08.15.18.19.29.17.41.48.68.84.91.04.03.08.05.13.07.12.06.19.15.19.3.02.29.19.51.41.68.35.27.74.49,1.11.73.48.31.94.63,1.29,1.08.58.73.88,1.56.9,2.49.01.49-.06.97-.13,1.45-.04.31-.09.63-.02.94.03.14.09.26.13.39-.03.06-.08.02-.12.02-.1,0-.21,0-.31,0-.45.05-.73.26-.9.8-.06.19-.09.39-.1.59-.03.55-.03,1.1.1,1.63.16.63.55,1.07,1.11,1.37.29.15.6.26.93.29.02,0,.05,0,.06.03,0,.01,0,.03,0,.03-.27.27-.33.6-.31.96.02.37.11.73.17,1.1.29,1.72-.04,3.3-1.1,4.7-.56.73-1.26,1.28-2.09,1.66-.05.02-.1.04-.16.1.17.49.42.96.63,1.42.09.06.16.05.23.05.71.02,1.42.03,2.13.05.18,0,.35.02.53.03.12.01.18.06.18.14,0,.08-.06.15-.17.16-.25.01-.51.02-.77.02-.06,0-.1-.04-.14-.08-.07-.06-.15-.07-.21,0-.18.18-.39.12-.59.08-.02,0-.05-.01-.08-.02-.12.09-.25.1-.37-.01-.07-.06-.15-.05-.21.03-.06.07-.13.08-.21.08-.37,0-.74,0-1.11.01-.12,0-.23,0-.34-.08-.16.1-.34.09-.51.09-.53,0-1.07,0-1.6,0-.12,0-.24-.02-.36,0-.07.01-.14,0-.2-.06-.14-.12-.15-.11-.29.01-.01.01-.03.02-.06.05-.6,0-1.21,0-1.82,0-.67,0-1.34-.02-2.01-.03-.08,0-.16-.02-.23-.06ZM24.59,33.46s.04.04.05.04c.03,0,.06,0,.09,0,1.1-.11,2.04-.55,2.86-1.29.7-.63,1.18-1.41,1.48-2.31.23-.69.34-1.4.32-2.13-.01-.6-.12-1.2-.22-1.79-.06-.35-.1-.7-.09-1.05,0-.23.07-.43.26-.57.03-.02.08-.04.08-.1-.04-.07-.11-.06-.18-.06-.16,0-.32,0-.47.02-.12.02-.23,0-.34-.02-.26-.07-.48-.21-.66-.41-.21-.23-.33-.51-.4-.81-.19-.75-.2-1.51-.09-2.28.07-.45.24-.84.55-1.16.02-.02.05-.04.03-.08-.15.09-.27.21-.38.34-.31.39-.47.85-.54,1.33-.08.52-.09,1.04-.04,1.56.05.52.23.98.6,1.35.31.31.67.47,1.12.42.1-.01.19-.05.3-.06-.19.32-.24.64-.21,1.03.03.35.09.7.14,1.05.12.78.18,1.56.05,2.34-.13.83-.41,1.6-.89,2.29-.72,1.03-1.68,1.76-2.87,2.18-.18.06-.36.11-.56.16ZM27.57,34.07c-.65.19-1.29.33-1.94.38-.66.06-1.32.06-1.97,0-.14.19-.36.68-.37.84.06.04.13.02.19.02.72,0,1.45,0,2.17,0,.33,0,.67,0,1,.01.48.02.96.02,1.44.02.05,0,.1.01.14-.05-.2-.4-.42-.81-.67-1.22ZM27.06,25.62c-.23.02-.34-.08-.43-.23-.09-.14-.13-.3-.14-.47-.03-.3-.04-.59-.04-.89,0-.25-.02-.5.17-.7-.12-.06-.15-.15-.17-.26-.01-.08-.03-.17-.04-.25-.03-.22-.05-.45-.11-.66-.05-.2-.13-.38-.28-.53-.19-.19-.41-.28-.68-.19-.27.09-.46.37-.45.63.01.15.12.28.26.32.13.03.26-.03.33-.14.08-.14.06-.27-.05-.4-.02-.03-.07-.04-.06-.08.15-.11.25-.11.36.02.07.09.11.19.12.3.01.24,0,.49-.02.73-.03.21-.03.42-.16.6.06.08.1.16.11.26.01.16.03.33.04.49.02.33.08.65.18.96.08.25.21.46.41.64.34.3.88.25,1.12-.12.12-.17.16-.36.05-.55-.08-.15-.22-.21-.39-.16-.17.04-.26.16-.27.32,0,.13.03.24.13.36ZM25.5,11.75s-.01.06-.01.08c-.01.36.12.66.34.94.25.32.57.56.89.8.27.21.55.42.8.66.36.36.67.75.83,1.25.22.65.24,1.31.14,1.98-.05.35-.12.71-.18,1.06-.04.25-.04.5.07.73.12.25.34.35.61.37-.01-.04-.04-.05-.06-.07-.24-.18-.32-.43-.3-.72.01-.14.04-.28.07-.41.17-.79.31-1.57.2-2.38-.07-.55-.26-1.05-.58-1.49-.33-.46-.76-.83-1.23-1.16-.34-.23-.67-.48-.98-.76-.25-.22-.45-.48-.55-.8,0-.03-.01-.06-.06-.08ZM20.88,27.36c-.04.05-.03.1-.02.15.11.55.2,1.11.44,1.63.16.34.25.7.31,1.06.15.89.24,1.79.34,2.69.03.23.05.46.1.68,0,.04.01.09.08.08.04-.06.02-.14.02-.21-.01-.31-.03-.62-.04-.93-.03-.47-.05-.95-.08-1.42-.03-.5-.06-.99-.11-1.49-.04-.37,0-.74-.05-1.11-.01-.08,0-.16.06-.22.1-.05.24.02.32-.1-.08-.08-.18-.07-.27-.07-.13,0-.26.04-.38-.01-.12-.05-.23-.03-.35-.02-.03,0-.07.03-.11-.01-.05-.23-.07-.48-.15-.71-.04-.02-.07-.02-.11,0ZM22.57,32.75c0-.08,0-.16.01-.23.01-.65.03-1.3.04-1.95,0-.29.02-.57.04-.86.02-.25.06-.49.16-.73.06-.14.08-.29.1-.44.04-.32.03-.64.05-.96,0-.08.01-.17-.03-.24-.04-.03-.07-.03-.11,0-.04.05-.03.12-.03.17,0,.15,0,.29,0,.44,0,.42-.04.82-.2,1.22-.11.28-.13.58-.14.88-.02.91,0,1.81.1,2.72ZM24.46,14.43c-.35,1.37-.74,2.73-1.05,4.11q.14.04.26.02c.29-1.37.61-2.74.8-4.13ZM27.83,1.23s-.06.03-.07.05c-.34.63.14,1.24.58,1.36.14.04.27,0,.38-.07.11-.07.15-.17.12-.3-.3.25-.56.22-.79-.08-.11-.14-.17-.3-.21-.48-.04-.16,0-.32,0-.5ZM21.96,27.27c.02.23,0,.45.07.65.06.05.11.06.19.03.02-.21.01-.42-.05-.63-.06-.02-.1-.06-.21-.05ZM28.75,1.68c-.03-.14-.12-.24-.25-.25-.13-.01-.27.07-.31.18-.05.14,0,.23.18.26.08-.07.01-.25.18-.27.06,0,.12.05.2.07ZM22.6,27.95c.04-.13.04-.43,0-.61-.05-.04-.1-.06-.18-.05,0,.21,0,.42.02.61.06.04.11.06.17.04ZM29.02,15.92c.11-.11.1-.11-.02-.16-.05.05-.04.1.02.16ZM28.94,15.53c-.05.03-.05.06,0,.1.04-.03.04-.06,0-.1Z"/>
    <path d="M21.46,22.41c-.1.02-.19.02-.28,0-.04-.14,0-.25.03-.37.1-.38.21-.76.32-1.14.44-1.55.89-3.09,1.33-4.63.35-1.21.71-2.42,1.07-3.63.27-.9.54-1.79.79-2.69.13-.46.28-.92.4-1.38.14-.57.33-1.12.48-1.68.15-.56.33-1.12.48-1.68.08-.28.19-.55.33-.8.2-.34.54-.62.94-.77-.41.34-.58.81-.7,1.26-.08.09-.16.07-.26.13-1.41,5.78-2.99,11.54-4.4,17.35-.1.04-.21.02-.32.02-.04-.1-.02-.19,0-.29.11-.42.23-.84.34-1.27.2-.74.39-1.48.59-2.22.3-1.11.61-2.22.92-3.33.3-1.09.59-2.18.89-3.27.23-.83.46-1.66.69-2.49.15-.57.29-1.14.45-1.71.23-.81.43-1.63.65-2.44.04-.13.08-.25.13-.39-.13,0-.16.06-.18.15-.08.3-.15.6-.23.9-.17.63-.35,1.26-.52,1.9-.24.9-.48,1.81-.72,2.71-.19.7-.4,1.4-.6,2.1-.33,1.16-.65,2.31-.97,3.47-.37,1.33-.73,2.66-1.09,3.99-.17.62-.34,1.24-.51,1.86-.03.11-.03.22-.08.33Z"/>
    <path d="M20.93,22.44c-.08.03-.14.04-.23.04.02-.07.03-.14.05-.21.4-1.32.8-2.65,1.2-3.97.25-.84.49-1.68.75-2.51.23-.77.48-1.53.71-2.3.35-1.16.73-2.3,1.07-3.46.38-1.29.77-2.58,1.15-3.88.07-.23.14-.47.2-.7.04-.12.08-.24.18-.34-.04.14-.08.29-.13.43-.23.75-.42,1.51-.65,2.26-.24.78-.44,1.57-.68,2.34-.17.53-.31,1.06-.47,1.59-.37,1.24-.76,2.47-1.13,3.71-.35,1.19-.7,2.38-1.04,3.57-.29.99-.57,1.98-.86,2.98-.04.15-.08.3-.12.46Z"/>
    <path d="M32.02,35.49c.6-.03,1.18.03,1.76.11-.13.04-.27.06-.41.06-.15,0-.29.03-.43.03-.26.01-.53.02-.79.03-.12,0-.16-.06-.12-.23Z"/>
    <path d="M21.57,28.66q-.13-.07-.06-.19.13.06.06.19Z"/>
  </g>
</svg>