<?xml version="1.0" encoding="UTF-8"?>
<svg id="_レイヤー_1" data-name="レイヤー 1" xmlns="http://www.w3.org/2000/svg" viewBox="0 0 50 50">
  <defs>
    <style>
      .cls-1 {
        fill: #050505;
      }

      .cls-2 {
        fill: #010101;
      }

      .cls-3 {
        fill: #0b0a0b;
      }

      .cls-4 {
        fill: #000002;
      }

      .cls-5 {
        fill: #010102;
      }

      .cls-6 {
        fill: #000001;
      }

      .cls-7 {
        fill: #020101;
      }

      .cls-8 {
        fill: #010001;
      }

      .cls-9 {
        fill: #020202;
      }

      .cls-10 {
        fill: #010100;
      }
    </style>
  </defs>
  <g>
    <path d="M16.26,39.88v-1.88c-.69.1-1.47.18-2.33.22l-.27-.94c2.17-.12,3.85-.42,5.05-.89l.54.89c-.61.22-1.3.41-2.08.56v2.04h3.12v1h-3.14c-.06,1.05-.27,1.9-.63,2.54-.46.82-1.12,1.44-1.97,1.87l-.59-.91c.85-.42,1.46-.96,1.81-1.65.26-.49.41-1.11.46-1.86h-3.26v-1h3.28Z"/>
    <path d="M22.4,38.67h5.21v.93h-2.21v4.31h2.58v.93h-5.94v-.93h2.52v-4.31h-2.16v-.93Z"/>
    <path d="M30.16,37.17h6.41v7.54h-6.41v-7.54ZM31.12,38.21v5.46h4.51v-5.46h-4.51Z"/>
  </g>
  <g>
    <path d="M26.71,7.38c.08-.26.15-.52.23-.78.12.02.25.04.37.05.02.32-.03.65,0,.97,0,.18.05.35.03.53-.29-.02-.58-.07-.87-.12.08-.22.17-.44.24-.66M27.34,7.1c.05,0,.1.02.15.02,0,.25,0,.54.17.74-.09.03-.18.02-.27.02,0,.04.02.07.02.11,0,0-.03,0-.04,0,.01-.12-.03-.24-.04-.36-.01-.18-.01-.36,0-.53M26.62,7.02s.09.02.14.03c-.06.25-.15.49-.24.72-.09-.03-.18-.05-.25-.11.11-.1.2-.21.26-.34.03-.1.06-.2.09-.29M26.27,7.22c.08,0,.16.01.24.02-.05.14-.12.27-.23.36-.06-.12-.04-.26-.01-.38M27.53,7.39c.08,0,.17.02.25.04,0,.13,0,.27-.08.38,0,0-.03,0-.03,0-.09-.12-.12-.28-.14-.42M26.6,8.13s.07,0,.09,0c0,.03.02.05.03.08-.19.52-.25,1.07-.43,1.59.06-.02.07-.09.08-.14.1-.36.18-.72.28-1.08.03-.15.09-.29.07-.45.11.02.22.04.33.05-.05.26-.02.53-.04.79,0,.32-.05.64-.01.96.04-.58.06-1.16.07-1.75.05,0,.09.02.14.03.02.33.03.66.02.99-.02.32-.04.64-.06.95-.07,0-.13-.02-.2-.03,0,.14-.02.27-.04.4,0,0,.01,0,.01.01.06-.11.05-.24.07-.36.05,0,.09.02.14.03-.07.11-.11.23-.16.34-.01,0-.04.03-.05.03-.04.05-.03.13-.04.19-.43,3.85-.88,7.69-1.29,11.54-.07-.03-.17-.02-.22-.08.08-.45.11-.91.17-1.36.42-3.33.82-6.66,1.23-9.99.04-.33.1-.66.11-.99-.06.16-.07.33-.09.49-.12.91-.22,1.82-.34,2.72-.09.76-.17,1.52-.28,2.27-.26,2.19-.54,4.39-.8,6.58-.01.09-.03.19-.03.28-.11-.03-.22-.05-.33-.08h0c.12-.83.23-1.66.35-2.48.46-3.22.89-6.45,1.34-9.67.02-.3.08-.6.11-.91-.05.27-.08.54-.12.8-.09.42-.13.84-.19,1.26-.5,3.65-1.02,7.29-1.51,10.94v.04c-.12-.02-.25-.04-.37-.06.02-.13.04-.25.06-.38.13-.85.27-1.69.4-2.54.24-1.63.51-3.25.76-4.87.21-1.42.45-2.84.66-4.26.01-.18.03-.37.05-.55-.03.14-.04.28-.06.42-.11.47-.16.95-.23,1.42-.54,3.49-1.1,6.97-1.63,10.46-.02.1-.03.2-.05.3-.09-.01-.17-.02-.26-.01-.01,0-.03-.02-.05-.03,0-.01-.02-.03-.02-.05.13-.8.29-1.6.42-2.4.15-.83.27-1.66.42-2.48.14-.75.25-1.5.39-2.25.06-.32.11-.64.17-.96-.02-.02-.03-.04-.05-.06-.09.69-.25,1.36-.34,2.05-.36,2.04-.69,4.09-1.05,6.12,0,.01,0,.04,0,.05-.08,0-.16,0-.24,0,.07-.25.09-.51.15-.76.14-.79.3-1.58.44-2.38.28-1.53.57-3.06.84-4.6.26-1.44.55-2.88.8-4.32-.06,0-.11-.02-.17-.03,0-.08.05-.18,0-.25-.14-.03-.28-.04-.42-.05.01-.08.03-.15.04-.22.14.03.28.05.43.07,0,.06-.06.15,0,.18.1-.43.2-.86.37-1.28.04-.11.08-.22.12-.32M26.38,9.82c-.04.14-.06.29-.09.44-.04.26-.1.51-.14.77-.15.95-.32,1.89-.49,2.83h.05c.21-1.22.41-2.46.65-3.69.02-.11.04-.23.02-.35M28.02,8.42c.18-.03.41.05.45.25.05.15-.02.3-.11.41-.09-.03-.17-.07-.26-.08-.1-.01-.17.06-.26.1-.02-.16,0-.33.03-.49.01-.08.05-.17.14-.19M25.32,8.4c.14-.04.34-.03.39.12.03.22,0,.46-.16.63-.12-.04-.24-.07-.36-.09-.06,0-.1-.06-.12-.11-.1-.21,0-.5.24-.55M28,9.06c.12-.04.23.02.34.06.24.13.22.54-.03.65-.13.05-.29.05-.41,0-.07-.04-.06-.13-.06-.2.02-.13.04-.26.06-.39,0-.05.05-.1.1-.11M27.29,9.21c.14.02.28.03.43.05,0,.07-.02.15-.03.22-.14-.02-.28-.05-.42-.08,0-.06,0-.13.02-.19M25.19,9.11c.1-.01.23,0,.3.09.08.1.03.23.01.35-.03.12,0,.28-.12.36-.12.06-.26,0-.37-.06-.15-.08-.21-.27-.17-.43.03-.17.19-.3.36-.31M26.05,10.05s.09.02.13.03c-.02.12-.04.24-.06.35-.1-.1-.04-.26-.06-.38M23.1,16.27c.61-.26,1.29-.33,1.95-.27-.33,1.83-.68,3.66-1.01,5.49-.04.22-.09.44-.11.66.11,0,.21.01.32,0-.05.3-.12.61-.17.91-.09.4-.13.82-.23,1.22-.09-.01-.17-.02-.26-.02,0,.02-.02.06-.03.08-.07,0-.15,0-.22,0-.01.11-.03.22-.05.33h.02c.16.03.33.05.49.08-.05.46-.11.92-.16,1.38-.06.29-.07.58-.12.87-.09-.01-.18-.03-.27-.04-.09.62.01,1.25.07,1.87.08.81,0,1.63-.2,2.42-.07.29-.17.56-.22.86-.02.13.05.24.13.34-.17-.01-.33-.07-.49-.06-.04.07-.06.15-.08.23-.51-.12-1.01-.24-1.49-.45-.49-.21-.95-.5-1.33-.88-.44-.43-.76-.97-.91-1.57-.19-.72-.13-1.49.13-2.18.19-.54.51-1.01.83-1.48.16-.26.35-.53.38-.84.02-.15-.03-.29-.11-.42.04-.06.08-.11.12-.17.2.17.48.23.72.13.35-.13.58-.45.76-.76.29-.53.48-1.12.54-1.72.02-.32,0-.67-.2-.93-.16-.2-.44-.27-.68-.22-.01-.05-.02-.1-.03-.15.16-.11.28-.28.3-.48.02-.29-.06-.58-.08-.86-.09-.68-.06-1.4.26-2.02.3-.61.83-1.09,1.45-1.36M22.82,23.2c-.22.27-.3.62-.4.95-.07.36-.14.72-.27,1.07-.07.18-.2.35-.39.43-.01.02-.04.06-.06.08.3,0,.54-.24.68-.48.23-.43.29-.91.38-1.38.07-.3.14-.63.39-.83.07-.06.14.05.19.09-.05.07-.15.14-.1.24.03.13.22.13.27.02.1-.18-.08-.38-.25-.43-.18-.01-.34.11-.45.24M21.36,25.27c-.02.18.11.35.27.43.03-.01.05-.03.08-.04-.06-.05-.09-.11-.12-.18.06-.06.14-.12.15-.22.02-.09-.04-.19-.13-.2-.12-.02-.24.09-.24.21M26.37,16.18c.59.15,1.17.39,1.65.77.42.34.77.8.94,1.31.19.54.19,1.14.04,1.69-.09.37-.25.72-.42,1.06-.1.23-.22.47-.18.73,0,.12.07.23.14.32-.02.05-.04.09-.06.14-.21-.12-.48-.16-.69-.02-.28.18-.4.51-.47.82-.13.64-.11,1.31.03,1.95.09.32.22.66.5.85.2.15.48.15.7.06.02.06.05.13.07.19-.14.13-.22.31-.23.5-.03.33.1.65.19.96.18.56.32,1.15.31,1.75,0,.99-.4,2-1.16,2.65-.47.41-1.05.68-1.65.81-.67.14-1.36.15-2.03.09-.07-.06.01-.18-.05-.24-.17-.04-.34-.05-.51-.08.08-.04.17-.08.21-.16.07-.12.06-.26.07-.39.02-.69.06-1.38.24-2.04.13-.57.37-1.1.6-1.63.15-.35.28-.71.33-1.09-.09-.01-.18-.02-.27-.03.14-.75.26-1.5.4-2.24.15.02.3.03.45.05.01-.11.03-.22.04-.32-.05-.01-.11-.02-.16-.03-.02-.04-.03-.07-.06-.11-.06-.02-.13-.04-.19-.05.07-.52.12-1.05.19-1.58.03-.18.05-.36.05-.54.1.02.19.04.29.06.08-.57.13-1.14.2-1.72.16-1.5.33-3.01.5-4.51M25.62,23.65c-.01.12.15.22.25.12.1-.07.06-.21,0-.29.06-.02.12-.05.19-.06.16.21.2.49.18.75-.02.23-.03.47-.09.7,0,.01,0,.04.01.06-.03.22-.03.45-.01.67.03.3.14.63.4.8.15.11.36.04.49-.07.12-.1.17-.32.04-.43-.09-.09-.24-.03-.27.08-.05.11.03.2.08.29-.07.05-.13.1-.2.15-.1-.1-.19-.21-.23-.34-.12-.4-.04-.82,0-1.22.03-.35.06-.71-.05-1.05-.06-.18-.17-.37-.36-.44-.18-.03-.4.1-.41.29M24.27,22.17c.11,0,.23.01.34.02-.04.3-.1.6-.14.9-.07.41-.12.83-.19,1.24-.13-.02-.26-.03-.39-.05.14-.71.26-1.41.39-2.12M23.86,24.64c.12-.04.25-.03.38-.02-.1.82-.23,1.64-.35,2.45-.1-.03-.21-.03-.3-.07.02-.29.08-.57.09-.86.05-.46.12-.93.16-1.39.03,0,.08,0,.1-.01-.03-.03-.05-.07-.08-.1M24.66,27.22c.07.01.14.02.21.03-.07.3-.14.59-.27.87-.26.59-.53,1.19-.68,1.82-.16.66-.21,1.34-.22,2.01,0,.16,0,.36-.15.46-.19.16-.51.03-.58-.19-.03-.17.05-.33.09-.49.21-.73.37-1.49.36-2.26,0-.64-.13-1.28-.15-1.92,0-.18.01-.35.02-.53.07.01.14.02.21.04,0,.03-.01.1-.01.13-.06,0-.11-.01-.17-.02.06.02.12.04.17.06,0,.1-.02.19-.01.29.01,0,.04.02.05.02,0-.1,0-.2,0-.3.1.02.21.04.31.06,0,.1-.08.23,0,.32.04-.1.05-.21.06-.31.11.01.22.03.32.05-.01.09-.04.18-.03.28.01,0,.03.02.04.02.03-.1.04-.2.05-.3.1,0,.19.01.29.02-.02.1-.04.2-.05.3.01,0,.04-.02.05-.03.04-.14.05-.29.08-.44M23.45,27.68c-.05,0-.1.06-.08.12.02.08.14.11.19.04.05-.07-.03-.19-.11-.16M24.48,27.83s-.09.08-.06.13c.03.08.17.1.2,0,.04-.08-.07-.16-.14-.13M23.76,27.74s-.08.07-.07.12c.02.07.13.13.18.05.08-.07-.02-.23-.12-.17M24.12,27.81c-.13.07.02.26.12.17.13-.07-.02-.27-.12-.17M22.58,32.43c.16.02.31.06.47.07-.02.07-.04.14-.05.2-.16-.02-.32-.06-.48-.08.02-.06.04-.13.07-.19M22.96,32.75c.2.04.4.06.6.11-.02.12-.03.24-.07.36-.01.04-.07.05-.1.05-.12,0-.25-.02-.37-.06-.07-.01-.08-.09-.11-.14-.04,0-.09.01-.13.02,0,.02-.02.07-.03.09-.08,0-.15-.05-.2-.11,0-.08.01-.16.04-.23.07,0,.17,0,.21.06.03.04.06.08.1.11.03-.09.04-.18.06-.26M22.82,35.17c.07-.63.17-1.25.26-1.87.05.01.11.02.16.03-.09.55-.17,1.1-.25,1.66,0,.05-.02.11-.03.16-.01.07-.1.02-.14.02h0Z"/>
    <path class="cls-3" d="M27.75,8.61c.13.01.05.18.06.27-.02,0-.07-.01-.09-.02,0-.08.01-.17.04-.25h0Z"/>
    <path class="cls-5" d="M27.28,8.57c.15.02.29.04.44.06,0,.07-.02.14-.03.21-.13-.03-.27-.05-.4-.07,0-.07,0-.13,0-.2h0Z"/>
    <path class="cls-1" d="M25.77,8.73s.05,0,.07,0c-.01.07.02.29-.11.21,0-.07,0-.14.04-.2h0Z"/>
    <path class="cls-9" d="M25.88,8.74c.14.03.27.05.41.08-.02.06-.03.12-.04.19-.13-.02-.27-.04-.4-.04.01-.07.02-.14.03-.22h0Z"/>
    <path class="cls-4" d="M27.75,9.26s.07,0,.09,0c0,.09-.02.18-.04.26-.04-.02-.07-.03-.11-.05.01-.07.03-.15.05-.22h0Z"/>
    <path class="cls-2" d="M25.53,9.58c.02-.06.03-.16.12-.16,0,.1-.01.2-.07.28-.07.01-.07-.08-.05-.13M28.07,22.18c.12,0,.24.02.36.06-.03.06-.07.11-.1.17-.2-.09-.43-.11-.64-.03.1-.1.24-.18.38-.2M24.65,22.19c.12.02.24.04.36.06-.11.71-.19,1.43-.3,2.14-.13,0-.27-.04-.4-.05.13-.71.22-1.43.34-2.15M24.28,24.62c.13.02.26.03.39.06-.13.81-.26,1.63-.39,2.44-.11-.02-.23-.04-.34-.05.12-.82.23-1.63.35-2.45M24.69,24.69c.1.02.19.06.28.1-.03.03-.06.07-.08.1.05,0,.1.02.15.03-.15.74-.29,1.49-.41,2.24-.1-.01-.21-.03-.31-.04.13-.81.25-1.62.36-2.43M23.56,27.07c.1.01.21.03.31.04,0,.05,0,.1-.01.15-.1-.01-.2-.02-.3-.05,0-.05,0-.1,0-.15M23.93,27.13c.11.01.22.03.33.04,0,.05-.01.1-.02.14-.11-.01-.21-.03-.32-.05,0-.05.01-.09.02-.14M23.51,32.56c.15.04.31.05.46.08,0,.06,0,.13,0,.19-.15-.02-.31-.03-.46-.06,0-.07,0-.14,0-.21h0Z"/>
    <path class="cls-8" d="M21.26,21.19c.28-.06.54.11.66.36-.17-.13-.39-.18-.61-.15-.02-.07-.03-.14-.05-.21h0Z"/>
    <path class="cls-6" d="M25.04,22.26c.11.02.21.04.32.07-.07.71-.16,1.42-.25,2.13-.12-.02-.25-.04-.37-.06.12-.71.19-1.43.3-2.14h0Z"/>
    <path class="cls-7" d="M24.32,27.19c.1,0,.2.02.3.03-.01.04-.02.09-.03.13-.09,0-.19-.02-.28-.03,0-.05,0-.09.01-.14h0Z"/>
    <path class="cls-10" d="M23.11,32.51c.08-.04.09.07.08.12,0-.03,0-.07.02-.1.07.01.15.02.22.03.02.07.02.13.02.2-.14,0-.27-.03-.4-.05.02-.07.04-.14.07-.21h0Z"/>
  </g>
</svg>