<?xml version="1.0" encoding="UTF-8"?>
<svg id="_レイヤー_1" data-name="レイヤー 1" xmlns="http://www.w3.org/2000/svg" viewBox="0 0 50 50">
  <g>
    <path d="M5.02,36.93h6.48c-.04,1.72-.21,3.06-.5,4.04-.35,1.13-.95,2.02-1.81,2.68-.64.49-1.52.89-2.64,1.21l-.47-.99c1.13-.25,2-.62,2.6-1.11.67-.53,1.14-1.26,1.43-2.2.21-.69.33-1.56.35-2.6h-5.45v-1.02Z"/>
    <path d="M13.79,38.13h5.39l.47.5c-.18.9-.48,1.59-.91,2.1-.34.4-.8.73-1.38.98l-.47-.79c1-.35,1.58-.98,1.75-1.87h-4.85v-.92ZM15.97,39.85h.86v.78c0,1.12-.11,1.99-.33,2.6-.25.68-.77,1.26-1.54,1.74l-.6-.78c.46-.27.79-.54,1-.81.24-.32.4-.67.48-1.06.08-.4.13-.96.13-1.7v-.77Z"/>
    <path d="M21.78,37.27h5.05l.85.79v6.34h-6.04v-1.02h5.08v-5.09h-4.93v-1.02ZM27.34,37.57c-.17-.62-.38-1.19-.65-1.7l.65-.18c.23.38.45.92.65,1.63l-.66.25ZM28.51,37.37c-.15-.56-.37-1.11-.67-1.63l.62-.18c.28.44.51.95.69,1.55l-.65.26Z"/>
    <path d="M31.15,41.41c-.2-1-.46-1.93-.8-2.78l.78-.45c.35.85.63,1.8.85,2.85l-.83.38ZM31.77,44c.91-.29,1.6-.68,2.08-1.17s.84-1.2,1.1-2.13c.2-.74.34-1.68.43-2.84l.87.31c-.16,1.53-.39,2.7-.68,3.51-.35,1-.88,1.76-1.59,2.3-.45.34-1.02.65-1.72.92l-.48-.9ZM33.04,40.97c-.15-.8-.4-1.72-.75-2.77l.8-.4c.31.82.58,1.76.78,2.8l-.84.37Z"/>
    <path d="M39.83,36.06h.95v2.8c1.63.6,2.97,1.21,4.04,1.84l-.46,1.05c-1.02-.62-2.22-1.21-3.58-1.77v4.96h-.95v-8.88Z"/>
  </g>
  <path d="M17.12,11.91c1.07.46,2.13.2,2.13.2l1.27-.31.03-.25c-1.11.33-2,.39-2,.39-.83.01-2.03-.59-2.03-.59-1.06-.48-1.19.3-1.19.3-.08.41.8,1.23.8,1.23l-.21.29-1.9-1.32-5.63-4.28c-1.03-.83-3.3-2.44-3.3-2.44l-2.8-2.03c.32-.38-.02-.53-.02-.53-.36-.22-1.23.9-1.23.9-.79,1.08-.52,1.33-.52,1.33.35.26.63-.12.63-.12l2.73,2c2.88,2.41,9.31,6.97,9.31,6.97l.04.07-.07.12.34.29-.1.11.16.12.1-.11.42.24.08-.11,1.87,1.35c.19.14.22,0,.22,0l1.54,1.17c.1.75.74.58.74.58l7.17,5.31-.05.08.39.3-.05.07.13.09.11-.16.51.39-.03.05.15.12-.17.23.16.12.16-.21c.2.16.33.2.33.2l1.22.92.13-.2,9.65,7.04-.04.08.36.24.1-.09,4.12,2.94-.05.11.14.11.06-.08.12.07c.05.34.76.58.76.58l3.05,2.16,1.56-2.13-8.28-6.27-.08-.13c.57-.87-.23-.76-.23-.76-.46-.21-.92-.11-.92-.11l-1.98-1.56.2-.3.17.14.05-.07-.15-.11.18-.26-.09-.07.18-.25.84.61.06-.06.18.15.06-.07.17.13.09-.13-.18-.14.04-.05-.91-.68-.05.07-.27-.21c-.12-.12-.06-.53-.06-.53,0-.57-.58-.45-.58-.45-.57.4.19,1.22.19,1.22l.08.07-.46.63-1.21-.94-.18.24-.74-.56.27-.36-.56-.41-.09.12-.26-.21v-.09s.21.15.21.15l.15-.21-.45-.35-.06.09-4.91-3.6c-.52-.38-.67-.24-.67-.24-.37-.27-.52-.13-.52-.13l-8.7-6.38.11-.14-1.61-1.14-.27.32-.14-.12-.11.14.1.07-.07.07c-1.23-.72-1.4-1.33-1.4-1.33.23-.42,1.44.26,1.44.26ZM33.14,24.02l-.14-.11-3.69-2.7-.03-.21,4.57,3.35v.37s-.06.07-.06.07l-.79-.58.14-.19ZM26.4,19.47l.08-.11,1.45,1.06-.08.11-1.45-1.06Z"/>
</svg>