<?xml version="1.0" encoding="UTF-8"?>
<svg id="_レイヤー_1" data-name="レイヤー 1" xmlns="http://www.w3.org/2000/svg" viewBox="0 0 50 50">
  <defs>
    <style>
      .cls-1 {
        fill: none;
      }
    </style>
  </defs>
  <g>
    <path d="M13.15,36.09h.94v1.88h1.94v1h-1.94v4.83c0,.36-.05.62-.16.78-.12.19-.37.28-.75.28-.43,0-.85-.02-1.26-.05l-.22-1.06c.43.05.83.07,1.21.07.13,0,.2-.03.22-.1.01-.04.02-.1.02-.18v-4.07c-.53.93-1.11,1.75-1.75,2.47-.57.65-1.26,1.25-2.07,1.78l-.58-.95c1.51-.92,2.76-2.18,3.76-3.8h-3.58v-1h4.22v-1.88Z"/>
    <path d="M17.22,39.81h7.2v1.1h-7.2v-1.1Z"/>
    <path d="M25.43,43.56c.6-.94,1.01-2.17,1.21-3.69l.89.29c-.25,1.76-.68,3.14-1.29,4.15l-.81-.75ZM28.69,36.05h.92v1.8h3.08v.98h-3.08v6.13h-.92v-6.13h-3.02v-.98h3.02v-1.8ZM32.1,44.18c-.61-1.1-1.12-2.47-1.52-4.11l.88-.35c.33,1.36.82,2.63,1.47,3.81l-.83.65ZM31.54,37.57c-.15-.51-.4-1.07-.76-1.68l.66-.23c.31.53.56,1.08.76,1.67l-.66.24ZM32.71,37.44c-.2-.63-.45-1.19-.75-1.69l.62-.2c.29.43.54.97.76,1.61l-.63.28Z"/>
    <path d="M34.44,37.06h6.23v1.02h-2.67v5.2h3.11v1.02h-7.13v-1.02h3.06v-5.2h-2.61v-1.02Z"/>
  </g>
  <g>
    <g>
      <path d="M25.6,18.33c-.04.06-.07.11-.13.2-.02.02-.05.06-.06.08-.03.03-.04.06-.05.08,0,0-.17.25-.21.31,0,.01-.02.02-.03.04-.14.15-.47.5-.65.7-.15.16-.31.33-.33.35,0-.01,0-.02.01-.03,0,0,.4-.52.57-.74.07-.09.2-.26.26-.34.02-.03.08-.1.1-.13.01-.02.1-.13.13-.17.07-.1.17-.23.2-.27.05-.06.09-.1.1-.12,0,0,.01-.03.02-.03,0,0,.02,0,.04,0,.03.01.05.02.05.03,0,.01,0,.03,0,.05Z"/>
      <path d="M25.84,18.47s-.06-.04-.1-.08c-.05-.05-.11-.1-.12-.11,0-.01-.02-.04-.02-.05,0,0,0,0,0,0,0-.01,0-.03,0-.04,0,0,.02-.02.03-.03.01,0,.03-.01.05-.01.03,0,.11.01.15.02.06.02.11.04.13.05,0,0,0,0,0,0h0s0,0,0,0c0,0,0,0,0,0,0,0,.02,0,.03.01.01,0,.03.02.04.03.01.02.03.07.04.1,0,.01,0,.04,0,.05,0,.02-.02.04-.03.05,0,0-.05.03-.07.04-.03,0-.08,0-.11,0,0,0-.01,0-.02,0h0s-.01,0-.02,0h0s-.02-.01-.03-.02Z"/>
      <path d="M33.41,7.67c.11.1.19.18.23.21h0s-.02.07-.04.09c-.01.02-.09.11-.12.15-.02.02-.05.06-.06.08,0,.01-.02.02-.03.02,0,0,0,0,0,0h0s-.1-.13-.15-.18c-.06-.06-.24-.21-.39-.33-.08-.06-.24-.17-.29-.2-.11-.07-.23-.14-.3-.17h0s0,0,0,0c0,0,.18-.24.18-.25,0,0,.01-.03.02-.04,0,0,.06-.05.07-.05h0c.11.07.47.34.59.43.07.06.21.17.29.23Z"/>
      <path d="M31.26,11.05s-.02,0-.03,0h0s0-.01,0-.02c0,0,0-.01,0-.01v-.03s.03,0,.04,0c0,0,.01,0,.01,0h0s0,0,0,.01c.08.05.11.08.12.09h0s0,.03,0,.03h0s-.01.07-.02.09c0,.02-.03.05-.05.08-.01.02-.04.05-.05.06,0,0,0,.05-.01.08,0,.03-.03.07-.04.09,0,0-.09.11-.12.15-.13.16-.13.17-.13.17v.02s-.13.13-.13.13h0s-.03.03-.03.04c0,0-.04.01-.05.01-.03,0-.05,0-.05,0,0,0,0-.03,0-.03,0-.04.01-.05.03-.08.03-.05.08-.13.1-.17.02-.02.23-.29.28-.34.02-.02.06-.06.08-.08.02-.01.05-.03.06-.05.03-.04.08-.11.09-.12,0-.01,0-.03,0-.04,0-.02-.05-.05-.06-.06Z"/>
      <path d="M25.81,18.01s-.07-.1-.09-.12c-.02-.03-.04-.05-.04-.07,0,0,0-.03,0-.04,0-.01.02-.03.03-.04.01,0,.04-.02.05-.03.03,0,.07,0,.1,0,.02,0,.08.03.14.06.04.02.08.04.11.05.02.01.05.04.05.05,0,.02.02.07.03.08-.01,0-.02-.01-.03-.02-.05-.02-.12-.05-.16-.06-.05-.01-.11-.01-.13,0,0,0-.03.01-.03.02-.02.02-.03.07-.03.09,0,0,0,.01.01.02h0Z"/>
      <path d="M33.01,8.5s.02-.02.03-.01c0,0,.03.02.05.04.01.01.03.02.03.02,0,0,0,.01,0,.03,0,0-.33.43-.46.6-.16.21-.51.66-.69.9-.15.2-.43.56-.55.71-.05.06-.14.18-.14.18,0,0,0,0,0,0h0s0,0-.01,0c0,0-.02,0-.02,0v.03s-.01,0,0,.01c0,0,0,.01,0,.01h0s0,0,0,0c-.01,0-.04.03-.06.06-.13.17-.28.36-.3.39,0,0,0,0,0,0,0,0-.04-.02-.06-.04-.03-.02-.04-.03-.03-.04,0,0,.3-.4.42-.55.15-.19.46-.61.63-.83.18-.24.52-.68.67-.88.13-.17.36-.47.46-.6.01-.01.04-.05.04-.05Z"/>
      <path d="M26.38,17.49s.02.09.02.11c0,.01,0,.03-.01.04,0,0-.02.02-.03.02-.04.01-.19.02-.2.02,0,0-.04-.02-.07-.02,0,0-.05-.02-.1-.06-.04-.03-.15-.1-.18-.13-.02-.02-.04-.06-.05-.07,0-.02-.02-.07-.01-.09,0,0,.01-.03.02-.03,0-.01.03-.02.04-.03.03,0,.08,0,.1,0,.04,0,.28.06.34.09.01,0,.03.01.04.02.02.01.03.02.04.03.01.01.04.05.05.07Z"/>
      <path d="M25.86,18.06s-.02-.03-.04-.05c0,0,0,0,0,0h0s0-.02-.01-.02c0-.02.01-.07.03-.09,0,0,.02-.02.03-.02.02,0,.09,0,.13,0,.03,0,.1.03.16.06.01,0,.02.01.03.02,0,0,0,0,0,0,0,0,0,0,.01,0,0,0,.01,0,.02,0h.01s.04.06.05.08c.01.03.02.12.02.14,0,.01-.01.02-.02.03,0,0-.02,0-.02.01h0s-.04.02-.04.02c-.02,0-.04,0-.06,0-.02,0-.06-.02-.09-.04-.03-.02-.05-.03-.07-.03-.04-.04-.12-.12-.13-.13Z"/>
      <path d="M25.74,18.39s.08.07.1.08c0,0,.02.01.03.01h0s0,0-.01,0c0,0-.32.47-.39.57-.02.04-.08.12-.09.13-.01.02-.42.46-.59.65-.18.19-.58.64-.59.65-.02.02-.02.03-.05.05-.1.14-.35.46-.49.64-.18.23-.52.68-.68.89-.12.16-.38.49-.38.49,0,0-.04-.01-.04-.01-.01,0-.19.25-.2.25,0,.01-.02.02-.03.02,0,0-.07-.05-.07-.06h0s-.04-.02-.05-.03h0s.07-.08.07-.08h0s.12-.16.12-.16h0s.02-.02.02-.03h0s.02,0,.02,0h0s.03.02.03.02h0c.1-.13.35-.45.5-.64.16-.2.47-.61.63-.81.15-.19.4-.52.51-.66.02-.02.16-.18.21-.23.17-.18.51-.56.69-.75.08-.08.25-.26.26-.27.02-.02.07-.09.09-.13.14-.21.38-.57.38-.58,0,0,0,0,0-.01h0Z"/>
      <path d="M25.8,18.09s.14.09.18.12c0,0,0,0,0,0,0,0,0,0,0,0,0,0,0,0,0,0,0,0,0,0,0,0,0,0,0,0,0,0-.02-.01-.08-.03-.13-.05-.04-.01-.12-.03-.15-.02-.02,0-.04,0-.05.01-.01,0-.02.02-.03.03,0,0,0,.03,0,.04h-.05s-.05-.03-.06-.04c-.02-.01-.03-.03-.03-.04,0,0,0,0,0,0,0-.01,0-.03,0-.04,0,0,0,0,0,0h0s.01-.03.02-.03c.01-.02.03-.03.04-.03.02,0,.03,0,.04,0,.02,0,.06,0,.1.02.03,0,.12.04.13.04,0,0,0,.02.02.02Z"/>
      <path d="M25.61,18.28s-.02-.02-.05-.03c-.02,0-.03,0-.04,0,0,0-.01.02-.02.03-.01.02-.05.06-.1.12-.03.04-.13.17-.2.27-.03.04-.11.15-.13.17-.02.02-.08.1-.1.13-.06.07-.19.24-.26.34-.17.22-.56.74-.57.74,0,.01-.01.02-.01.03.02-.02.18-.19.33-.35.18-.2.51-.54.65-.7.02-.02.02-.03.03-.04.04-.06.21-.3.21-.31.01-.02.02-.04.05-.08.01-.02.04-.06.06-.08.06-.08.1-.13.13-.2,0-.01,0-.04,0-.05ZM25.55,18.23h.05s0,0,0,0c0,.01,0,.04.02.05,0,.01.07.07.12.11h0s-.02,0-.03,0c0,0-.34.5-.43.63-.01.02-.06.07-.11.12-.14.15-.47.51-.66.72-.08.09-.23.25-.29.32-.05.06-.12.13-.2.24-.11.15-.38.5-.53.69-.18.24-.52.68-.68.88-.12.16-.36.46-.36.46,0,0,0,0,0,0h0s-.01,0-.02-.01c0,0,0,0,0,0-.01-.01-.06-.05-.07-.05,0,0,0,0-.01,0,0,0-.03.04-.05.06-.02.02-.04.05-.06.08-.01.02-.04.06-.05.07-.02.02-.02.04-.03.05,0,0-.02.01-.03,0-.01,0-.07-.04-.07-.05,0,0,0,0,0-.02,0,0,.3-.39.41-.54.08-.1.21-.27.34-.44.1-.13.19-.25.26-.34.18-.24.54-.71.71-.93.15-.2.43-.56.56-.73.11-.14.26-.33.3-.39.02-.03.07-.1.1-.13.13-.17.41-.53.56-.72.03-.04.09-.11.11-.14.02-.03.05-.1.07-.14h0s0,0,0,0c0,.01,0,.03,0,.04,0,0,0,0,0,0,0,.01.02.03.03.04.01.01.05.04.06.04Z"/>
      <path d="M21.84,22.49s.13-.16.14-.17c0-.01,0-.02,0-.03h.01s.01.02.09.01c.01,0,.04,0,.05-.01.01,0,.03-.02.04-.02h0s0,0,0,0h0s0,0,0,0h0s0,0,0,0c0,0-.16.22-.3.4l-.06-.04h0s0-.01,0-.01c0,0,0,0,0-.01,0-.02.02-.07.02-.11,0,0,0,0,0,0Z"/>
      <path d="M20.76,24.78s-.02.07-.04.1c-.01.02-.04.07-.06.09-.02.02-.05.05-.07.07-.02.02-.06.04-.09.05-.02,0-.07.02-.1.02,0,0,0,0,0,0-.03,0-.08-.01-.1-.02-.02-.01-.05-.05-.06-.07-.01-.02-.02-.05-.02-.1,0-.03,0-.08,0-.1,0-.02.04-.06.04-.08,0-.01,0-.02,0-.03-.02-.02-.17-.16-.17-.16,0,0,0,0,0,0l.03-.04s0,0,0,0c0,0,.01,0,.02,0,.02,0,.03.02.05.03.01,0,.03.02.04.02,0,0,0,0,0,0h0s.01.01.02.01c0,0,0,0,0,0,0,0,.18-.23.3-.39.16-.2.49-.64.67-.88.14-.19.48-.63.48-.63.01-.01.02-.02.01-.03,0,0,0,0,0,0h0s.02-.01.04-.01c.02,0,.05,0,.06-.01l.06.04c-.06.07-.11.14-.15.19-.17.22-.51.66-.69.9-.15.19-.41.53-.52.68-.02.03-.08.1-.08.1,0,0,0,0,0,0,0,0,.01,0,.02,0,0,0,.07-.03.1-.03.03,0,.06,0,.11,0h0s.01,0,.02,0c0,0,0,0,0,0h0s0,0,0,0c.03.02.05.04.06.05,0,0,.01.02.02.04,0,.01.01.02.01.03,0,0,0,.01,0,.03,0,.01,0,.08,0,.12Z"/>
      <path d="M31.33,9.78c-.06.08-.21.29-.21.29,0,.01-.01.02,0,.03,0,0,.01,0,.02.02,0,0,.02.05.03.08,0,.01,0,.08,0,.09,0,0,0,.02-.01.03,0,.03-.03.07-.05.08,0,0-.05.04-.07.06,0,0-.02,0-.03.01-.03,0-.11.02-.12.02,0,0-.01-.01-.03-.01-.04,0-.08-.03-.1-.05-.02-.02-.05-.06-.06-.08-.01-.02-.02-.07-.03-.1,0-.03,0-.04.02-.08,0,0,.02-.06.03-.08.01-.02.06-.05.08-.06.03-.01.08-.03.11-.03.04,0,.07,0,.08.01h0s0,0,0,0c0,0,.01,0,.02.01,0,0,0,0,0,0,0,0,.01-.02.02-.02.11-.14.38-.49.54-.7.17-.23.47-.61.6-.78.02-.03.09-.11.09-.12,0,0-.04-.06-.05-.08,0-.02-.01-.09-.01-.1,0-.01.02-.07.03-.09.01-.02.04-.05.06-.07.02-.01.04-.04.06-.04.01,0,.07-.02.11-.02.02,0,.03,0,.03,0,.02.01.06.02.09.04.01.01.06.05.07.08,0,.01.02.03.02.05,0,0,0,.03,0,.05,0,.01,0,.04,0,.05,0,.02-.01.08-.02.1-.01.02-.05.06-.06.08-.02.02-.06.04-.09.05-.02,0-.1,0-.11,0-.02,0-.06-.02-.07-.02,0,0-.01.03-.01.03,0,0,0,0-.01,0,0,0-.2.25-.4.5-.13.18-.43.56-.59.77Z"/>
      <path d="M21.98,22.28s.01.02,0,.03c0,.01-.12.15-.14.17h0s0,0,0,0c0,0,0,0,0,0-.02-.08-.04-.14-.06-.15,0,0,0,0,0-.01,0,0,0,0,0,0,0,0,.04-.06.06-.08.01-.01.02-.02.03-.01h0s0,0,0,0c0,0,0,0,0,0,0,0,0,0,0,0,0,0,0,0,0,0,0,0,.02.01.03.02.02,0,.08.04.09.04Z"/>
      <path d="M21.72,22.64s0,.01-.01.03c0,0-.34.45-.48.63-.18.23-.51.67-.67.88-.12.15-.3.39-.3.39,0,0,0,0,0,0,0,0-.02,0-.02-.01h0s0,0,0,0c0,0-.02-.01-.04-.02-.02,0-.03-.02-.05-.03h0s-.02-.02-.02-.02c.1-.13.34-.45.48-.63.18-.23.52-.67.67-.88.12-.15.3-.39.3-.39,0,0,0,0,.01,0,0,0,0,0,0,0,0,0,.02.01.04.02.03,0,.09.03.1.04,0,0,0,0,0,0Z"/>
      <path d="M20.38,25.14h0s-.38.51-.54.71c0,.01-.02.02-.03.04l-.03-.03s0,0,0,0c-.03-.02-.11-.06-.16-.09-.08-.05-.29-.21-.31-.23h0s.02-.03.03-.05c.13-.18.36-.48.5-.65.08-.09.25-.31.25-.31,0,0,0,0,0,0,0,0,0,0,0,0,0,0,.15.14.17.16,0,0,.01.02,0,.03,0,.01-.03.06-.04.08,0,.02,0,.08,0,.1,0,.04,0,.07.02.1.02.03.04.06.06.07.02.01.07.02.1.02,0,0,0,0,0,0h0s-.02.04-.02.04Z"/>
      <path d="M19.31,25.54s.23.18.31.23c.05.03.12.07.16.09h0s-.09.12-.16.21c-.04.05-.11.14-.12.15,0,0-.01,0-.03-.01,0,0-.05-.03-.07-.04-.04-.03-.25-.18-.34-.24h0s-.02-.01-.02-.01c0,0,0,0,0,0h0c.09-.12.18-.23.23-.3h0s.02-.02.02-.03c0,0,0,0,0,0h0s.01-.01.02-.02h0s0,0,0,0l.02-.02Z"/>
      <path d="M19.05,26.9c-.14.19-.34.47-.4.55h0s0,0,0,.01c0,0-.04.05-.04.06h0s0-.04,0-.04c0,0,0,0,0-.01,0,0-.03-.05-.04-.07,0-.02-.02-.03-.03-.04,0,0-.03-.01-.04-.02-.03,0-.09-.01-.12,0-.02,0-.09.04-.09.04,0,0-.02,0-.03.01,0,0-.05.05-.07.06,0,0,0,0,0,0,0,0-.01,0-.02,0h0s-.13-.07-.13-.07h0s-.02-.01-.03-.02c0,0,0,0,0,0-.02,0-.04-.02-.05-.03,0,0,0,0,0,0h0c.05-.07.14-.19.19-.26.15-.2.45-.59.6-.78.08-.11.2-.25.3-.38h0s0,0,0,0c0,0,.02,0,.02.01h0c.09.07.3.22.34.25.02.02.06.04.07.04.01,0,.02.01.03.01,0,0,.08-.1.12-.15.07-.09.15-.19.16-.2h0s0,0,0,0l.03.03c-.06.08-.16.2-.2.26-.12.16-.39.53-.56.75Z"/>
      <path d="M18.59,27.52s0,.05,0,.07c0,.02,0,.03,0,.05,0,.01-.03.06-.04.08-.01.02-.03.05-.05.07-.03.04-.11.1-.15.12,0,0-.02,0-.04.02-.02,0-.03,0-.04.01-.02,0-.06,0-.09,0,0,0-.04-.01-.04-.01-.01,0-.03-.01-.03-.03,0,0-.02-.04-.03-.05,0-.01-.02-.02-.02-.03,0,0,0-.07,0-.1,0-.02,0-.08.01-.1,0,0,.01-.02.02-.03,0-.01.01-.03.01-.04,0-.01-.04-.04-.06-.06-.04-.03-.1-.09-.1-.09,0,0-.02-.02-.02-.02,0,0-.01,0-.02,0h0s.02-.03.02-.03l.02-.03h0s0,0,0,0c0,0,0,0,0,0,0,0,.03.02.05.03,0,0,0,0,0,0,.01,0,.03.02.03.02h0s.13.07.13.07h0s.01,0,.02,0c0,0,0,0,0,0,.02-.02.06-.06.07-.06.01-.01.03-.01.03-.01,0,0,.07-.04.09-.04.03,0,.08,0,.12,0,.01,0,.04.01.04.02.01,0,.02.02.03.04,0,.02.04.07.04.07,0,0,0,0,0,.01,0,0,0,.02,0,.04Z"/>
      <path d="M34.85,4.9l.26.21h0s0,.02,0,.04c0,0,0,.02,0,.03,0,0,0,0,0,0h0s-.01.02-.01.02h0c-.07.08-.51.63-.56.69-.01.02-.03.04-.04.05-.02.02-.06.03-.07.04-.02.02-.1.12-.14.17-.11.15-.17.25-.17.26,0,0,0,0,0,.02h0s.01.03.01.03c0,0,0,0,0,0,0,0,0,0,0,0h0c-.12.16-.4.53-.56.75-.06.08-.18.24-.18.24,0,0,0,.02,0,.04h0s-.1-.09-.13-.11c-.03-.03-.12-.09-.19-.14-.04-.03-.07-.05-.09-.06h0s.02-.02.03-.02c.01,0,.04-.04.05-.05.13-.17.43-.55.59-.75.1-.13.11-.15.12-.17,0,0,.02,0,.03,0,0,0,.04.02.05.02.01,0,.03,0,.03-.02.04-.07.06-.1.11-.16.08-.1.2-.26.2-.26,0,0,0,0,0-.02,0,0,0-.02,0-.02,0,0,.16-.23.22-.32.14-.2.32-.44.36-.48h0s0,0,0,0c0,0,.06-.01.07-.01,0,0,0,0,0,0h0Z"/>
      <path d="M30.67,11.46s-.04-.01-.07-.03c-.05-.03-.13-.09-.17-.12-.01,0-.02-.01-.02-.02-.02-.02-.04-.02-.08-.02-.03,0-.08,0-.11.02-.04.02-.16.1-.19.11-.01,0-.06,0-.09-.01-.03,0-.07-.02-.08-.03-.02-.01-.06-.06-.07-.08-.01-.02-.02-.06-.02-.1,0-.03,0-.05.01-.08.01-.04.03-.07.04-.09.01-.02.05-.05.07-.06.02-.01.06-.02.09-.03,0,0,.04,0,.04,0,0,0,0,0,0-.01,0,0,.07.02.11.03.02,0,.03.02.04.03,0,0,0,.02.02.03,0,0,.02.03.03.03.01,0,.01.01.01.03,0,0,0,.12,0,.12h0s0,.01,0,.02c0,0,0,.01,0,.01h0s.01,0,.02,0c.03,0,.11,0,.12,0,.02,0,.04.01.05.02h0s.05.04.07.05c.04.03.11.09.14.11.02.02.03.03.03.04,0,.01,0,.03,0,.03Z"/>
      <path d="M30.33,11.88s0,.02,0,.02c-.01,0-.02,0-.03,0-.05-.03-.14-.1-.19-.14-.03-.02-.06-.05-.06-.05-.01,0-.08,0-.1,0-.05,0-.08.01-.09.02,0,0-.05.05-.06.06-.02.01-.07.03-.1.03-.02,0-.07,0-.09,0,0,0-.06-.02-.07-.03-.02-.02-.06-.08-.08-.1,0-.01-.01-.03-.01-.04,0-.04,0-.07,0-.1,0-.01.03-.07.04-.09.02-.02.05-.06.08-.07.02-.01.03-.02.03-.02,0,0,.12-.03.14-.03.02,0,.03,0,.04.01,0,0,.02.01.03.01.02,0,.03,0,.04.02.02.01.07.1.07.1,0,0,0,0,0,.01,0,0,0,.07,0,.1h0s0,.04,0,.04h0s.02,0,.04,0c.03,0,.09,0,.11,0h0s.04.03.05.04c0,0,0,0,0,0h0s.02.02.02.02h0s.02.01.03.02c.01,0,.05.05.06.05h0s0,0,0,0h.02s0,.01,0,.01h0s.05.04.06.05c.01.01.02.02.02.03h0Z"/>
      <path d="M21.82,22.2s.03.02.03.03c0,0-.02,0-.03.01-.02.02-.06.07-.06.08,0,0,0,0,0,0h0s0,0,0-.02c0-.02-.03-.05-.07-.1h0s0,0,0,0c0,0,.04-.05.05-.06,0,0,0-.01,0-.02h0s.01,0,.04.03c0,0,.03.03.04.04Z"/>
      <path d="M26.6,16.9s-.08-.06-.14-.12c-.04-.03-.12-.09-.16-.13-.1-.07-.3-.23-.3-.23,0,0,0,0,0,0h0s.19-.23.21-.26c.02-.04.05-.07.05-.08h0s0,0,0-.01l.59.46s.01,0,.01,0c0,0,0,.02,0,.03-.04.06-.1.14-.15.2-.03.04-.06.07-.07.1-.01.02-.03.03-.04.03Z"/>
      <path d="M20.11,24.49l-.03.04s0,0,0,0c0,0-.17.21-.25.31-.14.17-.37.48-.5.65-.01.02-.02.03-.03.05h0s-.01.02-.02.02c0,0,0,.01-.01.01h0s0,0,0,0c0,0-.01.02-.02.03h0c-.05.07-.14.17-.23.29-.1.13-.22.28-.3.38-.15.2-.45.59-.6.78-.05.07-.15.19-.19.26h0s-.02.03-.02.03l-.02.02h0s0,0,0,0c0,0-.05.07-.06.08,0,0,0,0-.01,0,0,0-.05-.04-.07-.05-.01,0-.02-.02-.01-.02,0,0,.39-.51.55-.72.03-.03.09-.11.1-.13,0,0,.01-.02,0-.03,0,0,0,0,0,0l.03-.05h0s0,0,0,0c.01,0,.03.02.03.02,0,0,.35-.47.48-.65h0s0,0,0,0c0,0,0,0,0,0,.02-.03.06-.07.08-.1,0,0,.01-.02.02-.02,0,0,.02-.02.02-.02h0c.05-.06.1-.13.16-.2.11-.14.21-.28.21-.28,0-.01.01-.02,0-.03,0,0,0,0,0,0l.03-.05s.02.01.03.01c0,0,.36-.47.52-.67.17-.23.47-.62.59-.78.02-.03.07-.09.07-.09,0,0,0,0,0-.01,0,0,0,0,0,0,0,0,0,0,0-.01l.02-.02s0-.01.01-.02c0,0,.01-.02.02-.02h0s.11-.15.17-.22c.17-.22.57-.75.58-.75,0,0,0,0,0,0h0s.01,0,.02.02c.02.02.06.05.09.06,0,0,0,0,0,0,0,0,0,0-.01,0,0,0-.18.24-.3.39-.16.21-.49.64-.67.88-.14.18-.38.5-.48.63l.02.02h0s-.01,0-.02,0c0,0,0,0,0,0Z"/>
      <path d="M21.41,22.46s.03.03.04.03c0,0,.01.01.02.01,0,0,0,0,0,0,0,0-.41.53-.58.75-.05.07-.14.19-.17.22,0,0,0,0,0,0,0,0-.05-.03-.08-.06h-.02c.06-.09.19-.26.27-.36.03-.05.09-.12.12-.16.03-.04.09-.12.12-.16.04-.05.11-.14.15-.19.04-.06.07-.09.08-.11,0,0,.02-.02.02-.02,0,0,0,0,.01,0,0,0,.01,0,.02.02Z"/>
      <path d="M21.68,22.19s-.02-.03-.03-.04c0,0,0-.02-.01-.04,0,0,0,0,0-.01,0,0,.01-.02.02-.03h.03s.03.03.05.05c0,0,0,0,.01,0,0,0,0,.01,0,.02,0,0-.04.06-.05.06,0,0,0,0,0,0,0,0-.01,0-.02-.02Z"/>
      <path d="M25.88,16.35s-.04-.02-.05-.03h0s-.04-.03-.04-.03h0c.07-.09.16-.22.26-.35h0s.05.03.05.03h0s0,0,0,0c0,0,0,0,0,0,.02.01.04.03.04.03,0,0,.01,0,.02-.01,0,0,0,0,.01-.02,0,0,0,0,0,0,0,0-.08.1-.1.13-.04.05-.17.23-.2.26,0,0,0-.02,0-.02Z"/>
      <path d="M29.11,12.69s.05.07.05.07c0,0,0,0,0,.01,0,0,0,.04,0,.05,0,.03,0,.09-.01.11-.01.02-.05.06-.08.08-.03.02-.07.04-.09.04-.02,0-.08-.02-.1-.02-.03,0-.06-.03-.08-.06-.02-.03-.04-.05-.04-.05,0,0,0-.04,0-.05,0-.03,0-.08.01-.11,0-.01,0-.02,0-.02-.04-.04-.13-.12-.14-.13,0,0-.01-.02,0-.03,0,0,0,0,.02,0h0s0,0,0,0c0,0,.02,0,.03.01,0,0,.12.07.14.09h0s0,0,0,0c0,0,.01,0,.02,0,0,0,.03-.01.04-.02.02-.01.07-.02.08-.02,0,0,.05-.01.05-.01,0,0,.05.02.09.04.01,0,.02.01.03.03Z"/>
      <path d="M27.76,13.72s.09.05.14.08c0,0,.01,0,.02.01h0s.02.02.03.02c0,0,.02-.02.02-.02.03-.02.14-.03.16-.03.02,0,.04.01.05.02,0,0,.02,0,.03.01,0,0,0,0,0,0,0,0,.05.07.06.08,0,.01,0,.05,0,.05,0,0,0,.03,0,.04,0,.02-.01.05-.03.09,0,.01,0,.03,0,.03,0,0-.05.05-.07.06-.02.01-.07.02-.1.02-.04,0-.04,0-.06-.01,0,0-.06-.03-.08-.04-.02-.02-.05-.06-.06-.09,0-.03-.01-.1,0-.11,0-.01.02-.03.01-.04,0,0-.11-.11-.15-.15-.01-.01-.01-.02-.01-.03,0,0,.02-.01.03,0h0s0,0,0,0Z"/>
      <polygon points="24.09 18.59 24.09 18.59 24.09 18.59 24.09 18.59 24.09 18.59"/>
      <path d="M24.01,19.59s0,0,0,.01c0,0-.03.09-.04.1,0,0-.02.01-.03.01,0,0-.03.03-.03.03-.02.01-.07.02-.09.03-.03,0-.07,0-.09-.01-.02,0-.06-.04-.07-.05-.02-.02-.04-.06-.04-.09,0-.02,0-.07,0-.09,0,0,.02-.02.02-.03,0,0,0-.02-.01-.03-.02-.02-.07-.07-.1-.1-.02-.02-.05-.06-.04-.07,0,0,0,0,.02,0,.01,0,.03.01.04.02.02.02.08.05.12.07h0s.03.02.03.03c0,0,.08-.05.08-.05,0,0,0,0,.01,0,0,0,.07-.01.08-.01.02,0,.05.02.08.03.01,0,.04.05.06.07.01.01.01.02.01.04,0,.02,0,.09,0,.09Z"/>
      <path d="M19.99,24.14s-.03-.03-.02-.04c0-.03.47-.64.48-.67,0,0,0,0,0,0,0,0,0,0,0-.01,0,0,.01-.02.01-.02l.03-.04s0,0,0,0c0,0,.01-.02.02-.03,0,0,0,0,0,0,.08-.1.17-.21.24-.29.08-.11.25-.32.33-.43.07-.09.16-.23.16-.23,0-.01.01-.02,0-.04,0,0,0,0,0,0,0,0,0,.01.02.02,0,0,.05.05.07.06.01.01.02.02.03.03,0,0,0,0-.01,0,0,0-.02.01-.02.02-.01.02-.04.05-.08.11-.04.05-.11.14-.15.19-.03.04-.09.12-.12.16-.02.03-.08.11-.12.16-.07.1-.2.26-.27.34h.02s.07.07.08.07c0,0,0,0,0,0h0s0,.01-.02.02c0,0,0,0-.01.02l-.02.02s0,0,0,.01c0,0,0,0,0,0,0,0,0-.01,0-.02,0,0-.05-.03-.07-.04-.01,0-.03,0-.04,0-.01,0-.49.65-.5.66,0,0-.02,0-.03,0,0,0-.03-.02-.04-.02Z"/>
      <path d="M21.61,21.54s.15.04.18.04h0s.03.03.03.03c0,.01.04.04.06.06.04.04.19.27.2.28.01.01.03.03.04.06,0,.03.04.12.05.14,0,.01-.02.07-.01.07,0,0,0,.01,0,.02h0s0,0,0,0h0s0,0,0,0h0s-.02.02-.04.02c-.02,0-.04.01-.05.01-.08,0-.09,0-.09,0h-.01s-.07-.03-.09-.04c-.01,0-.02-.01-.03-.02,0,0,0,0,0,0,0,0,0,0,0,0,0,0,0,0,0,0,0,0,0,0,0,0h0s-.02-.01-.03-.03c-.01-.01-.03-.03-.04-.04-.02-.02-.03-.03-.04-.03h0s0,0-.01,0c-.02-.01-.04-.03-.05-.03h-.03s-.02,0-.02.01c0,0,0,0,0,.01h-.01s0-.01,0-.02c-.01-.01-.04-.04-.05-.06,0-.01-.02-.02-.03-.03h0s0,0,0,0c.01,0,.02-.02.02-.04,0,0-.05-.06-.07-.08,0,0-.02-.03-.03-.04h0s-.02-.07-.02-.1c0-.02,0-.06,0-.07,0-.02.02-.06.03-.09.01-.02.04-.04.05-.05.01,0,.06,0,.07,0Z"/>
      <path d="M22.81,21.17s0,.03,0,.03c0,.01,0,.07.01.1,0,.03.01.08,0,.1,0,0-.06.15-.08.17-.01.01-.03.03-.04.04,0,0-.07.04-.08.05-.01.01-.02.02-.05.02,0,0-.07.01-.11.02-.02,0-.09,0-.1,0-.02,0-.04-.02-.07-.03-.04-.01-.07-.03-.1-.04-.02-.01-.05-.05-.07-.09-.01-.02-.04-.06-.04-.07,0-.01-.03-.21-.03-.21,0,0,.01-.01.02-.03,0-.01.02-.04.02-.05,0,0,0,0,0-.01h0s0-.02.02-.06c0,0,.01-.04.02-.04h0s.02-.03.02-.03c0,0,.02-.01.03-.02,0,0,.01,0,.01-.01h0s0,0,0,0c.01,0,.03-.02.04-.03.02-.01.02-.02.03-.03,0,0,.17-.03.21-.04.01,0,.04,0,.05,0,0,0,.05.03.08.04.02,0,.04.01.04.01.02,0,.05.05.07.08.03.04.06.08.07.09Z"/>
      <path d="M24.55,17.86s0-.01,0-.01c0,0,0,0,0,0h0s0,0,0,0c0,0,.2-.25.27-.34.05-.06.08-.09.13-.14.08-.07.27-.23.33-.28.04-.03.11-.08.16-.14.05-.06.21-.26.28-.35.1-.13.15-.19.16-.21,0,0,0,0,0,0,.02-.03.15-.2.2-.26.02-.03.1-.12.1-.13,0,0,0,0,0,0,0,0,0,0,0,0,.07-.09.41-.53.54-.7.06-.09.15-.2.17-.23h0s.09.07.09.07h0c-.12.16-.41.54-.57.76-.06.08-.13.18-.16.21h0s0,.01,0,.01c0,0-.03.04-.05.08-.02.03-.2.25-.21.26h0s-.02.03-.03.04c-.07.09-.2.26-.27.35-.09.11-.18.23-.21.25,0,0-.12.08-.15.11-.04.03-.13.11-.18.15-.05.04-.14.13-.17.16-.05.05-.2.26-.26.35-.04.06-.07.1-.07.11h0s0,0,0,0c0,0-.01,0-.02,0,0,0-.02,0-.02,0l-.04-.03s0-.03,0-.05c0,0,0,0,0,0h0Z"/>
      <path d="M24.83,17.49c-.07.09-.27.34-.27.34,0,0,0,0,0,0,0,0-.01-.01-.02-.02,0,0,0,0,0,0,0-.01,0-.03,0-.04,0,0,.01-.04.01-.05,0,0,0-.01-.01-.02,0,0,0-.01,0-.02,0,0,0-.01,0-.02,0,0,.13-.17.21-.27.05-.06.1-.14.1-.14.02-.02.16-.14.24-.21.09-.08.3-.25.34-.29.03-.03.08-.09.12-.14.06-.08.18-.23.23-.31,0,0,0-.01.01-.02h0s.04.03.04.03h0s.04.03.05.04c0,0,0,.01,0,.02,0,0,0,0,0,0-.01.02-.06.07-.16.21-.07.09-.23.3-.28.35-.05.05-.12.11-.16.14-.06.05-.25.21-.33.28-.06.05-.08.08-.13.14Z"/>
      <path d="M21.45,21.89s.08.09.09.11h0s.02.02.03.03c.01.01.04.04.05.06,0,0,0,0,0,0h.01s0,.04.01.05c0,.01.03.03.03.04,0,.01.02.02.02.02h0c.04.05.06.08.07.1,0,0,0,.01,0,.02h0s0,0,0,.01c.01.02.04.08.06.15,0,0,0,0,0,0,0,.04,0,.09-.02.11,0,0,0,.01,0,.01h0s0,.01,0,.01c0,0-.04,0-.06.01-.02,0-.04,0-.04,0h0s-.07-.01-.1-.02c-.02,0-.03-.02-.04-.02,0,0,0,0,0,0,0,0,0,0,0,0-.03-.02-.07-.05-.09-.06,0,0-.02-.01-.02-.02h0s0,0-.02-.01c0,0-.02-.02-.04-.03,0,0-.01-.01-.02-.02,0,0-.02-.02-.03-.03-.01-.01-.06-.06-.07-.06,0,0-.01-.01-.02-.02,0,0,0,0,0-.01-.01-.02-.04-.04-.06-.05-.03-.02-.05-.05-.07-.08,0-.01-.01-.02-.01-.03,0,0,0,0,0,0h0s-.01-.1-.01-.11c0-.03,0-.1.02-.14,0-.01.02-.03.03-.04.01,0,.04-.01.06-.01.02,0,.06,0,.08,0,.04,0,.13.03.15.04h0Z"/>
      <path d="M33.55,7.75c.06.06.1.1.1.1,0,0,0,.02,0,.04,0,0,0,0,0,0h0s-.12-.12-.23-.22c-.08-.07-.22-.18-.29-.23-.11-.09-.47-.36-.59-.42h0s0,0,0,0c.01,0,.03,0,.05,0,.08.04.24.13.27.14.02,0,.07.03.1.03,0,0,.03-.01.04-.02h0s.05.04.09.07c.07.05.15.11.19.14.03.02.1.08.13.11h0s0,0,0,0c0,0-.01.04-.02.04,0,.01,0,.02.01.03,0,0,.11.13.16.18Z"/>
      <path d="M25.97,15.86c-.1.13-.19.25-.26.34h0s-.09-.07-.09-.07h0c.06-.09.14-.18.19-.25.02-.03.05-.07.08-.1h0s.09.08.09.08h0Z"/>
      <path d="M28.75,13.49s.02.08.02.09c0,0,0,.03,0,.04,0,0-.02.05-.02.05-.01.03-.03.09-.04.09s-.04.02-.06.04c-.02.02-.06.05-.07.06-.02,0-.08.03-.1.03-.03,0-.09,0-.11,0-.03,0-.08-.04-.1-.05,0,0-.02,0-.04,0,0,0,0-.02-.01-.03-.02-.02-.06-.07-.07-.1-.01-.01-.02-.02-.02-.02,0,0-.01-.07-.01-.1,0-.02,0-.09,0-.11,0,0,.02-.03.02-.03.01-.01.02-.03.01-.04,0,0-.21-.2-.21-.21,0,0-.02,0-.02-.01,0,0-.02-.03-.04-.05v-.02s.02,0,.03,0c0,0,.03.02.03.03,0,0,.01,0,.02,0,0,0,.03.02.06.04,0,0,0,0,0,0,.02,0,.04.02.05.03.01,0,.11.07.16.1,0,0,0,0,.01,0h0s0,0,0,0c0,0,.07-.05.09-.06.02,0,.07,0,.1,0,.01,0,.03-.01.04-.01.01,0,.03,0,.04,0,.01,0,.04.01.05.02.03.01.08.03.08.03.02.01.12.15.13.16,0,.01,0,.05,0,.08Z"/>
      <path d="M20.56,23.16s-.01.08-.03.1c0,0-.02.03-.02.03,0,.01.01.02.02.03,0,0-.02.02-.02.03,0,0,0,0,0,0l-.03.04s0,.01-.01.02c0,0,0,0,0,.01,0,0,0,0,0,0,0,0,0-.01,0-.02,0,0-.03,0-.04,0-.03.03-.05.05-.06.05,0,0-.02,0-.04,0-.01,0-.08.03-.1.03-.03,0-.08-.01-.1-.03-.02,0-.03-.02-.03-.03,0,0-.02-.03-.02-.04,0-.01-.02-.03-.02-.03,0,0,0,0,0,0,0,0,0-.02,0-.03,0-.03,0-.08,0-.11,0-.03.03-.08.04-.11.01-.02.03-.06.04-.07,0-.01.04-.04.06-.06.02-.02.05-.05.06-.06,0,0,.14-.04.15-.05,0,0,0,0,0-.01,0,0,0,0,.01,0,.03,0,.1.03.11.03h0s0,0,.01,0h0s.04.07.05.1c0,.01.01.03,0,.03,0,.02,0,.06-.01.09Z"/>
      <path d="M28.76,12.87s0,.04,0,.05c0,0,.02.03.04.05.01.02.05.05.08.06.02,0,.07.02.1.02.02,0,.06-.02.09-.04.03-.02.07-.06.08-.08,0-.02.02-.08.01-.11,0,0,0-.04,0-.05,0,0,0,0,0-.01,0,0-.05-.07-.05-.07-.01-.01-.02-.02-.03-.03-.03-.01-.08-.04-.09-.04,0,0-.05.01-.05.01,0,0-.06,0-.08.02,0,0-.03.02-.04.02,0,0-.01,0-.02,0,0,0,0,0,0,0,0,0,0,0,0,0h0s-.13-.08-.14-.09c0,0-.02,0-.03-.01,0,0,0,0,0,0h0s-.02,0-.02.01c0,0,0,.02,0,.03.02.02.11.09.14.13,0,0,0,.01,0,.02,0,.02-.02.08-.01.11ZM31.11,10.11s0-.02,0-.03c0,0,.15-.21.21-.29.16-.21.45-.6.59-.77.2-.25.4-.5.4-.5,0,0,.01,0,.01,0,0,0,0-.02.01-.03,0,0,.05.02.07.02,0,0,.08,0,.11,0,.03,0,.07-.03.09-.05.02-.01.05-.06.06-.08,0-.02.02-.07.02-.1,0,0,0-.03,0-.05,0-.01,0-.04,0-.05,0-.01-.01-.04-.02-.05-.02-.02-.06-.07-.07-.08-.02-.02-.07-.03-.09-.04,0,0-.02,0-.03,0-.04,0-.1.02-.11.02-.02,0-.05.03-.06.04-.02.02-.05.05-.06.07,0,.02-.03.07-.03.09,0,0,0,.08.01.1,0,.02.05.07.05.08,0,0-.06.09-.09.12-.13.16-.42.55-.6.78-.16.21-.43.56-.54.7,0,0-.01.02-.02.02,0,0,0,0,0,0,0,0-.02,0-.02-.01h0s0,0,0,0c-.02,0-.05-.01-.08-.01-.03,0-.08.02-.11.03-.02.01-.07.05-.08.06-.02.02-.03.07-.03.08-.02.03-.02.04-.02.08,0,.03.01.08.03.1.01.02.04.06.06.08.02.02.06.04.1.05.01,0,.02.01.03.01,0,0,.08-.01.12-.02.02,0,.03,0,.03-.01.01-.01.06-.05.07-.06.02-.02.04-.05.05-.08,0,0,0-.02.01-.03,0-.01,0-.08,0-.09,0-.03-.02-.07-.03-.08,0,0-.01,0-.02-.02ZM30.67,11.43s-.02-.03-.03-.04c-.02-.02-.1-.08-.14-.11-.02-.01-.05-.04-.07-.06h0s-.03,0-.05-.01c0,0-.09,0-.12,0,0,0-.01,0-.02,0h0s0-.01,0-.02c0,0,0-.01,0-.02h0s0-.12,0-.12c0-.02,0-.02-.01-.03,0,0-.02-.02-.03-.03,0-.01-.01-.03-.02-.03,0,0-.02-.02-.04-.03-.03-.01-.1-.03-.11-.03,0,0,0,0,0,.01,0,0-.03,0-.04,0-.03,0-.07.01-.09.03-.02.01-.06.04-.07.06-.01.02-.03.05-.04.09-.01.03-.01.05-.01.08,0,.04,0,.08.02.1.01.02.05.07.07.08.01,0,.05.02.08.03.03,0,.08.01.09.01.03,0,.15-.09.19-.11.03-.01.08-.02.11-.02.04,0,.06,0,.08.02,0,0,.01,0,.02.02.04.03.12.09.17.12.03.02.06.04.07.03,0,0,0-.02,0-.03ZM30.33,11.88h0s0-.02-.02-.03c-.01-.01-.04-.03-.06-.05h0s0,0,0,0h-.02s0-.02,0-.02h0s-.05-.05-.06-.06c0,0-.02-.02-.03-.02h0s-.02-.01-.02-.01h0s0,0,0,0c-.01-.01-.04-.03-.05-.04h0s-.08,0-.11,0c-.01,0-.03,0-.04,0h0s0-.03,0-.03h0s-.01-.11,0-.11c0,0,0,0,0-.01,0,0-.06-.09-.07-.1-.01-.01-.03-.02-.04-.02,0,0-.03,0-.03-.01-.01-.01-.02-.01-.04-.01-.01,0-.13.03-.14.03,0,0-.01,0-.03.02-.03.02-.06.05-.08.07-.01.02-.04.08-.04.09,0,.02,0,.06,0,.1,0,.02,0,.03.01.04.01.02.05.07.08.1.01.01.07.03.07.03.02,0,.08,0,.09,0,.03,0,.08-.02.1-.03.02-.01.06-.06.06-.06,0,0,.04-.01.09-.02.03,0,.09-.01.1,0,0,0,.03.03.06.05.05.04.15.1.19.14.01,0,.02.01.03,0,0,0,.01-.01,0-.02ZM33.39,8.23s-.06-.02-.07-.01c-.01,0-.03.02-.05.06-.07.1-.14.2-.15.21h0s0,0,0,0c-.01.01-.03.04-.03.05h0s-.04-.03-.05-.04c-.01,0-.02,0-.03.01,0,0-.03.04-.04.05-.1.13-.34.43-.46.6-.16.2-.49.64-.67.88-.17.23-.49.64-.63.83-.12.16-.42.55-.42.55,0,0,0,.02.03.04.03.02.06.04.06.04,0,0,0,0,0,0h0s0,0,0,0c0,0-.02.02-.03.03h0s-.04-.02-.05,0c0,0-.05.07-.29.39-.01.01-.03.04-.04.05,0,0-.08.11-.12.16-.18.24-.4.52-.54.71-.03.04-.08.1-.11.13,0,0-.36.47-.46.61-.14.18-.44.57-.6.78-.15.19-.42.55-.56.72-.18.24-.46.61-.56.73-.03.04-.07.08-.08.1-.03.04-.14.18-.21.28-.04.05-.06.07-.1.12-.06.07-.18.24-.26.33-.04.05-.08.11-.13.17l-.03-.02c.05-.07.11-.15.15-.2,0-.01,0-.02,0-.03,0,0,0,0-.01,0l-.59-.46s.1-.14.16-.21c.17-.22.45-.6.57-.76h0s-.09-.07-.09-.07h0s-.11.14-.17.23c-.13.17-.47.61-.54.7,0,0,0,0,0,0,0,0-.01.02-.01.02,0,.01-.01.02-.02.01,0,0-.02-.01-.04-.03,0,0,0,0,0,0,0,0,0,0,0,0h0s0,0,0,0h0s-.05-.03-.05-.03h0c.13-.17.26-.34.34-.45.12-.16.37-.48.49-.64h0s-.1-.08-.1-.08h0c-.1.14-.34.46-.49.65-.09.12-.22.28-.34.45h0s-.09-.07-.09-.07h0c.17-.23.43-.57.58-.77.14-.18.38-.5.48-.63l-.02-.02h0s.02-.02.02-.02h0s0,0,0,0h0s0,0,0,0h0s0,0,0,0c0,0,0,0,0,0,0,0,0,0,0,0h0s.01.01.02.02c.02.02.05.04.06.05.07.06.18.18.18.18,0,0,0,.04-.02.07,0,.01-.01.02-.02.03,0,0,.02.19.02.19,0,0,.01.01.02.02,0,.01.03.03.04.05,0,.01.02.03.02.04,0,.01.06.04.08.05.03.01.09.04.09.04.02.01.03.01.07,0,.06,0,.13-.02.14-.03.03-.02.13-.11.14-.11,0,0,.04-.08.04-.1.01-.03.03-.09.03-.11,0-.02-.02-.08-.02-.09,0,0,0-.05,0-.05,0,0-.05-.06-.06-.07-.01-.01-.04-.05-.06-.07-.02-.01-.07-.03-.11-.05-.01,0-.04-.01-.05,0,0,0-.08.01-.11.01-.03,0-.08,0-.08.01,0,0-.06.05-.07.06,0,0,0,0-.01,0h0s0,0,0,0c-.06-.04-.14-.09-.2-.12-.01-.01-.04-.02-.06-.03h-.01s.02-.05.04-.07c.01-.01.19-.25.26-.34.06-.07.17-.22.24-.3.15-.2.32-.42.32-.43,0-.01.01-.02.02-.01,0,0,.02,0,.02.01,0,.01.21.2.21.21,0,.01,0,.03-.01.04,0,0-.02.03-.02.03,0,.02,0,.09,0,.11,0,.03.01.09.01.1,0,0,.01.01.02.02.02.02.06.07.07.1,0,.01.01.02.01.03-.01,0-.03,0-.03-.01-.01-.01-.03-.02-.05-.02-.02,0-.13,0-.16.03,0,0-.02.02-.02.02,0,0-.02-.01-.03-.02h0s-.01-.01-.02-.01c-.05-.03-.1-.06-.14-.08,0,0,0,0,0,0h0s-.02,0-.03.01c0,0,0,.02.01.03.04.04.14.14.15.15,0,0,0,.03-.01.04,0,.01,0,.08,0,.11,0,.03.04.07.06.09.02.01.07.03.08.04.02.01.03.01.06.01.03,0,.08-.01.1-.02.02-.01.07-.06.07-.06,0,0,0-.02,0-.03.02-.03.03-.07.03-.09,0,0,0-.03,0-.04,0,0,0-.04,0-.05,0,0-.06-.07-.06-.08,0,0,0,0,0,0,.01,0,.03,0,.04,0,.02.01.08.04.1.05.03,0,.08,0,.11,0,.02,0,.08-.02.1-.03,0,0,.05-.04.07-.06.03-.02.06-.04.06-.04s.02-.07.04-.09c0,0,.02-.04.02-.05,0-.01,0-.03,0-.04,0,0-.01-.06-.02-.09,0-.03,0-.07,0-.08,0,0-.11-.15-.13-.16,0,0-.05-.01-.08-.03-.01,0-.04-.02-.05-.02-.01,0-.03,0-.04,0,0,0-.03.01-.04.01-.02,0-.07,0-.1,0-.03,0-.09.06-.09.06,0,0,0,0,0,0h0s0,0-.01,0c-.05-.03-.14-.09-.16-.1,0,0-.03-.02-.05-.03,0,0,0,0,0,0-.02-.02-.06-.04-.06-.04,0-.01,0-.02.01-.03,0,0,.03-.04.04-.06.15-.19.44-.58.59-.77.06-.07.16-.2.24-.29,0,0,.01,0,.02,0,0,0,0,0,0,.01,0,0,.13.12.19.18,0,0,.02.02.02.03,0,.02-.03.08-.04.1,0,.02,0,.08.01.14,0,.02.02.07.05.09.01.01.07.08.07.08.01.01.02.02.06.03.04.02.09.04.11.04.02,0,.03,0,.05,0,0,0,.03,0,.04,0,.04,0,.07,0,.1-.03.02-.01.07-.06.08-.07.01,0,.03-.01.03-.02.01-.01.07-.15.08-.17,0,0,0-.06,0-.09,0-.03-.01-.11-.01-.11,0,0-.01-.01-.04-.05-.02-.03-.07-.09-.07-.09,0,0-.03,0-.04,0,0,0-.09-.04-.1-.04-.01,0-.02,0-.04,0,0,0-.07.01-.1.02-.03,0-.07.01-.08.02-.01.01-.05.04-.06.04,0,0-.01,0-.02-.01h0s-.02,0-.02,0c0,0,0,0,0,0h0s-.11-.07-.11-.07h0s-.02-.01-.03-.01c0,0-.01,0-.02-.01h0s-.08-.05-.08-.05c.06-.09.18-.24.18-.25,0,0,.02-.02.02-.02,0,0,.19-.25.26-.34.04-.05.07-.08.12-.14.07-.1.25-.33.26-.35.02-.02.19-.24.26-.34.04-.06.09-.11.12-.15.06-.08.19-.26.26-.34.02-.02.06-.07.11-.13.24-.32.28-.36.53-.7.04-.06.07-.09.11-.13.24-.33.36-.47.38-.49.07-.1.18-.24.2-.27.02-.02.06-.07.11-.14.04-.05.11-.15.15-.2.04-.05.06-.06.1-.11.07-.1.24-.31.27-.34.01-.01.03-.03.03-.03,0,0,0-.02,0-.03,0-.02-.04-.05-.04-.06h0c.07.03.19.1.3.17.04.03.21.14.29.2.15.12.33.27.39.33.05.05.14.15.15.17h0Z"/>
      <path d="M29.68,12.31s0,.08,0,.09c0,.02-.06.15-.08.17,0,0-.02,0-.03.02-.01,0-.07.06-.08.07-.02.02-.06.02-.1.03-.01,0-.04,0-.04,0-.02,0-.03,0-.05,0-.01,0-.06-.02-.11-.04-.04-.02-.05-.02-.06-.03,0,0-.06-.07-.07-.08-.02-.03-.04-.07-.05-.09,0-.05-.02-.11-.01-.14,0-.02.04-.08.04-.1,0,0,0-.02-.02-.03-.07-.06-.19-.18-.19-.18,0,0,0-.01,0-.01,0,0-.01,0-.02,0,0,0-.02-.03-.02-.03,0,0-.02-.01-.02-.02,0,0,0-.02,0-.03h.03s0,0,0,0c0,0,0,0,0,0,.01,0,.03.01.03.01,0,0,.01,0,.02,0,0,0,.06.04.08.05h0s.01,0,.02.01c0,0,.02.01.03.01h0s.11.06.11.06h0s0,0,0,0c0,0,.01,0,.02.01h0s.01,0,.02,0c0,0,.05-.03.06-.04,0,0,.05-.01.08-.02.03,0,.1-.02.1-.02.02,0,.03,0,.04,0,0,0,.09.04.1.04,0,0,.03,0,.04,0,0,0,.05.07.07.09.03.04.04.04.04.05,0,0,.01.08.01.11Z"/>
      <path d="M27.82,14.85s-.04.1-.04.1c0,0-.11.09-.14.11,0,0-.08.02-.14.03-.04,0-.05,0-.07,0,0,0-.06-.03-.09-.04-.02,0-.07-.03-.08-.05,0,0-.01-.03-.02-.04-.01-.01-.03-.04-.04-.05,0-.01-.02-.02-.02-.02,0,0-.02-.19-.02-.19,0,0,.01-.01.02-.03.01-.03.03-.06.02-.07,0,0-.11-.12-.18-.18,0,0-.03-.03-.06-.05,0,0-.01-.01-.02-.02,0-.01-.01-.03-.02-.05v-.02s.02.01.02.01c0,0,0,0,0,0,0,0,0,0,.01,0,0,0,.01,0,.02,0,0,.02,0,.02.02.03,0,0,.01,0,.02,0,.02,0,.04.02.06.03.06.03.14.08.2.12h0s0,0,0,0c0,0,0,0,.01,0,0,0,.07-.05.07-.06,0,0,.05-.01.08-.01.03,0,.1-.01.11-.01.01,0,.03,0,.05,0,.04.01.09.04.11.05.02.01.05.05.06.07.01.02.06.07.06.07,0,0,0,.04,0,.05,0,0,.02.07.02.09,0,.03-.01.09-.03.11Z"/>
      <path d="M19.22,24.86h0s0,0,0,0c0,0,0,0,0,0ZM19.22,25.03s-.02,0-.03,0c0,0-.05.05-.07.06-.02.02-.07.03-.11.04-.03,0-.07,0-.09,0,0,0-.03-.01-.04-.01-.02,0-.03-.01-.04-.02-.01-.01-.05-.09-.05-.1,0,0,0,0,0,0,0-.01,0-.01,0-.03,0-.06.02-.15.03-.17,0,0,.03-.04.04-.07.01-.02.04-.06.07-.08,0,0,.07-.06.07-.06,0,0,0-.01.02-.02,0,0,.08-.02.1-.03.01,0,.03-.01.03-.02,0,0,0,0,.01,0,0,0,.01,0,.02,0,.02,0,.08.02.08.03,0,0,.03.05.05.08.01.02.02.04.02.04,0,0,0,.06,0,.09,0,.03,0,.09-.02.11,0,.02-.03.05-.03.06.01.03.14.16.15.16v.02s.02,0,.02,0l-.03.05s-.2-.11-.21-.12Z"/>
      <path d="M21.77,21.54s.02.03.03.04h0s-.15-.03-.18-.04c-.02,0-.06,0-.07,0-.02,0-.04.03-.05.05-.01.02-.02.07-.03.09,0,.01,0,.05,0,.07,0,.03.02.1.02.1h0s0,0,0,0c0,0,0-.02-.01-.02-.02,0-.11-.11-.11-.11,0,0,0-.02-.01-.03,0,0-.03-.03-.03-.03,0,0-.02-.03-.02-.05,0,0,0-.04,0-.05,0-.01-.01-.04-.01-.05,0-.02,0-.06.01-.09,0,0,.01-.04.01-.04,0-.02,0-.03.02-.03,0,0,.04,0,.05-.01.02,0,.04-.01.05-.01.01,0,.04,0,.05,0,.03,0,.07.02.11.03.02,0,.04.02.06.03.01,0,.02.02.03.02.05.05.09.1.13.15Z"/>
      <path d="M21.5,21.89s.07.07.07.08c0,.01,0,.03-.02.04,0,0,0,0,0,0-.02-.02-.05-.06-.09-.11-.04-.04-.07-.09-.1-.13,0,0-.02-.02-.03-.03h0s.03-.03.03-.03c0,0,.1.1.11.11,0,0,0,.02.01.02,0,0,0,0,0,0,0,.01.02.03.03.04Z"/>
      <path d="M20.8,24.58l-.03.03h0s-.02-.04-.02-.04c-.01-.02-.04-.04-.06-.05h0s0,0,0,0c0,0,0,0,0,0,0,0-.01,0-.02,0h0s-.08,0-.11,0c-.03,0-.09.03-.1.03,0,0,0,0-.02,0,0,0,0,0,0,0,0,0,.05-.07.08-.1.11-.15.37-.48.52-.68.18-.23.53-.68.69-.9.04-.05.09-.12.15-.19.14-.18.3-.39.3-.4,0,0,0,0,0,0,0,0,0-.02,0-.02,0,0,.02-.06.01-.07,0-.02-.04-.12-.05-.14-.01-.03-.03-.05-.04-.06,0,0-.16-.24-.2-.28-.02-.02-.05-.05-.06-.06,0,0-.02-.02-.03-.04,0-.01-.02-.03-.03-.04-.04-.06-.08-.1-.13-.15,0,0-.02-.02-.03-.02h0s0-.03.02-.03c.01-.01.04-.05.16-.2.03-.04.08-.11.11-.14h0s0,0,0,0c.03.03.05.05.05.05,0,0,.02.02.03.02.01,0,.03.03.05.05.01,0,.04.03.04.03,0,0,.02.02.02.02,0,.01,0,.02,0,.03,0,0,0,0,0,.01,0,0-.01.04-.02.05,0,.01-.01.02-.02.03,0,0,.03.2.03.21,0,0,.03.05.04.07.02.03.05.07.07.09.02.02.06.03.1.04.02,0,.05.02.07.03.01,0,.08,0,.1,0,.05,0,.11-.01.11-.02.02,0,.03-.01.05-.02.01-.01.08-.05.08-.05.01,0,.03-.03.04-.04l.05.04c-.13.17-.26.34-.34.44-.11.15-.41.54-.41.54,0,.01-.01.02,0,.02,0,0,.06.04.07.05.01,0,.02,0,.03,0,0,0,.01-.03.03-.05.01-.01.04-.05.05-.07.02-.03.04-.06.06-.08.02-.02.05-.06.05-.06,0,0,0,0,.01,0,0,0,.05.04.07.05,0,0,0,0,0,0h0s-.01.02-.02.03h0s-.12.16-.12.16h0s-.07.08-.07.08h0s0,.01,0,.01c0,0,0,0,0,0,0,.01-.02.03-.02.03,0,0,0,0,0,0h0c-.13.18-.38.5-.5.66-.14.18-.42.56-.56.75-.17.23-.29.38-.31.4h0Z"/>
      <path d="M24.01,18.54s.04.02.06.04c0,0,.01,0,.02,0,0,0,0,0,0,0,0,0,0,0,0,.01.01,0,.03,0,.04,0,0,0,.03-.03.04-.03.01-.01.02-.02.04-.02,0,0,.09,0,.11-.01.02,0,.02,0,.03-.01,0,0,.02,0,.03,0,.03.01.09.04.11.04.02,0,.03.01.05.03.01.01.1.12.1.13,0,0,.02.19.02.19,0,0-.01.01-.02.03-.01.03-.03.09-.03.1,0,.01,0,.02-.02.03-.01.01-.1.07-.12.1,0,0-.02.01-.03.02,0,0-.04,0-.05.01-.03,0-.09,0-.12,0-.03,0-.08-.02-.12-.04-.04-.01-.05-.03-.06-.05,0-.01-.05-.06-.06-.06,0,0-.02-.03-.03-.05,0-.02-.02-.07-.03-.11,0-.03,0-.08,0-.11,0-.02.03-.06.03-.07,0,0,0-.02-.01-.03-.09-.09-.2-.19-.21-.21,0,0-.01-.01-.02-.01,0,0-.01-.01-.02-.01h0s0-.02,0-.03c0,0,0,0,0,0h0s0-.01.01-.01c0,0,.02,0,.02,0h0s.02,0,.02,0h.02s0,.02,0,.02c0,0,0,0,0,0,0,0,0,0,.02.01.01,0,.06.03.08.04h0s.05.03.05.03h0s0,0,.01,0Z"/>
      <path d="M23.48,19.29s-.02,0-.02,0c0,0,.02.05.04.07.04.04.09.09.1.1.01.01.02.02.01.03,0,0-.02.02-.02.03,0,.02,0,.07,0,.09,0,.03.03.07.04.09.02.02.05.05.07.05.02,0,.06.01.09.01.02,0,.07-.01.09-.03,0,0,.03-.03.03-.03,0,0,.02,0,.03-.01,0,0,.03-.09.04-.1,0,0,0,0,0-.01,0,0,0-.08,0-.09,0-.02,0-.02-.01-.04-.02-.02-.05-.07-.06-.07-.02,0-.06-.03-.08-.03-.02,0-.08.01-.08.01,0,0,0,0-.01,0,0,0-.08.05-.08.05,0,0-.02-.02-.03-.03h0s-.1-.06-.12-.08c0,0-.03-.01-.04-.02ZM25.73,17.89s.06.08.09.12c0,0,0,0,0,0l-.04.05s-.1-.03-.13-.04c-.04-.01-.08-.02-.1-.02,0,0-.02,0-.04,0-.02,0-.03.02-.04.03,0,0,0,.02-.02.03-.02.04-.05.11-.07.14-.02.03-.07.1-.11.14-.14.19-.42.54-.56.72-.03.03-.07.1-.1.13-.04.06-.19.25-.3.39-.13.17-.41.53-.56.73-.17.23-.53.69-.71.93-.07.09-.16.22-.26.34l-.05-.04s.08-.17.08-.17c0-.02,0-.07,0-.1,0-.03-.01-.09-.01-.1,0,0,0-.02,0-.03,0,0-.04-.05-.07-.09-.02-.02-.06-.07-.07-.08,0,0-.03,0-.04-.01-.03-.01-.08-.04-.08-.04-.01,0-.04,0-.05,0-.05,0-.21.04-.21.04,0,0-.01.01-.03.03-.01,0-.03.02-.04.03h0s-.14-.09-.23-.15c0,0,0,0-.01,0,0,0,0,0,0,0,0,0,0,0,0-.01,0,0,0,0,0,0,0,0,.03-.03.03-.03,0,0,.4-.52.57-.75.07-.09.23-.3.23-.3,0,0,0,0,0,0,0,0,.01,0,.02.02.08.08.2.18.23.22.01.01.02.02.01.03,0,0-.02.02-.02.03,0,.02,0,.09,0,.11,0,.03,0,.09,0,.1,0,.02,0,.02.01.03,0,0,.06.07.07.09.02.02.06.06.09.07,0,0,.06.02.07.03,0,0,.02.01.04.01,0,0,.06,0,.11-.01.04,0,.06-.01.07-.02,0,0,.07-.05.08-.05.02-.02.06-.06.08-.08.01-.02.03-.08.04-.11,0-.02,0-.05,0-.07,0,0,0-.08-.01-.11,0-.02,0-.03-.01-.04,0,0-.02-.02-.03-.03-.01-.02-.05-.07-.07-.09-.02-.02-.08-.03-.1-.04-.01,0-.03-.01-.04-.02-.01,0-.02,0-.04,0-.05,0-.16.02-.16.02-.02,0-.07.04-.08.05-.01,0-.01,0-.03,0,0,0-.02-.01-.03-.02h0s0,0,0,0c0,0-.03-.01-.04-.02l-.06-.03h0s0,0,0,0c0,0-.04-.02-.06-.03h0s-.08-.06-.08-.06h0s.13-.17.13-.17h0s.41-.53.41-.53l.41-.52h0s0-.03,0-.03c.01,0,.02,0,.02.01.01.01.12.12.21.21.01.01.02.02.01.03,0,0-.03.05-.03.07,0,.02,0,.08,0,.11,0,.03.02.09.03.11,0,.01.02.04.03.05,0,0,.05.05.06.06.01.02.03.03.06.05.03.01.09.03.12.04.03,0,.09,0,.12,0,0,0,.04-.01.05-.01.01,0,.02,0,.03-.02.02-.03.11-.09.12-.1.01-.01.02-.02.02-.03,0-.01.02-.07.03-.1,0-.01.02-.02.02-.03,0,0-.02-.19-.02-.19,0-.01-.09-.12-.1-.13-.02-.02-.03-.02-.05-.03-.02,0-.08-.03-.11-.04-.02,0-.03,0-.03,0-.01,0-.02.01-.03.01-.03,0-.1,0-.11.01-.02,0-.03,0-.04.02,0,0-.03.03-.04.03-.01,0-.03,0-.04,0,0,0,0,0,0-.01,0,0,0,0,0,0h0s0,0,0,0c0,0,0,0,0,0,0,0,0,0,0,0,0,0-.01,0-.02,0-.02-.01-.06-.04-.06-.04,0,0,0,0-.01,0h0s-.05-.03-.05-.03h0s0,0,0,0c-.02-.01-.07-.04-.08-.04,0,0-.01,0-.02-.01.02-.03.12-.16.19-.26.06-.08.15-.19.19-.24h0s.02,0,.02.01c.01.02.04.03.07.05.02.01.07.04.1.05.03.01.08.03.11.04.01,0,.04,0,.04,0,0,0,.03,0,.03-.01,0,0,.02,0,.02-.02,0,0,.03-.09.03-.1,0,0-.01-.03-.01-.03,0,0,0,0,0,0,0,0,.03-.05.07-.11.07-.09.22-.29.26-.35.03-.03.12-.12.17-.16.05-.04.14-.12.18-.15.04-.03.15-.11.15-.11.03-.02.12-.14.21-.25.07-.09.2-.27.27-.35.01-.02.02-.03.03-.04,0,0,0,0,0,0,0,0,.21.15.3.23.04.03.13.1.16.13.06.05.13.11.14.12,0,0,.02,0,.04-.03.02-.02.04-.06.07-.1l.03.02c-.16.21-.36.46-.45.58h0s-.03-.02-.04-.02c-.07-.03-.3-.08-.34-.09-.02,0-.07,0-.1,0-.02,0-.03.02-.04.03,0,0-.02.03-.02.03,0,.02,0,.07.01.09,0,.01.03.05.05.07.03.03.13.1.18.13.05.03.09.05.1.06l-.08.1h0c-.06-.02-.12-.05-.14-.05-.03,0-.07,0-.1,0-.01,0-.04.02-.05.03-.01,0-.03.03-.03.04,0,0,0,.03,0,.04,0,.02.02.04.04.07Z"/>
      <path d="M24.46,17.57l-.04-.04s.01,0,.02,0c0,0,.02.02.02.02,0,0,.05-.06.15-.2.04-.05.11-.14.14-.18.02-.03.03-.05.04-.05,0,0,.33-.28.52-.44.05-.04.06-.05.1-.11.05-.07.16-.21.22-.29.02-.02.04-.05.06-.08.07-.1.17-.22.26-.34.12-.16.25-.33.34-.45.14-.19.39-.5.49-.64h0s.1.06.1.06h0c-.12.17-.37.49-.49.65-.09.11-.22.28-.34.45-.1.13-.19.25-.26.34,0,0,0,.01-.01.02-.06.08-.18.23-.23.31-.04.05-.09.11-.12.14-.04.04-.25.21-.34.29-.08.07-.22.19-.24.21,0,0-.06.08-.1.14-.08.1-.21.27-.21.27,0,0,0,.01,0,.02h-.01s0,0,0,0c0,0-.02,0-.02,0,0,0,0,0,0,0l-.04-.03s0-.03,0-.05c0,0,0-.01.01-.02Z"/>
      <path d="M23.03,19.86s.04.02.04.02c0,0,0,0,0,0h0s.03.02.03.02c.02.01.02.01.03,0,.01-.01.06-.05.08-.05,0,0,.1-.01.16-.02.02,0,.03,0,.04,0,0,0,.02.01.04.02.02,0,.08.02.1.04.02.02.06.07.07.09,0,.01.03.03.03.03,0,0,.01.03.01.04,0,.03.01.1.01.11,0,.02,0,.05,0,.07,0,.02-.02.08-.04.11-.01.03-.05.07-.08.08,0,0-.07.05-.08.05-.02.01-.03.01-.07.02-.05,0-.1.01-.11.01-.02,0-.03-.01-.04-.01-.01,0-.07-.02-.07-.03-.02,0-.07-.04-.09-.07-.02-.02-.07-.09-.07-.09,0-.01-.01-.02-.01-.03,0-.02,0-.07,0-.1,0-.02,0-.09,0-.11,0,0,.02-.02.02-.03,0,0,0-.02-.01-.03-.03-.03-.15-.14-.23-.22,0,0-.01-.02-.02-.02h0s0,0,0,0c0,0,0,0-.01-.01,0,0,0,0,0,0l.03-.03h.02s0,0,0,0l.03.02.08.05h0s.05.03.06.03h0s0,0,0,0l.06.03Z"/>
      <path d="M21.2,22.26s.05.04.06.05c0,0,0,0,0,.01,0,0,0,0,0,0,0,.01,0,.03,0,.04,0,0-.1.14-.16.23-.08.11-.25.32-.33.43-.06.08-.16.2-.24.29,0,0,0,0,0,0,0,0-.03-.02-.02-.03,0,0,.01-.02.02-.03.01-.02.02-.07.03-.1,0-.03,0-.08.01-.09,0,0,0-.02,0-.03-.01-.02-.04-.07-.05-.09h0s0,0-.01,0h0s-.08-.02-.11-.03h0s.03-.04.03-.04v-.02s.42-.51.57-.71c.01-.01.03-.04.04-.05h0s.02,0,.03.02c.01.01.03.03.04.03,0,0,0,.01.01.02,0,0,0,0,0,0,0,0,0,.02.01.03.02.02.04.05.07.08Z"/>
      <path d="M22.09,21.2s0-.02,0-.03c0,0-.01-.02-.02-.02,0,0-.03-.02-.04-.03-.02-.01-.04-.04-.05-.05,0,0-.03-.02-.03-.02,0,0-.02-.03-.05-.05,0,0,0,0,0,0,0,0-.02-.02-.03-.02,0,0,0,0,0,0h0s0,0,0,0c0,0,0-.03,0-.05,0-.01,0-.03,0-.03l.02-.02s.01,0,.02,0c0,0,.02,0,.03,0,0,0,0,0,0,0h0s0,0,0,.01c0,0,0,0,0,0h0s0,0,.01,0c.09.06.23.15.23.15h0s0,0,0,0h0s-.01,0-.01,0c0,0-.02.02-.03.02l-.02.03h0s-.01.03-.02.04c-.02.04-.02.06-.02.06h0Z"/>
      <path d="M29.34,10.99s-.02-.01-.02-.02c0,0,0-.01,0-.03,0,0,.36-.47.51-.67.18-.23.5-.65.64-.84.05-.07.13-.17.15-.2,0-.01.03-.04.03-.05,0,0,.01,0,.02,0,0,0,.06.05.07.05.01.01.01.03,0,.05,0,0-.35.46-.5.65-.18.23-.5.65-.64.84-.05.07-.13.17-.15.2-.02.03-.04.06-.05.06,0,0-.06-.04-.06-.04Z"/>
      <path d="M24.56,17.34h.02s.16-.2.17-.22c.01-.02.09-.09.14-.12.05-.04.16-.13.17-.14.02-.02.08-.1.11-.14.04-.05.13-.18.14-.18,0-.01.01-.02.01-.03h0s0,0,0,0h0s0,0,.01-.01c0,0,.09-.1.13-.17.02-.02.08-.1.16-.2h0s.09.07.09.07h0s-.04.06-.06.08c-.06.08-.17.23-.22.29-.04.06-.05.07-.1.11-.19.16-.52.44-.52.44,0,0-.02.02-.04.05-.03.04-.1.13-.14.18-.1.14-.15.2-.15.2,0,0-.02,0-.02-.02,0-.02,0-.02.03-.05.03-.04.09-.11.1-.13h0s0,0,0,0h0s0,0,0,0h0s0,0,0,0c0,0,0,0,0,0,0,0,0,0,0,0h-.01s0-.01,0-.02Z"/>
      <path d="M18.78,25.11c.15.13.42.34.43.34h0c-.05.07-.11.15-.16.21h0s-.01.01-.02.02c0,0-.01.02-.02.02-.03.03-.06.07-.08.1,0,0-.02-.01-.02-.01-.02-.01-.03-.02-.03-.02,0,0,0,0,0,0h0c-.09-.06-.19-.15-.21-.16-.06-.04-.17-.14-.17-.14,0,0,0-.01,0-.02.03-.04.09-.12.12-.17.06-.08.13-.17.13-.18l.02.02Z"/>
      <path d="M20.35,23.48s.03-.03.06-.05c.01-.01.03-.02.04,0,0,0,0,.01,0,.02,0,0,0,0,0,0,0,0,0,0,0,0-.02.02-.48.64-.48.67,0,.01,0,.03.02.04,0,0,.04.02.04.02.01,0,.02,0,.03,0,0,0,.49-.65.5-.66,0,0,.02,0,.04,0,.02,0,.06.03.07.04,0,0,0,0,0,.02,0,0,0,0,0,.01,0,0-.04.06-.07.09-.12.16-.42.56-.59.78-.15.2-.52.67-.52.67,0,0-.02,0-.03-.01,0,0,0,0,0,0v-.02s-.15-.13-.16-.16c0,0,.02-.04.03-.06.01-.02.02-.07.02-.11,0-.03,0-.09,0-.09,0,0,0-.02-.02-.04-.02-.03-.04-.07-.05-.08,0,0-.06-.02-.08-.03,0,0-.01,0-.02,0h0s.02-.03.02-.03v-.02c.13-.15.42-.53.6-.76.06-.08.16-.21.2-.26h0s.04-.05.04-.05h0s0,0,0,0c0,0,.02.02.02.03,0,0,.01.03.02.04,0,0,.02.02.03.03.03.01.07.03.1.03.02,0,.09-.03.1-.03.01,0,.03,0,.04,0Z"/>
      <path d="M24.55,17.86s0,.05,0,.05l.04.03s.01,0,.02,0c0,0,.02,0,.02,0,0,0,0,0,0,0h0s0,0,0,0c0,0,.01.02.01.03,0,0-.02.09-.03.1,0,0-.01.01-.02.02,0,0-.03,0-.03.01,0,0-.03,0-.04,0-.03,0-.08-.02-.11-.04-.02-.01-.07-.04-.1-.05-.03-.02-.05-.04-.07-.05,0,0-.01,0-.02-.01h0s-.13.17-.19.24c-.08.1-.17.23-.19.26,0,0,0,0,0,0h0s-.02-.02-.02-.02h-.02s0-.01,0-.01c.14-.18.4-.51.4-.52h0s0,0,0,0c0,0,.01-.01.02-.02,0,0,.01-.02.01-.02v-.05s0,0,0,0c0-.01-.01-.03-.02-.04,0,0,0,0,0,0,0,0,0,0,0,0,0,0,0-.02-.02-.03,0,0,.01,0,.02,0,.07.04.09.05.13.06.03.01.09.02.12.02.02,0,.04-.01.05-.02,0,0,.01,0,.02-.01,0,0,0,0,0,0,0,.01.01.02.02.02h0s0,0,0,.01c0,0,0,0,0,.01h0s0,0,0,0Z"/>
      <path d="M26.57,14.67c.07-.09.12-.15.22-.27.03-.04.06-.07.06-.07h0s.06.05.06.05l.02.02c-.1.13-.34.44-.48.63-.15.2-.41.54-.58.76-.03.04-.06.07-.08.1-.05.07-.13.16-.19.25-.07.09-.14.18-.16.2-.05.06-.12.16-.13.17,0,0,0,0-.01,0h0c-.05.04-.24.21-.3.26-.04.04-.14.14-.18.18-.05.06-.11.14-.14.18-.04.05-.07.08-.1.11h0s0,0,0,0h0s0,0-.01,0c0,0-.02,0-.02,0l-.06-.04s-.01-.03,0-.04c0-.01.01-.02.02-.03h0s0,0,0,0c0,0,0,0,0-.01h0s.13-.19.2-.27c0,0,.02-.02.03-.04.02-.03.05-.06.06-.08h0s0,0,0,0c.21-.18.4-.35.55-.48.02-.02.04-.04.05-.05h0s.14-.2.15-.22c.02-.02.07-.1.1-.14,0,0,.08-.11.1-.13.08-.11.35-.43.49-.59.02-.03.16-.22.2-.27.06-.08.11-.15.13-.17h0s0,0,0,0c0,0,0,0,0,0h0Z"/>
      <path d="M19.22,25.03s.17.09.21.12c0,0,0,0,0,0,0,0,0,.02,0,.03,0,0-.1.13-.21.28h0s-.28-.21-.43-.34l-.02-.02-.03-.03s.03-.03.03-.04h0s.04-.05.04-.05h0s0,0,0,0c0,0,.04.08.05.1.01.01.02.02.04.02,0,0,.03.01.04.01.02,0,.05,0,.09,0,.03,0,.08-.03.11-.04.01-.01.06-.06.07-.06,0,0,.02,0,.03,0Z"/>
      <path d="M21.87,20.96h0s-.03-.01-.06-.03c0,0-.03-.02-.03-.03,0,0,0-.02,0-.03,0,0,0-.03.01-.04h0s.03-.01.04-.02c0,0,.47-.62.47-.62,0-.01,0-.02.01-.03,0,0,.02-.01.02-.02.01-.02.39-.52.53-.7.15-.2.35-.46.4-.53.01-.02.05-.05.05-.05,0,0,0,0,0-.02,0,0,0,0,0,0,0,0,.01-.02.02-.03.12-.16.41-.54.58-.77.07-.09.24-.3.24-.3,0-.01.02-.02.03,0,0,0,.03.03.03.02,0,0,0,0,0,0,0,0,0,0,0,0,0,0,.01.02.02.04,0,0,0,0,0,0v.05s-.01.01-.02.02c0,0,0,.01-.02.02,0,0,0,0,0,0h0s-.26.34-.4.52h0s0,0,0,0c0,0-.01,0-.02,0,0,0-.01,0-.01,0h0s0,.02,0,.02c0,0,0,.01,0,.01h0s-.03.05-.15.21c-.06.07-.18.24-.25.33-.17.22-.44.58-.55.72h0s-.02,0-.02,0l-.03.03s0,0,0,0c0,0,0,0,.01.01h0s0,0,0,0c0,0,0,0,0,0,0,0-.16.21-.23.3-.17.22-.57.74-.57.75,0,0-.03.03-.03.03,0,0,0,0,0,0h0s0,0,0,0c0,0-.02,0-.03,0,0,0,0,0-.02,0l-.02.02s0,.02,0,.03c0,.01,0,.04,0,.05,0,0,0,0,0,0Z"/>
      <path d="M29.14,11.19s.09.07.09.07h0s0,0,0,0l.02.02s-.18.24-.19.25c-.11.15-.24.33-.27.36h0s0,0,0,0h0s-.03,0-.03,0c0,.01,0,.03,0,.03-.01,0-.03.03-.04.04-.1.14-.42.56-.57.75-.08.1-.21.27-.26.34,0,.01-.02.03-.02.04,0,0-.02,0-.03,0v.02c-.11.15-.4.53-.57.75-.07.09-.23.3-.23.3,0,0,0,0,.01,0,0,0,0,.01,0,.02,0,0-.02,0-.02.02-.01.02-.05.07-.06.08,0,0-.01,0-.02,0,0,0,0,0-.01,0,0,0,0,0,0,0h-.03s0,0,0,0c0,.02.01.03.02.05h0s0,0,0,0c0,0,0,0,0,0h0s0,0,0,0h0s0,0,0,0h0s0,0,0,0l-.02.02h0s-.06-.05-.06-.05h0s-.03.03-.06.07c-.1.12-.15.18-.22.27h0s0,0,0,0c0,0,0-.02-.02-.03,0,0,0,0-.01,0,0,0-.02-.01-.02-.02,0,0,.21-.28.32-.42.13-.17.41-.54.56-.73.17-.23.53-.7.72-.94.16-.21.46-.6.6-.79.12-.15.42-.54.42-.54,0-.01.01-.02.02-.01Z"/>
      <path d="M21.35,21.77s.07.09.1.13h0s-.11-.03-.15-.03c-.02,0-.06,0-.08,0-.02,0-.05,0-.06.01-.01,0-.02.02-.03.04-.01.04-.02.11-.02.14,0,0,.01.11.01.11h0s0-.01-.01-.02c0,0-.02-.02-.04-.03-.01-.01-.03-.01-.03-.02h0s0-.02-.01-.03c0,0-.05-.06-.07-.08-.01-.01-.02-.02-.02-.02,0,0-.02-.15-.02-.16,0,0,.01-.03.02-.08,0-.02.01-.04.02-.05,0,0,.03-.02.04-.02.02,0,.08,0,.08,0,.02,0,.08.01.1.02.04,0,.05.01.06.03.02.02.04.04.06.06.02.01.03.02.03.03Z"/>
      <path d="M18.91,25.8s.01,0,.02.01c0,0,0,0,0,0,0,0,0,0,0,0h0c-.13.18-.47.64-.48.65,0,0-.02,0-.03-.02,0,0-.02-.02-.03-.03,0,0,0,0,0,0-.01-.01-.02-.02-.03-.03h0s-.1-.11-.1-.13c0,0,.02-.02.02-.03.01-.02.02-.08.03-.11,0-.01,0-.1,0-.1,0-.01-.03-.07-.03-.08,0-.02-.02-.04-.04-.04-.01,0-.04-.02-.06-.02-.01,0-.05-.01-.05-.01,0,0-.01,0-.03.01,0,0,0,0,0,0l.06-.07h0c.05-.06.17-.22.24-.3.12-.16.28-.36.34-.44l.03.03s-.07.09-.13.18c-.03.05-.09.13-.12.17,0,.01,0,.02,0,.02,0,0,.11.1.17.14.02.01.12.1.21.16h0s0,0,0,0h0s.01.01.03.02Z"/>
      <path d="M18.41,26.45l-.03.05s-.14-.08-.16-.1c-.02-.01-.04-.03-.05-.03,0,0-.03,0-.03,0,0,0-.03.03-.03.04-.03.03-.12.05-.16.06-.01,0-.02,0-.03,0-.02-.01-.1-.04-.11-.04,0,0-.04-.07-.05-.09,0-.01-.01-.04-.01-.05,0,0,0,0,0-.02,0,0,0-.02,0-.02,0-.01,0-.03,0-.05,0-.02.01-.05.02-.06.01-.02.03-.08.05-.1.01-.02.05-.07.06-.08.02-.02.06-.05.09-.06,0,0,.07-.03.11-.04,0,0,0,0,0,0,.02,0,.03-.01.03-.01,0,0,.03,0,.05.01.02,0,.05.02.06.02.01,0,.03.03.04.04,0,0,.03.06.03.08,0,0,0,.09,0,.1,0,.02-.01.09-.03.11,0,0-.02.02-.02.03,0,.02.08.11.1.13h0s.02.02.03.03c0,0,0,0,0,0,.02.02.03.03.03.03,0,0,0,0,0,0h0Z"/>
      <path d="M17.42,29.36c-.04.06-.07.11-.1.15-.06.1-.17.31-.24.43-.05.09-.16.29-.17.32-.01.04-.05.26-.05.31,0,.03-.01.07,0,.09,0,.01.04.06.05.08,0,0,0,.03,0,.03,0,.02-.09.13-.12.18-.02.03-.04.07-.04.07,0,0-.22.2-.28.26-.01.01-.02.02-.03.02-.01,0-.12-.05-.17-.08-.06-.03-.18-.1-.22-.12-.05-.03-.16-.12-.16-.12-.01,0-.04-.02-.05-.03-.17-.13-.54-.4-.73-.55-.09-.08-.25-.2-.32-.27-.09-.08-.27-.25-.31-.29-.02-.02-.07-.08-.07-.08,0-.01-.02-.03-.02-.04,0-.01.03-.07.03-.08.03-.06.09-.16.11-.21.04-.06.08-.12.12-.16.01-.01.05-.07.07-.08.02-.02.06-.05.08-.06.01,0,.03,0,.04,0,0,0,.03.02.04.02.01,0,.01,0,.02,0,0,0,.17-.06.2-.08.07-.03.15-.07.18-.1.04-.03.09-.08.13-.13.07-.07.24-.23.33-.31.08-.08.25-.25.32-.33.13-.14.34-.36.56-.6.17-.19.58-.65.6-.67.06-.06.2-.23.27-.33.05-.06.12-.16.17-.22,0,0,0,0,0,0,0,0,0,0,.01-.02,0,0,0,0,0,0h0s.04-.06.07-.09h0s0,.02,0,.02c0,.01,0,.04.01.05,0,.02.04.08.05.09,0,0,.09.03.11.04,0,0,.01,0,.03,0,.04,0,.12-.03.16-.06,0,0,.03-.04.03-.04,0,0,.02-.01.03,0,0,0,.03.02.05.03.02.01.13.08.16.1,0,0,0,0,0,0,0,0,0,.02,0,.03-.02.01-.08.09-.1.13-.15.2-.54.71-.55.72,0,0,0,.02.01.02.02.01.06.05.07.05,0,0,0,0,.01,0,0,0,.05-.07.06-.08,0,0,0,0,0,0,0,0,.02,0,.02,0,0,0,.01.02.02.02,0,0,.07.06.1.09.02.02.06.05.06.06,0,.01,0,.02-.01.04,0,.01-.02.03-.02.03,0,.01-.01.07-.01.1,0,.03,0,.1,0,.1,0,0,.01.01.02.03,0,0,.02.04.03.05,0,.01.02.02.03.03,0,0,.04.01.04.01.03,0,.07.01.09,0,0,0,.02,0,.04-.01l.02.02s-.34.51-.46.7c-.11.18-.33.54-.44.73Z"/>
      <path d="M22.55,19.77c.17-.22.46-.6.59-.76.01-.02.11-.14.12-.14,0-.01.02-.03.03-.03,0,0,.03.02.03.03,0,0,0,.01,0,.02,0,0-.04.04-.05.05-.05.06-.25.33-.4.53-.14.18-.52.68-.53.7,0,0-.02.02-.02.02-.01,0-.03-.02-.03-.03,0,0,.15-.2.27-.37Z"/>
      <path d="M24.55,17.71s-.01.04-.01.05c0,0,0,.02,0,.04,0,0-.01.01-.02.01,0,0-.03.01-.05.02-.03,0-.09,0-.12-.02-.04-.01-.06-.02-.13-.06,0,0-.01,0-.02,0,0,0-.01-.01-.02-.01-.01,0-.03-.01-.03-.01,0,0,0-.02,0-.02,0,0-.02-.01-.02-.02,0,0-.02-.07-.03-.09,0-.02,0-.08.02-.1,0,0,.02-.02.04-.02.02,0,.13-.02.13-.02.02,0,.06.04.12.09,0,0,0,0,0,0l.04.04s0,.01-.01.02c0,.01,0,.03,0,.05l.04.03s0,0,0,0c0,0,.02,0,.02,0,0,0,0,0,0,0h.01s0,.01,0,.02c0,0,.01.01.01.02Z"/>
      <path d="M26.43,14.84s-.18.24-.2.27c-.13.16-.4.48-.49.59-.02.03-.1.13-.1.13-.03.04-.08.12-.1.14-.01.01-.13.18-.15.21h0s-.03.04-.05.06c-.15.14-.33.3-.55.48,0,0,0,0,0,0h0s-.04.05-.06.08l-.02-.02h0s0-.01,0-.01h0s0-.01,0-.01l.04-.04h0s.1-.13.15-.19c.05-.05.29-.27.45-.42h0s.03-.02.04-.03c.02-.01.03-.03.05-.04,0,0,0,0,0,0,.01-.02.05-.07.06-.08.12-.16.33-.46.47-.64.16-.21.36-.45.46-.56.05-.06.09-.12.09-.12h0s0,0,0,0c0,0,.01,0,.01,0,.02,0,.02.02.02.03,0,0,0,0,0,0-.01.02-.06.09-.13.17Z"/>
      <path d="M24.56,17.34s0,0,0,0c-.03.02-.05.03-.08.03-.02,0-.08-.01-.1-.02-.04-.02-.12-.06-.17-.1-.02-.02-.06-.05-.07-.08,0-.02,0-.08,0-.08,0-.03.01-.06.03-.07,0,0,.02-.02.03-.02.01,0,.04,0,.04-.01h0s0,0,0,0c0,0,.06-.01.09,0,.03,0,.09.05.11.06,0,0,.02.04.04.07,0,0,0,0,0,.01h0s0,0,0,0c0,0-.01.02-.02.03,0,.01,0,.03,0,.04l.06.04s.01,0,.02,0c0,0,0,0,.01,0h0s0,0,0,.01c0,0,0,.03,0,.05,0,.01,0,.03,0,.05Z"/>
      <path d="M24.49,17.12s-.03-.06-.04-.07c-.02-.02-.08-.06-.11-.06-.03,0-.09,0-.09,0h0s0,0,0,0c0,0,0,0,0-.01,0,0,0-.01,0-.02,0,0-.01,0-.01,0,0,0,0,0,0-.01,0,0,0-.09.01-.1,0,0,.01-.01.02-.02.02-.02.07-.03.1-.03.03,0,.08,0,.1.02.02,0,.05.04.07.06.02.02.05.03.06.04h0s0,0,0,0l.1-.12h0s0,0,0,0h0s.02.02.02.02c-.01.01-.02.03-.03.04-.07.09-.19.27-.2.28h0Z"/>
    </g>
    <g>
      <line class="cls-1" x1="34.85" y1="4.9" x2="35.11" y2="5.11"/>
      <path class="cls-1" d="M28.84,11.91c.06-.09.18-.24.18-.25,0,0,.02-.02.02-.02,0,0,.19-.25.26-.34.04-.05.07-.08.12-.14.07-.1.25-.33.26-.35.02-.02.19-.24.26-.34.04-.06.09-.11.12-.15.06-.08.19-.26.26-.34.02-.02.06-.07.11-.13.24-.32.28-.36.53-.7.04-.06.07-.09.11-.13.24-.33.36-.47.38-.49.07-.1.18-.24.2-.27.02-.02.06-.07.11-.14.04-.05.11-.15.15-.2.04-.05.06-.06.1-.11.07-.1.24-.31.27-.34.01-.01.03-.03.03-.03,0,0,0-.02,0-.03,0-.02-.04-.05-.04-.06,0,0,0,0,0,0,0,0,.18-.24.18-.25,0,0,.01-.03.02-.04,0,0,.06-.05.07-.05,0,0,0,0,0,0,.01,0,.03,0,.05,0,.08.04.24.13.27.14.02,0,.07.03.1.03,0,0,.03-.01.04-.02.01,0,.02-.01.03-.02.01,0,.04-.04.05-.05.13-.17.43-.55.59-.75.1-.13.11-.15.12-.17,0,0,.02,0,.03,0,0,0,.04.02.05.02.01,0,.03,0,.03-.02.04-.07.06-.1.11-.16.08-.1.2-.26.2-.26,0,0,0,0,0-.02,0,0,0-.02,0-.02,0,0,.16-.23.22-.32.14-.2.32-.44.36-.48"/>
      <path class="cls-1" d="M35.1,5.19c-.07.08-.51.63-.56.69-.01.02-.03.04-.04.05-.02.02-.06.03-.07.04-.02.02-.1.12-.14.17-.11.15-.17.25-.17.26,0,0,0,0,0,.02"/>
      <path class="cls-1" d="M34.13,6.47c-.12.16-.4.53-.56.75-.06.08-.18.24-.18.24,0,0,0,.02,0,.04,0,0,0,0,0,0,0,0-.01.04-.02.04,0,.01,0,.02.01.03,0,0,.11.13.16.18.06.06.1.1.1.1,0,0,0,.02,0,.04,0,0,0,0,0,0,0,.03-.02.07-.04.09-.01.02-.09.11-.12.15-.02.02-.05.06-.06.08,0,.01-.02.02-.03.02,0,0,0,0,0,0-.02,0-.06-.02-.07-.01-.01,0-.03.02-.05.06-.07.1-.14.2-.15.21"/>
      <path class="cls-1" d="M34.13,6.46h0"/>
      <line class="cls-1" x1="31.39" y1="11.08" x2="31.4" y2="11.11"/>
      <polyline class="cls-1" points="33.06 7.22 33.08 7.24 33.33 7.44"/>
      <path class="cls-1" d="M31.01,10.01s0,0,0,0c-.02,0-.05-.01-.08-.01-.03,0-.08.02-.11.03-.02.01-.07.05-.08.06-.02.02-.03.07-.03.08-.02.03-.02.04-.02.08,0,.03.01.08.03.1.01.02.04.06.06.08.02.02.06.04.1.05.01,0,.02.01.03.01,0,0,.08-.01.12-.02.02,0,.03,0,.03-.01.01-.01.06-.05.07-.06.02-.02.04-.05.05-.08,0,0,0-.02.01-.03,0-.01,0-.08,0-.09,0-.03-.02-.07-.03-.08,0,0-.01,0-.02-.02,0,0,0-.02,0-.03,0,0,.15-.21.21-.29.16-.21.45-.6.59-.77.2-.25.4-.5.4-.5,0,0,.01,0,.01,0,0,0,0-.02.01-.03,0,0,.05.02.07.02,0,0,.08,0,.11,0,.03,0,.07-.03.09-.05.02-.01.05-.06.06-.08,0-.02.02-.07.02-.1,0,0,0-.03,0-.05,0-.01,0-.04,0-.05,0-.01-.01-.04-.02-.05-.02-.02-.06-.07-.07-.08-.02-.02-.07-.03-.09-.04,0,0-.02,0-.03,0-.04,0-.1.02-.11.02-.02,0-.05.03-.06.04-.02.02-.05.05-.06.07,0,.02-.03.07-.03.09,0,0,0,.08.01.1,0,.02.05.07.05.08,0,0-.06.09-.09.12-.13.16-.42.55-.6.78-.16.21-.43.56-.54.7,0,0-.01.02-.02.02,0,0,0,0,0,0"/>
      <path class="cls-1" d="M30.68,9.18s.06.05.07.05c.01.01.01.03,0,.05,0,0-.35.46-.5.65-.18.23-.5.65-.64.84-.05.07-.13.17-.15.2-.02.03-.04.06-.05.06,0,0-.06-.04-.06-.04,0,0-.02-.01-.02-.02,0,0,0-.01,0-.03,0,0,.36-.47.51-.67.18-.23.5-.65.64-.84.05-.07.13-.17.15-.2,0-.01.03-.04.03-.05,0,0,.01,0,.02,0Z"/>
      <path class="cls-1" d="M26.3,17.38c.09-.12.28-.37.45-.58.05-.06.09-.12.13-.17.07-.09.2-.26.26-.33.04-.05.06-.07.1-.12.07-.1.18-.24.21-.28.01-.01.05-.06.08-.1.1-.13.37-.5.56-.73.13-.17.41-.53.56-.72.16-.21.46-.6.6-.78.1-.14.46-.6.46-.61.03-.03.08-.09.11-.13.14-.19.36-.47.54-.71.03-.05.12-.16.12-.16.01,0,.03-.03.04-.05.24-.32.28-.39.29-.39.01-.01.04,0,.05,0"/>
      <line class="cls-1" x1="30.95" y1="11.84" x2="30.84" y2="11.96"/>
      <path class="cls-1" d="M30.67,11.42s0,0,0,0c0,.01,0,.03,0,.03,0,0-.04-.01-.07-.03-.05-.03-.13-.09-.17-.12-.01,0-.02-.01-.02-.02-.02-.02-.04-.02-.08-.02-.03,0-.08,0-.11.02-.04.02-.16.1-.19.11-.01,0-.06,0-.09-.01-.03,0-.07-.02-.08-.03-.02-.01-.06-.06-.07-.08-.01-.02-.02-.06-.02-.1,0-.03,0-.05.01-.08.01-.04.03-.07.04-.09.01-.02.05-.05.07-.06.02-.01.06-.02.09-.03,0,0,.04,0,.04,0,0,0,0,0,0-.01,0,0,.07.02.11.03.02,0,.03.02.04.03,0,0,0,.02.02.03,0,0,.02.03.03.03.01,0,.01.01.01.03,0,0,0,.12,0,.12"/>
      <path class="cls-1" d="M30.2,11.19s.03,0,.03,0c0,0,0,0,.01,0,0,0,.01,0,.02,0,.03,0,.11,0,.12,0,.02,0,.04.01.05.02,0,0,0,0,0,0"/>
      <path class="cls-1" d="M31.4,11.11s-.01.06-.02.09c0,.02-.03.05-.05.08-.01.02-.04.05-.05.06,0,0,0,.05-.01.08,0,.03-.03.07-.04.09,0,0-.09.11-.12.15-.13.16-.13.17-.13.17"/>
      <path class="cls-1" d="M30.83,11.97s-.03.03-.03.03c0,0-.04.01-.05.01-.03,0-.05,0-.05,0,0,0,0-.03,0-.03,0-.04.01-.05.03-.08.03-.05.08-.13.1-.17.02-.02.23-.29.28-.34.02-.02.06-.06.08-.08.02-.01.05-.03.06-.05.03-.04.08-.11.09-.12,0-.01,0-.03,0-.04,0-.02-.05-.05-.06-.06,0,0-.02,0-.03,0,0,0,0,0,0,0-.01,0-.04.03-.06.06-.13.17-.28.36-.3.39,0,0,0,0,0,0,0,0-.04-.02-.06-.04-.03-.02-.04-.03-.03-.04,0,0,.3-.4.42-.55.15-.19.46-.61.63-.83.18-.24.52-.68.67-.88.13-.17.36-.47.46-.6.01-.01.04-.05.04-.05,0-.01.02-.02.03-.01,0,0,.03.02.05.04.01.01.03.02.03.02,0,0,0,.01,0,.03,0,0-.33.43-.46.6-.16.21-.51.66-.69.9-.15.2-.43.56-.55.71-.05.06-.14.18-.14.18,0,0,0,0,0,0,0,0,0,0,0,.01,0,0,0,0,0,0"/>
      <path class="cls-1" d="M30.32,11.87s0,0,0,0c0,.01,0,.02,0,.02-.01,0-.02,0-.03,0-.05-.03-.14-.1-.19-.14-.03-.02-.06-.05-.06-.05-.01,0-.08,0-.1,0-.05,0-.08.01-.09.02,0,0-.05.05-.06.06-.02.01-.07.03-.1.03-.02,0-.07,0-.09,0,0,0-.06-.02-.07-.03-.02-.02-.06-.08-.08-.1,0-.01-.01-.03-.01-.04,0-.04,0-.07,0-.1,0-.01.03-.07.04-.09.02-.02.05-.06.08-.07.02-.01.03-.02.03-.02,0,0,.12-.03.14-.03.02,0,.03,0,.04.01,0,0,.02.01.03.01.02,0,.03,0,.04.02.02.01.07.1.07.1,0,0,0,0,0,.01,0,0,0,.07,0,.1"/>
      <path class="cls-1" d="M30.05,11.65s-.08,0-.11,0c-.01,0-.03,0-.04,0-.03,0-.05,0-.06-.01,0,0,0,0,0-.01"/>
      <polyline class="cls-1" points="30.1 11.69 30.11 11.69 30.13 11.71 30.13 11.71"/>
      <polyline class="cls-1" points="30.22 11.78 30.22 11.79 30.24 11.8 30.24 11.8"/>
      <line class="cls-1" x1="28.79" y1="11.9" x2="28.79" y2="11.9"/>
      <path class="cls-1" d="M29.1,12.07s0,0,0,0c0,0,.01.01.02.01,0,0,.05-.03.06-.04,0,0,.05-.01.08-.02.03,0,.1-.02.1-.02.02,0,.03,0,.04,0,0,0,.09.04.1.04,0,0,.03,0,.04,0,0,0,.05.07.07.09.03.04.04.04.04.05,0,0,.01.08.01.11,0,.03,0,.08,0,.09,0,.02-.06.15-.08.17,0,0-.02,0-.03.02-.01,0-.07.06-.08.07-.02.02-.06.02-.1.03-.01,0-.04,0-.04,0-.02,0-.03,0-.05,0-.01,0-.06-.02-.11-.04-.04-.02-.05-.02-.06-.03,0,0-.06-.07-.07-.08-.02-.03-.04-.07-.05-.09,0-.05-.02-.11-.01-.14,0-.02.04-.08.04-.1,0,0,0-.02-.02-.03-.07-.06-.19-.18-.19-.18,0,0,0-.01,0-.01,0,0-.01,0-.02,0,0,0-.02-.03-.02-.03,0,0-.02-.01-.02-.02,0,0,0-.02,0-.03"/>
      <polyline class="cls-1" points="29.08 12.05 28.97 11.99 28.96 11.99"/>
      <path class="cls-1" d="M28.79,11.9s0,0,0,0c.01,0,.03.01.03.01,0,0,.01,0,.02,0,0,0,.06.04.08.05,0,0,0,0,0,0"/>
      <path class="cls-1" d="M28.76,11.92s-.03.03-.04.04c-.1.14-.42.56-.57.75-.08.1-.21.27-.26.34,0,.01-.02.03-.02.04"/>
      <path class="cls-1" d="M28.81,11.97c-.08.09-.18.21-.24.29-.15.19-.44.58-.59.77-.01.02-.04.06-.04.06,0,0,0,.01-.01.03"/>
      <path class="cls-1" d="M28.8,12.66s0,0,0,0"/>
      <path class="cls-1" d="M28.65,12.57s0,0-.01,0c0,0-.02,0-.02,0,0,0,0,.02,0,.03.02.02.11.09.14.13,0,0,0,.01,0,.02,0,.02-.02.08-.01.11,0,0,0,.04,0,.05,0,0,.02.03.04.05.01.02.05.05.08.06.02,0,.07.02.1.02.02,0,.06-.02.09-.04.03-.02.07-.06.08-.08,0-.02.02-.08.01-.11,0,0,0-.04,0-.05,0,0,0,0,0-.01,0,0-.05-.07-.05-.07-.01-.01-.02-.02-.03-.03-.03-.01-.08-.04-.09-.04,0,0-.05.01-.05.01,0,0-.06,0-.08.02,0,0-.03.02-.04.02,0,0-.01,0-.02,0,0,0,0,0,0,0"/>
      <path class="cls-1" d="M27.92,13.81s.02.02.03.02c0,0,.02-.02.02-.02.03-.02.14-.03.16-.03.02,0,.04.01.05.02,0,0,.02,0,.03.01.01,0,.03,0,.04,0,.02.01.08.04.1.05.03,0,.08,0,.11,0,.02,0,.08-.02.1-.03,0,0,.05-.04.07-.06.03-.02.06-.04.06-.04s.02-.07.04-.09c0,0,.02-.04.02-.05,0-.01,0-.03,0-.04,0,0-.01-.06-.02-.09,0-.03,0-.07,0-.08,0,0-.11-.15-.13-.16,0,0-.05-.01-.08-.03-.01,0-.04-.02-.05-.02-.01,0-.03,0-.04,0,0,0-.03.01-.04.01-.02,0-.07,0-.1,0-.03,0-.09.06-.09.06,0,0,0,0,0,0,0,0,0,0-.01,0"/>
      <path class="cls-1" d="M27.99,13.15s-.06-.04-.06-.04c0,0-.01,0-.02,0,0,0-.03-.02-.03-.03,0,0-.02,0-.03,0"/>
      <path class="cls-1" d="M28.01,13.17s-.01,0-.02-.02"/>
      <path class="cls-1" d="M27.85,13.12s.03.05.04.05c0,0,.02,0,.02.01,0,.01.21.2.21.21,0,.01,0,.03-.01.04,0,0-.02.03-.02.03,0,.02,0,.09,0,.11,0,.03.01.09.01.1,0,0,.01.01.02.02.02.02.06.07.07.1,0,.01.01.02.01.03,0,0,0,0,0,0,0,0,.05.07.06.08,0,.01,0,.05,0,.05,0,0,0,.03,0,.04,0,.02-.01.05-.03.09,0,.01,0,.03,0,.03,0,0-.05.05-.07.06-.02.01-.07.02-.1.02-.04,0-.04,0-.06-.01,0,0-.06-.03-.08-.04-.02-.02-.05-.06-.06-.09,0-.03-.01-.1,0-.11,0-.01.02-.03.01-.04,0,0-.11-.11-.15-.15-.01-.01-.01-.02-.01-.03,0,0,.02-.01.03,0,0,0,0,0,0,0,0,0,0,0,.01,0"/>
      <path class="cls-1" d="M27.85,13.12c-.12.15-.4.53-.58.75-.07.09-.23.3-.23.3,0,0,0,0,.01,0,0,0,0,.01,0,.02,0,0-.02,0-.02.02-.01.02-.05.07-.06.08,0,0-.01,0-.02,0,0,0,0,0-.01,0,0,0,0,0,0,0,0,0,0,0,0,0"/>
      <path class="cls-1" d="M27,14.32s.02-.04.04-.06c.01-.01.19-.25.26-.34.06-.07.17-.22.24-.3.15-.2.32-.42.32-.43,0-.01.01-.02.02-.01"/>
      <path class="cls-1" d="M26.92,14.3s.01.03.02.05c0,0,.01.02.02.02.02.02.05.04.06.05.07.06.18.18.18.18,0,0,0,.04-.02.07,0,.01-.01.02-.02.03,0,0,.02.19.02.19,0,0,.01.01.02.02,0,.01.03.03.04.05,0,.01.02.03.02.04,0,.01.06.04.08.05.03.01.09.04.09.04.02.01.03.01.07,0,.06,0,.13-.02.14-.03.03-.02.13-.11.14-.11,0,0,.04-.08.04-.1.01-.03.03-.09.03-.11,0-.02-.02-.08-.02-.09,0,0,0-.05,0-.05,0,0-.05-.06-.06-.07-.01-.01-.04-.05-.06-.07-.02-.01-.07-.03-.11-.05-.01,0-.04-.01-.05,0,0,0-.08.01-.11.01-.03,0-.08,0-.08.01,0,0-.06.05-.07.06,0,0,0,0-.01,0,0,0,0,0,0-.01"/>
      <path class="cls-1" d="M26.97,14.29s0,.02.02.03c0,0,.01,0,.02,0,.02,0,.04.02.06.03,0,0,0,0,0,0"/>
      <line class="cls-1" x1="26.91" y1="14.28" x2="26.92" y2="14.27"/>
      <line class="cls-1" x1="28.75" y1="11.89" x2="28.75" y2="11.87"/>
      <path class="cls-1" d="M29.23,11.26s-.09-.07-.09-.07c0,0-.01,0-.02.01,0,0-.3.39-.42.54-.14.18-.44.57-.6.79-.18.24-.54.71-.72.94-.15.2-.43.57-.56.73-.1.14-.32.42-.32.42,0,0,.01.01.02.02,0,0,.01,0,.01,0,.02,0,.02.02.02.03,0,0,0,0,0,0h0s0,0,0,0"/>
      <path class="cls-1" d="M26.93,14.39h0c-.1.13-.34.44-.48.63-.15.2-.41.54-.58.76-.03.04-.06.07-.08.1-.05.07-.13.16-.19.25-.07.09-.14.18-.16.2,0,0,0,0,0,0"/>
      <path class="cls-1" d="M24.58,17.23s0,0,0,0c0,0,0,.03,0,.05,0,.01,0,.03,0,.05,0,0,0,0,0,0"/>
      <path class="cls-1" d="M26.89,14.85c-.12.16-.37.48-.49.64-.09.11-.22.28-.34.45-.1.13-.19.25-.26.34,0,0,0,.01-.01.02-.06.08-.18.23-.23.31-.04.05-.09.11-.12.14-.04.04-.25.21-.34.29-.08.07-.22.19-.24.21,0,0-.06.08-.1.14-.08.1-.21.27-.21.27,0,0,0,.01,0,.02,0,0,0,.01,0,.02,0,0,.01.01.01.02,0,0-.01.04-.01.05,0,0,0,.02,0,.04,0,0,0,0,0,0,0,.01.01.02.02.02,0,0,0,0,0,0,0,0,.2-.25.27-.34.05-.06.08-.09.13-.14.08-.07.27-.23.33-.28.04-.03.11-.08.16-.14.05-.06.21-.26.28-.35.1-.13.15-.19.16-.21,0,0,0,0,0,0,0,0,0-.02,0-.02,0,0-.04-.02-.05-.03"/>
      <path class="cls-1" d="M26.19,15.98c.07-.09.41-.53.54-.7.06-.09.15-.2.17-.23h0"/>
      <path class="cls-1" d="M26.12,15.97s.04.03.04.03c0,0,.01,0,.02-.01,0,0,0,0,.01-.02"/>
      <path class="cls-1" d="M26.1,15.96s0,0,.01,0h0s0,0,0,0"/>
      <path class="cls-1" d="M26.79,14.78c-.1.13-.34.45-.49.64-.09.12-.22.28-.34.45-.1.13-.19.25-.26.34-.02.03-.04.06-.06.08-.06.08-.17.23-.22.29-.04.06-.05.07-.1.11-.19.16-.52.44-.52.44,0,0-.02.02-.04.05-.03.04-.1.13-.14.18-.1.14-.15.2-.15.2,0,0-.02,0-.02-.02"/>
      <path class="cls-1" d="M26.99,15.11h0c-.12.16-.41.54-.57.76-.06.08-.13.18-.16.21h0"/>
      <line class="cls-1" x1="26.19" y1="15.06" x2="26.2" y2="15.06"/>
      <line class="cls-1" x1="25.92" y1="15.83" x2="25.93" y2="15.83"/>
      <path class="cls-1" d="M26.83,16.53s.01,0,.02.01c0,0,.01,0,.01,0,0,0,0,.02,0,.03-.04.06-.1.14-.15.2-.03.04-.06.07-.07.1-.01.02-.03.03-.04.03,0,0-.08-.06-.14-.12-.04-.03-.12-.09-.16-.13-.1-.07-.3-.23-.3-.23,0,0,0,0,0,0,0,0-.02.02-.03.04-.07.09-.2.26-.27.35-.09.11-.18.23-.21.25,0,0-.12.08-.15.11-.04.03-.13.11-.18.15-.05.04-.14.13-.17.16-.05.05-.2.26-.26.35-.04.06-.07.1-.07.11,0,0,0,0,0,0,0,0,.01.02.01.03,0,0-.02.09-.03.1,0,0-.01.01-.02.02,0,0-.03,0-.03.01,0,0-.03,0-.04,0-.03,0-.08-.02-.11-.04-.02-.01-.07-.04-.1-.05-.03-.02-.05-.04-.07-.05,0,0-.01,0-.02-.01"/>
      <polyline class="cls-1" points="25.43 16.05 25.43 16.05 25.43 16.05"/>
      <path class="cls-1" d="M25.35,16.12c-.15.14-.4.37-.45.42-.05.05-.15.18-.15.18"/>
      <path class="cls-1" d="M25.35,16.11s0,0,0,0"/>
      <path class="cls-1" d="M25.31,16.5s0,0,0,0c0,0,0,0,0,0-.05.04-.24.21-.3.26-.04.04-.14.14-.18.18-.05.06-.11.14-.14.18-.04.05-.07.08-.1.11"/>
      <path class="cls-1" d="M25.31,16.51s0,.02-.01.03c0,0-.1.13-.14.18-.03.04-.09.12-.11.14-.01,0-.12.1-.17.14-.04.04-.12.11-.14.12-.01.02-.16.22-.17.22"/>
      <path class="cls-1" d="M24.57,17.36s0,0,0,0c0,.01-.06.08-.1.13-.02.03-.03.04-.03.05"/>
      <path class="cls-1" d="M26.08,17.67s.07.02.07.02c.01,0,.16-.01.2-.02.01,0,.03-.02.03-.02,0,0,.01-.03.01-.04,0-.02,0-.09-.02-.11,0-.02-.03-.06-.05-.07-.01-.01-.02-.02-.04-.03-.01,0-.03-.02-.04-.02-.07-.03-.3-.08-.34-.09-.02,0-.07,0-.1,0-.02,0-.03.02-.04.03,0,0-.02.03-.02.03,0,.02,0,.07.01.09,0,.01.03.05.05.07.03.03.13.1.18.13.05.03.09.05.1.06"/>
      <line class="cls-1" x1="26.08" y1="17.67" x2="26.01" y2="17.77"/>
      <line class="cls-1" x1="24.71" y1="16.78" x2="24.71" y2="16.79"/>
      <polyline class="cls-1" points="24.61 16.89 24.6 16.89 24.6 16.9"/>
      <path class="cls-1" d="M26.24,17.98s.04.05.05.07c.01.03.02.12.02.14,0,.01-.01.02-.02.03,0,0-.02,0-.02.01"/>
      <polyline class="cls-1" points="24.6 16.89 24.7 16.78 24.7 16.78 24.71 16.77"/>
      <path class="cls-1" d="M26.23,17.97s0,0,0,0c0,0-.01,0-.02,0,0,0,0,0-.01,0,0,0,0,0,0,0,0-.02-.02-.07-.03-.08,0-.02-.03-.04-.05-.05-.02-.01-.06-.03-.11-.05-.06-.03-.12-.05-.14-.06-.03,0-.07,0-.1,0-.01,0-.04.02-.05.03-.01,0-.03.03-.03.04,0,0,0,.03,0,.04,0,.02.02.04.04.07.02.02.06.08.09.12,0,0,0,0,0,0,.02.02.03.04.04.05.01.01.1.09.13.13"/>
      <polyline class="cls-1" points="24.71 16.76 24.75 16.72 24.75 16.72"/>
      <path class="cls-1" d="M24.6,16.9h0s-.04-.02-.06-.04c-.01-.01-.05-.05-.07-.06-.02-.01-.07-.02-.1-.02-.03,0-.07.01-.1.03-.01,0-.02.02-.02.02,0,0,0,.09-.01.1,0,0,0,0,0,.01,0,0,0,0,.01,0,0,0,0,.01,0,.02,0,0,0,0,0,.01,0,0-.03,0-.04.01"/>
      <path class="cls-1" d="M26.25,18.23s-.04.02-.04.02c-.02,0-.04,0-.06,0-.02,0-.06-.02-.09-.04-.03-.02-.05-.03-.07-.03"/>
      <polyline class="cls-1" points="25.78 18.07 25.82 18.01 25.82 18.01"/>
      <polyline class="cls-1" points="25.99 18.22 25.99 18.21 25.99 18.19"/>
      <path class="cls-1" d="M25.88,18.5s-.01,0-.02,0c0,0,0,0-.01,0,0,0-.32.47-.39.57-.02.04-.08.12-.09.13-.01.02-.42.46-.59.65-.18.19-.58.64-.59.65-.02.02-.02.03-.05.05-.1.14-.35.46-.49.64-.18.23-.52.68-.68.89-.12.16-.38.49-.38.49,0,0-.04-.01-.04-.01-.01,0-.19.25-.2.25,0,.01-.02.02-.03.02,0,0-.07-.05-.07-.06h0"/>
      <path class="cls-1" d="M25.99,18.22s0,0,0,0c0,0,.02,0,.03.01.01,0,.03.02.04.03.01.02.03.07.04.1,0,.01,0,.04,0,.05,0,.02-.02.04-.03.05,0,0-.05.03-.07.04-.03,0-.08,0-.11,0,0,0-.01,0-.02,0,0,0,0,0,0,0"/>
      <path class="cls-1" d="M22.44,22.46s-.01,0-.02-.01c0,0,0,0,0,0-.01-.01-.06-.05-.07-.05,0,0,0,0-.01,0,0,0-.03.04-.05.06-.02.02-.04.05-.06.08-.01.02-.04.06-.05.07-.02.02-.02.04-.03.05,0,0-.02.01-.03,0-.01,0-.07-.04-.07-.05,0,0,0,0,0-.02,0,0,.3-.39.41-.54.08-.1.21-.27.34-.44.1-.13.19-.25.26-.34.18-.24.54-.71.71-.93.15-.2.43-.56.56-.73.11-.14.26-.33.3-.39.02-.03.07-.1.1-.13.13-.17.41-.53.56-.72.03-.04.09-.11.11-.14.02-.03.05-.1.07-.14,0-.01.01-.03.02-.03.01-.02.03-.03.04-.03.02,0,.03,0,.04,0,.02,0,.06,0,.1.02.03,0,.12.04.13.04,0,0,0,.02.02.02.01,0,.14.09.18.12,0,0,0,0,0,0,0,0,0,0,0,0,0,0,0,0,0,0,0,0,0,0,0,0"/>
      <path class="cls-1" d="M22.48,22.48c.1-.12.35-.44.5-.64.16-.2.47-.61.63-.81.15-.19.4-.52.51-.66.02-.02.16-.18.21-.23.17-.18.51-.56.69-.75.08-.08.25-.26.26-.27.02-.02.07-.09.09-.13.14-.21.38-.57.38-.58,0,0,0,0,0-.01,0,0-.02-.01-.03,0,0,0-.34.5-.43.63-.01.02-.06.07-.11.12-.14.15-.47.51-.66.72-.08.09-.23.25-.29.32-.05.06-.12.13-.2.24-.11.15-.38.5-.53.69-.18.24-.52.68-.68.88-.12.16-.36.46-.36.46,0,0,0,0,0,0"/>
      <path class="cls-1" d="M24.56,17.34s-.05.03-.08.03c-.02,0-.08-.01-.1-.02-.04-.02-.12-.06-.17-.1-.02-.02-.06-.05-.07-.08,0-.02,0-.08,0-.08,0-.03.01-.06.03-.07,0,0,.02-.02.03-.02"/>
      <path class="cls-1" d="M24.13,20.08s0-.02.01-.03c0,0,.4-.52.57-.74.07-.09.2-.26.26-.34.02-.03.08-.1.1-.13.01-.02.1-.13.13-.17.07-.1.17-.23.2-.27.05-.06.09-.1.1-.12,0,0,.01-.03.02-.03,0,0,.02,0,.04,0,.03.01.05.02.05.03,0,.01,0,.03,0,.05-.04.06-.07.11-.13.2-.02.02-.05.06-.06.08-.03.03-.04.06-.05.08,0,0-.17.25-.21.31,0,.01-.02.02-.03.04-.14.15-.47.5-.65.7-.15.16-.31.33-.33.35Z"/>
      <path class="cls-1" d="M24.23,17.77s0,0,0,0c0,0-.03-.02-.03-.02-.01,0-.02,0-.03,0,0,0-.17.21-.24.3-.17.22-.46.61-.58.77,0,.01-.02.03-.02.03,0,0,0,0,0,0,0,0-.03-.02-.03-.03,0,0-.02.02-.03.03,0,0-.11.13-.12.14-.12.16-.42.54-.59.76-.12.16-.27.37-.27.37,0,0,.02.02.03.03"/>
      <path class="cls-1" d="M24.44,17.54s-.01,0-.02,0c0,0,0,0,0,0-.06-.05-.1-.09-.12-.09,0,0-.11.01-.13.02-.01,0-.03.01-.04.02-.01.02-.02.07-.02.1,0,.02.02.08.03.09,0,0,.02.01.02.02,0,0,0,.02,0,.02,0,0,.02.01.03.01,0,0,.01,0,.02.01,0,0,.01.02.02.03"/>
      <path class="cls-1" d="M23.81,18.42c.14-.18.4-.51.4-.52,0,0,0,0,0,0,0,0,.01.02,0,.03"/>
      <path class="cls-1" d="M23.79,18.48s.02,0,.02.01c.01.01.12.12.21.21.01.01.02.02.01.03,0,0-.03.05-.03.07,0,.02,0,.08,0,.11,0,.03.02.09.03.11,0,.01.02.04.03.05,0,0,.05.05.06.06.01.02.03.03.06.05.03.01.09.03.12.04.03,0,.09,0,.12,0,0,0,.04-.01.05-.01.01,0,.02,0,.03-.02.02-.03.11-.09.12-.1.01-.01.02-.02.02-.03,0-.01.02-.07.03-.1,0-.01.02-.02.02-.03,0,0-.02-.19-.02-.19,0-.01-.09-.12-.1-.13-.02-.02-.03-.02-.05-.03-.02,0-.08-.03-.11-.04-.02,0-.03,0-.03,0-.01,0-.02.01-.03.01-.03,0-.1,0-.11.01-.02,0-.03,0-.04.02,0,0-.03.03-.04.03-.01,0-.03,0-.04,0,0,0,0,0,0-.01,0,0,0,0,0,0,0,0,0,0,0,0"/>
      <line class="cls-1" x1="23.83" y1="18.43" x2="23.84" y2="18.44"/>
      <polyline class="cls-1" points="24.01 18.55 24 18.54 23.95 18.51 23.95 18.5 23.94 18.5"/>
      <polyline class="cls-1" points="23.81 18.42 23.81 18.42 23.83 18.43"/>
      <path class="cls-1" d="M22.81,19.72c.11-.14.39-.51.55-.72.07-.09.2-.26.25-.33.12-.16.15-.19.15-.19,0,0,0,0,.02.01"/>
      <line class="cls-1" x1="23.78" y1="18.51" x2="23.37" y2="19.04"/>
      <line class="cls-1" x1="23.78" y1="18.51" x2="23.79" y2="18.48"/>
      <polyline class="cls-1" points="23.37 19.04 22.97 19.57 22.96 19.58"/>
      <path class="cls-1" d="M23.48,19.29s0,0,0,0c0,0-.02,0-.02,0,0,0,.02.05.04.07.04.04.09.09.1.1.01.01.02.02.01.03,0,0-.02.02-.02.03,0,.02,0,.07,0,.09,0,.03.03.07.04.09.02.02.05.05.07.05.02,0,.06.01.09.01.02,0,.07-.01.09-.03,0,0,.03-.03.03-.03,0,0,.02,0,.03-.01,0,0,.03-.09.04-.1,0,0,0,0,0-.01,0,0,0-.08,0-.09,0-.02,0-.02-.01-.04-.02-.02-.05-.07-.06-.07-.02,0-.06-.03-.08-.03-.02,0-.08.01-.08.01,0,0,0,0-.01,0,0,0-.08.05-.08.05,0,0-.02-.02-.03-.03"/>
      <line class="cls-1" x1="23.6" y1="19.36" x2="23.61" y2="19.37"/>
      <line class="cls-1" x1="23.54" y1="19.32" x2="23.56" y2="19.34"/>
      <line class="cls-1" x1="22.97" y1="19.57" x2="22.84" y2="19.74"/>
      <line class="cls-1" x1="24.08" y1="20.14" x2="24.12" y2="20.1"/>
      <line class="cls-1" x1="24" y1="20.25" x2="24.01" y2="20.25"/>
      <path class="cls-1" d="M22.79,19.79c.08.08.2.18.23.22.01.01.02.02.01.03,0,0-.02.02-.02.03,0,.02,0,.09,0,.11,0,.03,0,.09,0,.1,0,.02,0,.02.01.03,0,0,.06.07.07.09.02.02.06.06.09.07,0,0,.06.02.07.03,0,0,.02.01.04.01,0,0,.06,0,.11-.01.04,0,.06-.01.07-.02,0,0,.07-.05.08-.05.02-.02.06-.06.08-.08.01-.02.03-.08.04-.11,0-.02,0-.05,0-.07,0,0,0-.08-.01-.11,0-.02,0-.03-.01-.04,0,0-.02-.02-.03-.03-.01-.02-.05-.07-.07-.09-.02-.02-.08-.03-.1-.04-.01,0-.03-.01-.04-.02-.01,0-.02,0-.04,0-.05,0-.16.02-.16.02-.02,0-.07.04-.08.05-.01,0-.01,0-.03,0,0,0-.02-.01-.03-.02,0,0,0,0,0,0"/>
      <line class="cls-1" x1="23.99" y1="20.25" x2="24.01" y2="20.23"/>
      <path class="cls-1" d="M23.94,20.32s0-.01,0-.02,0,0-.01,0"/>
      <path class="cls-1" d="M23.85,20.44s0-.02,0-.02,0,0-.02.01"/>
      <polyline class="cls-1" points="23.03 19.86 22.97 19.83 22.96 19.82"/>
      <polyline class="cls-1" points="22.81 19.72 22.84 19.74 22.92 19.8"/>
      <path class="cls-1" d="M21.96,20.87s0,0,0,0c0,0,0,0,0-.01,0,0,0,0,0,0,0,0,.03-.03.03-.03,0,0,.4-.52.57-.75.07-.09.23-.3.23-.3,0,0,0,0,0,0,0,0,.01,0,.02.02"/>
      <path class="cls-1" d="M23.77,20.55s0-.02,0-.02,0,0-.02.01"/>
      <line class="cls-1" x1="22.79" y1="19.79" x2="22.45" y2="20.25"/>
      <path class="cls-1" d="M23.68,20.67s0-.02,0-.02,0,0-.02.01"/>
      <path class="cls-1" d="M23.59,20.78s0-.02,0-.02,0,0-.02.01"/>
      <path class="cls-1" d="M23.5,20.9s0-.02,0-.02,0,0-.02.01"/>
      <line class="cls-1" x1="22.45" y1="20.25" x2="22.09" y2="20.72"/>
      <line class="cls-1" x1="21.97" y1="20.88" x2="21.96" y2="20.87"/>
      <path class="cls-1" d="M23.41,21.01s0-.02,0-.02,0,0-.02.01"/>
      <path class="cls-1" d="M23.32,21.14s0-.02,0-.02,0,0-.02.01"/>
      <path class="cls-1" d="M23.23,21.24s0-.02,0-.02,0,0-.02.01"/>
      <path class="cls-1" d="M23.14,21.37s0-.02,0-.02,0,0-.02.01"/>
      <path class="cls-1" d="M22.2,21.04s0,0,0,0c0,0,0,0,0,0,.01,0,.03-.02.04-.03.02-.01.02-.02.03-.03,0,0,.17-.03.21-.04.01,0,.04,0,.05,0,0,0,.05.03.08.04.02,0,.04.01.04.01.02,0,.05.05.07.08.03.04.06.08.07.09,0,.01,0,.03,0,.03,0,.01,0,.07.01.1,0,.03.01.08,0,.1,0,0-.06.15-.08.17-.01.01-.03.03-.04.04,0,0-.07.04-.08.05-.01.01-.02.02-.05.02,0,0-.07.01-.11.02-.02,0-.09,0-.1,0-.02,0-.04-.02-.07-.03-.04-.01-.07-.03-.1-.04-.02-.01-.05-.05-.07-.09-.01-.02-.04-.06-.04-.07,0-.01-.03-.21-.03-.21,0,0,.01-.01.02-.03,0-.01.02-.04.02-.05,0,0,0,0,0-.01,0,0,0-.02,0-.03,0,0-.01-.02-.02-.02,0,0-.03-.02-.04-.03-.02-.01-.04-.04-.05-.05,0,0-.03-.02-.03-.02,0,0-.02-.03-.05-.05,0,0,0,0,0,0,0,0-.02-.02-.03-.02,0,0,0,0,0,0-.01,0-.03-.02-.06-.03,0,0-.03-.02-.03-.03,0,0,0-.02,0-.03,0,0,0-.03.01-.04"/>
      <polyline class="cls-1" points="21.96 20.87 21.96 20.87 22.1 20.71"/>
      <path class="cls-1" d="M23.06,21.48s0-.02,0-.02,0,0-.02.01"/>
      <path class="cls-1" d="M22.97,21.6s0-.02,0-.02,0,0-.02.01"/>
      <path class="cls-1" d="M22.88,21.71s0-.02,0-.02,0,0-.02.01"/>
      <path class="cls-1" d="M21.78,20.82s.03,0,.04-.01c0,0,.47-.62.47-.62,0-.01,0-.02.01-.03,0,0,.02-.01.02-.02.01-.02.39-.52.53-.7.15-.2.35-.46.4-.53.01-.02.05-.05.05-.05,0,0,0,0,0-.02"/>
      <path class="cls-1" d="M21.89,20.99s-.08.1-.11.14c-.12.16-.14.19-.16.2,0,0-.01.01-.02.03"/>
      <path class="cls-1" d="M22.79,21.83s0-.02,0-.02,0,0-.02.01"/>
      <path class="cls-1" d="M22.7,21.94s0-.02,0-.02,0,0-.02.01"/>
      <path class="cls-1" d="M22.62,22.06s0-.02,0-.02,0,0-.02.01"/>
      <path class="cls-1" d="M21.55,22.01s.02-.02.02-.04c0,0-.05-.06-.07-.08,0,0-.02-.03-.03-.04,0,0,0,0,0,0,0,0,0-.02-.01-.02-.02,0-.11-.11-.11-.11,0,0,0-.02-.01-.03,0,0-.03-.03-.03-.03,0,0-.02-.03-.02-.05,0,0,0-.04,0-.05,0-.01-.01-.04-.01-.05,0-.02,0-.06.01-.09,0,0,.01-.04.01-.04,0-.02,0-.03.02-.03,0,0,.04,0,.05-.01.02,0,.04-.01.05-.01.01,0,.04,0,.05,0,.03,0,.07.02.11.03.02,0,.04.02.06.03.01,0,.02.02.03.02.05.05.09.1.13.15,0,.01.02.03.03.04.01.02.03.03.03.04,0,.01.04.04.06.06.04.04.19.27.2.28.01.01.03.03.04.06,0,.03.04.12.05.14,0,.01-.02.07-.01.07,0,0,0,.01,0,.02,0,0,0,0,0,0,0,0-.16.22-.3.4-.06.07-.11.14-.15.19-.17.22-.51.66-.69.9-.15.19-.41.53-.52.68-.02.03-.08.1-.08.1,0,0,0,0,0,0,0,0-.02,0-.02.02-.01.02-.04.06-.05.08,0,0,0,0,0,0"/>
      <path class="cls-1" d="M22.52,22.17s0-.02,0-.02,0,0-.02.01"/>
      <path class="cls-1" d="M22.44,22.29s0-.02,0-.02,0,0-.02.01"/>
      <polyline class="cls-1" points="22.39 22.48 22.39 22.48 22.27 22.65 22.22 22.73"/>
      <path class="cls-1" d="M22.17,22.77c-.13.18-.38.5-.5.66-.14.18-.42.56-.56.75-.17.23-.29.38-.31.4h0"/>
      <path class="cls-1" d="M22.17,22.77h0"/>
      <path class="cls-1" d="M20.38,25.15s-.38.5-.54.71c0,.01-.02.02-.03.04-.06.08-.16.2-.2.26-.12.16-.39.53-.56.75-.14.19-.34.47-.4.55"/>
      <path class="cls-1" d="M17.68,26.38s.02-.03.03-.04"/>
      <path class="cls-1" d="M17.67,26.4s0-.01.01-.02"/>
      <path class="cls-1" d="M18.32,27.94s-.34.51-.46.7c-.11.18-.33.54-.44.73-.04.06-.07.11-.1.15-.06.1-.17.31-.24.43-.05.09-.16.29-.17.32-.01.04-.05.26-.05.31,0,.03-.01.07,0,.09,0,.01.04.06.05.08,0,0,0,.03,0,.03,0,.02-.09.13-.12.18-.02.03-.04.07-.04.07,0,0-.22.2-.28.26-.01.01-.02.02-.03.02-.01,0-.12-.05-.17-.08-.06-.03-.18-.1-.22-.12-.05-.03-.16-.12-.16-.12-.01,0-.04-.02-.05-.03-.17-.13-.54-.4-.73-.55-.09-.08-.25-.2-.32-.27-.09-.08-.27-.25-.31-.29-.02-.02-.07-.08-.07-.08,0-.01-.02-.03-.02-.04,0-.01.03-.07.03-.08.03-.06.09-.16.11-.21.04-.06.08-.12.12-.16.01-.01.05-.07.07-.08.02-.02.06-.05.08-.06.01,0,.03,0,.04,0,0,0,.03.02.04.02.01,0,.01,0,.02,0,0,0,.17-.06.2-.08.07-.03.15-.07.18-.1.04-.03.09-.08.13-.13.07-.07.24-.23.33-.31.08-.08.25-.25.32-.33.13-.14.34-.36.56-.6.17-.19.58-.65.6-.67.06-.06.2-.23.27-.33.05-.06.12-.16.17-.22"/>
      <path class="cls-1" d="M18.13,25.81s0,0,0-.01c.05-.05.17-.21.24-.3.12-.16.28-.36.34-.44.02-.02.03-.03.03-.04"/>
      <path class="cls-1" d="M19.2,24.45c.12-.15.41-.53.59-.76.06-.08.16-.21.2-.26"/>
      <path class="cls-1" d="M20.45,22.84s.41-.51.56-.71c.01-.01.03-.04.04-.05,0,0,0,0,0,0"/>
      <line class="cls-1" x1="21.34" y1="21.71" x2="21.31" y2="21.74"/>
      <path class="cls-1" d="M20.54,23.32c.08-.1.17-.21.24-.29.08-.11.25-.32.33-.43.07-.09.16-.23.16-.23,0-.01.01-.02,0-.04,0,0,0,0,0,0,0,0,0,0,0-.01-.01-.02-.04-.04-.06-.05-.03-.02-.05-.05-.07-.08,0-.01-.01-.02-.01-.03,0,0,0,0,0,0,0,0,0-.02-.01-.02,0,0-.02-.02-.04-.03-.01-.01-.03-.01-.03-.02h0s0-.02-.01-.03c0,0-.05-.06-.07-.08-.01-.01-.02-.02-.02-.02,0,0-.02-.15-.02-.16,0,0,.01-.03.02-.08,0-.02.01-.04.02-.05,0,0,.03-.02.04-.02.02,0,.08,0,.08,0,.02,0,.08.01.1.02.04,0,.05.01.06.03.02.02.04.04.06.06.02.01.03.02.03.03.03.04.07.09.1.13.04.05.08.09.09.11,0,0,0,0,0,0"/>
      <path class="cls-1" d="M21.86,22.22s.02.01.03.02c.02,0,.08.04.09.04,0,0,.01.02,0,.03,0,.01-.12.15-.14.17,0,0,0,0,0,0,0,0,0,0,0,0"/>
      <path class="cls-1" d="M21.84,22.49c-.02-.08-.04-.14-.06-.15,0,0,0,0,0-.01,0,0,0,0,0,0,0,0,.04-.06.06-.08.01-.01.02-.02.03-.01"/>
      <path class="cls-1" d="M21.69,22.08s.03.02.05.03c0,0,0,0,.01,0,0,0,0,.01,0,.02,0,0-.04.06-.05.06,0,0,0,0,0,0,0,0-.01,0-.02-.02,0,0-.02-.03-.03-.04,0,0,0-.02-.01-.04,0,0,0,0,0-.01,0,0,.01-.02.02-.03"/>
      <polyline class="cls-1" points="22.27 22.65 22.21 22.72 22.2 22.74 22.19 22.74"/>
      <path class="cls-1" d="M20.11,24.48c.1-.13.34-.45.48-.63.18-.23.52-.67.67-.88.12-.15.3-.39.3-.39,0,0,0,0,.01,0,0,0,0,0,0,0,0,0,.02.01.04.02.03,0,.09.03.1.04,0,0,0,0,0,0,0,0,0,.01-.01.03,0,0-.34.45-.48.63-.18.23-.51.67-.67.88-.12.15-.3.39-.3.39,0,0,0,0,0,0,0,0-.02,0-.02-.01"/>
      <path class="cls-1" d="M20.62,23.42s0,0,0,0c.06-.08.19-.25.27-.34.03-.05.09-.12.12-.16.03-.04.09-.12.12-.16.04-.05.11-.14.15-.19.04-.06.07-.09.08-.11,0,0,.02-.02.02-.02,0,0,0,0,.01,0,0,0,.01,0,.02.02.02.02.03.03.04.03,0,0,.01.01.02.01,0,0,0,0,0,0,0,0-.41.53-.58.75-.05.07-.14.19-.17.22,0,0,0,0,0,0,0,0-.05-.03-.08-.06"/>
      <path class="cls-1" d="M20.45,23.43s0,0,0,0c0,0,0-.01,0-.02,0,0-.03,0-.04,0-.03.03-.05.05-.06.05,0,0-.02,0-.04,0-.01,0-.08.03-.1.03-.03,0-.08-.01-.1-.03-.02,0-.03-.02-.03-.03,0,0-.02-.03-.02-.04,0-.01-.02-.03-.02-.03,0,0,0,0,0,0,0,0,0-.02,0-.03,0-.03,0-.08,0-.11,0-.03.03-.08.04-.11.01-.02.03-.06.04-.07,0-.01.04-.04.06-.06.02-.02.05-.05.06-.06,0,0,.14-.04.15-.05,0,0,0,0,0-.01,0,0,0,0,.01,0,.03,0,.1.03.11.03"/>
      <path class="cls-1" d="M19.44,25.08s0,0,0,0c.01,0,.02.01.03.01,0,0,.36-.47.52-.67.17-.23.47-.62.59-.78.02-.03.07-.09.07-.09,0,0,0,0,0-.01,0,0,0-.01,0-.02,0,0-.05-.03-.07-.04-.01,0-.03,0-.04,0-.01,0-.49.65-.5.66,0,0-.02,0-.03,0,0,0-.03-.02-.04-.02-.01,0-.03-.03-.02-.04,0-.03.47-.64.48-.67"/>
      <path class="cls-1" d="M20.52,22.94s.04.07.05.09c0,.01.01.03,0,.03,0,.02,0,.06-.01.09,0,.03-.01.08-.03.1,0,0-.02.03-.02.03,0,.01.01.02.02.03,0,0,0,0,0,0"/>
      <path class="cls-1" d="M20.68,24.52s0,0,0,0c.03.02.05.04.06.05,0,0,.01.02.02.04,0,.01.01.02.01.03,0,0,0,.01,0,.03,0,.01,0,.08,0,.12,0,.02-.02.07-.04.1-.01.02-.04.07-.06.09-.02.02-.05.05-.07.07-.02.02-.06.04-.09.05-.02,0-.07.02-.1.02,0,0,0,0,0,0-.03,0-.08-.01-.1-.02-.02-.01-.05-.05-.06-.07-.01-.02-.02-.05-.02-.1,0-.03,0-.08,0-.1,0-.02.04-.06.04-.08,0-.01,0-.02,0-.03-.02-.02-.17-.16-.17-.16,0,0,0,0,0,0,0,0,0,0,0,0,0,0-.17.21-.25.31-.14.17-.37.48-.5.65-.01.02-.02.03-.03.05,0,0,0,0,0,.01"/>
      <path class="cls-1" d="M20.66,24.51s-.08,0-.11,0c-.03,0-.09.03-.1.03,0,0,0,0-.02,0"/>
      <polyline class="cls-1" points="20.17 24.52 20.18 24.53 20.19 24.54"/>
      <line class="cls-1" x1="20.11" y1="24.48" x2="20.13" y2="24.5"/>
      <path class="cls-1" d="M19.05,25.66h0c.05-.06.1-.13.16-.2.11-.14.21-.28.21-.28,0-.01.01-.02,0-.03,0,0,0,0,0,0-.03-.02-.2-.11-.21-.12-.01,0-.02,0-.03,0,0,0-.05.05-.07.06-.02.02-.07.03-.11.04-.03,0-.07,0-.09,0,0,0-.03-.01-.04-.01-.02,0-.03-.01-.04-.02-.01-.01-.05-.09-.05-.1,0,0,0,0,0,0,0-.01,0-.01,0-.03,0-.06.02-.15.03-.17,0,0,.03-.04.04-.07.01-.02.04-.06.07-.08,0,0,.07-.06.07-.06,0,0,0-.01.02-.02,0,0,.08-.02.1-.03.01,0,.03-.01.03-.02,0,0,0,0,.01,0,0,0,.01,0,.02,0,.02,0,.08.02.08.03,0,0,.03.05.05.08.01.02.02.04.02.04,0,0,0,.06,0,.09,0,.03,0,.09-.02.11,0,.02-.03.05-.03.06.01.03.14.16.15.16"/>
      <polyline class="cls-1" points="18.76 25.09 18.78 25.11 18.82 25.14"/>
      <path class="cls-1" d="M18.87,25.77c-.09-.06-.19-.15-.21-.16-.06-.04-.17-.14-.17-.14,0,0,0-.01,0-.02.03-.04.09-.12.12-.17.06-.08.13-.17.13-.18"/>
      <path class="cls-1" d="M18.92,25.82c-.13.18-.47.64-.48.65,0,0-.02,0-.03-.02,0,0,0,0,0,0"/>
      <path class="cls-1" d="M19.25,25.61c-.05.07-.14.17-.23.29-.1.13-.22.28-.3.38-.15.2-.45.59-.6.78-.05.07-.15.19-.19.26h0"/>
      <path class="cls-1" d="M19.26,25.6s0,0,0,0"/>
      <path class="cls-1" d="M19.06,25.92c.09.07.3.22.34.24.02.02.06.04.07.04.01,0,.02.01.03.01,0,0,.08-.1.12-.15.07-.09.15-.19.16-.2"/>
      <path class="cls-1" d="M18.17,27.46s0,0,0,0c.02-.02.06-.06.07-.06.01-.01.03-.01.03-.01,0,0,.07-.04.09-.04.03,0,.08,0,.12,0,.01,0,.04.01.04.02.01,0,.02.02.03.04,0,.02.04.07.04.07,0,0,0,0,0,.01,0,0,0,.02,0,.04,0,.02,0,.05,0,.07,0,.02,0,.03,0,.05,0,.01-.03.06-.04.08-.01.02-.03.05-.05.07-.03.04-.11.1-.15.12,0,0-.02,0-.04.02-.02,0-.03,0-.04.01-.02,0-.06,0-.09,0,0,0-.04-.01-.04-.01-.01,0-.03-.01-.03-.03,0,0-.02-.04-.03-.05,0-.01-.02-.02-.02-.03,0,0,0-.07,0-.1,0-.02,0-.08.01-.1,0,0,.01-.02.02-.03,0-.01.01-.03.01-.04,0-.01-.04-.04-.06-.06-.04-.03-.1-.09-.1-.09,0,0-.02-.02-.02-.02,0,0-.01,0-.02,0,0,0,0,0,0,0,0,0-.05.07-.06.08,0,0,0,0-.01,0,0,0-.05-.04-.07-.05-.01,0-.02-.02-.01-.02,0,0,.39-.51.55-.72.03-.03.09-.11.1-.13,0,0,.01-.02,0-.03,0,0,0,0,0,0-.03-.02-.14-.08-.16-.1-.02-.01-.04-.03-.05-.03,0,0-.03,0-.03,0,0,0-.03.03-.03.04-.03.03-.12.05-.16.06-.01,0-.02,0-.03,0-.02-.01-.1-.04-.11-.04,0,0-.04-.07-.05-.09,0-.01-.01-.04-.01-.05,0,0,0,0,0-.02,0,0,0-.02,0-.02,0-.01,0-.03,0-.05,0-.02.01-.05.02-.06.01-.02.03-.08.05-.1.01-.02.05-.07.06-.08.02-.02.06-.05.09-.06,0,0,.07-.03.11-.04,0,0,0,0,0,0,.02,0,.03-.01.03-.01,0,0,.03,0,.05.01.02,0,.05.02.06.02.01,0,.03.03.04.04,0,0,.03.06.03.08,0,0,0,.09,0,.1,0,.02-.01.09-.03.11,0,0-.02.02-.02.03,0,.02.08.11.1.13"/>
      <polyline class="cls-1" points="18.37 26.41 18.37 26.41 18.39 26.42"/>
      <polyline class="cls-1" points="18.16 27.45 18.03 27.38 18.03 27.38"/>
      <polyline class="cls-1" points="17.97 27.34 17.99 27.35 17.99 27.36"/>
      <path class="cls-1" d="M34.85,4.9h0s0,0,0,0c0,0-.07.01-.07.01,0,0,0,0,0,0"/>
      <path class="cls-1" d="M35.11,5.11s0,0,0,0c0,0,0,.02,0,.04,0,0,0,.02,0,.03,0,0,0,0,0,0,0,0,0,0,0,0"/>
      <path class="cls-1" d="M32.99,7.18s.05.03.09.06c.07.05.15.11.19.14.03.02.1.08.13.11"/>
      <path class="cls-1" d="M32.54,7.02c.11.06.47.34.59.42.07.06.21.17.29.23.11.1.19.18.23.21"/>
      <path class="cls-1" d="M32.26,7.35c.07.03.19.1.3.17.04.03.21.14.29.2.15.12.33.27.39.33.05.05.14.15.15.17"/>
      <polyline class="cls-1" points="35.11 5.18 35.11 5.18 35.1 5.19 35.1 5.2"/>
      <path class="cls-1" d="M34.82,4.95s.07.04.1.07c.04.04.08.07.1.09.01.01.02.02.03.03"/>
      <path class="cls-1" d="M34.19,5.75h0s0,0,0,0c0,0,.01,0,.02.01.02,0,.06.03.08.04,0,0,0,0,.01,0"/>
      <path class="cls-1" d="M34.38,5.86s.02.01.03.03c.02.02.04.07.04.07,0,0,0,0,0,0"/>
      <path class="cls-1" d="M33.78,6.19h0s.1.05.15.08c0,0,.04.03.04.03"/>
      <path class="cls-1" d="M34.03,6.35s0,.01.02.02c.01.01.06.06.09.09,0,0,0,0,0,0,0,0,0,0,0,0"/>
      <path class="cls-1" d="M34.12,6.43s.01.02.01.03c0,0,0,0,0,0,0,0,0,0,0,0h0s0,0,0,0"/>
      <path class="cls-1" d="M14.94,29.24s.06.07.12.14c0,0,.09.1.13.14.09.08.26.24.34.31.03.03.25.2.3.24.12.08.2.14.32.22.12.09.19.14.33.23.04.02.14.08.17.09.07.03.09.04.1.04"/>
      <polyline class="cls-1" points="19.06 25.65 19.06 25.64 19.01 25.7"/>
      <polyline class="cls-1" points="19.06 25.64 19.06 25.64 19.04 25.66"/>
      <polyline class="cls-1" points="19.04 25.67 19.04 25.67 19.03 25.68"/>
      <path class="cls-1" d="M19.78,25.86s0,0,0,0c-.03-.02-.11-.06-.16-.09-.08-.05-.29-.21-.31-.23h0s0,0,0,0"/>
      <path class="cls-1" d="M19.2,25.45s-.28-.21-.43-.34c0,0-.01-.01-.02-.02"/>
      <path class="cls-1" d="M19.03,25.91h0s0,0,0,0c0,0,.02,0,.02.01,0,0,0,0,0,0"/>
      <path class="cls-1" d="M18.88,25.77h0s0,0,0,0h0s0,0,0,0c0,0,.01.01.03.02,0,0,.01,0,.02.01,0,0,0,0,0,0"/>
      <polyline class="cls-1" points="19.05 25.66 19.03 25.68 19.01 25.7"/>
      <line class="cls-1" x1="19.02" y1="25.7" x2="19.01" y2="25.7"/>
      <polyline class="cls-1" points="19.3 25.55 19.3 25.55 19.3 25.54 19.24 25.62"/>
      <polyline class="cls-1" points="19.3 25.56 19.3 25.55 19.3 25.55 19.29 25.56 19.25 25.61"/>
      <polyline class="cls-1" points="19.34 25.49 19.34 25.49 19.3 25.55 19.28 25.57"/>
      <path class="cls-1" d="M19.28,25.58s-.02.02-.02.02c0,0,0,0-.01.02"/>
      <path class="cls-1" d="M19.34,25.5l-.03.04-.02.02s0,.01-.01.01"/>
      <path class="cls-1" d="M19.31,25.54s0,0,0,.01c0,0-.01.01-.02.02h0s0,0,0,0c0,0-.01.02-.02.03h0s0,0,0,0c0,0,0,0,0,0"/>
      <path class="cls-1" d="M19.05,25.65s0,0,0,0c0,0-.01.01-.02.02,0,0-.01.02-.02.02-.03.03-.06.07-.08.1,0,0,0,0,0,0,0,0,0,0,0,0,0,0-.02.02-.02.02,0,0,0,0,0,0"/>
      <polyline class="cls-1" points="18.17 25.78 18.14 25.81 18.09 25.87 18.08 25.87"/>
      <path class="cls-1" d="M18.13,25.82s0,0-.02.03c0,0-.01.02-.02.02,0,0,0,0,0,0,0,0,0,0,0,0"/>
      <path class="cls-1" d="M17.75,26.29s-.06.07-.07.09h0s0,0,0,0c0,0,0,.01-.01.02,0,0,0,0,0,0,0,0,0,0,0,0"/>
      <line class="cls-1" x1="18.12" y1="25.83" x2="18.1" y2="25.86"/>
      <line class="cls-1" x1="18.33" y1="27.94" x2="18.34" y2="27.91"/>
      <path class="cls-1" d="M18.65,27.46s0,0,0,0c0,0-.04.05-.04.06"/>
      <path class="cls-1" d="M18.18,27.46s0,0,0,0c0,0,0,0,0,0,0,0-.01,0-.02,0,0,0,0,0-.01,0"/>
      <path class="cls-1" d="M18.03,27.38s-.02-.01-.03-.02c0,0,0,0,0,0-.02,0-.04-.02-.05-.03,0,0,0,0,0,0"/>
      <polyline class="cls-1" points="17.89 27.37 17.89 27.37 17.89 27.37 17.91 27.35"/>
      <path class="cls-1" d="M18.41,26.45h0s0,0,0,0c0,0-.02-.02-.03-.03,0,0,0,0,0,0-.01-.01-.02-.02-.03-.03,0,0-.01-.02-.02-.02,0,0,0,0,0,0"/>
      <line class="cls-1" x1="19.19" y1="24.47" x2="19.17" y2="24.5"/>
      <polyline class="cls-1" points="18.75 25.04 18.75 25.04 18.75 25.04 18.75 25.03 18.79 24.98"/>
      <path class="cls-1" d="M20.51,22.93h0s0,0,0,0c0,0,0,0,.01,0,0,0,0,0,0,0,0,0,0,0,0,0"/>
      <line class="cls-1" x1="20.43" y1="22.86" x2="20.4" y2="22.89"/>
      <polyline class="cls-1" points="20.03 23.39 19.98 23.44 19.98 23.45"/>
      <polyline class="cls-1" points="20.8 24.58 20.8 24.58 20.8 24.58 20.77 24.61"/>
      <line class="cls-1" x1="20.38" y1="25.14" x2="20.41" y2="25.11"/>
      <path class="cls-1" d="M20.68,24.52h0s0,0,0,0c0,0-.01,0-.02,0,0,0,0,0-.01,0"/>
      <path class="cls-1" d="M20.24,24.56s0,0-.01,0c0,0,0,0,0,0,0,0-.02-.01-.04-.02-.02,0-.03-.02-.05-.03,0,0-.01,0-.02,0,0,0,0,0,0,0"/>
      <path class="cls-1" d="M20.25,24.56h0s0,0,0,0c0,0,0,0,0,0,0,.02.02.04.02.04"/>
      <path class="cls-1" d="M20.36,24.64h0s0,0,0,0c0,0,0,0,0,0,0,0-.01,0-.02,0"/>
      <path class="cls-1" d="M20.37,24.64h0s0,0,0,0c0,0,.02.01.03.02,0,0,0,0,0,0"/>
      <path class="cls-1" d="M20.4,24.66h0s0,0,0,0c0,0,0-.01.02-.02.01-.02.05-.04.07-.05.02-.01.03-.02.04-.02"/>
      <path class="cls-1" d="M20.26,24.72h0s0,0,.01.01c.01.02.03.04.04.04"/>
      <line class="cls-1" x1="20.26" y1="24.72" x2="20.26" y2="24.72"/>
      <path class="cls-1" d="M20.32,24.78s0,0-.01.02c0,.01-.02.06-.03.08,0,.04,0,.08,0,.09"/>
      <path class="cls-1" d="M19.27,24.61s0,0,0,0c0,0,.01.05.01.07,0,.03,0,.06-.01.08,0,.02-.03.05-.03.06-.01.02-.02.02-.02.02"/>
      <path class="cls-1" d="M19.22,24.86s.02.03.03.03c0,0,.02.02.02.03"/>
      <polygon class="cls-1" points="19.22 24.86 19.22 24.86 19.22 24.86 19.22 24.86"/>
      <path class="cls-1" d="M19.24,25.02s-.02,0-.04-.02c0,0-.02-.01-.04-.02,0,0,0,0,0,0"/>
      <path class="cls-1" d="M19.15,24.97h0s-.05.04-.08.06c-.06.04-.11.03-.11.03"/>
      <path class="cls-1" d="M20.53,23.05s0,.04,0,.05c0,.02,0,.05-.02.07,0,.01-.03.05-.04.06,0,0-.01.01-.01.01,0,0,0,0,0,0"/>
      <path class="cls-1" d="M20.39,23.35s-.02.02-.03.02c-.02.01-.05.03-.06.03-.02,0-.06.02-.08.02-.02,0-.05,0-.06,0,0,0-.01,0-.01,0"/>
      <path class="cls-1" d="M20.45,23.24h0s0,0,0,0c0,0,.01.01.03.03,0,0,.02.02.02.02"/>
      <path class="cls-1" d="M20.39,23.35h0s0,0,.01,0c0,0,.02.02.02.02"/>
      <path class="cls-1" d="M20.54,23.31h0s0,0,0,0c0,0-.02.02-.02.03,0,0,0,0,0,0"/>
      <path class="cls-1" d="M20.54,23.32s0,0-.01.01c0,0,0,0-.01.02"/>
      <path class="cls-1" d="M20.48,23.4h0s0,.01-.01.02c0,0,0,0,0,.01,0,0,0,0,0,0,0,0,0,0-.01.01"/>
      <path class="cls-1" d="M20.73,23.48s0,0,0,0c0,0,0,.01-.02.02,0,0,0,0-.01.02"/>
      <path class="cls-1" d="M20.68,23.54s0,0,0,.01c0,0,0,0,0,0,0,0,0,0,0,0"/>
      <path class="cls-1" d="M21.45,21.9s-.11-.03-.15-.04c-.02,0-.06,0-.08,0-.02,0-.05,0-.06.01-.01,0-.02.02-.03.04-.01.04-.02.11-.02.14,0,0,.01.11.01.11"/>
      <path class="cls-1" d="M21.79,21.58s-.15-.04-.18-.04c-.02,0-.06,0-.07,0-.02,0-.04.03-.05.05-.01.02-.02.07-.03.09,0,.01,0,.05,0,.07,0,.03.02.1.02.1"/>
      <path class="cls-1" d="M21.56,21.95s.07.08.1.1c0,0,0,0,0,0"/>
      <path class="cls-1" d="M21.86,22.22s0,0,0,0c0,0,0,0,0,0,0,0,0,0,0,0,0,0,0,0,0,0,0,0,0,0,0,0h0s-.02-.01-.03-.03c-.01-.01-.03-.03-.04-.04-.02-.02-.03-.03-.04-.03,0,0,0,0,0,0"/>
      <path class="cls-1" d="M21.54,22h0s0,0,0,0c0,0,.02.02.03.03.01.01.04.04.05.06,0,0,0,0,0,0"/>
      <path class="cls-1" d="M21.69,22.21h0s0,0,0,0c.04.05.06.08.07.1,0,0,0,.01,0,.02,0,0,0,0,0,0"/>
      <path class="cls-1" d="M21.58,22.58s0,0,0,0c0,0,0,0,0,0-.03-.02-.07-.05-.09-.06,0,0-.02-.01-.02-.02,0,0,0,0,0,0"/>
      <path class="cls-1" d="M21.39,22.45h0s0,0,0,0c0,0-.02-.02-.03-.03-.01-.01-.06-.06-.07-.06,0,0-.01-.01-.02-.02,0,0,0,0,0-.01,0,0,0,0,0,0"/>
      <path class="cls-1" d="M21.99,22.29h0s.01.02.09,0c.01,0,.04,0,.05-.01.01,0,.03-.02.04-.02,0,0,0,0,0,0"/>
      <polyline class="cls-1" points="22.17 22.26 22.17 22.26 22.15 22.27"/>
      <polyline class="cls-1" points="22.17 22.26 22.17 22.26 22.17 22.26"/>
      <polyline class="cls-1" points="22.17 22.26 22.17 22.26 22.17 22.26"/>
      <path class="cls-1" d="M21.84,22.49h0s0,0,0,0c0,0,0,0,0,0,0,.04,0,.09-.02.11,0,0,0,.01,0,.01"/>
      <path class="cls-1" d="M21.72,22.62h0s.02,0,.04,0c.02,0,.05,0,.06-.01h0"/>
      <path class="cls-1" d="M22.2,21.03s-.14-.09-.23-.15c0,0,0,0-.01,0,0,0,0,0,0,0,0,0,0,0,0,0"/>
      <path class="cls-1" d="M22.2,21.04h0s0,0,0,0c0,0-.01,0-.01.01,0,0-.02.02-.03.02"/>
      <path class="cls-1" d="M22.14,21.09h0s-.01.03-.02.04c-.02.04-.02.06-.02.06,0,0,0,0,0,0"/>
      <path class="cls-1" d="M21.94,20.86s0,0,0,0c0,0-.02,0-.03,0,0,0,0,0-.02,0"/>
      <path class="cls-1" d="M21.87,20.88h0s0,.02,0,.03c0,.01,0,.04,0,.05,0,0,0,0,0,0"/>
      <path class="cls-1" d="M23.07,19.88s0,0,0,0c0,0-.03-.01-.04-.02,0,0,0,0,0,0,0,0,0,0,0,0"/>
      <path class="cls-1" d="M22.97,19.83h0s-.04-.02-.06-.03c0,0,0,0,0,0,0,0-.01,0-.02,0"/>
      <path class="cls-1" d="M23.65,19.39s0,0,0,0c0,0,0,0-.01,0-.04-.02-.1-.06-.12-.07,0,0-.03-.01-.04-.02,0,0,0,0-.01,0,0,0,0,0,0,0"/>
      <path class="cls-1" d="M23.12,19.92s0,0,0,0c0,0,0,0,0,0,0,0,.02.02.04.03.01.01.08.08.09.08"/>
      <path class="cls-1" d="M23.04,20.03s.02,0,.02.02c0,0,.03.02.03.02"/>
      <path class="cls-1" d="M23.75,19.49s-.03-.03-.03-.03c-.01-.01-.04-.05-.04-.05,0,0,0,0,0,0,0,0,0,0,0,0"/>
      <path class="cls-1" d="M23.63,19.48h0s0,0,.01,0c0,0,.03.02.03.02"/>
      <path class="cls-1" d="M24.13,18.61h0s0,0,0,0c0,0,.03.03.05.04,0,0,.05.05.07.07"/>
      <path class="cls-1" d="M24.04,18.72s0,0,0,0c.02.01.05.04.07.04"/>
      <polyline class="cls-1" points="24.09 18.59 24.09 18.59 24.09 18.59 24.09 18.59 24.09 18.59 24.09 18.59"/>
      <path class="cls-1" d="M24.1,18.59s0,0,0,0c0,0,0,0,0,0,0,0,0,0,0,0,0,0-.01,0-.02,0-.02-.01-.06-.04-.06-.04,0,0,0,0-.01,0"/>
      <path class="cls-1" d="M23.95,18.51h0s0,0,0,0c0,0,0,0,0,0-.02-.01-.07-.04-.08-.04,0,0-.01,0-.02-.01,0,0,0,0,0,0,0,0,0,0,0,0"/>
      <path class="cls-1" d="M23.81,18.43h0s0,0,0,0c0,0-.01,0-.02,0,0,0-.01,0-.01,0"/>
      <path class="cls-1" d="M23.77,18.43h0s0,0,0,0c0,0,0,.01,0,.01"/>
      <path class="cls-1" d="M23.84,18.45s0,0,0,0c.02-.03.12-.16.19-.26.06-.08.15-.19.19-.24,0,0,0,0,0,0"/>
      <path class="cls-1" d="M24.54,17.79s0,0,0,0c0,0-.01.01-.02.01,0,0-.03.01-.05.02-.03,0-.09,0-.12-.02-.04-.01-.06-.02-.13-.06,0,0-.01,0-.02,0,0,0-.02,0-.02,0"/>
      <path class="cls-1" d="M24.46,17.57h0s0,0,0,0c0,0,0,.01-.01.02,0,.01,0,.03,0,.05,0,0,0,0,0,0"/>
      <path class="cls-1" d="M24.49,17.66s0,0,0,0c0,0,.02,0,.02,0,0,0,0,0,0,0"/>
      <path class="cls-1" d="M24.56,17.84h0s0,0,0,.01c0,0,0,0,0,0,0,.02,0,.05,0,.05"/>
      <path class="cls-1" d="M24.56,17.83h0s0,0,0,0c0,0,0,0,0,.01,0,0,0,0,0,0"/>
      <path class="cls-1" d="M24.59,17.94h0s.01,0,.02,0c0,0,.02,0,.02,0,0,0,0,0,0,0"/>
      <path class="cls-1" d="M24.23,17.77s0,0,0,0c0,0,0,0,0,0,0,0,0,0,0,0,0,0,.01.02.02.04,0,0,0,0,0,0"/>
      <path class="cls-1" d="M24.24,17.86h0s0,.01-.01.02c0,0,0,.01-.02.02,0,0,0,0,0,0,0,0,0,0,0,0"/>
      <path class="cls-1" d="M31,10.01h0s.01,0,.02,0c0,0,0,0,0,0,0,0,0,0,0,0h0"/>
      <line class="cls-1" x1="26.1" y1="15.96" x2="26.1" y2="15.96"/>
      <path class="cls-1" d="M26.1,15.96s0,0,.01,0c0,0,0,0,0,0,0,0,0,0,0,0,0,0,0,0,0,0,0,0,.02.02.03.02,0,0,0,0,.01.01"/>
      <polyline class="cls-1" points="26.26 16.08 26.26 16.08 26.85 16.54 26.86 16.54"/>
      <path class="cls-1" d="M25.88,16.37h0s0,0,0,0c.02-.03.15-.2.2-.26.02-.03.1-.12.1-.13,0,0,0,0,0,0,0,0,0,0,0,0,0,0,.01-.02.02-.02"/>
      <path class="cls-1" d="M25.98,16.43s.19-.23.21-.26c.02-.04.05-.07.05-.08"/>
      <polyline class="cls-1" points="26.11 15.97 26.11 15.97 26.11 15.97 26.11 15.97 26.11 15.97 26.11 15.97 26.06 15.94"/>
      <line class="cls-1" x1="25.96" y1="15.86" x2="25.88" y2="15.79"/>
      <polyline class="cls-1" points="25.84 16.31 25.84 16.31 25.8 16.28"/>
      <line class="cls-1" x1="25.7" y1="16.21" x2="25.61" y2="16.14"/>
      <path class="cls-1" d="M26.22,17.98h0s0,0,0,0c0,0-.01,0-.02-.01-.01,0-.02-.01-.03-.02-.05-.02-.12-.05-.16-.06-.05-.01-.11-.01-.13,0,0,0-.03.01-.03.02-.02.02-.03.07-.03.09,0,0,0,.01.01.02,0,.01.02.02.02.02"/>
      <path class="cls-1" d="M25.99,18.22s0,0,0,0h0s0,0,0,0c0,0,0,0,0,0-.02-.01-.08-.03-.13-.05-.04-.01-.12-.03-.15-.02-.02,0-.04,0-.05.01-.01,0-.02.02-.03.03,0,0,0,.03,0,.04,0,0,0,0,0,0,0,.01,0,.04.02.05,0,.01.07.07.12.11.04.03.08.07.1.08,0,0,.02.01.03.01.02,0,.03.01.03.01"/>
      <path class="cls-1" d="M25.46,18.13s0,0,0,0c0,0,0,0,0,0,0,.01.02.03.03.04.01.01.05.04.06.04,0,0,0,0,0,0"/>
      <path class="cls-1" d="M25.45,18.09s0,0,0,0c0,.01,0,.03,0,.04,0,0,0,0,0,0,0,0,.01.02.01.02"/>
      <path class="cls-1" d="M28.21,13.29s0,0,0,0c0,0,0,0,0,0,0,0,0,0-.01,0-.05-.03-.14-.09-.16-.1,0,0-.03-.02-.05-.03,0,0,0,0,0,0,0,0-.01,0-.01,0"/>
      <path class="cls-1" d="M27.93,13.82s-.01,0-.01-.01c0,0-.01,0-.02-.01-.05-.03-.1-.06-.14-.08,0,0,0,0,0,0,0,0,0,0,0,0"/>
      <path class="cls-1" d="M27.28,14.48s0,0,0,0h0c-.06-.04-.14-.09-.2-.12,0,0,0,0,0,0-.01,0-.03-.01-.03-.02"/>
      <path class="cls-1" d="M27.29,14.49h0s.08.06.11.1c.02.02.04.05.05.05"/>
      <path class="cls-1" d="M27.2,14.59s0,0,0,0c0,0,.04.03.05.04.03.02.06.04.08.05"/>
      <path class="cls-1" d="M27.94,13.84s0,0,.02.01c.01.01.05.04.06.06"/>
      <path class="cls-1" d="M27.89,13.9h0s.04.03.05.04c0,0,.03.02.03.02"/>
      <path class="cls-1" d="M28.19,13.27s0,0,0,0c.01,0,.06.05.08.07.01.01.09.1.11.11"/>
      <path class="cls-1" d="M28.12,13.39h0s.01.01.02.03c.02.02.07.05.07.06"/>
      <path class="cls-1" d="M29.1,12.07h0s0,0,0,0c-.01,0-.02,0-.02-.01,0,0,0,0,0,0,0,0,0,0,0,0"/>
      <path class="cls-1" d="M28.97,11.99s-.02-.01-.03-.01c0,0-.01,0-.02-.01-.01,0-.02-.01-.02-.01"/>
      <path class="cls-1" d="M28.81,12.67s0,0,0,0c0,0,0,0,0,0,0,0,0,0,0,0,0,0,0,0,0,0h0s-.13-.08-.14-.09c0,0-.02,0-.03-.01,0,0,0,0,0,0,0,0,0,0,0,0"/>
      <path class="cls-1" d="M30.05,11.65h0s0,0,0,0c.01,0,.04.03.05.04,0,0,0,0,0,0,0,0,0,0,0,0,0,0,0,0,0,0"/>
      <path class="cls-1" d="M30.13,11.7h0s.02.01.03.02c.01,0,.05.05.06.05,0,0,0,0,0,0,0,0,.02.01.02.01"/>
      <path class="cls-1" d="M30.24,11.8h0s.05.04.06.05c.01.01.02.02.02.03,0,0,0,0,0,0,0,0,0,0,0,0"/>
      <path class="cls-1" d="M30.21,11.78h0s0,0,0,0c0,0,0,0,0,0,0,0,0,0,0,0,0,0,.01.01.02.01,0,0,.02.01.02.02"/>
      <path class="cls-1" d="M30.42,11.21s0,0,0,0c.02.02.05.04.07.06.04.03.11.09.14.11.02.02.03.03.03.04,0,0,0,0,0,0,0,0,0,0,0,0"/>
      <path class="cls-1" d="M30.24,11.15s0,0,0,0c0,0,0,0,0,0,0,0,0,.01,0,.02,0,0,0,.01,0,.01"/>
      <polyline class="cls-1" points="29.9 11.61 29.9 11.61 29.9 11.63"/>
      <path class="cls-1" d="M30.21,11.2s-.02,0-.02,0c-.02,0-.09-.03-.11-.04"/>
      <path class="cls-1" d="M29.88,11.64s0,0,0,0c-.03,0-.05,0-.07,0-.03,0-.08-.04-.09-.05"/>
      <path class="cls-1" d="M33.12,8.48h0s0,0,0,0c-.01.01-.03.04-.03.05"/>
      <polyline class="cls-1" points="22.8 19.72 22.8 19.72 22.78 19.72"/>
      <path class="cls-1" d="M22.77,19.77h0s0,0-.01-.01c0,0,0,0,0,0"/>
      <path class="cls-1" d="M22.42,22.45s-.01.02-.02.03c-.01.02-.03.03-.04.05,0,0-.01.01-.02.02"/>
      <path class="cls-1" d="M22.21,22.73s.04.03.05.03c0,0,0,0,0,0,0,0,0,0,0,0"/>
      <path class="cls-1" d="M22.2,22.74s0,0,0,0c0,.01-.02.03-.02.03,0,0,0,0,0,0h0s0,0,0,0"/>
      <polyline class="cls-1" points="22.44 22.46 22.44 22.46 22.44 22.46 22.44 22.46 22.47 22.48 22.48 22.49"/>
      <path class="cls-1" d="M24.25,16.99h0s0,0,0,0h0s.06-.01.09,0c.03,0,.09.05.11.06,0,0,.02.04.04.07,0,0,0,0,0,.01,0,0,0,0,0,0"/>
      <path class="cls-1" d="M24.49,17.13h0s-.01.02-.02.03c0,.01,0,.03,0,.04,0,0,0,0,0,0,0,0,0,0,.01.01"/>
      <path class="cls-1" d="M24.55,17.23s.01,0,.02,0c0,0,0,0,.01,0"/>
      <polyline class="cls-1" points="29.23 11.26 29.23 11.26 29.26 11.28"/>
      <path class="cls-1" d="M29.26,11.29s-.18.24-.19.25c-.11.15-.24.33-.27.36"/>
      <path class="cls-1" d="M24.5,17.12s.13-.19.2-.28c0,0,.02-.02.03-.04.02-.03.05-.06.06-.08"/>
      <path class="cls-1" d="M24.76,16.76s.01-.01.03-.03c0,0,0,0,0,0,.21-.18.4-.35.55-.48.02-.02.04-.04.05-.05"/>
      <path class="cls-1" d="M26.56,14.67s0,0,0,0c0,0,0,0,0,0-.01.02-.06.09-.13.17-.04.05-.18.24-.2.27-.13.16-.4.48-.49.59-.02.03-.1.13-.1.13-.03.04-.08.12-.1.14-.01.01-.13.18-.15.21"/>
      <path class="cls-1" d="M26.53,14.64h0s-.05.06-.09.12c-.1.11-.3.35-.46.56-.14.18-.36.49-.47.64,0,.01-.05.06-.06.08,0,0,0,0,0,0"/>
      <path class="cls-1" d="M25.34,16.12s0,0,0,0c0,0,.03-.03.04-.03.02-.01.03-.03.05-.04,0,0,0,0,0,0,0,0,.01-.01.02-.02"/>
      <polyline class="cls-1" points="25.35 16.12 25.35 16.12 25.34 16.12"/>
      <line class="cls-1" x1="25.3" y1="16.5" x2="25.25" y2="16.54"/>
      <path class="cls-1" d="M25.45,16.32h0s0,0,0,0c0,0,0,0,0,.01-.05.06-.12.16-.13.17,0,0,0,0-.01,0,0,0,0,0,0,0,0,0,0,0,0,0"/>
      <polyline class="cls-1" points="24.58 17.35 24.58 17.35 24.58 17.35 24.58 17.35 24.58 17.35 24.58 17.35 24.57 17.35 24.57 17.36"/>
      <polyline class="cls-1" points="24.58 17.35 24.58 17.35 24.58 17.35 24.58 17.35 24.57 17.35 24.57 17.35 24.57 17.36"/>
      <polyline class="cls-1" points="24.58 17.35 24.58 17.35 24.58 17.35 24.58 17.35 24.58 17.35 24.57 17.36"/>
      <path class="cls-1" d="M26.55,14.69s0,0,.01-.02h0c.07-.09.12-.15.22-.27.03-.04.06-.07.06-.07"/>
      <polyline class="cls-1" points="26.85 14.33 26.91 14.38 26.93 14.39 26.93 14.39 26.93 14.39"/>
      <polyline class="cls-1" points="26.94 14.35 26.93 14.35 26.93 14.35 26.93 14.35 26.92 14.37"/>
      <line class="cls-1" x1="26.94" y1="14.35" x2="26.92" y2="14.36"/>
      <path class="cls-1" d="M26.95,14.37h0s0,0,0,0c0,0,0,0,0,0,0,0,0,0,0,0"/>
      <polyline class="cls-1" points="26.94 14.37 26.94 14.38 26.93 14.39 26.93 14.39"/>
      <polyline class="cls-1" points="26.93 14.35 26.92 14.35 26.91 14.38"/>
      <polyline class="cls-1" points="26.93 14.35 26.93 14.35 26.93 14.35 26.93 14.36 26.91 14.37 26.91 14.37"/>
      <line class="cls-1" x1="26.93" y1="14.36" x2="26.93" y2="14.35"/>
      <line class="cls-1" x1="30.87" y1="11.5" x2="30.87" y2="11.5"/>
      <polyline class="cls-1" points="30.85 11.5 30.85 11.5 30.86 11.5"/>
      <path class="cls-1" d="M30.87,11.49s0,0,0,0c0,0,0,0,0,0,0,0-.02.02-.03.03"/>
      <path class="cls-1" d="M31.27,10.98s0,0-.01,0c0,0-.02,0-.02,0"/>
      <path class="cls-1" d="M31.22,11.01s0,0,0,.01c0,0,0,.01,0,.01"/>
      <path class="cls-1" d="M31.27,10.99s0,0,0,0c0,0,0,0,0,0,.08.05.11.08.12.09,0,0,0,0,0,0,0,0,0,0,0,0"/>
      <line class="cls-1" x1="26.9" y1="15.07" x2="26.91" y2="15.07"/>
      <line class="cls-1" x1="26.9" y1="15.05" x2="26.99" y2="15.11"/>
      <polyline class="cls-1" points="26.8 14.76 26.8 14.77 26.9 14.84"/>
    </g>
  </g>
</svg>