<?xml version="1.0" encoding="UTF-8"?>
<svg id="_レイヤー_1" data-name="レイヤー 1" xmlns="http://www.w3.org/2000/svg" viewBox="0 0 50 50">
  <path d="M31.99,8.93c.45-.27.66-.83,1.16-1.04.18-.07.42.09.36.29-.23,1.02-.9,1.85-1.44,2.72-.72,1.15-1.49,2.26-2.27,3.37-.6.84-1.14,1.73-1.75,2.57.2.14.41.31.41.58.01.56-.34,1.15-.9,1.29,0,.15.07.32-.04.44-.11.16-.3.21-.47.28.02.13.1.27.03.4-.09.19-.3.27-.49.33.09.2.18.4.26.6-.07.12-.15.28-.31.27-.37-.01-.72-.16-1.08-.22-.05.09-.1.17-.15.26.11.06.23.13.33.2-.21.25-.41.52-.57.8,0,.04,0,.13,0,.18-.04,0-.13,0-.18,0-.16.25-.33.5-.49.75-.06.08-.08.17-.08.27-.06.05-.13.09-.18.15-.56.78-1.13,1.56-1.69,2.34-.65.96-1.35,1.9-1.81,2.98-.22.48-.39,1-.35,1.54.02.34.17.67.13,1.02-.27.06-.52-.09-.76-.19-1.05-.54-2.02-1.23-2.85-2.06-.11-.11-.22-.23-.3-.37-.09-.15.09-.33.24-.3.39.02.77-.07,1.11-.25.78-.4,1.32-1.1,1.85-1.77.97-1.26,1.9-2.54,2.77-3.87-.16-.11-.33-.23-.49-.34.16-.19.32-.38.46-.57.1-.13.23-.26.25-.43.25-.17.37-.45.56-.67-.1-.13-.17-.33-.03-.46.11-.15.31-.13.48-.15.04.04.08.09.11.13-.05.15-.11.29-.18.43.03.03.06.06.09.09.11-.17.23-.33.36-.49-.06-.04-.11-.07-.17-.1-.08-.04-.16-.08-.2-.16,0-.15.15-.19.23-.29-.02-.09-.11-.18-.04-.27.08-.01.17-.02.25-.03.09-.08.03-.2.04-.29.03-.1.16-.07.24-.1.08-.1.15-.22.23-.33-.06-.06-.12-.11-.18-.17.04-.06.05-.14.13-.17.09.02.16.07.23.12.29-.49.66-.92.97-1.4-.09-.08-.12-.16-.08-.26.05,0,.16,0,.22,0,.06-.08.11-.17.17-.25-.05-.11-.15-.26-.05-.37.08-.15.26-.1.4-.09.22-.39.49-.75.77-1.11-.02-.03-.07-.09-.09-.12.13-.15.32-.09.48-.11l-.08.12s.08.11.11.15c-.04.03-.07.07-.11.11l-.12-.02c-.28.34-.54.71-.78,1.08.04.03.11.09.15.12.31-.39.59-.8.9-1.18.09-.14.18-.29.25-.44-.1,0-.2,0-.3,0-.09-.16-.17-.39,0-.53.15-.15.35-.05.52,0,.48-.62.99-1.22,1.43-1.88.63-.96,1.44-1.79,2.14-2.71-.12-.07-.3-.09-.36-.22.04-.14.07-.31.2-.4.17.02.31.13.44.23M32.22,8.92c-.12.08-.17.23-.13.37.11.2.44.2.54,0,.08-.24-.19-.51-.42-.36M31.91,10.56c.11.08.15-.08.21-.13-.24-.15-.47-.31-.67-.51-.16.32.23.51.45.64M29.68,12.21c-.04.1-.08.19-.12.29.25.24.54.46.88.55.05-.07.1-.15.15-.22-.36-.11-.67-.33-.9-.62M28.04,14.43c.1.17.24.36.46.34.19,0,.35-.16.38-.34.03-.24-.21-.47-.45-.43-.2.06-.31.25-.39.43M26.09,16.68c.06.07.12.14.19.2.1-.09.14-.22.21-.34-.07-.04-.14-.07-.22-.11-.06.08-.12.16-.18.24M24.97,18.34c.06.05.12.11.17.16.35-.49.69-.99,1.02-1.49-.04-.02-.13-.05-.18-.07-.34.46-.66.95-1.02,1.4M27.16,18.3c.18,0,.38.03.52-.11.26-.23.23-.63.2-.95-.27.33-.51.69-.72,1.06M24.57,18.95c.08.02.15.05.23.07.07-.12.15-.23.21-.36-.05-.04-.11-.07-.17-.1-.11.12-.19.26-.28.39M26.84,18.74c-.04.08-.09.16-.13.25.08.06.16.11.24.17.03-.11.05-.22.07-.33-.06-.03-.12-.05-.18-.08M24.28,19.34c.04.06.07.11.11.17.06-.06.13-.13.19-.19-.04-.06-.08-.11-.12-.17-.06.06-.12.12-.18.19M24.07,19.59c-.03.1.05.18.08.27.09-.06.16-.15.19-.25-.09,0-.18-.01-.28-.01M26.3,19.55c-.04.09-.09.19-.13.29.04.08.12.15.18.21.03-.09.05-.18.08-.27-.05-.08-.09-.15-.14-.23M26,20.02c-.1.15-.2.31-.28.47.17-.03.33-.09.48-.17-.06-.1-.12-.21-.2-.3M23.44,20.56c-.15.23-.3.45-.48.65.08.04.15.09.23.13.13-.21.26-.42.42-.61-.05-.06-.11-.12-.16-.18M24.73,21.85c.06.04.11.09.17.13.14-.22.29-.44.43-.66-.04-.03-.11-.1-.14-.13-.15.22-.28.45-.46.66M22.29,22.14c.1.04.2.09.3.13.16-.24.34-.47.49-.72-.08-.05-.15-.1-.23-.16-.18.26-.37.5-.56.74M24.6,22.07c-.18.28-.36.57-.57.84-.09.07.06.14.08.19.24-.31.44-.66.68-.97-.06-.01-.14-.14-.19-.05M22.97,22.25c-.25.1-.44.43-.26.67.15.26.56.23.69-.03.22-.29-.09-.76-.44-.64M23.89,23.12c-.32.59-.7,1.15-1.02,1.73.4-.55.79-1.1,1.19-1.65-.05-.03-.11-.06-.17-.09M22.54,23.63c-.23.15-.25.59.05.66.31.14.63-.25.47-.54-.09-.19-.36-.24-.53-.12M21.76,24.18c-.31.13-.33.64-.02.78.24.14.55-.07.6-.32.06-.3-.31-.6-.59-.46M21.02,25.1c-.32.07-.41.58-.12.75.23.18.59-.02.61-.3.05-.27-.23-.5-.49-.45M19.95,26.42c.34.36.71.69,1.19.85.07-.07.13-.13.2-.19-.5-.15-.92-.48-1.24-.88-.05.08-.1.15-.16.23Z"/>
  <g>
    <path d="M6.51,37.59l.64.63c-.31,2.06-.87,3.63-1.7,4.72-.75.99-1.88,1.75-3.38,2.29l-.51-.99c1.38-.42,2.43-1.09,3.15-2.02.7-.9,1.17-2.11,1.41-3.63h-2.75c-.57,1.04-1.24,1.86-2.01,2.48l-.67-.81c.63-.48,1.14-1.01,1.53-1.57.45-.64.8-1.42,1.05-2.33l.89.29c-.1.34-.21.66-.32.94h2.68Z"/>
    <path d="M9.05,39.18h6.8c-.12,1.42-.37,2.53-.74,3.33-.28.6-.64,1.08-1.06,1.44-.72.61-1.76,1.03-3.14,1.26l-.41-.99c1.21-.14,2.14-.47,2.78-1,.83-.67,1.31-1.69,1.43-3.04h-5.66v-1ZM9.64,36.78h5.39v1h-5.39v-1Z"/>
    <path d="M18.22,36.49h.95v5.34h-.95v-5.34ZM22.42,36.38h.95v3.49c0,1.23-.08,2.14-.25,2.74-.14.51-.33.92-.57,1.22-.5.64-1.3,1.12-2.4,1.42l-.47-1c1.21-.29,1.98-.78,2.32-1.46.21-.43.34-.98.39-1.64.02-.31.03-.73.03-1.27v-3.5Z"/>
    <path d="M28.69,36.27h.92v1.53h1.85l.48.57c-.59.93-1.35,1.8-2.27,2.59v4.43h-.92v-3.71c-.89.63-1.83,1.16-2.85,1.58l-.46-.94c1.36-.48,2.6-1.18,3.71-2.11.53-.45.99-.92,1.36-1.43h-4.33v-.98h2.51v-1.53ZM32.5,43.49c-.8-.82-1.65-1.53-2.55-2.12l.58-.69c.91.55,1.75,1.19,2.53,1.93l-.56.88Z"/>
    <path d="M35.33,41.7c-.2-1-.46-1.93-.8-2.78l.78-.45c.35.85.63,1.8.85,2.85l-.83.38ZM35.95,44.29c.91-.29,1.6-.68,2.08-1.17s.84-1.2,1.1-2.13c.2-.74.34-1.68.43-2.84l.87.31c-.16,1.53-.39,2.7-.68,3.51-.35,1-.88,1.76-1.59,2.3-.45.34-1.02.65-1.72.92l-.48-.9ZM37.23,41.26c-.15-.8-.4-1.72-.75-2.77l.8-.4c.31.82.58,1.76.78,2.8l-.84.37Z"/>
    <path d="M44.01,36.35h.95v2.8c1.63.6,2.97,1.21,4.04,1.84l-.46,1.05c-1.02-.62-2.22-1.21-3.58-1.77v4.96h-.95v-8.88Z"/>
  </g>
</svg>