<?xml version="1.0" encoding="UTF-8"?>
<svg id="_レイヤー_1" data-name="レイヤー 1" xmlns="http://www.w3.org/2000/svg" viewBox="0 0 50 50">
  <defs>
    <style>
      .cls-1 {
        fill: #fff;
      }
    </style>
  </defs>
  <g>
    <path d="M4.46,45.42c.47-.83.88-1.85,1.22-3.06.37-1.32.61-2.66.7-4.03l.94.23c-.24,2-.57,3.68-.98,5.04-.29.99-.66,1.86-1.09,2.6l-.8-.78ZM11.06,46.25c-.99-1.96-1.75-4.52-2.28-7.7l.89-.33c.47,2.84,1.21,5.27,2.21,7.29l-.81.74ZM10.63,39.48c-.16-.52-.43-1.12-.83-1.8l.64-.28c.31.51.59,1.1.85,1.77l-.66.31ZM11.8,39.26c-.21-.65-.48-1.25-.82-1.82l.61-.24c.32.48.6,1.05.83,1.72l-.62.34Z"/>
    <path d="M16.47,46.48v-5.01c-.83.66-1.77,1.22-2.84,1.68l-.49-.99c1.21-.49,2.26-1.11,3.17-1.88.89-.75,1.69-1.61,2.39-2.58l.79.59c-.62.85-1.31,1.63-2.07,2.34v5.85h-.95Z"/>
    <path d="M25.7,37.72h.94v1.88h1.94v1h-1.94v4.83c0,.36-.05.62-.16.78-.12.19-.37.28-.75.28-.43,0-.85-.02-1.26-.05l-.22-1.06c.43.05.83.07,1.21.07.13,0,.2-.03.22-.1.01-.04.02-.1.02-.18v-4.07c-.53.93-1.11,1.75-1.75,2.47-.57.65-1.26,1.25-2.07,1.78l-.58-.95c1.51-.92,2.76-2.18,3.76-3.8h-3.58v-1h4.22v-1.88Z"/>
    <path d="M30.77,37.82h.95v5.34h-.95v-5.34ZM34.97,37.72h.95v3.49c0,1.23-.08,2.14-.25,2.74-.14.51-.33.92-.57,1.22-.5.64-1.3,1.12-2.4,1.42l-.47-1c1.21-.29,1.98-.78,2.32-1.46.21-.43.34-.98.39-1.64.02-.31.03-.73.03-1.27v-3.5Z"/>
    <path d="M41.29,40.34c-.86-.46-1.75-.83-2.68-1.1l.29-1.05c1.08.29,1.98.66,2.71,1.09l-.31,1.06ZM38.71,45.2c1.35-.14,2.38-.42,3.1-.86.84-.52,1.49-1.32,1.94-2.4.29-.7.53-1.61.71-2.73l.79.69c-.22,1.2-.49,2.16-.8,2.87-.57,1.29-1.43,2.23-2.6,2.81-.74.36-1.72.62-2.95.78l-.19-1.15Z"/>
  </g>
  <g>
    <path d="M16.41,25.87c-.07.03-.14,0-.17-.07-.02-.05,0-.11.03-.14.01-.01.03-.02.04-.03.07-.03.14,0,.17.07.03.07,0,.14-.07.17Z"/>
    <path d="M16.56,26.24c-.07.03-.14,0-.17-.07-.03-.07,0-.14.07-.17.07-.03.14,0,.17.07s0,.14-.07.17Z"/>
    <path d="M16.72,26.64c-.07.03-.14,0-.17-.07-.03-.07,0-.14.07-.17.07-.03.14,0,.17.07.03.07,0,.14-.07.17Z"/>
    <path d="M16.88,27.03s-.03,0-.04,0c-.05,0-.1-.03-.13-.08-.03-.07,0-.14.07-.17.07-.03.14,0,.17.07.03.07,0,.14-.07.17Z"/>
    <path d="M17.6,26.29l-.47.19c-.07.03-.14,0-.17-.07-.03-.07,0-.14.07-.17l.47-.19s.05,0,.06.02l.02.06-.11.05-.14.06s-.02.02-.01.03h0s.02.02.03.01l.14-.06.11-.05.02.06s0,.05-.02.06Z"/>
    <path d="M25.81,19.45c1.16.54,1.67,1.56,1.72,1.67l.19-.07s-.51-1.18-1.83-1.79c-.58-.27-1.16-.23-1.63-.1-.46.13-.88.36-1.24.67-.33.29-.97.77-1.38.58-.01,0-.03-.01-.04-.01h0s-.09,0-.13.03l-.05.04c-.06.05-.06.14,0,.19l.03.03c.1.08.16.2.16.33.01.16-.05.39-.32.62,0,0-.68.59-1.94.67-1.26.08-1.45-.52-1.43-.99l-.26-.04s-.2.44-.76.44c-.56,0-1.5-.1-2.42.28-.32.14-.8.41-1.22.87,0,0,.08.04.2.12l-.02-.02c.42-.45.88-.68,1.12-.78.72-.31,1.47-.29,2.02-.27h.02c.11,0,.21,0,.3,0,.4,0,.65-.19.79-.34l.03-.04v.05c.02.09.04.18.08.26.2.5.73.72,1.56.67,1.28-.08,1.98-.66,2.06-.72.35-.29.41-.59.39-.79,0-.12-.05-.23-.12-.33l-.03-.04h.05c.47.09,1.04-.3,1.44-.65.34-.3.74-.51,1.16-.63.54-.15,1.04-.12,1.49.09ZM16.26,25.65s0,0,0,0c.05-.04.09-.09.13-.12.14-.14.31-.26.48-.36l.25-.13c.07-.04.15,0,.18.06l.08.19,1.96-.99s0,0,0,0l-.11-.27.13-.05.11.27,2.24-.81-.06-.15,5.84-2.14c-.06-.13-.57-1.12-1.7-1.65-.44-.2-.93-.23-1.46-.08-.41.11-.8.33-1.14.62-.39.34-.95.73-1.43.68.06.1.09.21.1.31.01.21-.05.52-.41.82-.08.07-.79.65-2.08.73-.86.05-1.4-.18-1.61-.7-.03-.07-.05-.15-.07-.22-.15.15-.41.32-.8.32-.09,0-.19,0-.3,0h-.02c-.55-.01-1.29-.03-2,.27-.23.1-.69.33-1.1.77.29.19.79.57,1.11,1.16.01.02.02.04.03.06,0,0,0,.02.01.03,0,.02.02.04.03.05,0,0,0,.02.01.03.14.3.23.65.23,1.05,0,0,.01.24-.16.58,0,0,0,.02-.01.03,0,0-.01.02-.02.03,0,0-.01.02-.02.03,0,.01-.01.02-.02.03,0,.02-.02.03-.03.05,0,0,0,.01,0,.02,0,.01-.01.02-.02.03-.01.02-.02.03-.03.05,0,.01-.02.02-.02.03,0,.01-.02.02-.02.03-.01.02-.03.03-.04.05-.01.02-.03.03-.04.05,0,.01-.02.02-.03.03,0,.01-.02.02-.03.03-.01.01-.02.02-.03.03,0,0-.01.01-.02.02-.01.01-.02.02-.03.03-.01.01-.02.02-.03.03-.02.02-.04.03-.05.05-.01.01-.03.02-.04.03-.02.02-.04.03-.06.05-.01.01-.03.02-.04.03-.06.05-.13.1-.21.15,0,0-.08.06-.16.16l1.25-.51c.47-.19.96-.6,1.27-.9ZM20.52,23.39s.07-.02.08-.06v-.05s0-.04,0-.06c0,0,0,0,0,0h0s0,0,0,0c0,0,0,0,0,0,0,0,0,0,0,0,0,0,0,0,0,0-.02-.02-.04-.04-.07-.05-.3-.09-.9.12-.9.12l-.36.13-.07.14-.08-.1c-.32.1-.64.18-.98.21-.14.01-.27.01-.41-.02-.18-.05-.31-.18-.37-.34,0,0,0,0,0,0h0s0,0,0-.01c-.03-.1-.03-.2,0-.3.03-.1.09-.19.2-.26.32-.19.39.05.39.05.03.29-.18.26-.3.23-.04-.01-.08,0-.1.05l-.05.12s-.01.05,0,.07c0,0,0,0,0,0h0s0,0,0,0c.01.03.03.05.06.05.51.15.95-.01.95-.01l.56-.13.03-.12.11.05c.25-.07.49-.16.74-.18.18-.02.37,0,.55.06.1.03.18.1.23.19,0,0,0,0,0,.01,0,0,0,0,0,0h0s0,0,0,.01h0s0,0,0,0h0s0,.01,0,.02c0,0,0,0,0,0,0,.02.01.04.01.06,0,.02,0,.04,0,.06,0,.12-.06.24-.16.31-.1.08-.24.14-.29-.02-.05-.19.1-.2.2-.19Z"/>
    <path d="M17.29,25.52l-.47.19c-.07.03-.14,0-.17-.07-.03-.07,0-.14.07-.17l.47-.19s.05,0,.06.02v.04s-.09.06-.09.06l-.14.07s-.01.02-.01.03h0s.02.02.03.01l.14-.07.11-.06.03.08s0,.05-.02.06Z"/>
    <polygon points="17.53 25.66 17.39 25.32 19.35 24.33 19.53 24.75 19.52 24.75 17.53 25.66"/>
    <path d="M17.44,25.89l-.47.19c-.07.03-.14,0-.17-.07-.03-.07,0-.14.07-.17l.47-.19s.05,0,.06.02l.02.05-.11.05-.14.07s-.02.02-.01.03h0s.02.02.03.01l.14-.06.11-.05.03.07s0,.05-.02.06Z"/>
    <polygon points="17.7 26.08 17.55 25.71 19.54 24.79 19.54 24.79 19.73 25.26 17.7 26.08"/>
    <polygon points="21.88 23.85 19.66 24.7 19.49 24.28 21.73 23.47 21.88 23.85"/>
    <polygon points="22.07 24.31 19.86 25.21 19.67 24.74 21.9 23.89 22.07 24.31"/>
    <polygon points="19.88 25.25 22.08 24.35 22.23 24.72 20.05 25.67 19.88 25.25"/>
    <path d="M17.76,26.67l-.47.19c-.07.03-.14,0-.17-.07-.03-.07,0-.14.07-.17l.47-.19s.05,0,.06.02l.03.07-.11.04-.15.05s-.02.02-.01.03h0s.02.02.03.01l.15-.05.11-.04.02.05s0,.05-.02.06Z"/>
    <polygon points="19.92 25.72 17.86 26.48 17.72 26.12 19.75 25.31 19.92 25.72"/>
    <path d="M19.62,29.47h0c.08-.08.15-.16.22-.23.28-.27.58-.33.8-.32-.04-.07-.08-.14-.11-.21-.21-.52.02-1.06.67-1.62.98-.84,1.9-.92,2.01-.93.47-.04.73.15.87.31.07.08.12.18.15.29.3-.37.98-.48,1.5-.51.44-.02.88-.14,1.25-.35.48-.27.82-.63.99-1.08.44-1.15.13-2.19.08-2.36l-5.68,2.53-.1-.25-2.19.95.16.4-.13.05-.16-.4-2.06.75.08.21c.03.07-.01.15-.08.17l-.27.07c-.19.05-.4.08-.6.08-.05,0-.11,0-.18,0-.43,0-1.07.05-1.55.24l-1.51.61s.07.08.11.09c.05.02.09.07.11.12l.14.54c.02.06,0,.12-.02.18,0,.02-.02.03-.03.04l-.09.11s-.08.07-.12.09c.18.28.38.53.59.75.41.43.88.73,1.37.9.96.33,1.82.07,2.15-.06.72-.28,1.24-.81,1.63-1.2ZM19.82,28.29c-.13.03-.24,0-.33-.04-.09-.05-.17-.13-.21-.22,0,0,0,0,0,0h0s0,0,0,0c-.07-.16-.07-.34.03-.5.07-.12.17-.21.28-.3.26-.22.55-.38.85-.53v-.13s.14.05.14.05l.35-.16s.58-.26.73-.54c.01-.03.02-.05.02-.08,0,0,0,0,0-.01,0,0,0,0,0,0,0,0,0,0,0,0,0,0,0,0,0,0h0s0,0,0,0c0-.02-.02-.03-.04-.05l-.04-.03s-.07-.02-.1,0c-.06.07-.18.17-.28,0-.08-.15.06-.2.19-.21.12-.02.25.02.33.11.03.03.06.07.07.1,0,0,0,0,0,0,0,0,0,.01,0,.02h0s0,0,0,0h0s0,0,0,.01h0s0,0,0,0c0,0,0,.01,0,.02.03.1.02.2-.03.3-.09.16-.21.31-.36.42-.2.16-.43.27-.66.39l-.05.11-.1-.07-.5.3s-.43.19-.69.65c-.01.03-.02.06,0,.08,0,0,0,0,0,0h0s0,0,0,0c.01.02.03.04.05.05l.12.05s.08,0,.1-.03c.06-.1.2-.28.37-.04,0,0,.11.22-.25.31ZM19.62,29.47h0c.08-.08.15-.16.22-.23.28-.27.58-.33.8-.32-.04-.07-.08-.14-.11-.21-.21-.52.02-1.06.67-1.62.98-.84,1.9-.92,2.01-.93.47-.04.73.15.87.31.07.08.12.18.15.29.3-.37.98-.48,1.5-.51.44-.02.88-.14,1.25-.35.48-.27.82-.63.99-1.08.44-1.15.13-2.19.08-2.36l-5.68,2.53-.1-.25-2.19.95.16.4-.13.05-.16-.4-2.06.75.08.21c.03.07-.01.15-.08.17l-.27.07c-.19.05-.4.08-.6.08-.05,0-.11,0-.18,0-.43,0-1.07.05-1.55.24l-1.51.61s.07.08.11.09c.05.02.09.07.11.12l.14.54c.02.06,0,.12-.02.18,0,.02-.02.03-.03.04l-.09.11s-.08.07-.12.09c.18.28.38.53.59.75.41.43.88.73,1.37.9.96.33,1.82.07,2.15-.06.72-.28,1.24-.81,1.63-1.2ZM19.82,28.29c-.13.03-.24,0-.33-.04-.09-.05-.17-.13-.21-.22,0,0,0,0,0,0h0s0,0,0,0c-.07-.16-.07-.34.03-.5.07-.12.17-.21.28-.3.26-.22.55-.38.85-.53v-.13s.14.05.14.05l.35-.16s.58-.26.73-.54c.01-.03.02-.05.02-.08,0,0,0,0,0-.01,0,0,0,0,0,0,0,0,0,0,0,0,0,0,0,0,0,0h0s0,0,0,0c0-.02-.02-.03-.04-.05l-.04-.03s-.07-.02-.1,0c-.06.07-.18.17-.28,0-.08-.15.06-.2.19-.21.12-.02.25.02.33.11.03.03.06.07.07.1,0,0,0,0,0,0,0,0,0,.01,0,.02h0s0,0,0,0h0s0,0,0,.01h0s0,0,0,0c0,0,0,.01,0,.02.03.1.02.2-.03.3-.09.16-.21.31-.36.42-.2.16-.43.27-.66.39l-.05.11-.1-.07-.5.3s-.43.19-.69.65c-.01.03-.02.06,0,.08,0,0,0,0,0,0h0s0,0,0,0c.01.02.03.04.05.05l.12.05s.08,0,.1-.03c.06-.1.2-.28.37-.04,0,0,.11.22-.25.31ZM19.62,29.47h0c.08-.08.15-.16.22-.23.28-.27.58-.33.8-.32-.04-.07-.08-.14-.11-.21-.21-.52.02-1.06.67-1.62.98-.84,1.9-.92,2.01-.93.47-.04.73.15.87.31.07.08.12.18.15.29.3-.37.98-.48,1.5-.51.44-.02.88-.14,1.25-.35.48-.27.82-.63.99-1.08.44-1.15.13-2.19.08-2.36l-5.68,2.53-.1-.25-2.19.95.16.4-.13.05-.16-.4-2.06.75.08.21c.03.07-.01.15-.08.17l-.27.07c-.19.05-.4.08-.6.08-.05,0-.11,0-.18,0-.43,0-1.07.05-1.55.24l-1.51.61s.07.08.11.09c.05.02.09.07.11.12l.14.54c.02.06,0,.12-.02.18,0,.02-.02.03-.03.04l-.09.11s-.08.07-.12.09c.18.28.38.53.59.75.41.43.88.73,1.37.9.96.33,1.82.07,2.15-.06.72-.28,1.24-.81,1.63-1.2ZM19.82,28.29c-.13.03-.24,0-.33-.04-.09-.05-.17-.13-.21-.22,0,0,0,0,0,0h0s0,0,0,0c-.07-.16-.07-.34.03-.5.07-.12.17-.21.28-.3.26-.22.55-.38.85-.53v-.13s.14.05.14.05l.35-.16s.58-.26.73-.54c.01-.03.02-.05.02-.08,0,0,0,0,0-.01,0,0,0,0,0,0,0,0,0,0,0,0,0,0,0,0,0,0h0s0,0,0,0c0-.02-.02-.03-.04-.05l-.04-.03s-.07-.02-.1,0c-.06.07-.18.17-.28,0-.08-.15.06-.2.19-.21.12-.02.25.02.33.11.03.03.06.07.07.1,0,0,0,0,0,0,0,0,0,.01,0,.02h0s0,0,0,0h0s0,0,0,.01h0s0,0,0,0c0,0,0,.01,0,.02.03.1.02.2-.03.3-.09.16-.21.31-.36.42-.2.16-.43.27-.66.39l-.05.11-.1-.07-.5.3s-.43.19-.69.65c-.01.03-.02.06,0,.08,0,0,0,0,0,0h0s0,0,0,0c.01.02.03.04.05.05l.12.05s.08,0,.1-.03c.06-.1.2-.28.37-.04,0,0,.11.22-.25.31ZM19.62,29.47h0c.08-.08.15-.16.22-.23.28-.27.58-.33.8-.32-.04-.07-.08-.14-.11-.21-.21-.52.02-1.06.67-1.62.98-.84,1.9-.92,2.01-.93.47-.04.73.15.87.31.07.08.12.18.15.29.3-.37.98-.48,1.5-.51.44-.02.88-.14,1.25-.35.48-.27.82-.63.99-1.08.44-1.15.13-2.19.08-2.36l-5.68,2.53-.1-.25-2.19.95.16.4-.13.05-.16-.4-2.06.75.08.21c.03.07-.01.15-.08.17l-.27.07c-.19.05-.4.08-.6.08-.05,0-.11,0-.18,0-.43,0-1.07.05-1.55.24l-1.51.61s.07.08.11.09c.05.02.09.07.11.12l.14.54c.02.06,0,.12-.02.18,0,.02-.02.03-.03.04l-.09.11s-.08.07-.12.09c.18.28.38.53.59.75.41.43.88.73,1.37.9.96.33,1.82.07,2.15-.06.72-.28,1.24-.81,1.63-1.2ZM19.82,28.29c-.13.03-.24,0-.33-.04-.09-.05-.17-.13-.21-.22,0,0,0,0,0,0h0s0,0,0,0c-.07-.16-.07-.34.03-.5.07-.12.17-.21.28-.3.26-.22.55-.38.85-.53v-.13s.14.05.14.05l.35-.16s.58-.26.73-.54c.01-.03.02-.05.02-.08,0,0,0,0,0-.01,0,0,0,0,0,0,0,0,0,0,0,0,0,0,0,0,0,0h0s0,0,0,0c0-.02-.02-.03-.04-.05l-.04-.03s-.07-.02-.1,0c-.06.07-.18.17-.28,0-.08-.15.06-.2.19-.21.12-.02.25.02.33.11.03.03.06.07.07.1,0,0,0,0,0,0,0,0,0,.01,0,.02h0s0,0,0,0h0s0,0,0,.01h0s0,0,0,0c0,0,0,.01,0,.02.03.1.02.2-.03.3-.09.16-.21.31-.36.42-.2.16-.43.27-.66.39l-.05.11-.1-.07-.5.3s-.43.19-.69.65c-.01.03-.02.06,0,.08,0,0,0,0,0,0h0s0,0,0,0c.01.02.03.04.05.05l.12.05s.08,0,.1-.03c.06-.1.2-.28.37-.04,0,0,.11.22-.25.31ZM19.62,29.47h0c.08-.08.15-.16.22-.23.28-.27.58-.33.8-.32-.04-.07-.08-.14-.11-.21-.21-.52.02-1.06.67-1.62.98-.84,1.9-.92,2.01-.93.47-.04.73.15.87.31.07.08.12.18.15.29.3-.37.98-.48,1.5-.51.44-.02.88-.14,1.25-.35.48-.27.82-.63.99-1.08.44-1.15.13-2.19.08-2.36l-5.68,2.53-.1-.25-2.19.95.16.4-.13.05-.16-.4-2.06.75.08.21c.03.07-.01.15-.08.17l-.27.07c-.19.05-.4.08-.6.08-.05,0-.11,0-.18,0-.43,0-1.07.05-1.55.24l-1.51.61s.07.08.11.09c.05.02.09.07.11.12l.14.54c.02.06,0,.12-.02.18,0,.02-.02.03-.03.04l-.09.11s-.08.07-.12.09c.18.28.38.53.59.75.41.43.88.73,1.37.9.96.33,1.82.07,2.15-.06.72-.28,1.24-.81,1.63-1.2ZM19.82,28.29c-.13.03-.24,0-.33-.04-.09-.05-.17-.13-.21-.22,0,0,0,0,0,0h0s0,0,0,0c-.07-.16-.07-.34.03-.5.07-.12.17-.21.28-.3.26-.22.55-.38.85-.53v-.13s.14.05.14.05l.35-.16s.58-.26.73-.54c.01-.03.02-.05.02-.08,0,0,0,0,0-.01,0,0,0,0,0,0,0,0,0,0,0,0,0,0,0,0,0,0h0s0,0,0,0c0-.02-.02-.03-.04-.05l-.04-.03s-.07-.02-.1,0c-.06.07-.18.17-.28,0-.08-.15.06-.2.19-.21.12-.02.25.02.33.11.03.03.06.07.07.1,0,0,0,0,0,0,0,0,0,.01,0,.02h0s0,0,0,0h0s0,0,0,.01h0s0,0,0,0c0,0,0,.01,0,.02.03.1.02.2-.03.3-.09.16-.21.31-.36.42-.2.16-.43.27-.66.39l-.05.11-.1-.07-.5.3s-.43.19-.69.65c-.01.03-.02.06,0,.08,0,0,0,0,0,0h0s0,0,0,0c.01.02.03.04.05.05l.12.05s.08,0,.1-.03c.06-.1.2-.28.37-.04,0,0,.11.22-.25.31ZM19.62,29.47h0c.08-.08.15-.16.22-.23.28-.27.58-.33.8-.32-.04-.07-.08-.14-.11-.21-.21-.52.02-1.06.67-1.62.98-.84,1.9-.92,2.01-.93.47-.04.73.15.87.31.07.08.12.18.15.29.3-.37.98-.48,1.5-.51.44-.02.88-.14,1.25-.35.48-.27.82-.63.99-1.08.44-1.15.13-2.19.08-2.36l-5.68,2.53-.1-.25-2.19.95.16.4-.13.05-.16-.4-2.06.75.08.21c.03.07-.01.15-.08.17l-.27.07c-.19.05-.4.08-.6.08-.05,0-.11,0-.18,0-.43,0-1.07.05-1.55.24l-1.51.61s.07.08.11.09c.05.02.09.07.11.12l.14.54c.02.06,0,.12-.02.18,0,.02-.02.03-.03.04l-.09.11s-.08.07-.12.09c.18.28.38.53.59.75.41.43.88.73,1.37.9.96.33,1.82.07,2.15-.06.72-.28,1.24-.81,1.63-1.2ZM19.82,28.29c-.13.03-.24,0-.33-.04-.09-.05-.17-.13-.21-.22,0,0,0,0,0,0h0s0,0,0,0c-.07-.16-.07-.34.03-.5.07-.12.17-.21.28-.3.26-.22.55-.38.85-.53v-.13s.14.05.14.05l.35-.16s.58-.26.73-.54c.01-.03.02-.05.02-.08,0,0,0,0,0-.01,0,0,0,0,0,0,0,0,0,0,0,0,0,0,0,0,0,0h0s0,0,0,0c0-.02-.02-.03-.04-.05l-.04-.03s-.07-.02-.1,0c-.06.07-.18.17-.28,0-.08-.15.06-.2.19-.21.12-.02.25.02.33.11.03.03.06.07.07.1,0,0,0,0,0,0,0,0,0,.01,0,.02h0s0,0,0,0h0s0,0,0,.01h0s0,0,0,0c0,0,0,.01,0,.02.03.1.02.2-.03.3-.09.16-.21.31-.36.42-.2.16-.43.27-.66.39l-.05.11-.1-.07-.5.3s-.43.19-.69.65c-.01.03-.02.06,0,.08,0,0,0,0,0,0h0s0,0,0,0c.01.02.03.04.05.05l.12.05s.08,0,.1-.03c.06-.1.2-.28.37-.04,0,0,.11.22-.25.31ZM19.62,29.47h0c.08-.08.15-.16.22-.23.28-.27.58-.33.8-.32-.04-.07-.08-.14-.11-.21-.21-.52.02-1.06.67-1.62.98-.84,1.9-.92,2.01-.93.47-.04.73.15.87.31.07.08.12.18.15.29.3-.37.98-.48,1.5-.51.44-.02.88-.14,1.25-.35.48-.27.82-.63.99-1.08.44-1.15.13-2.19.08-2.36l-5.68,2.53-.1-.25-2.19.95.16.4-.13.05-.16-.4-2.06.75.08.21c.03.07-.01.15-.08.17l-.27.07c-.19.05-.4.08-.6.08-.05,0-.11,0-.18,0-.43,0-1.07.05-1.55.24l-1.51.61s.07.08.11.09c.05.02.09.07.11.12l.14.54c.02.06,0,.12-.02.18,0,.02-.02.03-.03.04l-.09.11s-.08.07-.12.09c.18.28.38.53.59.75.41.43.88.73,1.37.9.96.33,1.82.07,2.15-.06.72-.28,1.24-.81,1.63-1.2ZM19.82,28.29c-.13.03-.24,0-.33-.04-.09-.05-.17-.13-.21-.22,0,0,0,0,0,0h0s0,0,0,0c-.07-.16-.07-.34.03-.5.07-.12.17-.21.28-.3.26-.22.55-.38.85-.53v-.13s.14.05.14.05l.35-.16s.58-.26.73-.54c.01-.03.02-.05.02-.08,0,0,0,0,0-.01,0,0,0,0,0,0,0,0,0,0,0,0,0,0,0,0,0,0h0s0,0,0,0c0-.02-.02-.03-.04-.05l-.04-.03s-.07-.02-.1,0c-.06.07-.18.17-.28,0-.08-.15.06-.2.19-.21.12-.02.25.02.33.11.03.03.06.07.07.1,0,0,0,0,0,0,0,0,0,.01,0,.02h0s0,0,0,0h0s0,0,0,.01h0s0,0,0,0c0,0,0,.01,0,.02.03.1.02.2-.03.3-.09.16-.21.31-.36.42-.2.16-.43.27-.66.39l-.05.11-.1-.07-.5.3s-.43.19-.69.65c-.01.03-.02.06,0,.08,0,0,0,0,0,0h0s0,0,0,0c.01.02.03.04.05.05l.12.05s.08,0,.1-.03c.06-.1.2-.28.37-.04,0,0,.11.22-.25.31ZM19.62,29.47h0c.08-.08.15-.16.22-.23.28-.27.58-.33.8-.32-.04-.07-.08-.14-.11-.21-.21-.52.02-1.06.67-1.62.98-.84,1.9-.92,2.01-.93.47-.04.73.15.87.31.07.08.12.18.15.29.3-.37.98-.48,1.5-.51.44-.02.88-.14,1.25-.35.48-.27.82-.63.99-1.08.44-1.15.13-2.19.08-2.36l-5.68,2.53-.1-.25-2.19.95.16.4-.13.05-.16-.4-2.06.75.08.21c.03.07-.01.15-.08.17l-.27.07c-.19.05-.4.08-.6.08-.05,0-.11,0-.18,0-.43,0-1.07.05-1.55.24l-1.51.61s.07.08.11.09c.05.02.09.07.11.12l.14.54c.02.06,0,.12-.02.18,0,.02-.02.03-.03.04l-.09.11s-.08.07-.12.09c.18.28.38.53.59.75.41.43.88.73,1.37.9.96.33,1.82.07,2.15-.06.72-.28,1.24-.81,1.63-1.2ZM19.82,28.29c-.13.03-.24,0-.33-.04-.09-.05-.17-.13-.21-.22,0,0,0,0,0,0h0s0,0,0,0c-.07-.16-.07-.34.03-.5.07-.12.17-.21.28-.3.26-.22.55-.38.85-.53v-.13s.14.05.14.05l.35-.16s.58-.26.73-.54c.01-.03.02-.05.02-.08,0,0,0,0,0-.01,0,0,0,0,0,0,0,0,0,0,0,0,0,0,0,0,0,0h0s0,0,0,0c0-.02-.02-.03-.04-.05l-.04-.03s-.07-.02-.1,0c-.06.07-.18.17-.28,0-.08-.15.06-.2.19-.21.12-.02.25.02.33.11.03.03.06.07.07.1,0,0,0,0,0,0,0,0,0,.01,0,.02h0s0,0,0,0h0s0,0,0,.01h0s0,0,0,0c0,0,0,.01,0,.02.03.1.02.2-.03.3-.09.16-.21.31-.36.42-.2.16-.43.27-.66.39l-.05.11-.1-.07-.5.3s-.43.19-.69.65c-.01.03-.02.06,0,.08,0,0,0,0,0,0h0s0,0,0,0c.01.02.03.04.05.05l.12.05s.08,0,.1-.03c.06-.1.2-.28.37-.04,0,0,.11.22-.25.31ZM20.01,29.43c.4-.39.85-.21.85-.21l.16-.21c-.34-.33-.62-.89.34-1.71.96-.82,1.86-.87,1.86-.87.36-.03.56.1.66.22.08.1.12.22.11.35v.04c0,.08.06.14.13.14h.07s.09-.03.12-.07h0s.02-.03.02-.04c.17-.42.96-.52,1.39-.54.47-.02.94-.15,1.35-.38.43-.23.87-.61,1.1-1.2.5-1.29.11-2.44.07-2.55l-.19.08c.05.16.37,1.22-.08,2.39-.18.46-.52.83-1.01,1.1-.38.21-.82.33-1.27.35-.53.03-1.22.14-1.49.53l-.03.04v-.05c-.03-.12-.08-.23-.16-.32-.13-.15-.38-.33-.83-.29-.1,0-1.01.08-1.98.91-.64.54-.86,1.07-.66,1.57.03.08.08.16.13.23l.03.04h-.05c-.21-.02-.52.03-.81.3-.07.07-.14.14-.22.22h0c-.39.39-.91.93-1.64,1.21-.33.13-1.2.39-2.18.06-.51-.17-.97-.48-1.39-.91-.21-.22-.41-.48-.6-.76h.02c-.12.03-.27-.02-.34-.14,0,0,0,0,0,0,0,0,0,0,0,0,1.59,2.67,3.75,2.26,4.57,1.94.92-.36,1.53-1.09,1.93-1.48ZM14.11,28.83s-.02.03-.03.04l-.09.11s-.08.07-.12.09c.18.28.38.53.59.75.41.43.88.73,1.37.9.96.33,1.82.07,2.15-.06.72-.28,1.24-.81,1.63-1.2h0c.08-.08.15-.16.22-.23.28-.27.58-.33.8-.32-.04-.07-.08-.14-.11-.21-.21-.52.02-1.06.67-1.62.98-.84,1.9-.92,2.01-.93.47-.04.73.15.87.31.07.08.12.18.15.29.3-.37.98-.48,1.5-.51.44-.02.88-.14,1.25-.35.48-.27.82-.63.99-1.08.44-1.15.13-2.19.08-2.36l-5.68,2.53-.1-.25-2.19.95.16.4-.13.05-.16-.4-2.06.75.08.21c.03.07-.01.15-.08.17l-.27.07c-.19.05-.4.08-.6.08-.05,0-.11,0-.18,0-.43,0-1.07.05-1.55.24l-1.51.61s.07.08.11.09c.05.02.09.07.11.12l.14.54c.02.06,0,.12-.02.18ZM21.46,25.71c-.06.07-.18.17-.28,0-.08-.15.06-.2.19-.21.12-.02.25.02.33.11.03.03.06.07.07.1,0,0,0,0,0,0,0,0,0,.01,0,.02h0s0,0,0,0h0s0,0,0,.01h0s0,0,0,0c0,0,0,.01,0,.02.03.1.02.2-.03.3-.09.16-.21.31-.36.42-.2.16-.43.27-.66.39l-.05.11-.1-.07-.5.3s-.43.19-.69.65c-.01.03-.02.06,0,.08,0,0,0,0,0,0h0s0,0,0,0c.01.02.03.04.05.05l.12.05s.08,0,.1-.03c.06-.1.2-.28.37-.04,0,0,.11.22-.25.31-.13.03-.24,0-.33-.04-.09-.05-.17-.13-.21-.22,0,0,0,0,0,0h0s0,0,0,0c-.07-.16-.07-.34.03-.5.07-.12.17-.21.28-.3.26-.22.55-.38.85-.53v-.13s.14.05.14.05l.35-.16s.58-.26.73-.54c.01-.03.02-.05.02-.08,0,0,0,0,0-.01,0,0,0,0,0,0,0,0,0,0,0,0,0,0,0,0,0,0h0s0,0,0,0c0-.02-.02-.03-.04-.05l-.04-.03s-.07-.02-.1,0ZM19.62,29.47h0c.08-.08.15-.16.22-.23.28-.27.58-.33.8-.32-.04-.07-.08-.14-.11-.21-.21-.52.02-1.06.67-1.62.98-.84,1.9-.92,2.01-.93.47-.04.73.15.87.31.07.08.12.18.15.29.3-.37.98-.48,1.5-.51.44-.02.88-.14,1.25-.35.48-.27.82-.63.99-1.08.44-1.15.13-2.19.08-2.36l-5.68,2.53-.1-.25-2.19.95.16.4-.13.05-.16-.4-2.06.75.08.21c.03.07-.01.15-.08.17l-.27.07c-.19.05-.4.08-.6.08-.05,0-.11,0-.18,0-.43,0-1.07.05-1.55.24l-1.51.61s.07.08.11.09c.05.02.09.07.11.12l.14.54c.02.06,0,.12-.02.18,0,.02-.02.03-.03.04l-.09.11s-.08.07-.12.09c.18.28.38.53.59.75.41.43.88.73,1.37.9.96.33,1.82.07,2.15-.06.72-.28,1.24-.81,1.63-1.2ZM19.82,28.29c-.13.03-.24,0-.33-.04-.09-.05-.17-.13-.21-.22,0,0,0,0,0,0h0s0,0,0,0c-.07-.16-.07-.34.03-.5.07-.12.17-.21.28-.3.26-.22.55-.38.85-.53v-.13s.14.05.14.05l.35-.16s.58-.26.73-.54c.01-.03.02-.05.02-.08,0,0,0,0,0-.01,0,0,0,0,0,0,0,0,0,0,0,0,0,0,0,0,0,0h0s0,0,0,0c0-.02-.02-.03-.04-.05l-.04-.03s-.07-.02-.1,0c-.06.07-.18.17-.28,0-.08-.15.06-.2.19-.21.12-.02.25.02.33.11.03.03.06.07.07.1,0,0,0,0,0,0,0,0,0,.01,0,.02h0s0,0,0,0h0s0,0,0,.01h0s0,0,0,0c0,0,0,.01,0,.02.03.1.02.2-.03.3-.09.16-.21.31-.36.42-.2.16-.43.27-.66.39l-.05.11-.1-.07-.5.3s-.43.19-.69.65c-.01.03-.02.06,0,.08,0,0,0,0,0,0h0s0,0,0,0c.01.02.03.04.05.05l.12.05s.08,0,.1-.03c.06-.1.2-.28.37-.04,0,0,.11.22-.25.31ZM19.62,29.47h0c.08-.08.15-.16.22-.23.28-.27.58-.33.8-.32-.04-.07-.08-.14-.11-.21-.21-.52.02-1.06.67-1.62.98-.84,1.9-.92,2.01-.93.47-.04.73.15.87.31.07.08.12.18.15.29.3-.37.98-.48,1.5-.51.44-.02.88-.14,1.25-.35.48-.27.82-.63.99-1.08.44-1.15.13-2.19.08-2.36l-5.68,2.53-.1-.25-2.19.95.16.4-.13.05-.16-.4-2.06.75.08.21c.03.07-.01.15-.08.17l-.27.07c-.19.05-.4.08-.6.08-.05,0-.11,0-.18,0-.43,0-1.07.05-1.55.24l-1.51.61s.07.08.11.09c.05.02.09.07.11.12l.14.54c.02.06,0,.12-.02.18,0,.02-.02.03-.03.04l-.09.11s-.08.07-.12.09c.18.28.38.53.59.75.41.43.88.73,1.37.9.96.33,1.82.07,2.15-.06.72-.28,1.24-.81,1.63-1.2ZM19.82,28.29c-.13.03-.24,0-.33-.04-.09-.05-.17-.13-.21-.22,0,0,0,0,0,0h0s0,0,0,0c-.07-.16-.07-.34.03-.5.07-.12.17-.21.28-.3.26-.22.55-.38.85-.53v-.13s.14.05.14.05l.35-.16s.58-.26.73-.54c.01-.03.02-.05.02-.08,0,0,0,0,0-.01,0,0,0,0,0,0,0,0,0,0,0,0,0,0,0,0,0,0h0s0,0,0,0c0-.02-.02-.03-.04-.05l-.04-.03s-.07-.02-.1,0c-.06.07-.18.17-.28,0-.08-.15.06-.2.19-.21.12-.02.25.02.33.11.03.03.06.07.07.1,0,0,0,0,0,0,0,0,0,.01,0,.02h0s0,0,0,0h0s0,0,0,.01h0s0,0,0,0c0,0,0,.01,0,.02.03.1.02.2-.03.3-.09.16-.21.31-.36.42-.2.16-.43.27-.66.39l-.05.11-.1-.07-.5.3s-.43.19-.69.65c-.01.03-.02.06,0,.08,0,0,0,0,0,0h0s0,0,0,0c.01.02.03.04.05.05l.12.05s.08,0,.1-.03c.06-.1.2-.28.37-.04,0,0,.11.22-.25.31ZM19.62,29.47h0c.08-.08.15-.16.22-.23.28-.27.58-.33.8-.32-.04-.07-.08-.14-.11-.21-.21-.52.02-1.06.67-1.62.98-.84,1.9-.92,2.01-.93.47-.04.73.15.87.31.07.08.12.18.15.29.3-.37.98-.48,1.5-.51.44-.02.88-.14,1.25-.35.48-.27.82-.63.99-1.08.44-1.15.13-2.19.08-2.36l-5.68,2.53-.1-.25-2.19.95.16.4-.13.05-.16-.4-2.06.75.08.21c.03.07-.01.15-.08.17l-.27.07c-.19.05-.4.08-.6.08-.05,0-.11,0-.18,0-.43,0-1.07.05-1.55.24l-1.51.61s.07.08.11.09c.05.02.09.07.11.12l.14.54c.02.06,0,.12-.02.18,0,.02-.02.03-.03.04l-.09.11s-.08.07-.12.09c.18.28.38.53.59.75.41.43.88.73,1.37.9.96.33,1.82.07,2.15-.06.72-.28,1.24-.81,1.63-1.2ZM19.82,28.29c-.13.03-.24,0-.33-.04-.09-.05-.17-.13-.21-.22,0,0,0,0,0,0h0s0,0,0,0c-.07-.16-.07-.34.03-.5.07-.12.17-.21.28-.3.26-.22.55-.38.85-.53v-.13s.14.05.14.05l.35-.16s.58-.26.73-.54c.01-.03.02-.05.02-.08,0,0,0,0,0-.01,0,0,0,0,0,0,0,0,0,0,0,0,0,0,0,0,0,0h0s0,0,0,0c0-.02-.02-.03-.04-.05l-.04-.03s-.07-.02-.1,0c-.06.07-.18.17-.28,0-.08-.15.06-.2.19-.21.12-.02.25.02.33.11.03.03.06.07.07.1,0,0,0,0,0,0,0,0,0,.01,0,.02h0s0,0,0,0h0s0,0,0,.01h0s0,0,0,0c0,0,0,.01,0,.02.03.1.02.2-.03.3-.09.16-.21.31-.36.42-.2.16-.43.27-.66.39l-.05.11-.1-.07-.5.3s-.43.19-.69.65c-.01.03-.02.06,0,.08,0,0,0,0,0,0h0s0,0,0,0c.01.02.03.04.05.05l.12.05s.08,0,.1-.03c.06-.1.2-.28.37-.04,0,0,.11.22-.25.31ZM19.62,29.47h0c.08-.08.15-.16.22-.23.28-.27.58-.33.8-.32-.04-.07-.08-.14-.11-.21-.21-.52.02-1.06.67-1.62.98-.84,1.9-.92,2.01-.93.47-.04.73.15.87.31.07.08.12.18.15.29.3-.37.98-.48,1.5-.51.44-.02.88-.14,1.25-.35.48-.27.82-.63.99-1.08.44-1.15.13-2.19.08-2.36l-5.68,2.53-.1-.25-2.19.95.16.4-.13.05-.16-.4-2.06.75.08.21c.03.07-.01.15-.08.17l-.27.07c-.19.05-.4.08-.6.08-.05,0-.11,0-.18,0-.43,0-1.07.05-1.55.24l-1.51.61s.07.08.11.09c.05.02.09.07.11.12l.14.54c.02.06,0,.12-.02.18,0,.02-.02.03-.03.04l-.09.11s-.08.07-.12.09c.18.28.38.53.59.75.41.43.88.73,1.37.9.96.33,1.82.07,2.15-.06.72-.28,1.24-.81,1.63-1.2ZM19.82,28.29c-.13.03-.24,0-.33-.04-.09-.05-.17-.13-.21-.22,0,0,0,0,0,0h0s0,0,0,0c-.07-.16-.07-.34.03-.5.07-.12.17-.21.28-.3.26-.22.55-.38.85-.53v-.13s.14.05.14.05l.35-.16s.58-.26.73-.54c.01-.03.02-.05.02-.08,0,0,0,0,0-.01,0,0,0,0,0,0,0,0,0,0,0,0,0,0,0,0,0,0h0s0,0,0,0c0-.02-.02-.03-.04-.05l-.04-.03s-.07-.02-.1,0c-.06.07-.18.17-.28,0-.08-.15.06-.2.19-.21.12-.02.25.02.33.11.03.03.06.07.07.1,0,0,0,0,0,0,0,0,0,.01,0,.02h0s0,0,0,0h0s0,0,0,.01h0s0,0,0,0c0,0,0,.01,0,.02.03.1.02.2-.03.3-.09.16-.21.31-.36.42-.2.16-.43.27-.66.39l-.05.11-.1-.07-.5.3s-.43.19-.69.65c-.01.03-.02.06,0,.08,0,0,0,0,0,0h0s0,0,0,0c.01.02.03.04.05.05l.12.05s.08,0,.1-.03c.06-.1.2-.28.37-.04,0,0,.11.22-.25.31ZM19.62,29.47h0c.08-.08.15-.16.22-.23.28-.27.58-.33.8-.32-.04-.07-.08-.14-.11-.21-.21-.52.02-1.06.67-1.62.98-.84,1.9-.92,2.01-.93.47-.04.73.15.87.31.07.08.12.18.15.29.3-.37.98-.48,1.5-.51.44-.02.88-.14,1.25-.35.48-.27.82-.63.99-1.08.44-1.15.13-2.19.08-2.36l-5.68,2.53-.1-.25-2.19.95.16.4-.13.05-.16-.4-2.06.75.08.21c.03.07-.01.15-.08.17l-.27.07c-.19.05-.4.08-.6.08-.05,0-.11,0-.18,0-.43,0-1.07.05-1.55.24l-1.51.61s.07.08.11.09c.05.02.09.07.11.12l.14.54c.02.06,0,.12-.02.18,0,.02-.02.03-.03.04l-.09.11s-.08.07-.12.09c.18.28.38.53.59.75.41.43.88.73,1.37.9.96.33,1.82.07,2.15-.06.72-.28,1.24-.81,1.63-1.2ZM19.82,28.29c-.13.03-.24,0-.33-.04-.09-.05-.17-.13-.21-.22,0,0,0,0,0,0h0s0,0,0,0c-.07-.16-.07-.34.03-.5.07-.12.17-.21.28-.3.26-.22.55-.38.85-.53v-.13s.14.05.14.05l.35-.16s.58-.26.73-.54c.01-.03.02-.05.02-.08,0,0,0,0,0-.01,0,0,0,0,0,0,0,0,0,0,0,0,0,0,0,0,0,0h0s0,0,0,0c0-.02-.02-.03-.04-.05l-.04-.03s-.07-.02-.1,0c-.06.07-.18.17-.28,0-.08-.15.06-.2.19-.21.12-.02.25.02.33.11.03.03.06.07.07.1,0,0,0,0,0,0,0,0,0,.01,0,.02h0s0,0,0,0h0s0,0,0,.01h0s0,0,0,0c0,0,0,.01,0,.02.03.1.02.2-.03.3-.09.16-.21.31-.36.42-.2.16-.43.27-.66.39l-.05.11-.1-.07-.5.3s-.43.19-.69.65c-.01.03-.02.06,0,.08,0,0,0,0,0,0h0s0,0,0,0c.01.02.03.04.05.05l.12.05s.08,0,.1-.03c.06-.1.2-.28.37-.04,0,0,.11.22-.25.31ZM19.62,29.47h0c.08-.08.15-.16.22-.23.28-.27.58-.33.8-.32-.04-.07-.08-.14-.11-.21-.21-.52.02-1.06.67-1.62.98-.84,1.9-.92,2.01-.93.47-.04.73.15.87.31.07.08.12.18.15.29.3-.37.98-.48,1.5-.51.44-.02.88-.14,1.25-.35.48-.27.82-.63.99-1.08.44-1.15.13-2.19.08-2.36l-5.68,2.53-.1-.25-2.19.95.16.4-.13.05-.16-.4-2.06.75.08.21c.03.07-.01.15-.08.17l-.27.07c-.19.05-.4.08-.6.08-.05,0-.11,0-.18,0-.43,0-1.07.05-1.55.24l-1.51.61s.07.08.11.09c.05.02.09.07.11.12l.14.54c.02.06,0,.12-.02.18,0,.02-.02.03-.03.04l-.09.11s-.08.07-.12.09c.18.28.38.53.59.75.41.43.88.73,1.37.9.96.33,1.82.07,2.15-.06.72-.28,1.24-.81,1.63-1.2ZM19.82,28.29c-.13.03-.24,0-.33-.04-.09-.05-.17-.13-.21-.22,0,0,0,0,0,0h0s0,0,0,0c-.07-.16-.07-.34.03-.5.07-.12.17-.21.28-.3.26-.22.55-.38.85-.53v-.13s.14.05.14.05l.35-.16s.58-.26.73-.54c.01-.03.02-.05.02-.08,0,0,0,0,0-.01,0,0,0,0,0,0,0,0,0,0,0,0,0,0,0,0,0,0h0s0,0,0,0c0-.02-.02-.03-.04-.05l-.04-.03s-.07-.02-.1,0c-.06.07-.18.17-.28,0-.08-.15.06-.2.19-.21.12-.02.25.02.33.11.03.03.06.07.07.1,0,0,0,0,0,0,0,0,0,.01,0,.02h0s0,0,0,0h0s0,0,0,.01h0s0,0,0,0c0,0,0,.01,0,.02.03.1.02.2-.03.3-.09.16-.21.31-.36.42-.2.16-.43.27-.66.39l-.05.11-.1-.07-.5.3s-.43.19-.69.65c-.01.03-.02.06,0,.08,0,0,0,0,0,0h0s0,0,0,0c.01.02.03.04.05.05l.12.05s.08,0,.1-.03c.06-.1.2-.28.37-.04,0,0,.11.22-.25.31ZM19.62,29.47h0c.08-.08.15-.16.22-.23.28-.27.58-.33.8-.32-.04-.07-.08-.14-.11-.21-.21-.52.02-1.06.67-1.62.98-.84,1.9-.92,2.01-.93.47-.04.73.15.87.31.07.08.12.18.15.29.3-.37.98-.48,1.5-.51.44-.02.88-.14,1.25-.35.48-.27.82-.63.99-1.08.44-1.15.13-2.19.08-2.36l-5.68,2.53-.1-.25-2.19.95.16.4-.13.05-.16-.4-2.06.75.08.21c.03.07-.01.15-.08.17l-.27.07c-.19.05-.4.08-.6.08-.05,0-.11,0-.18,0-.43,0-1.07.05-1.55.24l-1.51.61s.07.08.11.09c.05.02.09.07.11.12l.14.54c.02.06,0,.12-.02.18,0,.02-.02.03-.03.04l-.09.11s-.08.07-.12.09c.18.28.38.53.59.75.41.43.88.73,1.37.9.96.33,1.82.07,2.15-.06.72-.28,1.24-.81,1.63-1.2ZM19.82,28.29c-.13.03-.24,0-.33-.04-.09-.05-.17-.13-.21-.22,0,0,0,0,0,0h0s0,0,0,0c-.07-.16-.07-.34.03-.5.07-.12.17-.21.28-.3.26-.22.55-.38.85-.53v-.13s.14.05.14.05l.35-.16s.58-.26.73-.54c.01-.03.02-.05.02-.08,0,0,0,0,0-.01,0,0,0,0,0,0,0,0,0,0,0,0,0,0,0,0,0,0h0s0,0,0,0c0-.02-.02-.03-.04-.05l-.04-.03s-.07-.02-.1,0c-.06.07-.18.17-.28,0-.08-.15.06-.2.19-.21.12-.02.25.02.33.11.03.03.06.07.07.1,0,0,0,0,0,0,0,0,0,.01,0,.02h0s0,0,0,0h0s0,0,0,.01h0s0,0,0,0c0,0,0,.01,0,.02.03.1.02.2-.03.3-.09.16-.21.31-.36.42-.2.16-.43.27-.66.39l-.05.11-.1-.07-.5.3s-.43.19-.69.65c-.01.03-.02.06,0,.08,0,0,0,0,0,0h0s0,0,0,0c.01.02.03.04.05.05l.12.05s.08,0,.1-.03c.06-.1.2-.28.37-.04,0,0,.11.22-.25.31Z"/>
    <path class="cls-1" d="M13.48,23.01s0,0,0,0l-.02-.02s.01,0,.02.01Z"/>
    <path class="cls-1" d="M27.49,21.15s0,0,0-.01l.04-.02s0,0,0,0l-.04.02Z"/>
    <path class="cls-1" d="M28.08,22.47l-.04.02s0-.02,0-.02l.04-.02s0,0,0,.02Z"/>
    <path class="cls-1" d="M13.88,29.08s-.01,0-.02,0h.02s0,0,0,0Z"/>
    <polygon points="33.5 19.15 33.26 19.23 33.18 19.05 33.42 18.97 33.5 19.15"/>
    <polygon points="33.58 19.36 33.35 19.45 33.28 19.28 33.51 19.19 33.58 19.36"/>
    <polygon points="33.6 19.4 33.66 19.56 33.43 19.66 33.36 19.5 33.6 19.4"/>
    <polygon points="33.74 19.74 33.51 19.84 33.45 19.7 33.68 19.6 33.74 19.74 33.74 19.74"/>
    <polygon points="33.58 20.02 33.52 19.88 33.75 19.78 33.81 19.92 33.58 20.02"/>
    <polygon points="33.26 19.23 21.71 23.43 21.65 23.27 27.49 21.13 27.53 21.12 27.72 21.05 33.18 19.05 33.26 19.23"/>
    <polygon points="33.35 19.45 21.88 23.85 21.73 23.47 33.28 19.28 33.35 19.45"/>
    <polygon points="33.43 19.66 22.07 24.31 21.9 23.89 33.36 19.5 33.43 19.66 33.43 19.66"/>
    <polygon points="33.51 19.84 22.23 24.72 22.08 24.35 33.45 19.7 33.45 19.7 33.51 19.84"/>
    <polygon points="22.35 25.02 22.25 24.76 33.52 19.88 33.58 20.02 28.26 22.39 28.08 22.47 28.04 22.49 22.35 25.02"/>
    <path d="M13.88,29.08s-.01,0-.02,0c-.12.04-.27,0-.34-.13,0,0,0,0,0,0-.2-.33-.38-.71-.56-1.14-.3-.75-.47-1.4-.53-1.98h0s0,.03.01.05c0,0,0,0,0,.01h0s0,0,0,0c0,.01,0,.03.01.04,0,.02.01.03.02.05,0,0,0,0,0,0,0,.01,0,.03.01.04h0s.01.03.02.05c.09.25.2.48.31.68,0,.02.02.03.03.05,0,0,0,.02.01.02,0,.02.02.03.03.05.01.02.03.05.04.07,0,.01.02.03.03.04.07.11.14.2.2.29,0,.01.02.02.03.03.01.02.02.03.04.05.01.01.02.03.03.04.02.03.04.05.06.07,0,0,.01.02.02.02.01.01.02.02.03.03,0,0,.01.01.02.02,0,.01.02.02.03.03.06.07.12.15.17.24.02.03.03.07.05.1l.02.05h0s.34.76.34.76l.14.11s-.02.03-.03.04l-.09.11s-.08.07-.12.09Z"/>
    <path class="cls-1" d="M13.48,23.01l-.02-.02s.01,0,.02.01c0,0,0,0,0,0Z"/>
    <path class="cls-1" d="M13.43,27.38c-.24-.27-.71-.68-.95-1.35h0s0,0,0,0c0,0,0-.02,0-.03,0,0,0,0,0,0,0-.02-.01-.03-.02-.05,0,0,0-.02,0-.03,0,0,0,0,0,0,0,0,0,0,0,0h0s0,0,0-.01c0-.02,0-.03-.01-.05h0c-.07-.69,0-1.26.15-1.74,0-.02.01-.03.02-.05,0,0,0,0,0,0,.14-.41.34-.75.57-1.02.14.09.57.33.84.61.19.2.35.4.47.62.03.05.05.1.08.15.15.31.22.64.21.99h0s0,0,0,0c0,0,0,.18-.11.44-.11.24-.34.6-.84.95h0s0,0,0,0c-.02.01-.34.26-.37.6Z"/>
    <path class="cls-1" d="M13.4,27.58s-.02-.02-.03-.03c0,0-.01-.01-.02-.02,0,0,.01.01.02.02,0,.01.02.02.03.03Z"/>
    <path d="M13.43,27.38c-.24-.27-.71-.68-.95-1.35h0s0,0,0,0c-.01-.04-.03-.08-.04-.12,0,0,0,0,0,0,0,0,0,0,0,0h0s0,0,0-.01c0-.02,0-.03-.01-.05h0c-.07-.69,0-1.26.15-1.74,0-.02.01-.03.02-.05,0,0,0,0,0,0,.13-.38.31-.72.57-1.02.14.09.57.33.84.61.19.2.35.4.47.62.03.05.05.1.08.15.15.31.22.64.21.99h0s0,0,0,0c0,0,0,.18-.11.44-.11.24-.34.6-.84.95h0s0,0,0,0c-.02.01-.34.26-.37.6Z"/>
    <path class="cls-1" d="M16.41,25.87c-.07.03-.14,0-.17-.07-.02-.05,0-.11.03-.14.01-.01.03-.02.04-.03.07-.03.14,0,.17.07.03.07,0,.14-.07.17Z"/>
    <path class="cls-1" d="M17.29,25.52l-.47.19c-.07.03-.14,0-.17-.07-.03-.07,0-.14.07-.17l.47-.19s.05,0,.06.02v.04s-.09.06-.09.06l-.14.07s-.01.02-.01.03h0s.02.02.03.01l.14-.07.11-.06.03.08s0,.05-.02.06Z"/>
    <path class="cls-1" d="M17.44,25.89l-.47.19c-.07.03-.14,0-.17-.07-.03-.07,0-.14.07-.17l.47-.19s.05,0,.06.02l.02.05-.11.05-.14.07s-.02.02-.01.03h0s.02.02.03.01l.14-.06.11-.05.03.07s0,.05-.02.06Z"/>
    <path class="cls-1" d="M16.56,26.24c-.07.03-.14,0-.17-.07-.03-.07,0-.14.07-.17.07-.03.14,0,.17.07s0,.14-.07.17Z"/>
    <path class="cls-1" d="M17.6,26.29l-.47.19c-.07.03-.14,0-.17-.07-.03-.07,0-.14.07-.17l.47-.19s.05,0,.06.02l.02.06-.11.05-.14.06s-.02.02-.01.03h0s.02.02.03.01l.14-.06.11-.05.02.06s0,.05-.02.06Z"/>
    <path class="cls-1" d="M16.72,26.64c-.07.03-.14,0-.17-.07-.03-.07,0-.14.07-.17.07-.03.14,0,.17.07.03.07,0,.14-.07.17Z"/>
    <path class="cls-1" d="M16.88,27.03s-.03,0-.04,0c-.05,0-.1-.03-.13-.08-.03-.07,0-.14.07-.17.07-.03.14,0,.17.07.03.07,0,.14-.07.17Z"/>
    <path class="cls-1" d="M17.76,26.67l-.47.19c-.07.03-.14,0-.17-.07-.03-.07,0-.14.07-.17l.47-.19s.05,0,.06.02l.03.07-.11.04-.15.05s-.02.02-.01.03h0s.02.02.03.01l.15-.05.11-.04.02.05s0,.05-.02.06Z"/>
    <polygon class="cls-1" points="13.65 27.18 13.65 27.18 13.65 27.17 13.65 27.18"/>
    <polygon class="cls-1" points="13.62 27.23 13.63 27.22 13.63 27.22 13.63 27.22 13.62 27.23"/>
    <polygon points="33.75 19.78 33.75 19.78 33.76 19.78 34.43 19.44 34.43 19.44 34.47 19.42 34.75 19.29 35.06 19.15 35.07 19.14 35.35 19.02 35.52 18.94 35.8 18.81 35.94 18.75 35.77 18.32 35.62 18.37 35.33 18.47 35.15 18.54 34.86 18.64 34.53 18.76 34.24 18.86 33.99 18.95 33.81 19.02 33.81 19.02 33.7 19.06 33.7 19.06 33.7 19.06 33.49 19.13 33.42 18.97 33.63 18.89 33.93 18.79 34.18 18.7 34.47 18.59 34.79 18.48 35.09 18.38 35.28 18.31 35.57 18.2 35.87 18.1 36.17 18.84 35.88 18.97 35.88 18.97 35.87 18.97 35.6 19.1 35.59 19.1 35.59 19.1 34.82 19.45 34.82 19.45 34.81 19.45 34.54 19.58 34.53 19.58 33.81 19.92 33.75 19.78"/>
    <path d="M36.17,18.84l-.15-.37,1.52-.62s0,.01,0,.02l.05.08s.01.1-.04.13c-.11.06-.23.11-.34.17-.25.13-.5.26-.74.41-.11.06-.21.12-.32.18Z"/>
    <path d="M37.54,17.85l-1.52.62-.15-.37c.12-.03.24-.05.36-.08.27-.07.55-.14.82-.23.12-.04.24-.08.36-.12.05-.01.11.02.12.07l.02.1s0,.01,0,.02Z"/>
    <g>
      <path d="M37.04,17.79c-.27.08-.54.16-.82.23-.07-.16-.08-.27-.07-.33,0,0,0,0,0,0,0,0,0,0,0-.01.01-.02.04-.03.06-.01.07.07.31.05.5.02.07,0,.13-.02.17-.03.05,0,.1.01.12.05l.02.06v.02Z"/>
      <path d="M36.67,18.94s-.01,0-.01,0c0,0,0,0,0,0-.04-.03-.11-.12-.18-.28.25-.14.49-.28.74-.41h0s.02.07.02.07c.02.04,0,.09-.05.12-.04.03-.09.06-.14.1-.16.12-.34.27-.35.37,0,.02-.03.04-.05.03Z"/>
    </g>
    <g>
      <path d="M36.72,17.69c-.19.03-.43.04-.5-.02-.02-.01-.05,0-.06.01.02-.03.07-.12.22-.18l.1-.04c.07-.03.15,0,.17.05l.07.18h0Z"/>
      <path d="M37.05,18.87l-.1.04c-.15.06-.25.04-.28.02.02,0,.05-.01.05-.03,0-.1.19-.25.35-.37h0s.07.18.07.18c.02.06-.02.13-.09.16Z"/>
    </g>
    <g>
      <polygon points="33.93 18.79 33.63 18.89 33.34 18.16 33.62 18.04 33.93 18.79"/>
      <polygon points="35.09 18.38 34.79 18.48 34.48 17.69 34.76 17.58 35.09 18.38"/>
      <polygon points="36.25 19.91 35.96 20.03 35.59 19.1 35.59 19.1 35.6 19.1 35.87 18.97 36.25 19.91"/>
      <polygon points="35.2 20.41 34.91 20.52 34.53 19.58 34.54 19.58 34.81 19.45 35.2 20.41"/>
    </g>
    <g>
      <polygon points="34.02 19.01 33.71 19.07 33.71 19.07 33.71 19.07 33.7 19.06 33.7 19.06 33.81 19.02 33.81 19.02 33.99 18.95 34.02 19.01"/>
      <polygon points="34.07 19.14 33.79 19.27 33.72 19.11 34.03 19.06 34.03 19.06 34.03 19.06 34.07 19.14"/>
      <polygon points="34.16 19.37 33.87 19.48 33.81 19.31 34.09 19.19 34.16 19.37"/>
      <polygon points="33.94 19.64 33.89 19.52 34.18 19.41 34.21 19.5 33.94 19.64"/>
      <polygon points="35.19 18.64 34.91 18.77 34.86 18.64 35.15 18.54 35.19 18.64 35.19 18.64"/>
      <polygon points="35.31 18.92 35.02 19.03 34.93 18.81 35.21 18.68 35.31 18.92"/>
      <polygon points="35.06 19.15 35.03 19.07 35.32 18.96 35.35 19.02 35.07 19.14 35.06 19.15"/>
      <polygon points="35.77 18.73 35.49 18.85 35.33 18.47 35.62 18.37 35.77 18.73"/>
      <polygon points="35.52 18.94 35.5 18.89 35.79 18.78 35.79 18.78 35.8 18.81 35.52 18.94"/>
      <polygon points="34.59 18.91 34.31 19.04 34.24 18.86 34.53 18.76 34.59 18.91"/>
      <polygon points="34.61 18.95 34.69 19.16 34.41 19.27 34.33 19.08 34.61 18.95"/>
      <polygon points="34.72 19.23 34.45 19.37 34.42 19.31 34.71 19.2 34.72 19.23 34.72 19.23"/>
      <polygon points="34.47 19.42 34.47 19.42 34.74 19.27 34.75 19.29 34.47 19.42"/>
    </g>
    <g>
      <path d="M33.37,17.24h.06c.16,0,.29.13.29.29v.43c0,.16-.13.29-.29.29h-.06c-.23,0-.41-.18-.41-.41v-.18c0-.23.18-.41.41-.41Z" transform="translate(37.27 -19.82) rotate(67.95)"/>
      <path d="M34.51,16.78h.06c.16,0,.29.13.29.29v.43c0,.16-.13.29-.29.29h-.06c-.23,0-.41-.18-.41-.41v-.18c0-.23.18-.41.41-.41Z" transform="translate(37.55 -21.16) rotate(67.95)"/>
      <path d="M36.47,20.64l-.17.07c-.21.09-.45-.02-.54-.23l-.02-.06c-.06-.15.01-.31.16-.37l.4-.16c.15-.06.31.01.37.16l.02.06c.09.21-.02.45-.23.54Z"/>
      <path d="M35.43,21.14l-.17.07c-.21.09-.45-.02-.54-.23l-.02-.06c-.06-.15.01-.31.16-.37l.4-.16c.15-.06.31.01.37.16l.02.06c.09.21-.02.45-.23.54Z"/>
    </g>
    <g>
      <path d="M17.44,25.89l-.47.19c-.07.03-.14,0-.17-.07-.03-.07,0-.14.07-.17l.47-.19s.05,0,.06.02l.02.05-.11.05-.14.07s-.02.02-.01.03h0s.02.02.03.01l.14-.06.11-.05.03.07s0,.05-.02.06Z"/>
      <path d="M17.6,26.29l-.47.19c-.07.03-.14,0-.17-.07-.03-.07,0-.14.07-.17l.47-.19s.05,0,.06.02l.02.06-.11.05-.14.06s-.02.02-.01.03h0s.02.02.03.01l.14-.06.11-.05.02.06s0,.05-.02.06Z"/>
      <path d="M17.76,26.67l-.47.19c-.07.03-.14,0-.17-.07-.03-.07,0-.14.07-.17l.47-.19s.05,0,.06.02l.03.07-.11.04-.15.05s-.02.02-.01.03h0s.02.02.03.01l.15-.05.11-.04.02.05s0,.05-.02.06Z"/>
      <path d="M17.29,25.52l-.47.19c-.07.03-.14,0-.17-.07-.03-.07,0-.14.07-.17l.47-.19s.05,0,.06.02v.04s-.09.06-.09.06l-.14.07s-.01.02-.01.03h0s.02.02.03.01l.14-.07.11-.06.03.08s0,.05-.02.06Z"/>
    </g>
    <g>
      <path d="M17.37,25.92l-.29.12-.1-.24.29-.12.04.09-.14.07s-.02.02-.01.03h0s.02.02.03.01l.14-.06.04.11Z"/>
      <path d="M17.53,26.32l-.29.12-.1-.24.29-.12.04.1-.14.06s-.02.02-.01.03h0s.02.02.03.01l.14-.06.04.1Z"/>
      <path d="M17.68,26.7l-.29.12-.1-.24.29-.12.04.1-.15.05s-.02.02-.01.03h0s.02.02.03.01l.15-.05.04.1Z"/>
      <path d="M17.22,25.55l-.29.12-.1-.24.29-.12.04.09-.14.07s-.01.02-.01.03h0s.02.02.03.01l.14-.07.05.11Z"/>
    </g>
    <g>
      <path d="M16.41,25.87c-.07.03-.14,0-.17-.07-.02-.05,0-.11.03-.14.01-.01.03-.02.04-.03.07-.03.14,0,.17.07.03.07,0,.14-.07.17Z"/>
      <path d="M16.56,26.24c-.07.03-.14,0-.17-.07-.03-.07,0-.14.07-.17.07-.03.14,0,.17.07s0,.14-.07.17Z"/>
      <path d="M16.72,26.64c-.07.03-.14,0-.17-.07-.03-.07,0-.14.07-.17.07-.03.14,0,.17.07.03.07,0,.14-.07.17Z"/>
      <path d="M16.88,27.03s-.03,0-.04,0c-.05,0-.1-.03-.13-.08-.03-.07,0-.14.07-.17.07-.03.14,0,.17.07.03.07,0,.14-.07.17Z"/>
    </g>
  </g>
</svg>