<?xml version="1.0" encoding="UTF-8"?>
<svg id="_レイヤー_1" data-name="レイヤー 1" xmlns="http://www.w3.org/2000/svg" viewBox="0 0 50 50">
  <g>
    <path d="M2.17,36.31h.95v2.8c1.63.6,2.97,1.21,4.04,1.84l-.46,1.05c-1.02-.62-2.22-1.21-3.58-1.77v4.96h-.95v-8.88Z"/>
    <path d="M9.24,37.13h6.41v7.54h-6.41v-7.54ZM10.2,38.17v5.46h4.51v-5.46h-4.51Z"/>
    <path d="M20.37,38.96c-.86-.46-1.75-.83-2.68-1.1l.29-1.05c1.08.29,1.98.66,2.71,1.09l-.31,1.06ZM17.79,43.82c1.35-.14,2.38-.42,3.1-.86.84-.52,1.49-1.32,1.94-2.4.29-.7.53-1.61.71-2.73l.79.69c-.22,1.2-.49,2.16-.8,2.87-.57,1.29-1.43,2.23-2.6,2.81-.74.36-1.72.62-2.95.78l-.19-1.15Z"/>
    <path d="M25.43,43.81c.6-.94,1.01-2.17,1.21-3.69l.89.29c-.25,1.76-.68,3.14-1.29,4.15l-.81-.75ZM28.69,36.3h.92v1.8h3.08v.98h-3.08v6.13h-.92v-6.13h-3.02v-.98h3.02v-1.8ZM32.1,44.43c-.61-1.1-1.12-2.47-1.52-4.11l.88-.35c.33,1.36.82,2.63,1.47,3.81l-.83.65ZM31.54,37.81c-.15-.51-.4-1.07-.76-1.68l.66-.23c.31.53.56,1.08.76,1.67l-.66.24ZM32.71,37.68c-.2-.63-.45-1.19-.75-1.69l.62-.2c.29.43.54.97.76,1.61l-.63.28Z"/>
    <path d="M33.95,40.06h7.2v1.1h-7.2v-1.1Z"/>
    <path d="M45.47,38.96c-.86-.46-1.75-.83-2.68-1.1l.29-1.05c1.08.29,1.98.66,2.71,1.09l-.31,1.06ZM42.89,43.82c1.35-.14,2.38-.42,3.1-.86.84-.52,1.49-1.32,1.94-2.4.29-.7.53-1.61.71-2.73l.79.69c-.22,1.2-.49,2.16-.8,2.87-.57,1.29-1.43,2.23-2.6,2.81-.74.36-1.72.62-2.95.78l-.19-1.15Z"/>
  </g>
  <g>
    <path d="M7.9,8.53s.03.02.08.04c-.08.15-.15.29-.21.44-.06.14-.11.29-.16.44-.03,0-.05,0-.08-.01-.05-.02-.11-.04-.16-.07-.34-.16-.68-.33-1.02-.5-.07-.04-.15-.09-.24-.04-.01,0-.04,0-.06,0-.03,0-.05-.02-.08-.03-.15-.06-.3-.12-.45-.19-.09-.04-.18-.09-.28-.13.01-.22.15-.59.31-.82.03,0,.06,0,.09,0,.2.07.4.13.6.2.29.11.58.24.87.36.26.11.53.21.79.31Z"/>
    <path d="M18.28,19.46c-.07-.02-.13-.04-.2-.06h0s0,0,0,0h0c.09-.1.11-.23.16-.35.07-.2.17-.39.3-.55.09,0,.15.04.23.07,0,0,0,0,0,0-.02.07-.03.13-.05.18.1.1.23.13.35.18.59.25,1.19.5,1.78.74.03.01.07.04.11.06-.04.09-.08.16-.12.24,0,0,0,0,0,.01-.03.07-.06.15-.1.23-.04,0-.08-.01-.12-.03-.24-.1-.49-.2-.73-.3-.07-.03-.14-.06-.22-.04-.12.17-.56,1.1-.75,1.57-.02.05-.04.09-.05.12.1.09.23.12.36.16.19.05.36.14.53.23.01,0,.02.02.03.03,0,.02,0,.04-.01.05-.03.07-.06.13-.09.2-.04.09-.08.18-.12.27-.05-.02-.09-.03-.13-.04-.64-.27-1.28-.53-1.93-.8-.18-.07-.17-.07-.36-.03,0-.02-.01-.05,0-.07.05-.2.13-.39.23-.58.05.02.1.03.15.05.28.11.56.23.84.35.07.03.14.05.22.08.29-.61.61-1.2.87-1.81-.02.03-.04.06-.07.1-.12,0-.21-.08-.33-.09-.11-.08-.46-.15-.56-.24.04-.14.07-.27.1-.4,0,0-.01,0-.02,0-.05.16-.11.31-.16.47-.05-.01-.1-.02-.14-.03ZM19.77,19.7v-.02s-.01.01-.01.01h.01ZM19.69,19.57s0,0,0,0l-.07-.03s0,0,0,.01c.02,0,.05.02.07.02Z"/>
    <polygon points="18.08 19.41 18.08 19.41 18.08 19.41 18.08 19.41"/>
    <path d="M12.51,10.21c.44.17.88.34,1.32.5.07.03.14.06.21.09.49.19.98.38,1.48.56.95.35,1.9.72,2.84,1.1.45.18.9.33,1.36.5.25.09.5.17.75.27.65.25,1.3.5,1.95.74.27.1.54.2.81.31.06.02.12.04.19.03.05,0,.1.01.15.03.44.17.88.33,1.31.51.4.17.82.28,1.23.39.24.07.49.11.74.13.25.02.49.02.73-.02.77-.12,1.51-.36,2.21-.72.36-.19.68-.43.94-.75.12-.15.23-.29.35-.43.05-.06.11-.11.17-.15.12-.08.26,0,.25.15,0,.16-.02.32-.09.47-.08.18-.16.36-.24.55-.04.11-.07.22-.1.33-.02.07-.04.14-.07.2-.37.82-.68,1.67-1.02,2.5-.36.89-.75,1.77-1.13,2.64-.3.69-.6,1.38-.9,2.07-.03.07-.06.14-.08.21.05.08.12.11.19.14.13.06.26.11.39.17,2.01.84,4.03,1.67,6.04,2.51.45.19.9.38,1.35.56,1.25.52,2.51,1.04,3.76,1.56,1.22.51,2.43,1.02,3.65,1.53.31.13.63.26.95.39.53.22,1.06.44,1.58.66.3.12.59.25.89.37.31.12.58.31.83.52.37.32.69.69.99,1.08.11.14.16.31.22.47,0,.01,0,.03,0,.04,0,.07,0,.14,0,.21h-.08c0-.09,0-.16,0-.23,0-.02-.02-.05-.03-.07-.08-.16-.16-.31-.27-.44-.21-.27-.45-.51-.68-.76-.21-.22-.45-.4-.71-.56-.03-.02-.07-.04-.1-.05-.23-.09-.46-.17-.68-.27-.53-.22-1.06-.44-1.58-.66-.49-.21-.98-.42-1.48-.62-.32-.13-.64-.26-.96-.39-1.38-.57-2.76-1.14-4.14-1.71-.72-.3-1.43-.61-2.15-.91-.4-.17-.81-.34-1.21-.5-2.1-.87-4.21-1.75-6.31-2.62-.19-.08-.39-.16-.58-.24-.03.02-.05.03-.07.05l-.07-.03s.01,0,.02-.01c.03-.03.06-.06.09-.1.1-.12.15-.27.21-.41.55-1.28,1.1-2.57,1.64-3.85.06-.13.1-.26.15-.4.04-.12.08-.24.13-.36.22-.55.44-1.1.65-1.65.1-.26.2-.53.3-.79.12-.3.23-.6.36-.89.07-.17.13-.34.18-.51.02-.07.04-.15.06-.23-.05,0-.09-.02-.12,0-.09.05-.17.11-.24.19-.1.13-.22.25-.32.38-.23.28-.51.51-.83.68-.78.43-1.61.69-2.48.8-.37.05-.74.03-1.11-.06-.21-.05-.41-.11-.62-.16-.28-.08-.56-.15-.82-.27-.08-.03-.15-.06-.23-.09-.45-.16-.9-.31-1.35-.47-.57-.21-1.15-.43-1.72-.64-.54-.2-1.07-.41-1.6-.61-.05-.02-.1-.03-.15-.05-.24-.08-.49-.15-.73-.24-.99-.38-1.98-.77-2.97-1.15-.59-.23-1.17-.46-1.76-.68-.2-.08-.41-.14-.61-.22-.42-.17-.83-.34-1.25-.5-.42-.16-.85-.31-1.27-.46-.1-.04-.2-.06-.27-.13-.02-.02-.05-.03-.08-.04l.02-.05c.16.06.32.11.47.17.38.15.75.31,1.13.46Z"/>
    <path d="M3.91,12.95c-.02.09-.05.17-.08.27-.14-.04-.26-.11-.37-.18-.36-.21-.7-.46-1.04-.69-.47-.33-.75-.79-.87-1.34-.08-.36-.08-.73-.1-1.09,0-.12,0-.23,0-.35-.02-.32.06-.62.18-.92.08-.19.17-.36.28-.53.29-.43.7-.67,1.19-.78.34-.07.68-.09,1.02-.06.46.03.9.15,1.33.37-.06.13-.11.26-.16.38-.05.13-.08.26-.12.38-.07.03-.12,0-.17-.02-.27-.09-.55-.16-.85-.18-.27-.02-.54,0-.8.07-.18.04-.34.11-.5.21-.18.11-.32.26-.41.45-.05.1-.1.2-.14.3-.12.3-.2.62-.23.95-.04.41.06.79.23,1.16.02.05.05.1.08.15.15.31.37.53.68.69.28.14.56.29.84.44.03.02.06.04.1.06,0,.05-.01.09-.03.14-.02.05-.04.1-.05.14Z"/>
    <path d="M15.31,18.05c-.03-.05-.08-.06-.12-.08-.13-.05-.26-.11-.4-.16.03-.19.08-.37.17-.54.05,0,.11,0,.15.02.37.15.75.3,1.12.46.02,0,.04.03.07.05,0,.04-.01.07-.03.11-.03.09-.07.18-.1.27-.01.03,0,.07-.01.11h0s0,0,0,0c-.01.02-.02.04-.04.06-.02,0-.03,0-.04,0-.11-.04-.23-.09-.34-.14-.03-.01-.07-.02-.08.02l-.05-.03s.04-.09.06-.13c.04-.1,0-.17-.1-.21-.03-.01-.06,0-.09.03l-.09.03c-.08.05-.06.11-.08.15h0Z"/>
    <path d="M14.37,17.66s-.02.1.03.12c.09.05.17.11.27.11.06-.05.08-.11.09-.18.03-.19.1-.36.18-.53.01-.03.02-.06.03-.09-.1-.07-.21-.07-.33-.11-.08.1-.12.2-.15.3-.04.12-.08.24-.11.37ZM12.87,16.99c.48.2.95.39,1.42.59,0,0,.01,0,.02,0,0,0,.01,0,.01,0,.05-.14.1-.27.15-.4.01-.03.02-.07.03-.11-.39-.16-.78-.31-1.19-.5.38-1.29.78-2.56,1.16-3.83-.07-.06-.14-.08-.22-.11-.02.04-.03.06-.04.09-.11.46-.26.91-.41,1.37-.11.36-.22.71-.34,1.07-.12.34-.19.69-.35,1.02-.03.05-.03.11-.05.16-.01.03,0,.08-.06.1-.05-.02-.1-.04-.15-.06-.06-.02-.11-.07-.19-.06-.07.07-.1.16-.13.25-.04.09-.09.17-.08.27.02.01.04.03.05.03.12.05.24.09.36.14ZM10.53,16.03s.06.04.09.05c.55.22,1.09.45,1.64.67.03.01.07.01.11.02.04-.09.07-.17.11-.26.03-.09.1-.16.11-.28-.6-.28-1.22-.5-1.83-.75-.12.17-.18.35-.22.54ZM7.92,14.19c.78.32,1.56.63,2.33.97.15.07.31.12.46.19.23.09.45.19.68.28.45.19.9.37,1.36.56.07.03.14.05.23.06.02-.04.04-.07.05-.11.08-.24.17-.49.25-.73.17-.54.35-1.08.52-1.62.1-.32.19-.64.29-.96.03-.09.05-.17.08-.27-.22-.12-.44-.24-.65-.35-.3-.15-.61-.28-.91-.42-.9-.4-1.8-.8-2.7-1.2-.6-.27-1.2-.53-1.8-.8-.23-.11-.46-.22-.7-.33-.28-.13-.56-.25-.85-.38-.09-.04-.19-.08-.29-.11-.04-.01-.08,0-.12,0-.04.18-.09.34-.13.5-.13.49-.25.98-.38,1.47-.17.65-.34,1.31-.51,1.96,0,.03,0,.07,0,.11.19.09.38.18.57.26.74.31,1.47.61,2.21.92ZM8.17,15.1c.69.28,1.38.56,2.08.83.06.03.13.06.2.06l.23-.54c-.14-.08-.27-.13-.41-.19-.67-.27-1.35-.54-2.02-.83-.75-.33-1.52-.64-2.28-.95-.25-.1-.5-.19-.76-.29-.04-.01-.07-.03-.09-.04-.05-.09-.06-.16-.03-.25.02-.05.03-.11.04-.17.13-.49.26-.98.39-1.47.17-.63.34-1.27.5-1.9.04-.15.11-.31.04-.48-.03-.01-.07-.03-.1-.05l.02-.05s.05.02.08.03c.02,0,.04.01.06,0,.09-.05.16,0,.24.04.34.17.68.33,1.02.5.05.03.11.05.16.07.02,0,.05,0,.08.01.06-.15.1-.3.16-.44.06-.15.14-.29.21-.44-.04-.02-.06-.03-.08-.04-.26-.1-.53-.2-.79-.31-.29-.12-.58-.25-.87-.36-.2-.08-.4-.14-.6-.2-.03,0-.06,0-.09,0-.15.22-.29.6-.31.82.09.04.18.09.28.13l-.02.04c-.25-.11-.5-.21-.76-.28-.46-.12-.91-.14-1.37-.04-.45.11-.77.36-.97.78-.02.04-.04.09-.06.14l-.04-.02c.04-.1.09-.2.14-.3.1-.19.24-.33.41-.45.15-.1.32-.16.5-.21.26-.06.53-.08.8-.07.29.02.57.09.85.18.05.02.1.06.17.02.04-.12.07-.25.12-.38.05-.13.1-.25.16-.38-.43-.22-.87-.33-1.33-.37-.34-.03-.68-.01-1.02.06-.5.11-.91.35-1.19.78-.11.17-.21.34-.28.53-.12.29-.2.6-.18.92,0,.12,0,.23,0,.35.01.37.02.73.1,1.09.12.56.39,1.02.87,1.34.34.24.68.49,1.04.69.12.07.23.14.37.18.03-.1.05-.18.08-.27.01-.05.03-.09.05-.14l.05.02c-.02.06-.03.11-.05.17-.03.09-.09.17-.05.29.05.02.11.05.17.07,1.36.59,2.71,1.19,4.08,1.74ZM10.9,9.63s-.03-.01-.04-.02c-.39-.14-.77-.29-1.16-.43-.46-.17-.92-.34-1.38-.5-.08-.03-.16-.07-.25-.08-.15.18-.35.66-.38.89.05.02.11.05.17.08.22.09.44.18.66.28.6.27,1.21.55,1.81.82,1,.45,2.01.9,3.01,1.35.09.04.18.08.26.12.06.03.11.06.15.12.03.06.09.09.15.11.1.04.21.08.3.14.18.11.37.19.56.27v.04c-.06-.02-.11-.03-.17-.01-.1.17-.15.36-.21.54-.16.5-.31.99-.47,1.49-.16.49-.32.98-.47,1.47-.02.08-.04.16-.06.23.02.02.03.03.04.03.33.13.65.27.98.4.07.03.13.05.2,0,.01-.01.05,0,.07,0,.12,0,.24.05.34.11.01.05.03.09.03.11.09.03.16.06.23.08.17.07.34.16.51.22.24.1.47.2.73.23,0,0,0,0,0,0,0,0,0,0,0,0-.02.01-.03.03-.05.04-.1.02-.14.09-.18.18-.04.11-.09.22-.13.33,0-.04,0-.08.01-.11.03-.09.07-.18.1-.27.01-.03.02-.07.03-.11-.03-.02-.05-.04-.07-.05-.37-.15-.74-.31-1.12-.46-.04-.02-.1-.01-.15-.02-.09.17-.14.35-.17.54.14.06.27.11.4.16.05.02.1.03.12.08-.04.04-.08.07-.12.11,0,0,0,0,0,0,0-.03,0-.05,0-.09-.06-.05-.13-.07-.2-.1-.06-.03-.13-.05-.2-.09-.02.01-.05.03-.07.05-.05.04-.11.04-.16.02-.08-.03-.15-.07-.23-.11-.02-.06-.04-.12-.06-.18-.13-.06-.26-.12-.4-.17-.86-.35-1.73-.71-2.59-1.06-1.35-.55-2.7-1.11-4.06-1.65-.84-.34-1.67-.7-2.51-1.06-.32-.14-.64-.28-.95-.43-.34-.16-.65-.36-.95-.58-.11-.08-.22-.16-.33-.23-.53-.33-.85-.81-.99-1.42-.03-.14-.06-.29-.07-.44-.04-.42-.06-.83-.04-1.25.01-.27.08-.53.18-.78.08-.19.18-.37.3-.54.26-.38.61-.62,1.05-.74.27-.08.56-.11.84-.11.32,0,.64.02.96.09.27.07.54.13.79.26.04.02.08.04.13.04.14.01.26.07.39.12.47.18.94.35,1.41.53.25.09.49.19.74.28.01,0,.03,0,.04.01.27.18.58.23.87.35.36.15.74.27,1.11.4.24.09.48.19.72.28.01,0,.02,0,.03.01l-.02.05Z"/>
    <path d="M18.23,19.06c-.04.12-.07.25-.16.35,0-.02,0-.04.01-.06-.31-.15-.63-.29-.95-.42-.26-.1-.53-.2-.79-.31-.05-.02-.11-.03-.13-.07-.11-.14-.26-.18-.41-.24-.06-.02-.13-.03-.17-.09,0,0,0-.01,0-.02.02-.04.05-.03.08-.02.11.04.23.09.34.14.01,0,.02,0,.04,0,.01-.02.02-.04.04-.06,0,0,0,0,0,0,0,.05,0,.09.01.15.66.27,1.28.6,1.96.81.06-.25.16-.48.29-.7-.04-.02-.08-.04-.11-.05-.42-.17-.85-.34-1.27-.51-.18-.07-.35-.16-.52-.24,0,0,0,0,0,0,.06-.03.11.01.16.03.52.21,1.05.43,1.57.64.08.03.15.06.24.05.1-.01.19.06.28.11v.03c-.09-.03-.16-.08-.24-.07-.13.17-.23.35-.3.55Z"/>
    <path d="M48.65,32.61c0,.14-.04.27-.09.4-.05.12-.14.23-.21.34-.12.19-.29.31-.52.33-.15.02-.29.05-.44.08-.05,0-.1.02-.15.01-.28-.03-.56-.06-.83-.17-1.42-.59-2.85-1.19-4.28-1.78-5.19-2.15-10.39-4.3-15.58-6.46-.9-.37-1.81-.74-2.71-1.12-.6-.25-1.19-.51-1.8-.76-.73-.3-1.46-.58-2.18-.88-.07-.03-.13-.05-.19-.08,0-.11.02-.21.06-.3.03-.08.08-.15.15-.24.09,0,.17.05.25.09.05.02.1.05.16.08.5.21,1,.41,1.5.62.3.13.6.26.91.38.35.15.7.3,1.05.44,3.28,1.37,6.57,2.73,9.85,4.1.2.08.39.17.58.25.13.05.26.1.4.15.35.14.69.28,1.03.43.29.12.58.26.87.38,1.22.51,2.45,1.02,3.67,1.53,1.81.75,3.62,1.51,5.43,2.26.26.11.51.21.77.32.25.1.5.16.77.18.08,0,.15.02.23.02.23.01.43-.08.59-.23,0,0,.01-.01.02-.02.09-.08.11-.19.08-.3-.05-.21-.13-.4-.23-.59-.24-.43-.58-.75-1.02-.97-.17-.08-.33-.17-.5-.24-3.14-1.36-6.29-2.66-9.45-3.97-5.27-2.19-10.54-4.37-15.81-6.56-.06-.03-.13-.06-.19-.08,0-.08.04-.17.07-.26.04-.08.08-.16.13-.23.06-.02.11.02.16.04.62.26,1.23.51,1.85.77.99.41,1.98.81,2.96,1.22.38.16.75.33,1.13.5.08.03.15.07.23.1,0,.05,0,.09.01.12.01.13.11.19.23.14.03-.01.06-.03.08-.05.02-.02.05-.03.07-.05.19.08.38.16.58.24,2.1.87,4.21,1.75,6.31,2.62.4.17.81.33,1.21.5.72.3,1.43.62,2.15.91,1.38.57,2.76,1.14,4.14,1.71.32.13.64.26.96.39.49.21.98.41,1.48.62.53.22,1.06.44,1.58.66.23.09.45.18.68.27.04.01.07.03.1.05.26.16.5.34.71.56.24.25.47.49.68.76.11.14.19.29.27.44.01.02.02.05.03.07,0,.07.01.15,0,.22Z"/>
    <path d="M18.08,19.41c.07.02.13.04.2.06.04.01.09.02.14.03.06-.16.11-.32.16-.47,0,0,.01,0,.02,0-.03.13-.07.26-.1.4.11.09.45.16.56.24-.11-.04-.42-.14-.53-.19-.03.02-.06.05-.09.06-.03,0-.06,0-.09-.02-.09-.03-.17-.07-.26-.11Z"/>
    <path d="M3.05,12.18c-.3-.15-.53-.38-.68-.69-.02-.05-.05-.1-.08-.15-.17-.37-.27-.75-.23-1.16.03-.33.11-.65.23-.95l.04.02c-.11.28-.18.58-.21.88-.03.29,0,.57.09.84.06.18.14.35.21.52.1.22.26.4.47.53.15.09.3.18.45.26.21.12.43.23.65.33.18.09.37.17.56.26.07.03.11,0,.13-.06.02-.07.04-.15.06-.22.16-.65.32-1.3.49-1.94.11-.41.22-.82.33-1.23.05-.2.1-.4.16-.62-.09-.05-.16-.1-.24-.14l.02-.04c.15.07.3.13.45.19l-.02.05s-.07-.02-.12-.02c-.04.15-.08.31-.12.46-.19.67-.35,1.34-.52,2.02-.13.51-.26,1.01-.39,1.51-.03.1-.03.1.03.22-.07-.02-.13-.04-.18-.07-.15-.07-.3-.14-.46-.21-.04-.02-.08-.03-.12-.04-.03.04-.04.07-.06.11l-.05-.02s.03-.09.03-.14c-.04-.02-.07-.04-.1-.06-.28-.15-.56-.29-.84-.44Z"/>
    <path d="M29.74,17.83c-.05.13-.09.27-.15.4-.55,1.28-1.09,2.57-1.64,3.85-.06.14-.11.29-.21.41-.03.03-.06.07-.09.1,0,0-.01,0-.02.01-.05.03-.1.04-.17,0-.02-.11,0-.22,0-.34.05-.34.08-.68.07-1.02,0-.38-.11-.74-.24-1.09-.11-.28-.25-.55-.4-.81-.06-.11-.13-.22-.19-.32-.11-.18-.21-.36-.32-.54-.05-.08-.11-.14-.18-.2-.33-.28-.68-.53-1.05-.75-.35-.21-.7-.4-1.07-.58-.56-.27-1.13-.53-1.7-.79-.45-.21-.91-.43-1.37-.63-.33-.15-.67-.29-1.01-.44-.18-.08-.36-.17-.54-.26-.14-.07-.28-.15-.44-.19-.11-.03-.21-.09-.32-.14-.27-.13-.55-.25-.82-.38-.21-.1-.42-.21-.64-.32-.14-.07-.28-.14-.42-.2-.67-.27-1.33-.56-2.01-.8-.03,0-.06-.02-.09-.03-.19-.07-.38-.16-.56-.27-.09-.06-.2-.09-.3-.14-.06-.03-.12-.05-.15-.11-.03-.06-.09-.09-.15-.12-.09-.04-.18-.08-.26-.12-1-.45-2.01-.9-3.01-1.35-.6-.27-1.21-.55-1.81-.82-.22-.1-.44-.18-.66-.28-.06-.02-.12-.05-.17-.08.03-.23.24-.71.38-.89.09,0,.17.05.25.08.46.17.92.33,1.38.5.39.14.77.29,1.16.43.01,0,.03.01.04.02.03.01.06.02.08.04.08.07.18.1.27.13.42.15.85.3,1.27.46.42.16.83.34,1.25.5.2.08.41.15.61.22.59.23,1.18.45,1.76.68.99.38,1.98.77,2.97,1.15.24.09.49.16.73.24.05.02.1.03.15.05.53.2,1.07.41,1.6.61.57.22,1.14.43,1.72.64.45.16.9.31,1.35.47.08.03.16.06.23.09.27.12.54.2.82.27.2.06.41.11.62.16.37.09.74.11,1.11.06.88-.11,1.71-.38,2.48-.8.32-.17.6-.4.83-.68.11-.13.22-.25.32-.38.06-.08.15-.14.24-.19.03-.01.07,0,.12,0-.02.09-.04.16-.06.23-.05.17-.1.34-.18.51-.13.29-.24.6-.36.89-.1.26-.2.53-.3.79-.22.55-.44,1.1-.65,1.65-.05.12-.09.24-.13.36Z"/>
    <path d="M27.47,22.26c-.02.11-.02.23,0,.34.06.04.12.03.17,0l.07.03s-.06.04-.08.05c-.12.05-.22,0-.23-.14,0-.04,0-.08-.01-.12-.08-.03-.15-.07-.23-.1-.38-.17-.75-.34-1.13-.5-.99-.41-1.97-.81-2.96-1.22-.62-.26-1.23-.51-1.85-.77-.05-.02-.1-.06-.16-.04-.05.07-.1.15-.13.23l-.06-.02s0,0,0-.01c.04-.08.07-.16.12-.24-.04-.02-.08-.04-.11-.06-.59-.25-1.19-.5-1.78-.74-.12-.05-.25-.08-.35-.18.01-.06.03-.11.05-.18,0,0,0,0,0,0v-.03c.07.03.03.11.1.17.11.05.25.12.39.18.25.11.51.22.76.32,1.94.8,3.87,1.61,5.81,2.41.5.21,1.01.39,1.51.59.01,0,.03,0,.05,0,0-.04.02-.08.02-.13.01-.16.02-.32.04-.48.05-.45-.02-.88-.18-1.31-.1-.29-.23-.56-.38-.82-.08-.14-.17-.29-.25-.43l.06-.04c.06.11.13.22.19.32.15.26.29.53.4.81.14.35.24.71.24,1.09,0,.34-.03.68-.07,1.02Z"/>
    <path d="M10.67,15.45l-.23.54c-.07,0-.13-.04-.2-.06-.69-.28-1.38-.56-2.08-.83-1.37-.55-2.72-1.15-4.08-1.74-.06-.03-.12-.05-.17-.07-.04-.12.02-.2.05-.29.02-.05.03-.11.05-.17.01-.04.03-.07.06-.11.04.01.09.02.12.04.15.07.3.14.46.21.06.03.12.04.18.07-.06-.12-.06-.12-.03-.22.13-.5.26-1.01.39-1.51.17-.67.33-1.35.52-2.02.04-.15.08-.31.12-.46.04,0,.08,0,.12.02.04.01.07.03.1.05.07.17,0,.33-.04.48-.16.63-.33,1.27-.5,1.9-.13.49-.26.98-.39,1.47-.01.06-.02.11-.04.17-.03.08-.02.16.03.25.02,0,.06.03.09.04.25.1.51.19.76.29.76.31,1.52.62,2.28.95.67.29,1.34.56,2.02.83.14.05.27.11.41.19Z"/>
    <path d="M19.66,21.84c.83.34,1.65.69,2.48,1.03.29.12.59.23.88.34.14.06.29.11.43.17.18.07.35.15.53.23.87.36,1.75.72,2.62,1.08,4.61,1.91,9.22,3.83,13.83,5.74.45.19.91.37,1.36.55,1.5.63,3,1.25,4.5,1.88.33.14.68.22,1.04.29.19.04.35-.03.5-.14.02-.01.03-.02.04-.04l.05.03c-.16.16-.36.24-.59.23-.08,0-.15-.01-.23-.02-.27-.02-.52-.08-.77-.18-.26-.11-.51-.21-.77-.32-1.81-.75-3.62-1.51-5.43-2.26-1.22-.51-2.45-1.02-3.67-1.53-.29-.12-.58-.25-.87-.38-.34-.15-.69-.29-1.03-.43-.13-.05-.26-.1-.4-.15-.2-.08-.39-.17-.58-.25-3.28-1.37-6.57-2.73-9.85-4.1-.35-.15-.7-.29-1.05-.44-.3-.13-.6-.26-.91-.38-.5-.21-1-.41-1.5-.62-.05-.02-.1-.05-.16-.08-.08-.03-.16-.08-.25-.09-.07.08-.12.16-.15.24l-.05-.02c.03-.07.06-.13.09-.2,0-.02,0-.04.01-.05-.01-.01-.02-.03-.03-.03-.17-.09-.34-.17-.53-.23-.13-.04-.26-.07-.36-.16.01-.04.03-.08.05-.12h.01s0,.02,0,.02c-.02.04,0,.08.04.1.02.01.05.02.07.03.21.08.42.16.63.25Z"/>
    <polygon points="18.08 19.41 18.08 19.41 18.08 19.41 18.08 19.41 18.08 19.41 18.08 19.41"/>
    <path d="M15.57,18.24c-.01-.06.02-.11.04-.16.04-.09.03-.13-.07-.18-.02-.01-.04-.02-.07-.03.02-.04.05-.04.09-.03.1.04.13.11.1.21-.02.05-.04.09-.06.13,0,.02-.02.04-.03.06Z"/>
    <path d="M48.73,32.63c-.02.3-.1.58-.3.82-.02.03-.05.05-.06.07-.08.15-.23.22-.38.27-.2.06-.41.09-.63.09-.47.01-.91-.12-1.34-.3-1.51-.63-3.02-1.25-4.53-1.88-5.01-2.08-10.02-4.16-15.03-6.24-.83-.35-1.66-.7-2.49-1.04-.33-.14-.67-.26-1-.4-.37-.15-.73-.31-1.1-.47-.57-.24-1.15-.49-1.72-.74-.65-.28-1.3-.55-1.96-.83-.23-.09-.45-.18-.68-.27-.04-.02-.09-.02-.13-.04-.07-.02-.14-.03-.2.02-.05.04-.11.03-.17.01-.09-.03-.19-.05-.25-.13-.03-.04-.09-.05-.13-.07-.51-.21-1.02-.43-1.53-.64-.11-.05-.22-.1-.3-.2-.05-.07-.12-.11-.2-.14-.55-.23-1.09-.46-1.64-.69-.05-.02-.09-.05-.11-.08-.02-.03-.04-.07-.03-.12,0-.08.02-.15.04-.23.03-.08.08-.16.12-.25-.02-.02-.04-.04-.07-.05-.14-.04-.28-.11-.41-.17-.11-.06-.22-.1-.33-.15-.29-.13-.57-.26-.86-.39l.02-.03s0,0,0,0c.27.12.53.23.8.35.14.06.28.13.42.19.19.09.38.18.59.22.06.01.12.04.18.07.23.1.45.21.68.32.07.03.14.06.22.09.1-.1.17-.22.24-.33.2-.32.4-.64.61-.96.04-.06.09-.1.14-.16-.01.03-.02.07-.04.11-.22.35-.44.69-.67,1.04-.07.11-.14.21-.21.33.09.05.16.1.26.09.02-.02.03-.04.05-.06.21-.33.41-.65.62-.98.09-.13.19-.26.28-.39.02-.04.06-.04.09-.04-.08.11-.17.22-.25.33-.2.31-.4.62-.59.93-.05.07-.09.15-.13.24.12.08.23.16.38.16.04,0,.09.02.13.03.18.06.35.13.52.2.4.16.8.32,1.2.48.08.03.15.08.24.03.02-.01.05,0,.08,0,.11.03.22.07.31.14.01.06.02.12.03.18.35.14.7.29,1.05.43.01,0,.02,0,.04,0,.25-.49.51-.99.76-1.49.01-.02.01-.05.02-.08-.1-.05-.2-.1-.29-.15.12,0,.22.08.33.09.03-.04.05-.07.07-.1-.25.62-.57,1.2-.87,1.81-.08-.03-.15-.05-.22-.08-.28-.11-.56-.23-.84-.35-.05-.02-.09-.03-.15-.05-.1.19-.18.38-.23.58,0,.02,0,.04,0,.07.19-.05.19-.05.36.03.64.27,1.28.53,1.93.8.04.02.08.03.13.04.04-.09.08-.18.12-.27l.05.02c-.04.09-.06.19-.06.3.06.02.12.05.19.08.73.29,1.46.58,2.18.88.6.25,1.2.51,1.8.76.9.37,1.81.74,2.71,1.12,5.19,2.15,10.39,4.3,15.58,6.46,1.43.59,2.85,1.18,4.28,1.78.27.11.55.14.83.17.05,0,.1,0,.15-.01.15-.02.29-.06.44-.08.23-.03.39-.15.52-.33.07-.11.16-.22.21-.34.05-.13.09-.27.09-.4h.08ZM17.05,21.65c.05-.14.09-.28.14-.42.05-.13.12-.26.19-.4-.1-.06-.19-.1-.29-.13-.03.02-.06.05-.09.07-.12-.07-1.85-.74-2-.79-.16.11-.24.26-.25.45,0,.14.05.22.19.27.11.04.21.09.32.13.47.2.94.39,1.4.59.03.01.07.02.1.03.06-.15.08-.29.19-.43-.03.21-.13.37-.12.56q.12.07.21.08ZM14.69,20.42c0-.16.08-.3.17-.44-.06-.04-.12-.07-.17-.1-.03-.02-.07-.03-.1-.05-.46-.17-.91-.39-1.35-.61-.05-.03-.1-.04-.16-.07-.18.15-.24.33-.22.55.03.02.06.04.09.05.22.09.44.19.66.28.3.12.61.25.91.37.05.02.1.06.17.02Z"/>
    <path d="M48.03,32.69c.03.12,0,.22-.08.3,0,0-.01.01-.02.02l-.05-.03c.08-.07.1-.17.07-.28-.09-.36-.26-.67-.5-.94-.26-.28-.58-.49-.93-.64-.84-.36-1.69-.73-2.54-1.09-5.09-2.12-10.18-4.23-15.27-6.34-2.92-1.21-5.84-2.43-8.76-3.65-.09-.04-.18-.07-.28-.11-.03.05-.05.08-.06.1-.17.36-.33.72-.5,1.09-.04.08-.09.16-.13.24-.01.03-.03.06-.04.09h-.01c.19-.48.64-1.4.75-1.58.08-.02.15,0,.22.04.24.1.49.2.73.3.04.02.08.02.12.03.04-.09.07-.16.1-.23l.06.02c-.04.09-.07.18-.07.26.06.03.12.06.19.08,5.27,2.19,10.54,4.37,15.81,6.56,3.15,1.31,6.31,2.61,9.45,3.97.17.07.34.16.5.24.44.22.78.54,1.02.97.1.19.18.38.23.59Z"/>
    <path d="M26.7,19.02l-.06.04c-.09-.15-.18-.3-.27-.45-.04-.07-.1-.14-.16-.19-.13-.11-.26-.21-.4-.31-.21-.15-.43-.31-.64-.46-.04-.03-.08-.04-.12-.06-.07-.04-.15-.08-.22-.11-.31-.16-.61-.33-.92-.48-.5-.24-1-.47-1.5-.7-.79-.36-1.58-.72-2.36-1.11-.58-.29-1.16-.55-1.75-.82-.21-.1-.42-.2-.63-.3-.24-.12-.48-.24-.73-.35-.6-.24-1.2-.5-1.8-.75-.12-.05-.24-.1-.36-.15-.02,0-.03-.01-.05-.02v-.04s.07.02.1.03c.68.24,1.34.53,2.01.8.14.06.28.13.42.2.21.11.42.22.64.32.27.13.55.25.82.38.11.05.21.11.32.14.16.04.29.12.44.19.18.09.36.18.54.26.33.15.67.29,1.01.44.46.21.91.42,1.37.63.57.26,1.13.53,1.7.79.37.17.72.36,1.07.58.37.22.72.47,1.05.75.07.06.13.12.18.2.11.18.21.36.32.54Z"/>
    <polygon points="19.77 19.69 19.77 19.7 19.76 19.7 19.77 19.69"/>
    <path d="M19.69,19.57s0,0,0,0c-.02,0-.05-.02-.07-.02,0,0,0,0,0-.01l.07.03Z"/>
    <path d="M18.42,18.53c-.13.22-.23.45-.29.7-.68-.21-1.31-.54-1.96-.81,0-.05-.01-.1-.01-.15h0c.04-.11.09-.22.13-.33.03-.09.08-.16.18-.18.02,0,.04-.02.05-.04.17.08.35.16.52.24.42.17.85.34,1.27.51.03.01.07.03.11.05Z"/>
    <path d="M17.2,21.23c-.06.14-.1.28-.14.42q-.1,0-.21-.08c0-.18.09-.35.12-.56-.1.14-.13.29-.19.43-.04,0-.07-.01-.1-.03-.47-.2-.94-.39-1.4-.59-.11-.04-.21-.09-.32-.13-.14-.05-.2-.13-.19-.27.01-.19.09-.34.25-.45.15.04,1.88.72,2,.79.03-.02.06-.04.09-.07.1.03.19.07.29.13-.07.14-.14.27-.19.4Z"/>
    <polygon points="16.52 17.72 16.52 17.72 16.52 17.72 16.52 17.72"/>
    <polygon points="15.57 18.25 15.57 18.25 15.57 18.24 15.57 18.25 15.57 18.25 15.57 18.25"/>
    <polygon points="15.57 18.24 15.57 18.25 15.57 18.25 15.57 18.24 15.57 18.24"/>
    <path d="M15.57,18.25h0s0,0,0,0c-.04,0-.07,0-.09.04-.09.13-.19.26-.28.39-.21.32-.41.65-.62.98-.01.02-.03.04-.05.06-.1,0-.17-.04-.26-.09.07-.11.14-.22.21-.33.22-.35.45-.69.67-1.04.02-.03.03-.07.04-.11h0s.08-.07.12-.11h0s0,0,0,0h0s.04-.08.08-.15l.09-.03s.05.02.07.03c.09.05.11.09.07.18-.02.05-.05.1-.04.16,0,0,0,0,0,0,0,0,0,0,0,0Z"/>
    <path d="M14.87,19.98c-.1.14-.17.28-.17.44-.07.04-.12,0-.17-.02-.3-.12-.61-.24-.91-.37-.22-.09-.44-.18-.66-.28-.03-.01-.06-.03-.09-.05-.02-.22.04-.4.22-.55.05.02.11.04.16.07.44.22.89.44,1.35.61.04.01.07.03.1.05.06.03.11.06.17.1Z"/>
    <path d="M15.39,17.91c-.03.07-.06.11-.08.15h0s0-.1.08-.15Z"/>
    <polygon points="15.31 18.05 15.31 18.05 15.31 18.05 15.31 18.05"/>
    <path d="M14.75,17.72c0,.06-.03.13-.09.18-.1,0-.19-.06-.27-.11-.04-.03-.04-.08-.03-.12.04-.12.07-.25.11-.37.04-.1.07-.21.15-.3.12.04.23.04.33.11,0,.03-.01.06-.03.09-.08.17-.15.34-.18.53Z"/>
    <path d="M14.33,17.57s0,0-.01,0c0,0-.01,0-.02,0-.47-.2-.95-.4-1.42-.59-.12-.05-.24-.09-.36-.14-.02,0-.03-.02-.05-.03-.02-.1.04-.18.08-.27.04-.09.06-.18.13-.25.08-.01.13.04.19.06.05.02.1.04.15.06.05-.02.05-.06.06-.1.02-.05.03-.11.05-.16.16-.32.24-.68.35-1.02.12-.35.23-.71.34-1.07.14-.45.3-.9.41-1.37,0-.03.02-.06.04-.09.08.02.15.05.22.11-.37,1.28-.78,2.54-1.16,3.83.4.19.79.33,1.19.5,0,.04-.01.08-.03.11-.05.13-.1.27-.15.4Z"/>
    <path d="M12.84,19.77h-.11c-.24-.12-.49-.22-.74-.31-.32-.12-.63-.25-.95-.39-.12-.05-.22-.12-.35-.19-.06.01-.13.02-.19.05-.16.08-.32.08-.48,0-.06-.02-.13-.02-.18-.07-.02-.15.03-.29.04-.45-.05.07-.07.13-.08.19-.01.09-.02.18-.03.27,0,.03-.01.06-.02.1l-.31-.13c-.05-.15-.06-.3.01-.45.09-.2.19-.41.27-.62.04-.11.11-.19.19-.26.11-.11.22-.15.36-.06.03.02.08.04.11.05,0,.03,0,.05,0,.07,0,.02-.02.03-.03.05,0,0,0,0,0,0,0,0,0,0,0,0,0,0,0,0,0,0-.07.09-.18.16-.22.32.09-.11.15-.18.21-.26.01-.01,0-.04,0-.06,0,0,0,0,0,0,0,0,0,0,0,0h0s0,0,0,0c.02.02.04.05.07.05.12.02.22.09.33.15.05.17.16.31.25.45.05.08.07.15.07.23,0,.03,0,.06,0,.1,0,0,.02,0,.03,0,.02-.08.04-.15.06-.24.05.02.09.04.13.06.29.13.57.26.86.39.11.05.22.1.33.15.13.07.26.13.41.17.03,0,.05.03.07.05-.05.09-.09.17-.12.25-.03.07-.04.15-.04.23,0,.05.01.09.03.12ZM10.94,18.81s0-.02,0-.03c0,0-.01,0-.02,0,0,0-.01.01-.02.02,0,0,0,0,0,0,0,0-.01.02-.02.02,0,0,.01-.01.02-.02,0,0,0,0,0,0,0,0,0,0,0,0,0,0,.02,0,.03,0Z"/>
    <path d="M12.73,19.78c-.06-.02-.12-.04-.19-.07-.45-.15-.9-.32-1.33-.51-.15-.07-.29-.14-.43-.22-.06-.03-.11-.05-.18-.03-.07.03-.15.03-.22.07-.08.04-.15.03-.22,0-.09-.03-.18-.05-.28-.08-.04.03-.06.07-.1.08-.04.01-.09,0-.13-.01,0,0-.01,0-.02,0-.29-.09-.31-.28-.29-.53.11-.3.2-.6.37-.87.06-.1.15-.18.24-.24.14-.1.38-.07.46.08.08.14.19.2.32.26.06.03.1.07.14.12.1.14.18.3.29.43.04.05.09.08.15.11l-.02.03s-.08-.03-.13-.06c-.02.09-.04.17-.06.24,0,0-.02,0-.03,0,0-.03,0-.06,0-.1,0-.09-.02-.16-.07-.23-.09-.14-.2-.28-.25-.45-.1-.06-.21-.12-.33-.15-.03,0-.05-.03-.07-.05.01-.01.02-.03.03-.05,0-.02,0-.04,0-.07-.04-.02-.08-.03-.11-.05-.14-.1-.25-.05-.36.06-.08.08-.14.16-.19.26-.08.21-.17.42-.27.62-.07.15-.06.3-.01.45l.31.13s.02-.07.02-.1c.01-.09.02-.18.03-.27,0-.06.03-.12.08-.19-.02.16-.07.31-.04.45.05.05.12.05.18.07.16.07.32.08.48,0,.06-.03.14-.04.19-.05.12.07.23.14.35.19.31.13.63.27.95.39.25.09.51.19.74.32Z"/>
    <path d="M12.47,16.51c-.03.08-.07.17-.11.26-.04,0-.08,0-.11-.02-.55-.22-1.09-.44-1.64-.67-.03-.01-.05-.03-.09-.05.04-.19.1-.37.22-.54.62.25,1.24.47,1.83.75,0,.12-.08.19-.11.28Z"/>
    <path d="M10.95,18.78s0,.03,0,.03c0,0-.02,0-.03,0,0,0,.01-.02.02-.02,0,0,.01,0,.02,0Z"/>
    <polygon points="10.91 18.81 10.91 18.82 10.91 18.81 10.91 18.81 10.91 18.81"/>
    <path d="M10.91,18.82s0,0,0,0c0,0-.01.01-.02.02,0,0,.01-.02.02-.02,0,0,0,0,0,0h0s0,0,0,0Z"/>
    <polygon points="10.91 18.82 10.91 18.82 10.91 18.81 10.91 18.82"/>
    <path d="M10.35,17.62s0,.05,0,.06c-.06.08-.13.15-.21.26.04-.16.15-.23.22-.32Z"/>
    <polygon points="10.35 17.61 10.35 17.62 10.35 17.61 10.35 17.61 10.35 17.61 10.35 17.61"/>
    <polygon points="10.35 17.61 10.35 17.61 10.35 17.61 10.35 17.61 10.35 17.61"/>
  </g>
</svg>