<?xml version="1.0" encoding="UTF-8"?>
<svg id="_レイヤー_1" data-name="レイヤー 1" xmlns="http://www.w3.org/2000/svg" viewBox="0 0 50 50">
  <defs>
    <style>
      .cls-1 {
        fill: #fff;
      }
    </style>
  </defs>
  <g>
    <path d="M13.65,37.92h.95v3.12c1.4-.46,2.61-1.04,3.61-1.73l.54.93c-1.29.77-2.67,1.38-4.14,1.84v2.26c0,.28.1.45.31.51.25.07.82.1,1.7.1s1.89-.06,2.93-.17v1.1c-.95.08-1.94.12-2.97.12s-1.77-.03-2.08-.1c-.37-.08-.62-.28-.74-.6-.07-.2-.11-.44-.11-.74v-6.64ZM19.06,39.78c-.17-.53-.45-1.13-.83-1.8l.65-.28c.32.53.6,1.12.85,1.76l-.66.32ZM20.17,39.35c-.22-.68-.5-1.28-.83-1.81l.62-.24c.32.47.6,1.04.83,1.7l-.62.35Z"/>
    <path d="M25.7,37.72h.94v1.88h1.94v1h-1.94v4.83c0,.36-.05.62-.16.78-.12.19-.37.28-.75.28-.43,0-.85-.02-1.26-.05l-.22-1.06c.43.05.83.07,1.21.07.13,0,.2-.03.22-.1.01-.04.02-.1.02-.18v-4.07c-.53.93-1.11,1.75-1.75,2.47-.57.65-1.26,1.25-2.07,1.78l-.58-.95c1.51-.92,2.76-2.18,3.76-3.8h-3.58v-1h4.22v-1.88Z"/>
    <path d="M29.97,40.51h6.8c-.12,1.42-.37,2.53-.74,3.33-.28.6-.64,1.08-1.06,1.44-.72.61-1.76,1.03-3.14,1.26l-.41-.99c1.21-.14,2.14-.47,2.78-1,.83-.67,1.31-1.69,1.43-3.04h-5.66v-1ZM30.56,38.12h5.39v1h-5.39v-1Z"/>
  </g>
  <g>
    <path d="M14.4,25.94c-.08.03-.18,0-.21-.09-.02-.06,0-.13.04-.17.01-.01.03-.03.05-.04.08-.03.18,0,.21.09.03.08,0,.18-.09.21Z"/>
    <path d="M14.59,26.4c-.08.03-.18,0-.21-.09-.03-.08,0-.18.09-.21.08-.03.18,0,.21.09s0,.18-.09.21Z"/>
    <path d="M14.79,26.89c-.08.03-.18,0-.21-.09-.03-.08,0-.18.09-.21.08-.03.18,0,.21.09.03.08,0,.18-.09.21Z"/>
    <path d="M14.98,27.36s-.04.01-.06.01c-.07,0-.13-.04-.15-.1-.03-.08,0-.18.09-.21.08-.03.18,0,.21.09.03.08,0,.18-.09.21Z"/>
    <path d="M15.87,26.45l-.58.23c-.08.03-.18,0-.21-.09-.03-.08,0-.18.09-.21l.58-.23s.06,0,.07.03l.03.07-.14.06-.18.07s-.02.02-.02.04h0s.02.02.04.02l.18-.07.14-.06.03.07s0,.06-.03.07Z"/>
    <path d="M25.99,18.01c1.43.66,2.06,1.92,2.13,2.06l.24-.09s-.63-1.45-2.26-2.2c-.71-.33-1.43-.28-2.01-.12-.56.15-1.08.44-1.52.83-.4.35-1.19.95-1.7.72-.02,0-.03-.01-.05-.02h0c-.06-.01-.11,0-.16.04l-.07.06c-.07.06-.08.17,0,.24l.04.04c.12.1.19.25.2.4.01.2-.06.48-.4.76,0,0-.84.73-2.39.83-1.56.1-1.79-.64-1.77-1.23l-.32-.05s-.24.54-.94.54c-.69,0-1.86-.13-2.98.35-.39.17-.99.5-1.5,1.07,0,0,.1.05.24.14l-.02-.02c.51-.55,1.08-.84,1.38-.97.89-.38,1.81-.35,2.49-.34h.02c.13,0,.26,0,.37,0,.5,0,.81-.23.98-.42l.04-.04v.06c.03.11.05.22.09.32.25.61.9.89,1.93.83,1.58-.1,2.44-.81,2.54-.89.43-.36.5-.73.49-.97,0-.14-.06-.29-.14-.41l-.04-.05h.06c.58.12,1.28-.37,1.78-.8.42-.37.91-.63,1.43-.78.67-.18,1.29-.15,1.84.11ZM14.22,25.66s0,0,0,0c.06-.06.11-.11.16-.15.18-.18.38-.32.6-.44l.3-.17c.08-.05.19,0,.22.08l.09.23,2.42-1.23s0,0,0,0l-.13-.33.16-.06.14.34,2.76-1-.08-.19,7.21-2.64c-.08-.16-.7-1.38-2.1-2.03-.54-.25-1.14-.28-1.8-.1-.51.14-.99.4-1.4.76-.48.42-1.17.9-1.76.84.07.12.11.25.12.39.02.26-.06.65-.51,1.02-.09.08-.98.8-2.57.9-1.06.07-1.73-.22-1.98-.86-.04-.09-.06-.18-.08-.28-.19.19-.5.4-.98.4-.11,0-.24,0-.37,0h-.02c-.67-.02-1.59-.04-2.47.33-.29.12-.85.41-1.35.95.35.23.97.71,1.38,1.43.01.02.03.05.04.07,0,.01.01.02.02.03.01.02.02.04.03.07,0,.01.01.02.02.03.18.37.29.81.28,1.3,0,0,.01.3-.19.72,0,.01-.01.02-.02.04,0,.01-.01.02-.02.04,0,.01-.01.02-.02.04,0,.01-.01.02-.02.04-.01.02-.02.04-.03.06,0,0,0,.01-.01.02,0,.01-.02.03-.03.04-.01.02-.03.04-.04.06,0,.01-.02.03-.03.04,0,.01-.02.03-.03.04-.02.02-.03.04-.05.06-.02.02-.03.04-.05.06-.01.01-.02.03-.04.04-.01.01-.02.03-.04.04-.01.01-.03.03-.04.04,0,0-.01.01-.02.02-.01.01-.03.03-.04.04-.01.01-.03.03-.04.04-.02.02-.04.04-.07.06-.02.01-.03.03-.05.04-.02.02-.05.04-.07.06-.02.01-.03.03-.05.04-.08.06-.16.13-.26.19,0,0-.1.07-.2.19l1.55-.63c.58-.23,1.18-.75,1.57-1.11ZM19.48,22.87s.09-.03.09-.07v-.07s0-.05,0-.07c0,0,0,0,0,0h0s0,0,0,0c0,0,0,0,0,0,0,0,0,0,0,0,0,0,0,0,0-.01-.02-.03-.05-.05-.08-.06-.37-.11-1.11.15-1.11.15l-.45.16-.09.18-.1-.12c-.4.12-.79.22-1.21.25-.17.01-.34.02-.5-.03-.22-.06-.38-.22-.45-.42,0,0,0,0,0,0h0s0-.01,0-.01c-.04-.12-.04-.25,0-.37.04-.12.11-.24.25-.32.39-.23.49.06.49.06.04.36-.23.33-.37.28-.05-.01-.1.01-.12.06l-.06.15s-.01.06,0,.08c0,0,0,0,0,0h0s0,0,0,0c.01.03.04.06.08.07.63.18,1.17-.02,1.17-.02l.7-.17.03-.15.14.06c.3-.09.6-.2.92-.22.23-.02.46,0,.68.07.13.04.23.12.28.23,0,0,0,.01,0,.02,0,0,0,0,0,.01h0s0,0,0,.01h0s0,0,0,.01h0s0,.01,0,.02c0,0,0,0,0,0,0,.02.01.05.02.07,0,.03,0,.05,0,.08,0,.15-.08.29-.2.38-.13.1-.3.18-.35-.02-.06-.24.13-.25.24-.24Z"/>
    <path d="M15.49,25.5l-.58.23c-.08.03-.18,0-.21-.09-.03-.08,0-.18.09-.21l.58-.23s.06,0,.07.03l.02.04-.14.07-.17.09s-.02.02-.01.04h0s.02.02.04.01l.17-.09.14-.07.04.1s0,.06-.03.07Z"/>
    <polygon points="15.79 25.68 15.62 25.26 18.04 24.03 18.25 24.55 18.25 24.55 15.79 25.68"/>
    <path d="M15.67,25.96l-.58.23c-.08.03-.18,0-.21-.09-.03-.08,0-.18.09-.21l.58-.23s.06,0,.07.03l.02.06-.14.06-.18.08s-.02.02-.01.04h0s.02.02.04.01l.17-.08.14-.06.03.09s0,.06-.03.07Z"/>
    <polygon points="16 26.2 15.81 25.73 18.27 24.6 18.27 24.6 18.5 25.19 16 26.2"/>
    <polygon points="21.15 23.44 18.41 24.49 18.2 23.97 20.96 22.97 21.15 23.44"/>
    <polygon points="21.38 24.01 18.66 25.12 18.43 24.54 21.17 23.49 21.38 24.01"/>
    <polygon points="18.68 25.17 21.4 24.06 21.59 24.52 18.89 25.69 18.68 25.17"/>
    <path d="M16.06,26.92l-.58.23c-.08.03-.18,0-.21-.09-.03-.08,0-.18.09-.21l.58-.23s.06,0,.07.03l.03.08-.14.05-.18.07s-.02.02-.02.04h0s.02.02.04.02l.18-.07.14-.05.02.06s0,.06-.03.07Z"/>
    <polygon points="18.73 25.75 16.2 26.68 16.02 26.25 18.53 25.24 18.73 25.75"/>
    <path d="M18.36,30.38h0c.1-.1.19-.2.28-.28.35-.33.72-.4.98-.4-.06-.08-.1-.17-.14-.25-.26-.64.02-1.31.83-2,1.21-1.04,2.35-1.13,2.47-1.14.58-.05.9.18,1.07.38.09.1.15.23.18.36.38-.46,1.21-.59,1.85-.62.55-.03,1.08-.18,1.54-.43.6-.33,1.01-.77,1.22-1.33.54-1.41.16-2.7.1-2.91l-7.01,3.12-.13-.31-2.7,1.17.2.5-.16.06-.2-.49-2.54.93.1.25c.04.09-.01.19-.1.21l-.33.09c-.24.07-.49.1-.74.1-.07,0-.14,0-.22,0-.53,0-1.32.06-1.91.3l-1.87.76c.04.05.09.09.14.12.06.03.11.08.13.15l.17.66c.02.07.01.15-.02.22,0,.02-.02.04-.03.05l-.11.14c-.04.05-.09.09-.15.11.23.35.47.66.73.92.51.53,1.08.9,1.7,1.11,1.19.4,2.25.09,2.65-.07.89-.34,1.53-1,2-1.48ZM18.6,28.92c-.16.04-.3,0-.4-.05-.12-.06-.2-.16-.26-.27,0,0,0,0,0-.01h0s0,0,0,0c-.09-.19-.08-.42.03-.62.09-.15.21-.26.34-.37.32-.27.67-.47,1.04-.66l-.02-.16.19.06.43-.2s.71-.32.9-.66c.02-.03.02-.07.02-.1,0,0,0,0,0-.01,0,0,0,0,0,0,0,0,0,0,0,0,0,0,0,0,0,0h0s0,0,0-.01c-.01-.02-.03-.04-.04-.06l-.05-.04s-.09-.02-.12.01c-.07.09-.22.21-.34,0-.1-.18.08-.24.24-.26.15-.02.3.03.41.14.04.04.07.08.09.13,0,0,0,0,0,0,0,0,0,.01,0,.02h0s0,0,0,0h0s0,.01,0,.02h0s0,0,0,.01c0,0,0,.01,0,.02.04.12.02.24-.04.36-.11.2-.26.38-.44.52-.25.2-.54.33-.82.48l-.06.14-.13-.09-.62.36s-.53.24-.86.8c-.02.03-.02.07,0,.1,0,0,0,0,0,0h0s0,0,0,.01c.01.02.03.04.06.06l.15.06s.1,0,.13-.04c.07-.13.24-.34.46-.05,0,0,.13.27-.31.38ZM18.36,30.38h0c.1-.1.19-.2.28-.28.35-.33.72-.4.98-.4-.06-.08-.1-.17-.14-.25-.26-.64.02-1.31.83-2,1.21-1.04,2.35-1.13,2.47-1.14.58-.05.9.18,1.07.38.09.1.15.23.18.36.38-.46,1.21-.59,1.85-.62.55-.03,1.08-.18,1.54-.43.6-.33,1.01-.77,1.22-1.33.54-1.41.16-2.7.1-2.91l-7.01,3.12-.13-.31-2.7,1.17.2.5-.16.06-.2-.49-2.54.93.1.25c.04.09-.01.19-.1.21l-.33.09c-.24.07-.49.1-.74.1-.07,0-.14,0-.22,0-.53,0-1.32.06-1.91.3l-1.87.76c.04.05.09.09.14.12.06.03.11.08.13.15l.17.66c.02.07.01.15-.02.22,0,.02-.02.04-.03.05l-.11.14c-.04.05-.09.09-.15.11.23.35.47.66.73.92.51.53,1.08.9,1.7,1.11,1.19.4,2.25.09,2.65-.07.89-.34,1.53-1,2-1.48ZM18.6,28.92c-.16.04-.3,0-.4-.05-.12-.06-.2-.16-.26-.27,0,0,0,0,0-.01h0s0,0,0,0c-.09-.19-.08-.42.03-.62.09-.15.21-.26.34-.37.32-.27.67-.47,1.04-.66l-.02-.16.19.06.43-.2s.71-.32.9-.66c.02-.03.02-.07.02-.1,0,0,0,0,0-.01,0,0,0,0,0,0,0,0,0,0,0,0,0,0,0,0,0,0h0s0,0,0-.01c-.01-.02-.03-.04-.04-.06l-.05-.04s-.09-.02-.12.01c-.07.09-.22.21-.34,0-.1-.18.08-.24.24-.26.15-.02.3.03.41.14.04.04.07.08.09.13,0,0,0,0,0,0,0,0,0,.01,0,.02h0s0,0,0,0h0s0,.01,0,.02h0s0,0,0,.01c0,0,0,.01,0,.02.04.12.02.24-.04.36-.11.2-.26.38-.44.52-.25.2-.54.33-.82.48l-.06.14-.13-.09-.62.36s-.53.24-.86.8c-.02.03-.02.07,0,.1,0,0,0,0,0,0h0s0,0,0,.01c.01.02.03.04.06.06l.15.06s.1,0,.13-.04c.07-.13.24-.34.46-.05,0,0,.13.27-.31.38ZM18.36,30.38h0c.1-.1.19-.2.28-.28.35-.33.72-.4.98-.4-.06-.08-.1-.17-.14-.25-.26-.64.02-1.31.83-2,1.21-1.04,2.35-1.13,2.47-1.14.58-.05.9.18,1.07.38.09.1.15.23.18.36.38-.46,1.21-.59,1.85-.62.55-.03,1.08-.18,1.54-.43.6-.33,1.01-.77,1.22-1.33.54-1.41.16-2.7.1-2.91l-7.01,3.12-.13-.31-2.7,1.17.2.5-.16.06-.2-.49-2.54.93.1.25c.04.09-.01.19-.1.21l-.33.09c-.24.07-.49.1-.74.1-.07,0-.14,0-.22,0-.53,0-1.32.06-1.91.3l-1.87.76c.04.05.09.09.14.12.06.03.11.08.13.15l.17.66c.02.07.01.15-.02.22,0,.02-.02.04-.03.05l-.11.14c-.04.05-.09.09-.15.11.23.35.47.66.73.92.51.53,1.08.9,1.7,1.11,1.19.4,2.25.09,2.65-.07.89-.34,1.53-1,2-1.48ZM18.6,28.92c-.16.04-.3,0-.4-.05-.12-.06-.2-.16-.26-.27,0,0,0,0,0-.01h0s0,0,0,0c-.09-.19-.08-.42.03-.62.09-.15.21-.26.34-.37.32-.27.67-.47,1.04-.66l-.02-.16.19.06.43-.2s.71-.32.9-.66c.02-.03.02-.07.02-.1,0,0,0,0,0-.01,0,0,0,0,0,0,0,0,0,0,0,0,0,0,0,0,0,0h0s0,0,0-.01c-.01-.02-.03-.04-.04-.06l-.05-.04s-.09-.02-.12.01c-.07.09-.22.21-.34,0-.1-.18.08-.24.24-.26.15-.02.3.03.41.14.04.04.07.08.09.13,0,0,0,0,0,0,0,0,0,.01,0,.02h0s0,0,0,0h0s0,.01,0,.02h0s0,0,0,.01c0,0,0,.01,0,.02.04.12.02.24-.04.36-.11.2-.26.38-.44.52-.25.2-.54.33-.82.48l-.06.14-.13-.09-.62.36s-.53.24-.86.8c-.02.03-.02.07,0,.1,0,0,0,0,0,0h0s0,0,0,.01c.01.02.03.04.06.06l.15.06s.1,0,.13-.04c.07-.13.24-.34.46-.05,0,0,.13.27-.31.38ZM18.36,30.38h0c.1-.1.19-.2.28-.28.35-.33.72-.4.98-.4-.06-.08-.1-.17-.14-.25-.26-.64.02-1.31.83-2,1.21-1.04,2.35-1.13,2.47-1.14.58-.05.9.18,1.07.38.09.1.15.23.18.36.38-.46,1.21-.59,1.85-.62.55-.03,1.08-.18,1.54-.43.6-.33,1.01-.77,1.22-1.33.54-1.41.16-2.7.1-2.91l-7.01,3.12-.13-.31-2.7,1.17.2.5-.16.06-.2-.49-2.54.93.1.25c.04.09-.01.19-.1.21l-.33.09c-.24.07-.49.1-.74.1-.07,0-.14,0-.22,0-.53,0-1.32.06-1.91.3l-1.87.76c.04.05.09.09.14.12.06.03.11.08.13.15l.17.66c.02.07.01.15-.02.22,0,.02-.02.04-.03.05l-.11.14c-.04.05-.09.09-.15.11.23.35.47.66.73.92.51.53,1.08.9,1.7,1.11,1.19.4,2.25.09,2.65-.07.89-.34,1.53-1,2-1.48ZM18.6,28.92c-.16.04-.3,0-.4-.05-.12-.06-.2-.16-.26-.27,0,0,0,0,0-.01h0s0,0,0,0c-.09-.19-.08-.42.03-.62.09-.15.21-.26.34-.37.32-.27.67-.47,1.04-.66l-.02-.16.19.06.43-.2s.71-.32.9-.66c.02-.03.02-.07.02-.1,0,0,0,0,0-.01,0,0,0,0,0,0,0,0,0,0,0,0,0,0,0,0,0,0h0s0,0,0-.01c-.01-.02-.03-.04-.04-.06l-.05-.04s-.09-.02-.12.01c-.07.09-.22.21-.34,0-.1-.18.08-.24.24-.26.15-.02.3.03.41.14.04.04.07.08.09.13,0,0,0,0,0,0,0,0,0,.01,0,.02h0s0,0,0,0h0s0,.01,0,.02h0s0,0,0,.01c0,0,0,.01,0,.02.04.12.02.24-.04.36-.11.2-.26.38-.44.52-.25.2-.54.33-.82.48l-.06.14-.13-.09-.62.36s-.53.24-.86.8c-.02.03-.02.07,0,.1,0,0,0,0,0,0h0s0,0,0,.01c.01.02.03.04.06.06l.15.06s.1,0,.13-.04c.07-.13.24-.34.46-.05,0,0,.13.27-.31.38ZM18.36,30.38h0c.1-.1.19-.2.28-.28.35-.33.72-.4.98-.4-.06-.08-.1-.17-.14-.25-.26-.64.02-1.31.83-2,1.21-1.04,2.35-1.13,2.47-1.14.58-.05.9.18,1.07.38.09.1.15.23.18.36.38-.46,1.21-.59,1.85-.62.55-.03,1.08-.18,1.54-.43.6-.33,1.01-.77,1.22-1.33.54-1.41.16-2.7.1-2.91l-7.01,3.12-.13-.31-2.7,1.17.2.5-.16.06-.2-.49-2.54.93.1.25c.04.09-.01.19-.1.21l-.33.09c-.24.07-.49.1-.74.1-.07,0-.14,0-.22,0-.53,0-1.32.06-1.91.3l-1.87.76c.04.05.09.09.14.12.06.03.11.08.13.15l.17.66c.02.07.01.15-.02.22,0,.02-.02.04-.03.05l-.11.14c-.04.05-.09.09-.15.11.23.35.47.66.73.92.51.53,1.08.9,1.7,1.11,1.19.4,2.25.09,2.65-.07.89-.34,1.53-1,2-1.48ZM18.6,28.92c-.16.04-.3,0-.4-.05-.12-.06-.2-.16-.26-.27,0,0,0,0,0-.01h0s0,0,0,0c-.09-.19-.08-.42.03-.62.09-.15.21-.26.34-.37.32-.27.67-.47,1.04-.66l-.02-.16.19.06.43-.2s.71-.32.9-.66c.02-.03.02-.07.02-.1,0,0,0,0,0-.01,0,0,0,0,0,0,0,0,0,0,0,0,0,0,0,0,0,0h0s0,0,0-.01c-.01-.02-.03-.04-.04-.06l-.05-.04s-.09-.02-.12.01c-.07.09-.22.21-.34,0-.1-.18.08-.24.24-.26.15-.02.3.03.41.14.04.04.07.08.09.13,0,0,0,0,0,0,0,0,0,.01,0,.02h0s0,0,0,0h0s0,.01,0,.02h0s0,0,0,.01c0,0,0,.01,0,.02.04.12.02.24-.04.36-.11.2-.26.38-.44.52-.25.2-.54.33-.82.48l-.06.14-.13-.09-.62.36s-.53.24-.86.8c-.02.03-.02.07,0,.1,0,0,0,0,0,0h0s0,0,0,.01c.01.02.03.04.06.06l.15.06s.1,0,.13-.04c.07-.13.24-.34.46-.05,0,0,.13.27-.31.38ZM18.36,30.38h0c.1-.1.19-.2.28-.28.35-.33.72-.4.98-.4-.06-.08-.1-.17-.14-.25-.26-.64.02-1.31.83-2,1.21-1.04,2.35-1.13,2.47-1.14.58-.05.9.18,1.07.38.09.1.15.23.18.36.38-.46,1.21-.59,1.85-.62.55-.03,1.08-.18,1.54-.43.6-.33,1.01-.77,1.22-1.33.54-1.41.16-2.7.1-2.91l-7.01,3.12-.13-.31-2.7,1.17.2.5-.16.06-.2-.49-2.54.93.1.25c.04.09-.01.19-.1.21l-.33.09c-.24.07-.49.1-.74.1-.07,0-.14,0-.22,0-.53,0-1.32.06-1.91.3l-1.87.76c.04.05.09.09.14.12.06.03.11.08.13.15l.17.66c.02.07.01.15-.02.22,0,.02-.02.04-.03.05l-.11.14c-.04.05-.09.09-.15.11.23.35.47.66.73.92.51.53,1.08.9,1.7,1.11,1.19.4,2.25.09,2.65-.07.89-.34,1.53-1,2-1.48ZM18.6,28.92c-.16.04-.3,0-.4-.05-.12-.06-.2-.16-.26-.27,0,0,0,0,0-.01h0s0,0,0,0c-.09-.19-.08-.42.03-.62.09-.15.21-.26.34-.37.32-.27.67-.47,1.04-.66l-.02-.16.19.06.43-.2s.71-.32.9-.66c.02-.03.02-.07.02-.1,0,0,0,0,0-.01,0,0,0,0,0,0,0,0,0,0,0,0,0,0,0,0,0,0h0s0,0,0-.01c-.01-.02-.03-.04-.04-.06l-.05-.04s-.09-.02-.12.01c-.07.09-.22.21-.34,0-.1-.18.08-.24.24-.26.15-.02.3.03.41.14.04.04.07.08.09.13,0,0,0,0,0,0,0,0,0,.01,0,.02h0s0,0,0,0h0s0,.01,0,.02h0s0,0,0,.01c0,0,0,.01,0,.02.04.12.02.24-.04.36-.11.2-.26.38-.44.52-.25.2-.54.33-.82.48l-.06.14-.13-.09-.62.36s-.53.24-.86.8c-.02.03-.02.07,0,.1,0,0,0,0,0,0h0s0,0,0,.01c.01.02.03.04.06.06l.15.06s.1,0,.13-.04c.07-.13.24-.34.46-.05,0,0,.13.27-.31.38ZM18.36,30.38h0c.1-.1.19-.2.28-.28.35-.33.72-.4.98-.4-.06-.08-.1-.17-.14-.25-.26-.64.02-1.31.83-2,1.21-1.04,2.35-1.13,2.47-1.14.58-.05.9.18,1.07.38.09.1.15.23.18.36.38-.46,1.21-.59,1.85-.62.55-.03,1.08-.18,1.54-.43.6-.33,1.01-.77,1.22-1.33.54-1.41.16-2.7.1-2.91l-7.01,3.12-.13-.31-2.7,1.17.2.5-.16.06-.2-.49-2.54.93.1.25c.04.09-.01.19-.1.21l-.33.09c-.24.07-.49.1-.74.1-.07,0-.14,0-.22,0-.53,0-1.32.06-1.91.3l-1.87.76c.04.05.09.09.14.12.06.03.11.08.13.15l.17.66c.02.07.01.15-.02.22,0,.02-.02.04-.03.05l-.11.14c-.04.05-.09.09-.15.11.23.35.47.66.73.92.51.53,1.08.9,1.7,1.11,1.19.4,2.25.09,2.65-.07.89-.34,1.53-1,2-1.48ZM18.6,28.92c-.16.04-.3,0-.4-.05-.12-.06-.2-.16-.26-.27,0,0,0,0,0-.01h0s0,0,0,0c-.09-.19-.08-.42.03-.62.09-.15.21-.26.34-.37.32-.27.67-.47,1.04-.66l-.02-.16.19.06.43-.2s.71-.32.9-.66c.02-.03.02-.07.02-.1,0,0,0,0,0-.01,0,0,0,0,0,0,0,0,0,0,0,0,0,0,0,0,0,0h0s0,0,0-.01c-.01-.02-.03-.04-.04-.06l-.05-.04s-.09-.02-.12.01c-.07.09-.22.21-.34,0-.1-.18.08-.24.24-.26.15-.02.3.03.41.14.04.04.07.08.09.13,0,0,0,0,0,0,0,0,0,.01,0,.02h0s0,0,0,0h0s0,.01,0,.02h0s0,0,0,.01c0,0,0,.01,0,.02.04.12.02.24-.04.36-.11.2-.26.38-.44.52-.25.2-.54.33-.82.48l-.06.14-.13-.09-.62.36s-.53.24-.86.8c-.02.03-.02.07,0,.1,0,0,0,0,0,0h0s0,0,0,.01c.01.02.03.04.06.06l.15.06s.1,0,.13-.04c.07-.13.24-.34.46-.05,0,0,.13.27-.31.38ZM18.36,30.38h0c.1-.1.19-.2.28-.28.35-.33.72-.4.98-.4-.06-.08-.1-.17-.14-.25-.26-.64.02-1.31.83-2,1.21-1.04,2.35-1.13,2.47-1.14.58-.05.9.18,1.07.38.09.1.15.23.18.36.38-.46,1.21-.59,1.85-.62.55-.03,1.08-.18,1.54-.43.6-.33,1.01-.77,1.22-1.33.54-1.41.16-2.7.1-2.91l-7.01,3.12-.13-.31-2.7,1.17.2.5-.16.06-.2-.49-2.54.93.1.25c.04.09-.01.19-.1.21l-.33.09c-.24.07-.49.1-.74.1-.07,0-.14,0-.22,0-.53,0-1.32.06-1.91.3l-1.87.76c.04.05.09.09.14.12.06.03.11.08.13.15l.17.66c.02.07.01.15-.02.22,0,.02-.02.04-.03.05l-.11.14c-.04.05-.09.09-.15.11.23.35.47.66.73.92.51.53,1.08.9,1.7,1.11,1.19.4,2.25.09,2.65-.07.89-.34,1.53-1,2-1.48ZM18.6,28.92c-.16.04-.3,0-.4-.05-.12-.06-.2-.16-.26-.27,0,0,0,0,0-.01h0s0,0,0,0c-.09-.19-.08-.42.03-.62.09-.15.21-.26.34-.37.32-.27.67-.47,1.04-.66l-.02-.16.19.06.43-.2s.71-.32.9-.66c.02-.03.02-.07.02-.1,0,0,0,0,0-.01,0,0,0,0,0,0,0,0,0,0,0,0,0,0,0,0,0,0h0s0,0,0-.01c-.01-.02-.03-.04-.04-.06l-.05-.04s-.09-.02-.12.01c-.07.09-.22.21-.34,0-.1-.18.08-.24.24-.26.15-.02.3.03.41.14.04.04.07.08.09.13,0,0,0,0,0,0,0,0,0,.01,0,.02h0s0,0,0,0h0s0,.01,0,.02h0s0,0,0,.01c0,0,0,.01,0,.02.04.12.02.24-.04.36-.11.2-.26.38-.44.52-.25.2-.54.33-.82.48l-.06.14-.13-.09-.62.36s-.53.24-.86.8c-.02.03-.02.07,0,.1,0,0,0,0,0,0h0s0,0,0,.01c.01.02.03.04.06.06l.15.06s.1,0,.13-.04c.07-.13.24-.34.46-.05,0,0,.13.27-.31.38ZM18.85,30.32c.5-.48,1.05-.26,1.05-.26l.19-.26c-.42-.41-.77-1.1.42-2.11,1.19-1.01,2.3-1.07,2.3-1.07.44-.04.69.12.82.27.1.12.15.28.14.43v.05c-.01.1.07.18.16.17h.09c.06-.01.11-.04.14-.09h0s.02-.04.03-.05c.2-.52,1.19-.64,1.72-.67.58-.03,1.16-.18,1.67-.47.53-.29,1.08-.75,1.36-1.48.61-1.59.14-3.01.09-3.14l-.23.1c.06.19.46,1.51-.1,2.95-.22.56-.64,1.02-1.24,1.35-.47.26-1.01.41-1.56.43-.65.03-1.5.17-1.84.65l-.04.05v-.06c-.04-.15-.1-.28-.2-.4-.16-.19-.47-.4-1.03-.36-.12,0-1.24.1-2.44,1.13-.79.67-1.06,1.32-.81,1.94.04.1.09.2.16.29l.03.05h-.06c-.26-.02-.64.03-1,.37-.09.08-.18.18-.27.27h0c-.48.49-1.13,1.15-2.03,1.49-.41.16-1.48.48-2.69.07-.62-.21-1.2-.59-1.72-1.12-.26-.27-.51-.59-.74-.94l.02-.02c-.15.05-.33,0-.43-.16,0,0,0,0,0-.01,0,0,0,0,0,.01,1.96,3.3,4.62,2.79,5.64,2.4,1.14-.44,1.88-1.34,2.38-1.82ZM11.57,29.59s-.02.04-.03.05l-.11.14c-.04.05-.09.09-.15.11.23.35.47.66.73.92.51.53,1.08.9,1.7,1.11,1.19.4,2.25.09,2.65-.07.89-.34,1.53-1,2-1.48h0c.1-.1.19-.2.28-.28.35-.33.72-.4.98-.4-.06-.08-.1-.17-.14-.25-.26-.64.02-1.31.83-2,1.21-1.04,2.35-1.13,2.47-1.14.58-.05.9.18,1.07.38.09.1.15.23.18.36.38-.46,1.21-.59,1.85-.62.55-.03,1.08-.18,1.54-.43.6-.33,1.01-.77,1.22-1.33.54-1.41.16-2.7.1-2.91l-7.01,3.12-.13-.31-2.7,1.17.2.5-.16.06-.2-.49-2.54.93.1.25c.04.09-.01.19-.1.21l-.33.09c-.24.07-.49.1-.74.1-.07,0-.14,0-.22,0-.53,0-1.32.06-1.91.3l-1.87.76c.04.05.09.09.14.12.06.03.11.08.13.15l.17.66c.02.07.01.15-.02.22ZM20.64,25.73c-.07.09-.22.21-.34,0-.1-.18.08-.24.24-.26.15-.02.3.03.41.14.04.04.07.08.09.13,0,0,0,0,0,0,0,0,0,.01,0,.02h0s0,0,0,0h0s0,.01,0,.02h0s0,0,0,.01c0,0,0,.01,0,.02.04.12.02.24-.04.36-.11.2-.26.38-.44.52-.25.2-.54.33-.82.48l-.06.14-.13-.09-.62.36s-.53.24-.86.8c-.02.03-.02.07,0,.1,0,0,0,0,0,0h0s0,0,0,.01c.01.02.03.04.06.06l.15.06s.1,0,.13-.04c.07-.13.24-.34.46-.05,0,0,.13.27-.31.38-.16.04-.3,0-.4-.05-.12-.06-.2-.16-.26-.27,0,0,0,0,0-.01h0s0,0,0,0c-.09-.19-.08-.42.03-.62.09-.15.21-.26.34-.37.32-.27.67-.47,1.04-.66l-.02-.16.19.06.43-.2s.71-.32.9-.66c.02-.03.02-.07.02-.1,0,0,0,0,0-.01,0,0,0,0,0,0,0,0,0,0,0,0,0,0,0,0,0,0h0s0,0,0-.01c-.01-.02-.03-.04-.04-.06l-.05-.04s-.09-.02-.12.01ZM18.36,30.38h0c.1-.1.19-.2.28-.28.35-.33.72-.4.98-.4-.06-.08-.1-.17-.14-.25-.26-.64.02-1.31.83-2,1.21-1.04,2.35-1.13,2.47-1.14.58-.05.9.18,1.07.38.09.1.15.23.18.36.38-.46,1.21-.59,1.85-.62.55-.03,1.08-.18,1.54-.43.6-.33,1.01-.77,1.22-1.33.54-1.41.16-2.7.1-2.91l-7.01,3.12-.13-.31-2.7,1.17.2.5-.16.06-.2-.49-2.54.93.1.25c.04.09-.01.19-.1.21l-.33.09c-.24.07-.49.1-.74.1-.07,0-.14,0-.22,0-.53,0-1.32.06-1.91.3l-1.87.76c.04.05.09.09.14.12.06.03.11.08.13.15l.17.66c.02.07.01.15-.02.22,0,.02-.02.04-.03.05l-.11.14c-.04.05-.09.09-.15.11.23.35.47.66.73.92.51.53,1.08.9,1.7,1.11,1.19.4,2.25.09,2.65-.07.89-.34,1.53-1,2-1.48ZM18.6,28.92c-.16.04-.3,0-.4-.05-.12-.06-.2-.16-.26-.27,0,0,0,0,0-.01h0s0,0,0,0c-.09-.19-.08-.42.03-.62.09-.15.21-.26.34-.37.32-.27.67-.47,1.04-.66l-.02-.16.19.06.43-.2s.71-.32.9-.66c.02-.03.02-.07.02-.1,0,0,0,0,0-.01,0,0,0,0,0,0,0,0,0,0,0,0,0,0,0,0,0,0h0s0,0,0-.01c-.01-.02-.03-.04-.04-.06l-.05-.04s-.09-.02-.12.01c-.07.09-.22.21-.34,0-.1-.18.08-.24.24-.26.15-.02.3.03.41.14.04.04.07.08.09.13,0,0,0,0,0,0,0,0,0,.01,0,.02h0s0,0,0,0h0s0,.01,0,.02h0s0,0,0,.01c0,0,0,.01,0,.02.04.12.02.24-.04.36-.11.2-.26.38-.44.52-.25.2-.54.33-.82.48l-.06.14-.13-.09-.62.36s-.53.24-.86.8c-.02.03-.02.07,0,.1,0,0,0,0,0,0h0s0,0,0,.01c.01.02.03.04.06.06l.15.06s.1,0,.13-.04c.07-.13.24-.34.46-.05,0,0,.13.27-.31.38ZM18.36,30.38h0c.1-.1.19-.2.28-.28.35-.33.72-.4.98-.4-.06-.08-.1-.17-.14-.25-.26-.64.02-1.31.83-2,1.21-1.04,2.35-1.13,2.47-1.14.58-.05.9.18,1.07.38.09.1.15.23.18.36.38-.46,1.21-.59,1.85-.62.55-.03,1.08-.18,1.54-.43.6-.33,1.01-.77,1.22-1.33.54-1.41.16-2.7.1-2.91l-7.01,3.12-.13-.31-2.7,1.17.2.5-.16.06-.2-.49-2.54.93.1.25c.04.09-.01.19-.1.21l-.33.09c-.24.07-.49.1-.74.1-.07,0-.14,0-.22,0-.53,0-1.32.06-1.91.3l-1.87.76c.04.05.09.09.14.12.06.03.11.08.13.15l.17.66c.02.07.01.15-.02.22,0,.02-.02.04-.03.05l-.11.14c-.04.05-.09.09-.15.11.23.35.47.66.73.92.51.53,1.08.9,1.7,1.11,1.19.4,2.25.09,2.65-.07.89-.34,1.53-1,2-1.48ZM18.6,28.92c-.16.04-.3,0-.4-.05-.12-.06-.2-.16-.26-.27,0,0,0,0,0-.01h0s0,0,0,0c-.09-.19-.08-.42.03-.62.09-.15.21-.26.34-.37.32-.27.67-.47,1.04-.66l-.02-.16.19.06.43-.2s.71-.32.9-.66c.02-.03.02-.07.02-.1,0,0,0,0,0-.01,0,0,0,0,0,0,0,0,0,0,0,0,0,0,0,0,0,0h0s0,0,0-.01c-.01-.02-.03-.04-.04-.06l-.05-.04s-.09-.02-.12.01c-.07.09-.22.21-.34,0-.1-.18.08-.24.24-.26.15-.02.3.03.41.14.04.04.07.08.09.13,0,0,0,0,0,0,0,0,0,.01,0,.02h0s0,0,0,0h0s0,.01,0,.02h0s0,0,0,.01c0,0,0,.01,0,.02.04.12.02.24-.04.36-.11.2-.26.38-.44.52-.25.2-.54.33-.82.48l-.06.14-.13-.09-.62.36s-.53.24-.86.8c-.02.03-.02.07,0,.1,0,0,0,0,0,0h0s0,0,0,.01c.01.02.03.04.06.06l.15.06s.1,0,.13-.04c.07-.13.24-.34.46-.05,0,0,.13.27-.31.38ZM18.36,30.38h0c.1-.1.19-.2.28-.28.35-.33.72-.4.98-.4-.06-.08-.1-.17-.14-.25-.26-.64.02-1.31.83-2,1.21-1.04,2.35-1.13,2.47-1.14.58-.05.9.18,1.07.38.09.1.15.23.18.36.38-.46,1.21-.59,1.85-.62.55-.03,1.08-.18,1.54-.43.6-.33,1.01-.77,1.22-1.33.54-1.41.16-2.7.1-2.91l-7.01,3.12-.13-.31-2.7,1.17.2.5-.16.06-.2-.49-2.54.93.1.25c.04.09-.01.19-.1.21l-.33.09c-.24.07-.49.1-.74.1-.07,0-.14,0-.22,0-.53,0-1.32.06-1.91.3l-1.87.76c.04.05.09.09.14.12.06.03.11.08.13.15l.17.66c.02.07.01.15-.02.22,0,.02-.02.04-.03.05l-.11.14c-.04.05-.09.09-.15.11.23.35.47.66.73.92.51.53,1.08.9,1.7,1.11,1.19.4,2.25.09,2.65-.07.89-.34,1.53-1,2-1.48ZM18.6,28.92c-.16.04-.3,0-.4-.05-.12-.06-.2-.16-.26-.27,0,0,0,0,0-.01h0s0,0,0,0c-.09-.19-.08-.42.03-.62.09-.15.21-.26.34-.37.32-.27.67-.47,1.04-.66l-.02-.16.19.06.43-.2s.71-.32.9-.66c.02-.03.02-.07.02-.1,0,0,0,0,0-.01,0,0,0,0,0,0,0,0,0,0,0,0,0,0,0,0,0,0h0s0,0,0-.01c-.01-.02-.03-.04-.04-.06l-.05-.04s-.09-.02-.12.01c-.07.09-.22.21-.34,0-.1-.18.08-.24.24-.26.15-.02.3.03.41.14.04.04.07.08.09.13,0,0,0,0,0,0,0,0,0,.01,0,.02h0s0,0,0,0h0s0,.01,0,.02h0s0,0,0,.01c0,0,0,.01,0,.02.04.12.02.24-.04.36-.11.2-.26.38-.44.52-.25.2-.54.33-.82.48l-.06.14-.13-.09-.62.36s-.53.24-.86.8c-.02.03-.02.07,0,.1,0,0,0,0,0,0h0s0,0,0,.01c.01.02.03.04.06.06l.15.06s.1,0,.13-.04c.07-.13.24-.34.46-.05,0,0,.13.27-.31.38ZM18.36,30.38h0c.1-.1.19-.2.28-.28.35-.33.72-.4.98-.4-.06-.08-.1-.17-.14-.25-.26-.64.02-1.31.83-2,1.21-1.04,2.35-1.13,2.47-1.14.58-.05.9.18,1.07.38.09.1.15.23.18.36.38-.46,1.21-.59,1.85-.62.55-.03,1.08-.18,1.54-.43.6-.33,1.01-.77,1.22-1.33.54-1.41.16-2.7.1-2.91l-7.01,3.12-.13-.31-2.7,1.17.2.5-.16.06-.2-.49-2.54.93.1.25c.04.09-.01.19-.1.21l-.33.09c-.24.07-.49.1-.74.1-.07,0-.14,0-.22,0-.53,0-1.32.06-1.91.3l-1.87.76c.04.05.09.09.14.12.06.03.11.08.13.15l.17.66c.02.07.01.15-.02.22,0,.02-.02.04-.03.05l-.11.14c-.04.05-.09.09-.15.11.23.35.47.66.73.92.51.53,1.08.9,1.7,1.11,1.19.4,2.25.09,2.65-.07.89-.34,1.53-1,2-1.48ZM18.6,28.92c-.16.04-.3,0-.4-.05-.12-.06-.2-.16-.26-.27,0,0,0,0,0-.01h0s0,0,0,0c-.09-.19-.08-.42.03-.62.09-.15.21-.26.34-.37.32-.27.67-.47,1.04-.66l-.02-.16.19.06.43-.2s.71-.32.9-.66c.02-.03.02-.07.02-.1,0,0,0,0,0-.01,0,0,0,0,0,0,0,0,0,0,0,0,0,0,0,0,0,0h0s0,0,0-.01c-.01-.02-.03-.04-.04-.06l-.05-.04s-.09-.02-.12.01c-.07.09-.22.21-.34,0-.1-.18.08-.24.24-.26.15-.02.3.03.41.14.04.04.07.08.09.13,0,0,0,0,0,0,0,0,0,.01,0,.02h0s0,0,0,0h0s0,.01,0,.02h0s0,0,0,.01c0,0,0,.01,0,.02.04.12.02.24-.04.36-.11.2-.26.38-.44.52-.25.2-.54.33-.82.48l-.06.14-.13-.09-.62.36s-.53.24-.86.8c-.02.03-.02.07,0,.1,0,0,0,0,0,0h0s0,0,0,.01c.01.02.03.04.06.06l.15.06s.1,0,.13-.04c.07-.13.24-.34.46-.05,0,0,.13.27-.31.38ZM18.36,30.38h0c.1-.1.19-.2.28-.28.35-.33.72-.4.98-.4-.06-.08-.1-.17-.14-.25-.26-.64.02-1.31.83-2,1.21-1.04,2.35-1.13,2.47-1.14.58-.05.9.18,1.07.38.09.1.15.23.18.36.38-.46,1.21-.59,1.85-.62.55-.03,1.08-.18,1.54-.43.6-.33,1.01-.77,1.22-1.33.54-1.41.16-2.7.1-2.91l-7.01,3.12-.13-.31-2.7,1.17.2.5-.16.06-.2-.49-2.54.93.1.25c.04.09-.01.19-.1.21l-.33.09c-.24.07-.49.1-.74.1-.07,0-.14,0-.22,0-.53,0-1.32.06-1.91.3l-1.87.76c.04.05.09.09.14.12.06.03.11.08.13.15l.17.66c.02.07.01.15-.02.22,0,.02-.02.04-.03.05l-.11.14c-.04.05-.09.09-.15.11.23.35.47.66.73.92.51.53,1.08.9,1.7,1.11,1.19.4,2.25.09,2.65-.07.89-.34,1.53-1,2-1.48ZM18.6,28.92c-.16.04-.3,0-.4-.05-.12-.06-.2-.16-.26-.27,0,0,0,0,0-.01h0s0,0,0,0c-.09-.19-.08-.42.03-.62.09-.15.21-.26.34-.37.32-.27.67-.47,1.04-.66l-.02-.16.19.06.43-.2s.71-.32.9-.66c.02-.03.02-.07.02-.1,0,0,0,0,0-.01,0,0,0,0,0,0,0,0,0,0,0,0,0,0,0,0,0,0h0s0,0,0-.01c-.01-.02-.03-.04-.04-.06l-.05-.04s-.09-.02-.12.01c-.07.09-.22.21-.34,0-.1-.18.08-.24.24-.26.15-.02.3.03.41.14.04.04.07.08.09.13,0,0,0,0,0,0,0,0,0,.01,0,.02h0s0,0,0,0h0s0,.01,0,.02h0s0,0,0,.01c0,0,0,.01,0,.02.04.12.02.24-.04.36-.11.2-.26.38-.44.52-.25.2-.54.33-.82.48l-.06.14-.13-.09-.62.36s-.53.24-.86.8c-.02.03-.02.07,0,.1,0,0,0,0,0,0h0s0,0,0,.01c.01.02.03.04.06.06l.15.06s.1,0,.13-.04c.07-.13.24-.34.46-.05,0,0,.13.27-.31.38ZM18.36,30.38h0c.1-.1.19-.2.28-.28.35-.33.72-.4.98-.4-.06-.08-.1-.17-.14-.25-.26-.64.02-1.31.83-2,1.21-1.04,2.35-1.13,2.47-1.14.58-.05.9.18,1.07.38.09.1.15.23.18.36.38-.46,1.21-.59,1.85-.62.55-.03,1.08-.18,1.54-.43.6-.33,1.01-.77,1.22-1.33.54-1.41.16-2.7.1-2.91l-7.01,3.12-.13-.31-2.7,1.17.2.5-.16.06-.2-.49-2.54.93.1.25c.04.09-.01.19-.1.21l-.33.09c-.24.07-.49.1-.74.1-.07,0-.14,0-.22,0-.53,0-1.32.06-1.91.3l-1.87.76c.04.05.09.09.14.12.06.03.11.08.13.15l.17.66c.02.07.01.15-.02.22,0,.02-.02.04-.03.05l-.11.14c-.04.05-.09.09-.15.11.23.35.47.66.73.92.51.53,1.08.9,1.7,1.11,1.19.4,2.25.09,2.65-.07.89-.34,1.53-1,2-1.48ZM18.6,28.92c-.16.04-.3,0-.4-.05-.12-.06-.2-.16-.26-.27,0,0,0,0,0-.01h0s0,0,0,0c-.09-.19-.08-.42.03-.62.09-.15.21-.26.34-.37.32-.27.67-.47,1.04-.66l-.02-.16.19.06.43-.2s.71-.32.9-.66c.02-.03.02-.07.02-.1,0,0,0,0,0-.01,0,0,0,0,0,0,0,0,0,0,0,0,0,0,0,0,0,0h0s0,0,0-.01c-.01-.02-.03-.04-.04-.06l-.05-.04s-.09-.02-.12.01c-.07.09-.22.21-.34,0-.1-.18.08-.24.24-.26.15-.02.3.03.41.14.04.04.07.08.09.13,0,0,0,0,0,0,0,0,0,.01,0,.02h0s0,0,0,0h0s0,.01,0,.02h0s0,0,0,.01c0,0,0,.01,0,.02.04.12.02.24-.04.36-.11.2-.26.38-.44.52-.25.2-.54.33-.82.48l-.06.14-.13-.09-.62.36s-.53.24-.86.8c-.02.03-.02.07,0,.1,0,0,0,0,0,0h0s0,0,0,.01c.01.02.03.04.06.06l.15.06s.1,0,.13-.04c.07-.13.24-.34.46-.05,0,0,.13.27-.31.38ZM18.36,30.38h0c.1-.1.19-.2.28-.28.35-.33.72-.4.98-.4-.06-.08-.1-.17-.14-.25-.26-.64.02-1.31.83-2,1.21-1.04,2.35-1.13,2.47-1.14.58-.05.9.18,1.07.38.09.1.15.23.18.36.38-.46,1.21-.59,1.85-.62.55-.03,1.08-.18,1.54-.43.6-.33,1.01-.77,1.22-1.33.54-1.41.16-2.7.1-2.91l-7.01,3.12-.13-.31-2.7,1.17.2.5-.16.06-.2-.49-2.54.93.1.25c.04.09-.01.19-.1.21l-.33.09c-.24.07-.49.1-.74.1-.07,0-.14,0-.22,0-.53,0-1.32.06-1.91.3l-1.87.76c.04.05.09.09.14.12.06.03.11.08.13.15l.17.66c.02.07.01.15-.02.22,0,.02-.02.04-.03.05l-.11.14c-.04.05-.09.09-.15.11.23.35.47.66.73.92.51.53,1.08.9,1.7,1.11,1.19.4,2.25.09,2.65-.07.89-.34,1.53-1,2-1.48ZM18.6,28.92c-.16.04-.3,0-.4-.05-.12-.06-.2-.16-.26-.27,0,0,0,0,0-.01h0s0,0,0,0c-.09-.19-.08-.42.03-.62.09-.15.21-.26.34-.37.32-.27.67-.47,1.04-.66l-.02-.16.19.06.43-.2s.71-.32.9-.66c.02-.03.02-.07.02-.1,0,0,0,0,0-.01,0,0,0,0,0,0,0,0,0,0,0,0,0,0,0,0,0,0h0s0,0,0-.01c-.01-.02-.03-.04-.04-.06l-.05-.04s-.09-.02-.12.01c-.07.09-.22.21-.34,0-.1-.18.08-.24.24-.26.15-.02.3.03.41.14.04.04.07.08.09.13,0,0,0,0,0,0,0,0,0,.01,0,.02h0s0,0,0,0h0s0,.01,0,.02h0s0,0,0,.01c0,0,0,.01,0,.02.04.12.02.24-.04.36-.11.2-.26.38-.44.52-.25.2-.54.33-.82.48l-.06.14-.13-.09-.62.36s-.53.24-.86.8c-.02.03-.02.07,0,.1,0,0,0,0,0,0h0s0,0,0,.01c.01.02.03.04.06.06l.15.06s.1,0,.13-.04c.07-.13.24-.34.46-.05,0,0,.13.27-.31.38Z"/>
    <path class="cls-1" d="M10.79,22.41s0,0,0,0l-.02-.02s.02.01.02.02Z"/>
    <path class="cls-1" d="M28.08,20.11s0,0,0-.02l.05-.02s0,0,0,.01l-.05.02Z"/>
    <path class="cls-1" d="M28.8,21.74l-.05.02s0-.02,0-.03l.05-.02s0,.01,0,.02Z"/>
    <path class="cls-1" d="M11.28,29.89s-.02,0-.03,0l.02-.02s0,0,0,0Z"/>
    <polygon points="35.48 17.64 35.19 17.75 35.1 17.52 35.39 17.42 35.48 17.64"/>
    <polygon points="35.59 17.91 35.3 18.02 35.21 17.8 35.5 17.69 35.59 17.91"/>
    <polygon points="35.61 17.96 35.69 18.15 35.4 18.27 35.32 18.07 35.61 17.96"/>
    <polygon points="35.77 18.38 35.49 18.5 35.42 18.32 35.71 18.2 35.78 18.38 35.77 18.38"/>
    <polygon points="35.58 18.72 35.51 18.55 35.8 18.43 35.86 18.59 35.58 18.72"/>
    <polygon points="35.19 17.75 20.94 22.92 20.86 22.73 28.07 20.09 28.12 20.07 28.36 19.99 35.1 17.52 35.19 17.75"/>
    <polygon points="35.3 18.02 21.15 23.44 20.96 22.97 35.21 17.8 35.3 18.02"/>
    <polygon points="35.4 18.27 21.38 24.01 21.17 23.49 35.32 18.07 35.4 18.27 35.4 18.27"/>
    <polygon points="35.49 18.5 21.59 24.52 21.4 24.06 35.42 18.32 35.42 18.32 35.49 18.5"/>
    <polygon points="21.74 24.88 21.61 24.57 35.51 18.55 35.58 18.72 29.02 21.64 28.8 21.74 28.74 21.76 21.74 24.88"/>
    <path d="M11.28,29.89s-.02,0-.03,0c-.15.05-.33,0-.43-.16,0,0,0,0,0-.01-.24-.41-.47-.88-.69-1.41-.37-.92-.58-1.73-.65-2.44h0s.01.04.02.06c0,0,0,.01,0,.02h0s0,0,0,.01c0,.02,0,.03.01.05,0,.02.01.04.02.06,0,0,0,0,0,0,0,.02.01.03.02.05h0s.01.04.02.06c.11.31.25.59.38.84.01.02.02.04.03.06,0,0,.01.02.02.03.01.02.02.04.03.06.02.03.03.06.05.08.01.02.02.04.03.05.09.13.17.25.25.35.01.01.02.03.03.04.02.02.03.04.05.06.01.02.03.03.04.05.03.03.05.06.07.09,0,.01.02.02.03.03.01.01.03.03.04.04,0,0,.02.02.02.03.01.01.02.03.03.04.08.09.15.19.2.3.02.04.04.08.06.12l.03.06h0s.41.94.41.94l.17.14s-.02.04-.03.05l-.11.14c-.04.05-.09.09-.15.11Z"/>
    <path class="cls-1" d="M10.78,22.41l-.02-.02s.02.01.02.02c0,0,0,0,0,0Z"/>
    <path class="cls-1" d="M10.72,27.79c-.29-.33-.87-.84-1.17-1.66h0s0,0,0-.01c0-.01,0-.02-.01-.04,0,0,0,0,0,0,0-.02-.01-.04-.02-.06,0-.01,0-.02-.01-.04,0,0,0,0,0-.01,0,0,0,0,0,0h0s0-.01,0-.02c0-.02-.01-.04-.02-.06h0c-.09-.85,0-1.55.18-2.15,0-.02.01-.04.02-.06,0,0,0,0,0,0,.17-.5.42-.92.7-1.26.18.11.7.41,1.04.75.24.24.43.5.58.76.03.06.07.13.1.19.18.39.27.79.26,1.22h0s0,.01,0,.01c0,0,0,.22-.13.54-.13.3-.42.74-1.04,1.17h0s0,0,0,0c-.02.02-.42.33-.46.74Z"/>
    <path class="cls-1" d="M10.69,28.04s-.02-.03-.03-.04c0,0-.02-.02-.02-.03,0,0,.02.02.02.03.01.01.02.03.03.04Z"/>
    <path d="M10.72,27.79c-.29-.33-.87-.84-1.17-1.66h0s0,0,0-.01c-.02-.05-.03-.1-.05-.14,0,0,0,0,0-.01,0,0,0,0,0,0h0s0-.01,0-.02c0-.02-.01-.04-.02-.06h0c-.09-.85,0-1.55.18-2.15,0-.02.01-.04.02-.06,0,0,0,0,0,0,.16-.47.39-.89.7-1.26.18.11.7.41,1.04.75.24.24.43.5.58.76.03.06.07.13.1.19.18.39.27.79.26,1.22h0s0,.01,0,.01c0,0,0,.22-.13.54-.13.3-.42.74-1.04,1.17h0s0,0,0,0c-.02.02-.42.33-.46.74Z"/>
    <path class="cls-1" d="M14.4,25.94c-.08.03-.18,0-.21-.09-.02-.06,0-.13.04-.17.01-.01.03-.03.05-.04.08-.03.18,0,.21.09.03.08,0,.18-.09.21Z"/>
    <path class="cls-1" d="M15.49,25.5l-.58.23c-.08.03-.18,0-.21-.09-.03-.08,0-.18.09-.21l.58-.23s.06,0,.07.03l.02.04-.14.07-.17.09s-.02.02-.01.04h0s.02.02.04.01l.17-.09.14-.07.04.1s0,.06-.03.07Z"/>
    <path class="cls-1" d="M15.67,25.96l-.58.23c-.08.03-.18,0-.21-.09-.03-.08,0-.18.09-.21l.58-.23s.06,0,.07.03l.02.06-.14.06-.18.08s-.02.02-.01.04h0s.02.02.04.01l.17-.08.14-.06.03.09s0,.06-.03.07Z"/>
    <path class="cls-1" d="M14.59,26.4c-.08.03-.18,0-.21-.09-.03-.08,0-.18.09-.21.08-.03.18,0,.21.09s0,.18-.09.21Z"/>
    <path class="cls-1" d="M15.87,26.45l-.58.23c-.08.03-.18,0-.21-.09-.03-.08,0-.18.09-.21l.58-.23s.06,0,.07.03l.03.07-.14.06-.18.07s-.02.02-.02.04h0s.02.02.04.02l.18-.07.14-.06.03.07s0,.06-.03.07Z"/>
    <path class="cls-1" d="M14.79,26.89c-.08.03-.18,0-.21-.09-.03-.08,0-.18.09-.21.08-.03.18,0,.21.09.03.08,0,.18-.09.21Z"/>
    <path class="cls-1" d="M14.98,27.36s-.04.01-.06.01c-.07,0-.13-.04-.15-.1-.03-.08,0-.18.09-.21.08-.03.18,0,.21.09.03.08,0,.18-.09.21Z"/>
    <path class="cls-1" d="M16.06,26.92l-.58.23c-.08.03-.18,0-.21-.09-.03-.08,0-.18.09-.21l.58-.23s.06,0,.07.03l.03.08-.14.05-.18.07s-.02.02-.02.04h0s.02.02.04.02l.18-.07.14-.05.02.06s0,.06-.03.07Z"/>
    <polygon class="cls-1" points="11 27.54 11 27.54 11 27.54 11 27.54"/>
    <polygon class="cls-1" points="10.97 27.61 10.97 27.6 10.97 27.6 10.97 27.6 10.97 27.61"/>
    <polygon points="35.8 18.43 35.8 18.43 35.8 18.43 36.63 18 36.63 18 36.68 17.97 37.02 17.82 37.42 17.64 37.42 17.64 37.76 17.48 37.98 17.38 38.33 17.23 38.5 17.15 38.28 16.62 38.11 16.68 37.75 16.81 37.52 16.89 37.16 17.02 36.76 17.16 36.4 17.29 36.09 17.4 35.87 17.48 35.87 17.48 35.74 17.53 35.74 17.53 35.73 17.53 35.47 17.62 35.39 17.42 35.65 17.32 36.01 17.2 36.33 17.08 36.69 16.96 37.08 16.82 37.44 16.69 37.67 16.61 38.03 16.48 38.4 16.35 38.77 17.26 38.42 17.42 38.42 17.42 38.41 17.43 38.07 17.58 38.07 17.58 38.06 17.58 37.12 18.02 37.11 18.02 37.11 18.02 36.77 18.17 36.76 18.18 35.86 18.59 35.8 18.43"/>
    <path d="M38.77,17.26l-.18-.46,1.88-.76s0,.01,0,.02l.07.1c.04.05.01.13-.05.16-.14.07-.28.14-.42.21-.31.16-.62.33-.92.5-.13.07-.26.15-.39.23Z"/>
    <path d="M40.47,16.04l-1.88.76-.18-.46c.15-.03.29-.07.44-.1.34-.08.67-.18,1.01-.28.15-.05.3-.09.44-.14.07-.02.13.02.14.08l.02.12s0,.01,0,.02Z"/>
    <g>
      <path d="M39.85,15.96c-.33.1-.67.2-1.01.28-.08-.2-.1-.34-.09-.4,0,0,0,0,0,0,0,0,0,0,0-.01.02-.02.05-.03.07-.01.09.08.39.06.62.03.08-.01.16-.02.21-.03.07-.01.13.02.15.07l.03.07v.02Z"/>
      <path d="M39.4,17.38s-.01,0-.02,0c0,0,0,0,0,0-.05-.04-.13-.14-.22-.34.3-.17.61-.34.92-.5h0s.03.08.03.08c.02.05,0,.11-.06.15-.05.03-.11.08-.18.12-.19.14-.42.33-.43.45,0,.03-.03.05-.06.04Z"/>
    </g>
    <g>
      <path d="M39.46,15.84c-.24.03-.53.05-.62-.03-.02-.02-.06,0-.07.01.02-.04.09-.15.27-.22l.12-.05c.09-.04.19,0,.22.07l.09.22h0Z"/>
      <path d="M39.86,17.3l-.12.05c-.18.07-.31.05-.35.03.03,0,.06-.01.06-.04,0-.12.23-.31.43-.45h0s.09.22.09.22c.03.07-.02.16-.11.2Z"/>
    </g>
    <g>
      <polygon points="36.01 17.2 35.65 17.32 35.28 16.42 35.64 16.27 36.01 17.2"/>
      <polygon points="37.44 16.69 37.08 16.82 36.69 15.85 37.04 15.71 37.44 16.69"/>
      <polygon points="38.88 18.58 38.52 18.73 38.06 17.58 38.07 17.58 38.07 17.58 38.41 17.43 38.88 18.58"/>
      <polygon points="37.58 19.19 37.23 19.34 36.76 18.18 36.77 18.17 37.11 18.02 37.58 19.19"/>
    </g>
    <g>
      <polygon points="36.12 17.48 35.75 17.54 35.74 17.55 35.74 17.55 35.73 17.53 35.74 17.53 35.87 17.48 35.87 17.48 36.09 17.4 36.12 17.48"/>
      <polygon points="36.19 17.64 35.84 17.79 35.76 17.6 36.13 17.53 36.14 17.53 36.14 17.53 36.19 17.64"/>
      <polygon points="36.3 17.91 35.95 18.05 35.86 17.84 36.21 17.69 36.3 17.91"/>
      <polygon points="36.02 18.25 35.97 18.1 36.32 17.96 36.36 18.07 36.02 18.25"/>
      <polygon points="37.57 17.02 37.23 17.17 37.16 17.02 37.52 16.89 37.57 17.02 37.57 17.02"/>
      <polygon points="37.71 17.36 37.36 17.5 37.25 17.22 37.59 17.07 37.71 17.36"/>
      <polygon points="37.42 17.64 37.38 17.55 37.73 17.41 37.76 17.48 37.42 17.64 37.42 17.64"/>
      <polygon points="38.29 17.13 37.93 17.27 37.75 16.81 38.11 16.68 38.29 17.13"/>
      <polygon points="37.98 17.38 37.95 17.32 38.31 17.18 38.31 17.18 38.33 17.23 37.98 17.38"/>
      <polygon points="36.83 17.35 36.49 17.5 36.4 17.29 36.76 17.16 36.83 17.35"/>
      <polygon points="36.86 17.4 36.96 17.65 36.6 17.79 36.51 17.55 36.86 17.4"/>
      <polygon points="36.99 17.74 36.66 17.92 36.63 17.84 36.98 17.7 36.99 17.74 36.99 17.74"/>
      <polygon points="36.68 17.97 36.68 17.97 37.02 17.79 37.02 17.82 36.68 17.97"/>
    </g>
    <g>
      <path d="M35.32,15.29h.08c.2,0,.35.16.35.35v.53c0,.2-.16.35-.35.35h-.08c-.28,0-.51-.23-.51-.51v-.22c0-.28.23-.51.51-.51Z" transform="translate(36.78 -22.77) rotate(67.95)"/>
      <path d="M36.73,14.72h.08c.2,0,.35.16.35.35v.53c0,.2-.16.35-.35.35h-.08c-.28,0-.51-.23-.51-.51v-.22c0-.28.23-.51.51-.51Z" transform="translate(37.13 -24.42) rotate(67.95)"/>
      <path d="M39.15,19.48l-.2.08c-.26.11-.56-.02-.66-.28l-.03-.07c-.07-.18.01-.39.19-.46l.49-.2c.18-.07.39.01.46.19l.03.07c.11.26-.02.56-.28.66Z"/>
      <path d="M37.86,20.09l-.2.08c-.26.11-.56-.02-.66-.28l-.03-.07c-.07-.18.01-.39.2-.46l.49-.2c.18-.07.39.01.46.19l.03.07c.11.26-.02.56-.28.66Z"/>
    </g>
    <g>
      <path d="M15.67,25.96l-.58.23c-.08.03-.18,0-.21-.09-.03-.08,0-.18.09-.21l.58-.23s.06,0,.07.03l.02.06-.14.06-.18.08s-.02.02-.01.04h0s.02.02.04.01l.17-.08.14-.06.03.09s0,.06-.03.07Z"/>
      <path d="M15.87,26.45l-.58.23c-.08.03-.18,0-.21-.09-.03-.08,0-.18.09-.21l.58-.23s.06,0,.07.03l.03.07-.14.06-.18.07s-.02.02-.02.04h0s.02.02.04.02l.18-.07.14-.06.03.07s0,.06-.03.07Z"/>
      <path d="M16.06,26.92l-.58.23c-.08.03-.18,0-.21-.09-.03-.08,0-.18.09-.21l.58-.23s.06,0,.07.03l.03.08-.14.05-.18.07s-.02.02-.02.04h0s.02.02.04.02l.18-.07.14-.05.02.06s0,.06-.03.07Z"/>
      <path d="M15.49,25.5l-.58.23c-.08.03-.18,0-.21-.09-.03-.08,0-.18.09-.21l.58-.23s.06,0,.07.03l.02.04-.14.07-.17.09s-.02.02-.01.04h0s.02.02.04.01l.17-.09.14-.07.04.1s0,.06-.03.07Z"/>
    </g>
    <g>
      <path d="M15.58,25.99l-.36.14-.12-.3.36-.14.05.12-.18.08s-.02.02-.01.04h0s.02.02.04.01l.17-.08.05.13Z"/>
      <path d="M15.78,26.49l-.36.14-.12-.3.36-.14.05.12-.18.07s-.02.02-.02.04h0s.02.02.04.02l.18-.07.05.12Z"/>
      <path d="M15.98,26.96l-.36.14-.12-.3.36-.14.05.13-.18.07s-.02.02-.02.04h0s.02.02.04.02l.18-.07.05.12Z"/>
      <path d="M15.4,25.54l-.36.14-.12-.3.36-.14.04.11-.17.09s-.02.02-.01.04h0s.02.02.04.01l.17-.09.06.14Z"/>
    </g>
    <g>
      <path d="M14.4,25.94c-.08.03-.18,0-.21-.09-.02-.06,0-.13.04-.17.01-.01.03-.03.05-.04.08-.03.18,0,.21.09.03.08,0,.18-.09.21Z"/>
      <path d="M14.59,26.4c-.08.03-.18,0-.21-.09-.03-.08,0-.18.09-.21.08-.03.18,0,.21.09s0,.18-.09.21Z"/>
      <path d="M14.79,26.89c-.08.03-.18,0-.21-.09-.03-.08,0-.18.09-.21.08-.03.18,0,.21.09.03.08,0,.18-.09.21Z"/>
      <path d="M14.98,27.36s-.04.01-.06.01c-.07,0-.13-.04-.15-.1-.03-.08,0-.18.09-.21.08-.03.18,0,.21.09.03.08,0,.18-.09.21Z"/>
    </g>
  </g>
</svg>